<svg xmlns="http://www.w3.org/2000/svg" width="403" height="323" fill="none" xmlns:v="https://vecta.io/nano"><g filter="url(#A)"><rect x="5" y="3" width="393" height="313" rx="5" fill="#fff"/></g><path d="M23.219 33.457c.156 1.234.527 2.113 1.113 2.637.594.523 1.465.785 2.613.785 1.219 0 2.16-.445 2.824-1.336.672-.891 1.031-2.176 1.078-3.855h-6.023v-2.391h6.023c-.062-1.687-.442-2.977-1.137-3.867-.687-.891-1.656-1.336-2.906-1.336-1.094 0-1.934.273-2.52.82-.578.547-.937 1.438-1.078 2.672h-2.953c.188-1.859.852-3.305 1.992-4.336 1.148-1.031 2.668-1.547 4.559-1.547 1.398 0 2.629.328 3.691.984s1.879 1.594 2.449 2.813c.578 1.219.871 2.629.879 4.23v1.441c0 1.617-.281 3.039-.844 4.266-.555 1.219-1.355 2.156-2.402 2.813s-2.258.984-3.633.984c-1.937 0-3.492-.508-4.664-1.523-1.172-1.023-1.844-2.441-2.016-4.254h2.953zm17.683.527h-1.441V39h-2.848V26.32h2.848v5.063h1.254l3.504-5.062h3.516l-4.582 6.07L48.121 39h-3.703l-3.516-5.016zm13.805 2.977c.711 0 1.301-.207 1.77-.621a2.12 2.12 0 0 0 .75-1.535h2.684c-.031.789-.277 1.527-.738 2.215-.461.68-1.086 1.219-1.875 1.617s-1.641.598-2.555.598c-1.773 0-3.18-.574-4.219-1.723s-1.559-2.734-1.559-4.758v-.293c0-1.93.516-3.473 1.547-4.629 1.031-1.164 2.438-1.746 4.219-1.746 1.508 0 2.734.441 3.68 1.324.953.875 1.453 2.027 1.5 3.457h-2.684c-.031-.727-.281-1.324-.75-1.793-.461-.469-1.051-.703-1.77-.703-.922 0-1.633.336-2.133 1.008-.5.664-.754 1.676-.762 3.035v.457c0 1.375.246 2.402.738 3.082.5.672 1.219 1.008 2.156 1.008zm11.859-2.977h-1.441V39h-2.848V26.32h2.848v5.063h1.254l3.504-5.062h3.516l-4.582 6.07L73.785 39h-3.703l-3.516-5.016zm19.559-7.664V39h-2.848V28.617h-3.586l-.234 4.418c-.148 2.125-.559 3.652-1.23 4.582-.664.922-1.684 1.383-3.059 1.383h-.879l-.012-2.367.586-.059c.625-.086 1.078-.465 1.359-1.137.289-.68.473-1.914.551-3.703l.234-5.414h9.117zm6.117 5.098h2.391c.211-1.617.836-2.91 1.875-3.879s2.352-1.453 3.937-1.453c1.711 0 3.098.551 4.16 1.652 1.071 1.102 1.649 2.563 1.735 4.383l.012.668c0 1.25-.243 2.367-.727 3.352-.477.984-1.164 1.746-2.063 2.285-.89.539-1.921.809-3.093.809-1.641 0-2.988-.508-4.043-1.523-1.047-1.016-1.652-2.352-1.816-4.008h-2.367V39h-2.848V26.32h2.848v5.098zm5.168 1.371c0 1.305.269 2.328.809 3.07.539.734 1.289 1.102 2.25 1.102s1.707-.375 2.238-1.125.797-1.848.797-3.293c0-1.305-.277-2.324-.832-3.059-.547-.742-1.289-1.113-2.227-1.113-.929 0-1.668.371-2.214 1.113-.547.734-.82 1.836-.82 3.305zm20.895-3c0 .563-.172 1.082-.516 1.559-.336.469-.812.844-1.43 1.125 1.453.508 2.18 1.488 2.18 2.941 0 1.164-.473 2.094-1.418 2.789-.945.688-2.211 1.031-3.797 1.031-.969 0-1.851-.16-2.648-.48-.797-.328-1.418-.789-1.864-1.383-.445-.602-.667-1.312-.667-2.133h2.835c0 .516.231.949.692 1.301.461.344 1.043.516 1.746.516.695 0 1.246-.16 1.652-.48.414-.328.621-.754.621-1.277 0-.617-.179-1.062-.539-1.336s-.914-.41-1.664-.41h-2.039V31.5h2.11c1.273-.016 1.91-.539 1.91-1.57 0-.516-.184-.918-.551-1.207s-.871-.434-1.512-.434c-.625 0-1.152.156-1.582.469-.429.305-.644.691-.644 1.16h-2.836c0-1.117.468-2.031 1.406-2.742.938-.719 2.129-1.078 3.574-1.078 1.571 0 2.793.32 3.668.961s1.313 1.551 1.313 2.731zm10.57-3.469h2.836V39h-2.836v-8.461L123.906 39h-2.836V26.32h2.836v8.461l4.969-8.461zM134.957 39V26.32h5.145c1.734 0 3.054.305 3.96.914.907.601 1.36 1.469 1.36 2.601a2.5 2.5 0 0 1-.551 1.582c-.359.461-.894.816-1.605 1.066.828.172 1.484.52 1.968 1.043s.727 1.141.727 1.852c0 1.18-.438 2.078-1.313 2.695-.867.617-2.117.926-3.75.926h-5.941zm2.848-5.402v3.152h3.117c1.461 0 2.191-.523 2.191-1.57 0-1.055-.742-1.582-2.226-1.582h-3.082zm0-2.039h2.343c1.618 0 2.426-.477 2.426-1.43 0-1-.765-1.516-2.297-1.547h-2.472v2.977zM159.168 39h-2.848v-5.121h-4.933V39h-2.848V26.32h2.848v5.285h4.933V26.32h2.848V39zm6.105-8.648h2.789c1.04 0 1.946.18 2.719.539s1.36.863 1.758 1.512c.406.649.609 1.402.609 2.262 0 1.305-.46 2.352-1.382 3.141s-2.149 1.188-3.68 1.195h-5.66V26.32h2.847v4.031zM178.105 39h-2.847V26.32h2.847V39zm-12.832-6.363v4.09h2.778c.695 0 1.242-.172 1.64-.516.407-.352.61-.848.61-1.488s-.199-1.145-.598-1.512c-.391-.375-.922-.566-1.594-.574h-2.836zm24.165-6.316h2.835V39h-2.835v-8.461L184.469 39h-2.836V26.32h2.836v8.461l4.969-8.461zm1.335-4.863c0 .984-.343 1.781-1.031 2.391s-1.605.914-2.754.914-2.066-.305-2.754-.914-1.031-1.406-1.031-2.391h2.133c0 .516.144.918.434 1.207.296.281.703.422 1.218.422s.918-.141 1.207-.422c.289-.289.434-.691.434-1.207h2.144zm15.012 12.527h-1.441V39h-2.848V26.32h2.848v5.063h1.254l3.504-5.062h3.515l-4.582 6.07L213.004 39h-3.703l-3.516-5.016zm7.57-1.441c0-1.242.247-2.359.739-3.352.492-1 1.183-1.766 2.074-2.297.891-.539 1.914-.809 3.07-.809 1.711 0 3.098.551 4.16 1.652 1.071 1.102 1.649 2.563 1.735 4.383l.012.668c0 1.25-.243 2.367-.727 3.352-.477.984-1.164 1.746-2.063 2.285-.89.539-1.921.809-3.093.809-1.789 0-3.223-.594-4.301-1.781-1.07-1.195-1.606-2.785-1.606-4.77v-.141zm2.848.246c0 1.305.27 2.328.809 3.07.539.734 1.289 1.102 2.25 1.102s1.707-.375 2.238-1.125c.539-.75.809-1.848.809-3.293 0-1.281-.278-2.297-.832-3.047a2.62 2.62 0 0 0-2.239-1.125c-.929 0-1.668.371-2.215 1.113-.546.734-.82 1.836-.82 3.305zM238.293 39h-2.848v-5.121h-4.933V39h-2.848V26.32h2.848v5.285h4.933V26.32h2.848V39zm13.019-10.418h-4.113V39h-2.847V28.582h-4.067V26.32h11.027v2.262zm6.739 10.652c-1.805 0-3.27-.566-4.395-1.699-1.117-1.141-1.676-2.656-1.676-4.547v-.352c0-1.266.243-2.394.727-3.387.492-1 1.18-1.777 2.063-2.332s1.867-.832 2.953-.832c1.726 0 3.058.551 3.996 1.652.945 1.102 1.418 2.66 1.418 4.676v1.148h-8.285c.086 1.047.433 1.875 1.043 2.484.617.609 1.39.914 2.32.914 1.305 0 2.367-.527 3.187-1.582l1.536 1.465c-.508.758-1.188 1.348-2.04 1.77-.843.414-1.793.621-2.847.621zm-.34-10.863c-.781 0-1.414.273-1.899.82-.476.547-.781 1.309-.914 2.285h5.426v-.211c-.062-.953-.316-1.672-.762-2.156-.445-.492-1.062-.738-1.851-.738zM276.098 39h-2.848v-5.121h-4.934V39h-2.847V26.32h2.847v5.285h4.934V26.32h2.848V39zm13.019-10.418h-4.113V39h-2.848V28.582h-4.066V26.32h11.027v2.262zm7.934 8.145c.789-.883 1.316-1.719 1.582-2.508.273-.797.437-1.813.492-3.047l.164-4.852h8.801v10.406h1.758v6.047h-2.836V39h-8.133v3.773h-2.883l.012-6.047h1.043zm3.34 0h4.863V28.77h-3.199l-.082 2.426c-.11 2.328-.637 4.172-1.582 5.531zm22.265-10.406V39h-2.847V28.617h-3.586l-.235 4.418c-.148 2.125-.558 3.652-1.23 4.582-.664.922-1.684 1.383-3.059 1.383h-.879l-.011-2.367.586-.059c.625-.086 1.078-.465 1.359-1.137.289-.68.473-1.914.551-3.703l.234-5.414h9.117zm13.184 0V39h-2.836v-4.652h-2.66L327.637 39h-2.953l2.988-5.121c-.781-.328-1.383-.797-1.805-1.406-.414-.609-.621-1.309-.621-2.098 0-1.18.453-2.145 1.359-2.895.915-.758 2.145-1.145 3.692-1.16h5.543zm-7.746 4.125c0 .531.195.965.586 1.301.398.328.906.492 1.523.492h2.801v-3.656h-2.625c-.695 0-1.25.176-1.664.527s-.621.797-.621 1.336zM27.988 63.496l3.75-9.176h3.563V67h-2.848v-8.391L28.961 67h-1.934l-3.504-8.437V67h-2.848V54.32h3.586l3.727 9.176zm9.984-2.953c0-1.242.246-2.359.738-3.352.492-1 1.184-1.766 2.074-2.297.891-.539 1.914-.809 3.07-.809 1.711 0 3.098.551 4.16 1.652 1.07 1.101 1.648 2.563 1.734 4.383l.012.668c0 1.25-.242 2.367-.726 3.352-.477.984-1.164 1.746-2.062 2.285-.891.539-1.922.809-3.094.809-1.789 0-3.223-.594-4.301-1.781-1.07-1.195-1.605-2.785-1.605-4.77v-.141zm2.848.246c0 1.305.269 2.328.809 3.07.539.734 1.289 1.101 2.25 1.101s1.707-.375 2.238-1.125c.539-.75.809-1.848.809-3.293 0-1.281-.277-2.297-.832-3.047a2.62 2.62 0 0 0-2.238-1.125c-.93 0-1.668.371-2.215 1.113-.547.734-.82 1.836-.82 3.305zm19.266-6.469h2.836V67h-2.836v-8.461L55.117 67h-2.836V54.32h2.836v8.461l4.969-8.461zm10.418 4.172l2.414-4.172h3.164l-3.879 6.246L76.211 67H73.07l-2.531-4.336L68.02 67h-3.164l4.008-6.434-3.867-6.246h3.141l2.367 4.172zM94.75 67h-2.848V56.617h-4.945V67h-2.848V54.32H94.75V67zm10.605 0c-.125-.242-.234-.637-.328-1.184a4.43 4.43 0 0 1-3.328 1.418c-1.273 0-2.312-.363-3.117-1.09s-1.207-1.625-1.207-2.695c0-1.351.5-2.387 1.5-3.105 1.008-.727 2.445-1.09 4.313-1.09h1.746v-.832c0-.656-.184-1.18-.551-1.57-.367-.398-.926-.598-1.676-.598-.648 0-1.18.164-1.594.492-.414.32-.621.73-.621 1.23h-2.848c0-.695.231-1.344.691-1.945.461-.609 1.086-1.086 1.875-1.43.797-.344 1.684-.516 2.66-.516 1.484 0 2.668.375 3.551 1.125.883.742 1.336 1.789 1.359 3.141v5.719c0 1.141.16 2.051.481 2.73V67h-2.907zm-3.128-2.051a3.21 3.21 0 0 0 1.582-.41c.5-.273.875-.641 1.125-1.102v-2.391h-1.536c-1.054 0-1.847.184-2.378.551a1.78 1.78 0 0 0-.797 1.558c0 .547.179.984.539 1.313.367.32.855.48 1.465.48zm18.328-8.367h-4.114V67h-2.847V56.582h-4.067V54.32h11.028v2.262zm13.007 4.207c0 1.961-.445 3.527-1.335 4.699-.891 1.164-2.086 1.746-3.586 1.746-1.391 0-2.504-.457-3.34-1.371v6.012h-2.848V54.32h2.625l.117 1.289c.836-1.016 1.973-1.523 3.41-1.523 1.547 0 2.758.578 3.633 1.734.883 1.148 1.324 2.746 1.324 4.793v.176zm-2.835-.246c0-1.266-.254-2.27-.762-3.012-.5-.742-1.219-1.113-2.156-1.113-1.164 0-2 .48-2.508 1.441v5.625c.515.984 1.359 1.476 2.531 1.476a2.44 2.44 0 0 0 2.121-1.09c.516-.734.774-1.844.774-3.328zm4.722 0c0-1.242.246-2.359.739-3.352.492-1 1.183-1.766 2.074-2.297.89-.539 1.914-.809 3.07-.809 1.711 0 3.098.551 4.16 1.652 1.07 1.101 1.649 2.563 1.735 4.383l.011.668c0 1.25-.242 2.367-.726 3.352-.477.984-1.164 1.746-2.063 2.285-.89.539-1.922.809-3.094.809-1.789 0-3.222-.594-4.3-1.781-1.071-1.195-1.606-2.785-1.606-4.77v-.141zm2.848.246c0 1.305.269 2.328.808 3.07.54.734 1.29 1.101 2.25 1.101s1.707-.375 2.239-1.125c.539-.75.808-1.848.808-3.293 0-1.281-.277-2.297-.832-3.047a2.62 2.62 0 0 0-2.238-1.125c-.93 0-1.668.371-2.215 1.113-.547.734-.82 1.836-.82 3.305zM160.387 67h-2.848v-5.121h-4.934V67h-2.847V54.32h2.847v5.285h4.934V54.32h2.848V67zm2.508-6.457c0-1.242.246-2.359.738-3.352.492-1 1.183-1.766 2.074-2.297.891-.539 1.914-.809 3.07-.809 1.711 0 3.098.551 4.161 1.652 1.07 1.101 1.648 2.563 1.734 4.383l.012.668c0 1.25-.243 2.367-.727 3.352-.477.984-1.164 1.746-2.062 2.285-.891.539-1.922.809-3.094.809-1.789 0-3.223-.594-4.301-1.781-1.07-1.195-1.605-2.785-1.605-4.77v-.141zm2.847.246c0 1.305.27 2.328.809 3.07.539.734 1.289 1.101 2.25 1.101s1.707-.375 2.238-1.125c.539-.75.809-1.848.809-3.293 0-1.281-.278-2.297-.832-3.047a2.62 2.62 0 0 0-2.239-1.125c-.929 0-1.668.371-2.215 1.113-.546.734-.82 1.836-.82 3.305zM177.309 67V54.32h5.144c1.735 0 3.055.305 3.961.914.906.602 1.359 1.469 1.359 2.602a2.5 2.5 0 0 1-.55 1.582c-.36.461-.895.816-1.606 1.066.828.172 1.485.52 1.969 1.043s.726 1.141.726 1.852c0 1.18-.437 2.078-1.312 2.695-.867.617-2.117.926-3.75.926h-5.941zm2.847-5.402v3.152h3.117c1.461 0 2.192-.523 2.192-1.57 0-1.055-.742-1.582-2.227-1.582h-3.082zm0-2.039h2.344c1.617 0 2.426-.477 2.426-1.43 0-1-.766-1.516-2.297-1.547h-2.473v2.977z" fill="#000"/><rect x="19" y="84" width="365" height="175" rx="5" fill="#ebebeb"/><rect x="173" y="143" width="58" height="58" rx="29" fill="#fff"/><path d="M215.13 170.384a2 2 0 0 1 0 3.402l-18.108 11.206c-1.332.825-3.052-.134-3.052-1.701v-22.412c0-1.567 1.72-2.526 3.052-1.701l18.108 11.206z" fill="#c4c4c4"/><path d="M59.741 295h-2.127v-10.274l-3.138 1.072v-1.802l4.992-1.837h.272V295zm4.887 2.883l-1.151-.686c.34-.533.571-.999.694-1.397.129-.393.196-.794.202-1.204v-1.661h1.925l-.009 1.538c-.006.621-.164 1.242-.475 1.863-.305.627-.7 1.143-1.187 1.547zm16.515-14.493L76.027 295h-2.241l5.106-11.083h-6.618v-1.714h8.868v1.187zm2.285 5.264l.694-6.451h6.873v1.846h-5.098l-.352 3.058c.592-.339 1.26-.509 2.004-.509 1.219 0 2.165.389 2.839 1.169.68.779 1.019 1.828 1.019 3.146 0 1.301-.375 2.338-1.125 3.111-.75.768-1.778 1.152-3.085 1.152-1.172 0-2.144-.331-2.918-.993-.768-.668-1.184-1.547-1.248-2.637h2.066c.082.621.305 1.099.668 1.433.363.328.838.492 1.424.492.656 0 1.166-.235 1.529-.703.369-.469.554-1.108.554-1.916 0-.78-.202-1.395-.606-1.846-.404-.457-.961-.686-1.67-.686-.387 0-.715.053-.984.159-.27.099-.562.298-.879.597l-1.705-.422zm17.718-3.076c0 .627-.161 1.187-.483 1.679-.322.486-.762.87-1.318 1.151.668.311 1.18.736 1.538 1.275.363.539.545 1.148.545 1.828 0 1.125-.381 2.018-1.143 2.68s-1.775.985-3.041.985c-1.271 0-2.291-.331-3.059-.993-.762-.662-1.142-1.553-1.142-2.672 0-.686.182-1.301.545-1.846s.873-.964 1.529-1.257a3.38 3.38 0 0 1-1.31-1.151c-.316-.492-.475-1.052-.475-1.679 0-1.09.352-1.954 1.055-2.593s1.652-.958 2.848-.958c1.201 0 2.153.32 2.857.958s1.054 1.503 1.054 2.593zm-1.854 5.827c0-.633-.19-1.142-.571-1.529-.375-.393-.873-.589-1.494-.589s-1.119.193-1.494.58c-.369.387-.554.9-.554 1.538 0 .627.182 1.128.545 1.503.369.375.876.563 1.52.563s1.145-.182 1.503-.545c.363-.364.545-.87.545-1.521zm-.273-5.748c0-.556-.161-1.013-.483-1.371s-.756-.545-1.301-.545-.976.173-1.292.519c-.316.34-.475.805-.475 1.397 0 .586.158 1.052.475 1.398.322.345.756.518 1.301.518s.976-.173 1.292-.518c.322-.346.483-.812.483-1.398zm11.523 4.781h1.591v1.714h-1.591V295h-2.136v-2.848h-5.528l-.062-1.3 5.52-8.649h2.206v8.235zm-5.484 0h3.348v-5.343l-.158.281-3.19 5.062z" fill="#ff424d"/><g clip-path="url(#C)"><g filter="url(#B)"><rect x="19" y="274" width="28" height="28" rx="4" fill="#ff424d"/><rect x="19.5" y="274.5" width="27" height="27" rx="3.5" stroke="#ff424d"/></g><path d="M29.447 281.486c-2.575 0-4.662 2.087-4.662 4.661 0 2.581 1.032 3.873 5.352 7.233l1.985 1.544a1.43 1.43 0 0 0 1.754 0l1.985-1.544c4.32-3.36 5.352-4.652 5.352-7.233 0-2.574-2.087-4.661-4.662-4.661-1.337 0-2.527.607-3.553 1.776-1.026-1.169-2.216-1.776-3.553-1.776zm0 1.428c1.085 0 2.063.613 2.965 1.917l.147.212c.168.244.502.305.745.136a.51.51 0 0 0 .136-.136l.147-.212c.902-1.304 1.88-1.917 2.965-1.917 1.786 0 3.233 1.448 3.233 3.233 0 1.986-.812 3.003-4.801 6.105L33 293.796l-1.985-1.544c-3.988-3.102-4.801-4.119-4.801-6.105 0-1.785 1.447-3.233 3.233-3.233z" fill="#fff"/></g><defs><filter id="A" x="0" y="0" width="403" height="323" filterUnits="userSpaceOnUse" color-interpolation-filters="sRGB"><feFlood flood-opacity="0" result="A"/><feColorMatrix in="SourceAlpha" values="0 0 0 0 0 0 0 0 0 0 0 0 0 0 0 0 0 0 127 0" result="B"/><feOffset dy="2"/><feGaussianBlur stdDeviation="2.5"/><feComposite in2="B" operator="out"/><feColorMatrix values="0 0 0 0 0 0 0 0 0 0 0 0 0 0 0 0 0 0 0.2 0"/><feBlend in2="A"/><feBlend in="SourceGraphic"/></filter><filter id="B" x="15" y="271" width="36" height="36" filterUnits="userSpaceOnUse" color-interpolation-filters="sRGB"><feFlood flood-opacity="0" result="A"/><feColorMatrix in="SourceAlpha" values="0 0 0 0 0 0 0 0 0 0 0 0 0 0 0 0 0 0 127 0" result="B"/><feOffset dy="1"/><feGaussianBlur stdDeviation="2"/><feComposite in2="B" operator="out"/><feColorMatrix values="0 0 0 0 0 0 0 0 0 0 0 0 0 0 0 0 0 0 0.05 0"/><feBlend in2="A"/><feBlend in="SourceGraphic"/></filter><clipPath id="C"><path d="M19 288c0-7.732 6.268-14 14-14s14 6.268 14 14-6.268 14-14 14-14-6.268-14-14z" fill="#fff"/></clipPath></defs></svg>