<svg xmlns="http://www.w3.org/2000/svg" width="407" height="292" fill="none" xmlns:v="https://vecta.io/nano"><style><![CDATA[.B{stroke-linecap:round}.C{stroke-width:3}.D{fill:#ff424d}.E{color-interpolation-filters:sRGB}.F{flood-opacity:0}]]></style><rect width="258" height="218.224" rx="5" fill="#f7f7f7"/><path d="M0 5a5 5 0 0 1 5-5h248a5 5 0 0 1 5 5v14.059H0V5z" fill="#ededed"/><g fill="#cacaca"><rect x="5" y="5.718" width="7" height="6.671" rx="3.335"/><rect x="18" y="5.718" width="7" height="6.671" rx="3.335"/><rect x="31" y="5.718" width="7" height="6.671" rx="3.335"/></g><path fill="#fff" d="M0 19.059h258v20.012H0z"/><path d="M9.94 27c.647 0 1.21.107 1.69.32a2.49 2.49 0 0 1 1.11.92c.26.4.39.867.39 1.4s-.13 1-.39 1.4a2.49 2.49 0 0 1-1.11.92c-.48.213-1.043.32-1.69.32H8.93V34H6.57v-7h3.37zm-.15 3.46c.32 0 .56-.07.72-.21.16-.147.24-.35.24-.61s-.08-.46-.24-.6c-.16-.147-.4-.22-.72-.22h-.86v1.64h.86zm6.445-2.03c.96 0 1.693.217 2.2.65.507.427.76 1.087.76 1.98V34h-2.1v-.72c-.26.547-.777.82-1.55.82-.433 0-.803-.073-1.11-.22-.3-.153-.53-.357-.69-.61a1.68 1.68 0 0 1-.23-.87c0-.54.207-.95.62-1.23s1.04-.42 1.88-.42h.91c-.073-.427-.417-.64-1.03-.64a2.48 2.48 0 0 0-.75.12c-.253.073-.47.177-.65.31l-.72-1.49c.313-.193.69-.343 1.13-.45.447-.113.89-.17 1.33-.17zm-.01 4.31c.16 0 .303-.043.43-.13s.22-.217.28-.39v-.38h-.56c-.46 0-.69.153-.69.46a.42.42 0 0 0 .14.32c.1.08.233.12.4.12zm7.977 1.07c-.34.193-.803.29-1.39.29-.767 0-1.357-.183-1.77-.55-.413-.373-.62-.93-.62-1.67v-1.4h-.75v-1.65h.75V27.3h2.26v1.53h1.12v1.65h-1.12v1.38c0 .167.043.297.13.39s.2.14.34.14c.193 0 .363-.05.51-.15l.54 1.57zm2.72-4.69c.4-.46.99-.69 1.77-.69v2c-.18-.027-.347-.04-.5-.04-.773 0-1.16.393-1.16 1.18V34h-2.26v-5.47h2.15v.59zm8.182 2.14c0 .033-.01.21-.03.53h-3.8c.08.207.213.367.4.48.187.107.42.16.7.16.24 0 .44-.03.6-.09.167-.06.347-.163.54-.31l1.18 1.19c-.533.587-1.33.88-2.39.88-.66 0-1.24-.12-1.74-.36-.5-.247-.887-.587-1.16-1.02a2.68 2.68 0 0 1-.41-1.46c0-.547.133-1.033.4-1.46a2.8 2.8 0 0 1 1.11-1.01c.473-.24 1.003-.36 1.59-.36.553 0 1.057.11 1.51.33a2.56 2.56 0 0 1 1.09.97c.273.427.41.937.41 1.53zm-2.99-1.29a.88.88 0 0 0-.58.19c-.153.127-.253.307-.3.54h1.76c-.047-.227-.147-.403-.3-.53-.153-.133-.347-.2-.58-.2zm6.593 4.13c-.607 0-1.153-.12-1.64-.36-.48-.247-.857-.583-1.13-1.01-.273-.433-.41-.923-.41-1.47s.137-1.033.41-1.46c.273-.433.65-.77 1.13-1.01.487-.24 1.033-.36 1.64-.36.613 0 1.16.12 1.64.36.487.24.863.577 1.13 1.01.273.427.41.913.41 1.46s-.137 1.037-.41 1.47c-.267.427-.643.763-1.13 1.01-.48.24-1.027.36-1.64.36zm0-1.76a.82.82 0 0 0 .64-.28c.167-.193.25-.46.25-.8s-.083-.603-.25-.79a.82.82 0 0 0-.64-.28.82.82 0 0 0-.64.28c-.167.187-.25.45-.25.79s.083.607.25.8a.82.82 0 0 0 .64.28zm7.687-3.91c.673 0 1.213.203 1.62.61.413.407.62 1.02.62 1.84V34h-2.26v-2.73c0-.627-.223-.94-.67-.94a.79.79 0 0 0-.62.27c-.153.173-.23.45-.23.83V34h-2.26v-5.47h2.15v.54c.213-.213.46-.373.74-.48s.583-.16.91-.16z" fill="#d4d4d4"/><rect x="216" y="24.776" width="33" height="9.529" rx="4.765" fill="#e7e7e7"/><rect x="22" y="52.412" width="54" height="75.282" rx="5" fill="#e8e8e8"/><g stroke="#fff"><g stroke-width="2"><rect x="40" y="65.8" width="18" height="17.059" rx="8.529"/><path d="M30 99.582h0c7.957-14.081 28.024-14.674 36.798-1.087l.702 1.087" class="B"/></g><path d="M37.497 109.081l22-.037" class="B C"/></g><path d="M31 114.409l34 .001" stroke="#f7f7f7" class="B C"/><rect x="91" y="68.612" width="133" height="58.129" rx="5" fill="#e8e8e8"/><path d="M105.497 79.539l57-.095m-57 39.224l37-.061" stroke="#fff" class="B C"/><path d="M105.497 91.033l77-.128m-77 5.878l77-.128m-77 5.846l77-.128m-77 5.846l77-.128" stroke="#f4f4f4" class="B C"/><g filter="url(#A)"><rect x="145" y="57" width="258" height="229" rx="5" fill="#fff"/></g><rect x="145.5" y="248.5" width="257" height="37" rx="4.5" stroke="#ff424d" class="D"/><path d="M227.031 271v-8.531h2.52c.914 0 1.607.189 2.08.568s.709.93.709 1.664c0 .442-.121.826-.363 1.154s-.567.557-.985.698c.496.109.895.353 1.196.732a2.04 2.04 0 0 1 .457 1.313c0 .754-.245 1.343-.733 1.769s-1.16.633-2.027.633h-2.854zm.721-4.102v3.493h2.162c.617 0 1.106-.157 1.465-.469.363-.317.545-.754.545-1.313 0-.527-.174-.943-.522-1.248-.343-.308-.82-.463-1.429-.463h-2.221zm0-.603h1.969c.601-.012 1.066-.152 1.394-.422s.498-.67.498-1.189c0-.547-.172-.95-.515-1.207s-.856-.393-1.547-.393h-1.799v3.211zm7.248.668h1.828c.469 0 .879.086 1.231.258s.623.402.802.703.276.65.276 1.049c0 .613-.211 1.105-.633 1.476s-.984.551-1.699.551h-2.502v-6.34H235v2.303zm0 .598v2.847h1.816c.504 0 .899-.127 1.184-.381s.434-.601.434-1.043c0-.422-.141-.761-.422-1.019s-.658-.397-1.143-.404H235zm6.287 3.439h-.703v-6.34h.703V271zm4.506-5.918c.805 0 1.457.264 1.957.791s.75 1.219.75 2.086v.152c0 .575-.115 1.092-.346 1.553s-.554.815-.984 1.072-.916.381-1.471.381c-.836 0-1.513-.277-2.033-.832s-.773-1.303-.773-2.232v-.563c0-1.312.25-2.361.75-3.146a3 3 0 0 1 2.132-1.406c.582-.094.991-.221 1.225-.381a.75.75 0 0 0 .357-.657h.604c0 .329-.068.6-.205.815s-.342.389-.615.521-.692.239-1.254.328c-.645.102-1.164.377-1.559.827-.39.445-.644 1.043-.762 1.793.25-.329.563-.594.938-.797s.808-.305 1.289-.305zm-2.197 2.883v.146c0 .715.193 1.297.58 1.746s.894.668 1.523.668 1.141-.224 1.524-.673.574-1.047.574-1.782v-.152c0-.66-.195-1.199-.586-1.617s-.895-.627-1.523-.627-1.135.213-1.518.638-.574.973-.574 1.653zm11.244-.07c0 .988-.219 1.773-.656 2.355a2.09 2.09 0 0 1-1.758.867c-.867 0-1.531-.305-1.992-.914v3.235h-.698v-8.778h.651l.035.897c.457-.676 1.119-1.014 1.986-1.014.758 0 1.352.287 1.781.861s.651 1.371.651 2.391v.1zm-.703-.124c0-.808-.166-1.447-.498-1.916s-.795-.703-1.389-.703c-.43 0-.799.104-1.107.311s-.545.508-.709.902v3.041c.168.364.408.641.72.832s.682.287 1.108.287c.59 0 1.049-.234 1.377-.703s.498-1.156.498-2.051zM260.4 271c-.07-.199-.115-.494-.134-.885a2.45 2.45 0 0 1-.944.744c-.379.172-.781.258-1.207.258-.609 0-1.103-.17-1.482-.51a1.66 1.66 0 0 1-.563-1.289c0-.617.256-1.105.768-1.464s1.232-.54 2.15-.54h1.272v-.72c0-.453-.141-.809-.422-1.067s-.684-.392-1.219-.392c-.488 0-.892.125-1.213.375s-.48.551-.48.902l-.703-.006c0-.504.234-.939.703-1.306s1.045-.557 1.728-.557c.707 0 1.264.178 1.67.533s.621.844.633 1.477v3c0 .613.064 1.072.193 1.377v.07h-.75zm-2.203-.504c.469 0 .887-.113 1.254-.34s.641-.529.809-.908v-1.394h-1.254c-.699.007-1.246.136-1.641.386s-.592.586-.592 1.02a1.14 1.14 0 0 0 .393.885c.266.234.609.351 1.031.351zm9.094-5.238h-2.309V271h-.703v-5.742h-2.22v-.598h5.232v.598zm1.928 1.705h1.828c.469 0 .879.086 1.23.258s.623.402.803.703.275.65.275 1.049c0 .613-.21 1.105-.632 1.476s-.985.551-1.7.551h-2.502v-6.34h.698v2.303zm0 .598v2.847h1.816c.504 0 .899-.127 1.184-.381s.433-.601.433-1.043c0-.422-.14-.761-.422-1.019s-.658-.397-1.142-.404h-1.869zm10.576 2.431l1.851-5.332h.756l-2.707 7.418-.14.328c-.348.77-.885 1.155-1.612 1.155-.168 0-.347-.028-.539-.082l-.006-.581.364.036c.343 0 .621-.086.832-.258s.396-.459.545-.873l.31-.856-2.39-6.287h.767l1.969 5.332zm8.795-2.097c0 .988-.219 1.773-.656 2.355a2.09 2.09 0 0 1-1.758.867c-.867 0-1.531-.305-1.992-.914v3.235h-.698v-8.778h.651l.035.897c.457-.676 1.119-1.014 1.986-1.014.758 0 1.352.287 1.781.861s.651 1.371.651 2.391v.1zm-.703-.124c0-.808-.166-1.447-.498-1.916s-.795-.703-1.389-.703c-.43 0-.799.104-1.107.311s-.545.508-.709.902v3.041c.168.364.408.641.72.832s.682.287 1.108.287c.59 0 1.049-.234 1.377-.703s.498-1.156.498-2.051zm1.875-.035a3.76 3.76 0 0 1 .351-1.646c.239-.488.573-.867 1.002-1.137s.924-.41 1.471-.41c.844 0 1.527.297 2.051.891.523.589.785 1.373.785 2.349v.147c0 .613-.119 1.166-.358 1.658a2.63 2.63 0 0 1-.996 1.131c-.429.265-.92.398-1.47.398-.84 0-1.524-.295-2.051-.885s-.785-1.378-.785-2.355v-.141zm.703.194c0 .758.195 1.381.586 1.869s.91.726 1.547.726 1.144-.242 1.535-.726.592-1.131.592-1.928v-.135c0-.484-.09-.927-.27-1.33s-.432-.713-.756-.931c-.324-.223-.695-.334-1.113-.334-.625 0-1.135.246-1.529.738s-.592 1.129-.592 1.922v.129zm6.486 3.07v-6.34h2.326c.805 0 1.422.145 1.852.434s.644.705.644 1.26c0 .316-.095.599-.287.849s-.47.426-.838.539c.414.078.747.256.997.533s.38.6.38.967c0 .559-.207.992-.621 1.301s-.992.457-1.746.457h-2.707zm.697-2.918v2.332h2.034c.527 0 .933-.102 1.218-.305s.428-.496.428-.879a.98.98 0 0 0-.428-.837c-.285-.207-.691-.311-1.218-.311h-2.034zm0-.586h1.776c1.101-.016 1.652-.391 1.652-1.125 0-.387-.152-.668-.457-.844s-.748-.269-1.342-.269h-1.629v2.238zm8.397 3.621c-.539 0-1.027-.133-1.465-.398a2.73 2.73 0 0 1-1.014-1.108c-.242-.476-.363-1.009-.363-1.599v-.252c0-.61.117-1.158.352-1.647s.568-.871.99-1.148.879-.422 1.371-.422c.77 0 1.379.264 1.828.791s.68 1.24.68 2.15v.393H303.9v.135c0 .718.205 1.318.616 1.799s.933.714 1.558.714a2.26 2.26 0 0 0 .99-.205c.29-.136.551-.355.786-.656l.439.334c-.516.746-1.264 1.119-2.244 1.119zm-.129-5.976a1.76 1.76 0 0 0-1.336.58c-.359.386-.578.906-.656 1.558h3.803v-.076c-.02-.609-.194-1.105-.522-1.488s-.758-.574-1.289-.574zm8.742 5.859h-.703v-2.906h-3.416V271h-.703v-6.34h.703v2.842h3.416v-2.842h.703V271zm2.654-4.037h1.829c.468 0 .879.086 1.23.258s.623.402.803.703.275.65.275 1.049c0 .613-.211 1.105-.633 1.476s-.984.551-1.699.551h-2.502v-6.34h.697v2.303zm0 .598v2.847h1.817c.504 0 .898-.127 1.183-.381s.434-.601.434-1.043c0-.422-.141-.761-.422-1.019s-.658-.397-1.142-.404h-1.87z" fill="#fff"/><path d="M145 62a5 5 0 0 1 5-5h248a5 5 0 0 1 5 5v74H145V62z" class="D"/><path d="M163.859 122.883l1.969-6.336h1.547l-3.398 9.758c-.526 1.406-1.362 2.109-2.508 2.109l-.274-.023-.539-.102v-1.172l.391.031c.489 0 .87-.099 1.141-.296.276-.198.502-.56.679-1.086l.321-.86-3.016-8.359h1.578l2.109 6.336zm11.953-2.016c0 1.287-.294 2.323-.882 3.11s-1.386 1.179-2.391 1.179c-1.026 0-1.833-.325-2.422-.976v4.07h-1.445v-11.703h1.32l.07.937c.589-.729 1.407-1.093 2.454-1.093 1.015 0 1.817.382 2.406 1.148s.89 1.831.89 3.195v.133zm-1.445-.164c0-.953-.203-1.706-.609-2.258s-.964-.828-1.672-.828c-.875 0-1.531.388-1.969 1.164v4.039c.432.771 1.094 1.157 1.985 1.157.692 0 1.242-.274 1.648-.821.411-.552.617-1.37.617-2.453zm2.906-.008c0-.828.162-1.573.485-2.234s.781-1.172 1.359-1.531c.584-.36 1.248-.539 1.992-.539 1.151 0 2.081.398 2.789 1.195.714.797 1.071 1.857 1.071 3.18v.101c0 .823-.159 1.563-.477 2.219-.312.651-.763 1.159-1.351 1.523s-1.256.547-2.016.547c-1.146 0-2.076-.398-2.789-1.195s-1.063-1.852-1.063-3.164v-.102zm1.454.172c0 .938.216 1.69.648 2.258.437.568 1.021.852 1.75.852s1.318-.287 1.75-.86c.432-.578.648-1.385.648-2.422 0-.927-.221-1.677-.664-2.25a2.08 2.08 0 0 0-1.75-.867 2.07 2.07 0 0 0-1.726.852c-.438.567-.656 1.38-.656 2.437zm8.187 4.133v-8.453h3.297c1.125 0 1.987.198 2.586.594.604.39.906.966.906 1.726a1.75 1.75 0 0 1-.351 1.063c-.235.312-.581.552-1.04.718.511.12.92.355 1.227.704.313.349.469.765.469 1.25 0 .776-.287 1.369-.86 1.781-.567.411-1.372.617-2.414.617h-3.82zm1.445-3.711v2.547h2.391c.604 0 1.055-.112 1.352-.336a1.12 1.12 0 0 0 .453-.945c0-.844-.62-1.266-1.86-1.266h-2.336zm0-1.156h1.868c1.354 0 2.031-.396 2.031-1.188s-.641-1.2-1.922-1.226h-1.977v2.414zm11.071 5.023c-1.146 0-2.078-.375-2.797-1.125s-1.078-1.763-1.078-3.023v-.266c0-.838.159-1.586.476-2.242.323-.661.771-1.177 1.344-1.547a3.38 3.38 0 0 1 1.875-.562c1.099 0 1.953.362 2.562 1.086s.915 1.76.915 3.109v.602H197c.021.833.263 1.507.727 2.023.468.51 1.062.766 1.781.766.51 0 .943-.105 1.297-.313a3.24 3.24 0 0 0 .929-.828l.883.687c-.708 1.089-1.771 1.633-3.187 1.633zm-.18-7.578c-.583 0-1.073.214-1.469.641s-.64 1.015-.734 1.781h4.234v-.109c-.041-.735-.239-1.302-.593-1.703-.355-.407-.834-.61-1.438-.61zM211.312 125h-1.445v-3.609h-3.883V125h-1.453v-8.453h1.453v3.664h3.883v-3.664h1.445V125zm3.907-5.539h2.195c.958.01 1.716.26 2.274.75s.835 1.154.835 1.992c0 .844-.286 1.521-.859 2.031s-1.344.766-2.312.766h-3.579v-8.453h1.446v2.914zm0 1.18v3.179h2.148c.542 0 .961-.138 1.258-.414.297-.281.445-.664.445-1.148 0-.469-.146-.852-.437-1.149s-.69-.458-1.211-.468h-2.203zM173.281 104h-2.953v-7.582h-7.629V104h-2.965V86.938h2.965v7.102h7.629v-7.102h2.953V104zm2.707-6.457c0-1.242.246-2.359.739-3.352.492-1 1.183-1.766 2.074-2.297.89-.539 1.914-.809 3.07-.809 1.711 0 3.098.551 4.16 1.652 1.071 1.102 1.649 2.563 1.735 4.383l.011.668c0 1.25-.242 2.367-.726 3.352a5.28 5.28 0 0 1-2.063 2.285c-.89.539-1.922.808-3.093.808-1.79 0-3.223-.593-4.301-1.781-1.071-1.195-1.606-2.785-1.606-4.769v-.141zm2.848.246c0 1.305.269 2.328.809 3.07.539.735 1.289 1.102 2.25 1.102s1.707-.375 2.238-1.125c.539-.75.808-1.848.808-3.293 0-1.281-.277-2.297-.832-3.047a2.62 2.62 0 0 0-2.238-1.125c-.93 0-1.668.371-2.215 1.113-.547.734-.82 1.836-.82 3.305zM190.402 104V91.32h5.145c1.734 0 3.055.305 3.961.914.906.602 1.359 1.469 1.359 2.602 0 .586-.183 1.113-.551 1.582-.359.461-.894.816-1.605 1.066.828.172 1.484.52 1.969 1.043a2.63 2.63 0 0 1 .726 1.852c0 1.18-.437 2.078-1.312 2.695-.867.617-2.117.926-3.75.926h-5.942zm2.848-5.402v3.152h3.117c1.461 0 2.192-.523 2.192-1.57 0-1.055-.743-1.582-2.227-1.582h-3.082zm0-2.039h2.344c1.617 0 2.426-.477 2.426-1.43 0-1-.766-1.516-2.297-1.547h-2.473v2.977zm18.539-5.238h2.836V104h-2.836v-8.461L206.82 104h-2.836V91.32h2.836v8.461l4.969-8.461zM227.82 104h-2.847v-4.23a10.16 10.16 0 0 1-2.321.258c-1.734 0-3.058-.414-3.972-1.242-.914-.836-1.371-2.031-1.371-3.586v-3.891h2.847V95.2c0 .922.203 1.574.61 1.957.414.383 1.043.574 1.886.574.766 0 1.539-.09 2.321-.27V91.32h2.847V104zm2.496-6.457c0-1.242.246-2.359.739-3.352.492-1 1.183-1.766 2.074-2.297.891-.539 1.914-.809 3.07-.809 1.711 0 3.098.551 4.16 1.652 1.071 1.102 1.649 2.563 1.735 4.383l.011.668c0 1.25-.242 2.367-.726 3.352a5.28 5.28 0 0 1-2.063 2.285c-.89.539-1.921.808-3.093.808-1.789 0-3.223-.593-4.301-1.781-1.07-1.195-1.606-2.785-1.606-4.769v-.141zm2.848.246c0 1.305.27 2.328.809 3.07.539.735 1.289 1.102 2.25 1.102s1.707-.375 2.238-1.125c.539-.75.809-1.848.809-3.293 0-1.281-.278-2.297-.832-3.047a2.62 2.62 0 0 0-2.239-1.125c-.929 0-1.668.371-2.215 1.113-.546.734-.82 1.836-.82 3.305zm15.856 1.195h-1.442V104h-2.848V91.32h2.848v5.063h1.254l3.504-5.062h3.516l-4.582 6.07 4.968 6.609h-3.703l-3.515-5.016z" fill="#fff"/><path d="M366.021 231h-3.63v-11.559l-3.567 1.042v-2.75l6.864-2.374h.333V231zm17.403-4.146c0-.566-.14-1.01-.419-1.333s-.77-.626-1.472-.913l-1.944-.87c-.595-.293-1.107-.634-1.536-1.02s-.759-.835-.989-1.343-.343-1.124-.343-1.848c0-1.21.408-2.205 1.224-2.986.817-.788 1.905-1.246 3.266-1.375v-2.267h1.708v2.31c1.31.193 2.338.734 3.083 1.622.752.881 1.128 2.002 1.128 3.362h-3.631c0-.744-.143-1.317-.43-1.718s-.694-.602-1.224-.602c-.473 0-.842.15-1.107.451-.258.294-.386.702-.386 1.225 0 .53.15.952.451 1.267.301.308.784.606 1.45.892l1.88.881c.594.301 1.106.644 1.536 1.031s.766.838 1.01 1.354.365 1.135.365 1.858c0 1.225-.39 2.224-1.171 2.997-.773.774-1.83 1.225-3.169 1.354v2.159h-1.708v-2.17c-1.561-.165-2.761-.698-3.599-1.601-.83-.909-1.246-2.105-1.246-3.588h3.62c0 .817.18 1.44.538 1.87.365.422.88.633 1.546.633.487 0 .871-.143 1.15-.429.279-.294.419-.695.419-1.203z" class="D"/><path d="M336.073 207v-7.396h2.885c.984 0 1.739.173 2.263.519s.793.845.793 1.511c0 .342-.103.651-.308.929s-.508.484-.909.629c.446.105.804.31 1.073.616a1.58 1.58 0 0 1 .41 1.093c0 .679-.25 1.199-.752 1.559-.496.36-1.201.54-2.112.54h-3.343zm1.265-3.247v2.228h2.092c.528 0 .923-.098 1.182-.293.265-.196.397-.472.397-.828 0-.738-.543-1.107-1.627-1.107h-2.044zm0-1.012h1.634c1.185 0 1.777-.346 1.777-1.039s-.561-1.05-1.682-1.073h-1.729v2.112zm14.349 2.584l2.515-5.721h1.579V207h-1.264v-5.38l-2.393 5.38h-.875l-2.44-5.496V207h-1.265v-7.396h1.641l2.502 5.721zm9.201 1.812c-1.003 0-1.819-.328-2.448-.985s-.943-1.542-.943-2.645v-.233c0-.733.139-1.387.417-1.962.283-.578.675-1.029 1.176-1.353a2.96 2.96 0 0 1 1.64-.492c.962 0 1.709.317 2.243.95s.799 1.54.799 2.721v.526h-5.01c.018.729.23 1.319.635 1.771.411.446.93.669 1.559.669.447 0 .825-.091 1.135-.273s.581-.424.813-.725l.773.602c-.62.952-1.55 1.429-2.789 1.429zm-.158-6.631c-.51 0-.938.187-1.285.56s-.56.889-.642 1.559h3.705v-.096c-.037-.642-.21-1.139-.52-1.49s-.729-.533-1.258-.533zm7.479 5.598a1.82 1.82 0 0 0 1.183-.41 1.44 1.44 0 0 0 .56-1.025h1.196c-.022.424-.168.827-.437 1.21s-.629.688-1.08.916-.921.342-1.422.342c-1.007 0-1.809-.335-2.406-1.005-.593-.675-.889-1.595-.889-2.762v-.212c0-.72.132-1.36.397-1.921s.642-.995 1.134-1.305 1.083-.465 1.757-.465c.83 0 1.518.248 2.065.745s.845 1.142.881 1.934h-1.196a1.72 1.72 0 0 0-.547-1.175c-.323-.31-.724-.465-1.203-.465-.642 0-1.141.232-1.497.697s-.526 1.128-.526 2.003v.239c0 .853.175 1.509.526 1.969s.852.69 1.504.69zm10.015-6.5V207h-1.272v-2.878h-1.907L373.302 207h-1.367l1.859-3.069c-.474-.174-.839-.44-1.094-.8s-.376-.789-.376-1.272a1.99 1.99 0 0 1 .759-1.627c.506-.414 1.183-.624 2.03-.628h3.111zm-4.628 2.269c0 .36.123.652.369.875s.572.33.977.335h2.01v-2.454h-1.818c-.47 0-.843.116-1.121.349a1.1 1.1 0 0 0-.417.895zm6.767-2.269h1.272v6.364h3.404v-6.364h1.265v6.364h.882l-.124 3.226h-1.134V207h-5.565v-7.396z" fill="#4c4c4c"/><path d="M184.58 164.425l2.83-6.378h.991l-3.848 8.333-.246.472c-.483.861-1.194 1.292-2.133 1.292-.278 0-.492-.026-.643-.076l.075-.683c.096.032.288.048.575.048.565 0 1.018-.29 1.36-.869l.171-.307.431-.889-3.767-7.321h.964l3.24 6.378zM194.841 168h-.82v-3.391h-3.986V168h-.82v-7.396h.82v3.315h3.986v-3.315h.82V168zm7.055-7.396h.82V168h-.82v-6.077L197.903 168h-.813v-7.396h.813v6.084l3.993-6.084zm5.024 4.005h-1.135V168h-.827v-7.396h.827v3.281h1.121l2.714-3.281h1.032l-3.035 3.588 3.37 3.808h-1.08l-2.987-3.391zm9.919 3.391c-.082-.232-.135-.576-.157-1.032a2.88 2.88 0 0 1-1.101.868c-.442.2-.911.301-1.408.301-.711 0-1.288-.199-1.73-.595a1.94 1.94 0 0 1-.656-1.504 1.98 1.98 0 0 1 .896-1.709c.601-.419 1.437-.629 2.508-.629h1.484v-.841c0-.528-.164-.943-.492-1.244s-.798-.458-1.422-.458c-.57 0-1.042.146-1.415.438s-.561.642-.561 1.052l-.82-.006c0-.588.273-1.096.82-1.525s1.219-.649 2.017-.649c.825 0 1.474.207 1.948.622.479.41.725.984.738 1.723v3.5c0 .715.075 1.25.226 1.606V168h-.875zm-2.57-.588c.546 0 1.034-.132 1.462-.396s.748-.618.944-1.06v-1.627h-1.463c-.816.009-1.454.16-1.914.451s-.691.684-.691 1.19c0 .414.153.759.458 1.032s.711.41 1.204.41zm11.094-6.808V168h-.82v-6.692h-3.028l-.13 2.768c-.055 1.026-.157 1.809-.308 2.352-.15.537-.374.934-.67 1.189s-.69.383-1.182.383h-.315v-.725l.253-.013c.469-.009.807-.237 1.012-.684s.339-1.244.403-2.392l.151-3.582h4.634zm3.104 2.686h2.133c.546 0 1.025.1 1.435.301.415.196.727.469.937.82s.321.759.321 1.224c0 .715-.246 1.289-.738 1.722s-1.149.643-1.983.643h-2.919v-7.396h.814v2.686zm0 .697v3.323h2.119c.588 0 1.048-.149 1.381-.445s.506-.702.506-1.217c0-.492-.164-.888-.493-1.189-.323-.305-.767-.463-1.333-.472h-2.18zm12.27 4.013h-.82v-3.391h-3.985V168h-.821v-7.396h.821v3.315h3.985v-3.315h.82V168zm3.097-4.71h2.133c.547 0 1.025.1 1.435.301.415.196.727.469.937.82s.321.759.321 1.224c0 .715-.246 1.289-.738 1.722s-1.149.643-1.983.643h-2.918v-7.396h.813v2.686zm0 .697v3.323h2.119c.588 0 1.048-.149 1.381-.445s.506-.702.506-1.217c0-.492-.164-.888-.492-1.189s-.768-.463-1.333-.472h-2.181zm7.335 4.013h-.82v-7.396h.82V168zm7.137-7.396h.82V168h-.82v-6.077L254.313 168h-.813v-7.396h.813v6.084l3.993-6.084zm-.041-2.666c0 .524-.18.947-.54 1.271s-.834.485-1.436.485c-.592 0-1.071-.159-1.435-.478-.361-.324-.541-.75-.541-1.278h.698c0 .378.111.667.335.868s.542.3.943.3.713-.104.937-.314.341-.494.341-.854h.698zm8.469 6.671H265.6V168h-.828v-7.396h.828v3.281h1.121l2.714-3.281h1.032l-3.035 3.588 3.37 3.808h-1.08l-2.988-3.391zm4.649-.417c0-.711.137-1.351.41-1.921s.668-1.011 1.169-1.326c.506-.319 1.078-.478 1.716-.478.984 0 1.782.346 2.392 1.039.611.688.916 1.602.916 2.741v.171c0 .715-.139 1.36-.417 1.935-.273.569-.66 1.009-1.162 1.319s-1.073.465-1.716.465c-.979 0-1.777-.344-2.392-1.033s-.916-1.608-.916-2.748v-.164zm.82.226c0 .884.228 1.611.684 2.181s1.062.847 1.804.847 1.336-.282 1.791-.847c.461-.57.691-1.32.691-2.249v-.158c0-.565-.105-1.082-.315-1.551s-.503-.832-.881-1.087a2.24 2.24 0 0 0-1.299-.39 2.18 2.18 0 0 0-1.784.861c-.461.57-.691 1.317-.691 2.243v.15zM285.362 168h-.82v-3.391h-3.985V168h-.821v-7.396h.821v3.315h3.985v-3.315h.82V168zm7.506-6.699h-2.693V168h-.821v-6.699h-2.59v-.697h6.104v.697zm3.664 6.836c-.629 0-1.198-.155-1.709-.465-.506-.31-.9-.741-1.182-1.292s-.424-1.178-.424-1.866v-.294c0-.711.137-1.352.41-1.921s.663-1.016 1.155-1.34a2.83 2.83 0 0 1 1.6-.492c.898 0 1.609.307 2.133.923.528.61.793 1.447.793 2.508v.458h-5.278v.158c0 .838.24 1.538.718 2.098s1.089.834 1.818.834c.438 0 .823-.079 1.156-.239s.642-.415.916-.766l.512.39c-.601.87-1.474 1.306-2.618 1.306zm-.15-6.973c-.615 0-1.135.226-1.559.677-.419.451-.674 1.057-.765 1.818h4.436v-.089c-.023-.711-.225-1.289-.608-1.736s-.884-.67-1.504-.67zM306.581 168h-.82v-3.391h-3.986V168h-.82v-7.396h.82v3.315h3.986v-3.315h.82V168zm7.506-6.699h-2.693V168h-.821v-6.699h-2.591v-.697h6.105v.697z" fill="#000"/><g filter="url(#B)"><path d="M171 163a5 5 0 1 1-10 0 5 5 0 1 1 10 0z" fill="#ff9442"/></g><path d="M188.267 187.765h-5.162V197h-.84v-9.953h6.002v.718zm6.063 5.612c0 1.153-.255 2.069-.766 2.748a2.44 2.44 0 0 1-2.05 1.012c-1.012 0-1.787-.356-2.325-1.067v3.774h-.813v-10.24h.759l.041 1.045c.533-.788 1.305-1.182 2.317-1.182.884 0 1.577.335 2.078 1.005s.759 1.599.759 2.789v.116zm-.82-.144c0-.943-.194-1.688-.581-2.235s-.928-.82-1.62-.82c-.502 0-.932.121-1.292.362s-.636.592-.828 1.053v3.548c.196.423.477.747.841.97s.796.335 1.292.335c.688 0 1.224-.273 1.607-.82s.581-1.349.581-2.393zm4.901 2.591l2.16-6.22h.882l-3.158 8.654-.164.383c-.406.897-1.032 1.346-1.88 1.346-.196 0-.406-.032-.629-.095l-.007-.677.424.041c.401 0 .725-.1.971-.301s.462-.535.636-1.018l.362-.999-2.789-7.334h.895l2.297 6.22zm9.994 1.176h-.82v-6.692H203.6V197h-.821v-7.396h5.626V197zm7.875 0h-.82v-6.692h-3.985V197h-.821v-7.396h5.626V197zm1.743-3.808c0-.711.137-1.351.411-1.921s.667-1.011 1.169-1.326 1.077-.478 1.715-.478c.985 0 1.782.346 2.393 1.039.611.688.916 1.602.916 2.741v.171c0 .715-.139 1.36-.417 1.935-.273.569-.661 1.009-1.162 1.319s-1.073.465-1.716.465c-.98 0-1.777-.344-2.393-1.033-.61-.692-.916-1.608-.916-2.748v-.164zm.821.226c0 .884.228 1.611.683 2.181.461.565 1.062.847 1.805.847s1.335-.282 1.791-.847.69-1.32.69-2.249v-.158c0-.565-.104-1.082-.314-1.551s-.504-.832-.882-1.087-.811-.39-1.299-.39a2.18 2.18 0 0 0-1.784.861c-.46.57-.69 1.317-.69 2.243v.15zm7.567 3.582v-7.396h2.714c.939 0 1.659.168 2.16.505s.752.823.752 1.47a1.59 1.59 0 0 1-.335.991c-.223.287-.549.497-.977.629.483.091.87.299 1.162.622a1.62 1.62 0 0 1 .444 1.128c0 .652-.241 1.158-.725 1.518-.478.355-1.157.533-2.037.533h-3.158zm.814-3.404v2.72h2.372c.615 0 1.089-.118 1.422-.355s.499-.579.499-1.025c0-.411-.167-.736-.499-.978s-.807-.362-1.422-.362h-2.372zm0-.684h2.071c1.285-.018 1.928-.456 1.928-1.312 0-.452-.178-.78-.534-.985-.35-.209-.872-.314-1.565-.314h-1.9v2.611zm6.48.28c0-.711.137-1.351.41-1.921s.668-1.011 1.169-1.326 1.078-.478 1.716-.478c.984 0 1.782.346 2.393 1.039.61.688.916 1.602.916 2.741v.171c0 .715-.139 1.36-.417 1.935-.274.569-.661 1.009-1.163 1.319s-1.073.465-1.715.465c-.98 0-1.778-.344-2.393-1.033s-.916-1.608-.916-2.748v-.164zm.82.226c0 .884.228 1.611.684 2.181s1.062.847 1.805.847c.738 0 1.335-.282 1.791-.847s.69-1.32.69-2.249v-.158c0-.565-.105-1.082-.314-1.551s-.504-.832-.882-1.087-.811-.39-1.299-.39a2.18 2.18 0 0 0-1.784.861c-.46.57-.691 1.317-.691 2.243v.15zm12.339-3.814h.821V197h-.821v-6.077L242.872 197h-.813v-7.396h.813v6.084l3.992-6.084zm-.041-2.666c0 .524-.18.947-.54 1.271-.355.324-.834.485-1.435.485-.593 0-1.071-.159-1.436-.478-.36-.324-.54-.75-.54-1.278h.697c0 .378.112.667.335.868.228.2.543.3.944.3s.713-.104.936-.314c.228-.21.342-.494.342-.854h.697zM258.547 197h-.82v-3.11c-.675.246-1.32.369-1.935.369-.98 0-1.691-.214-2.133-.643s-.672-1.105-.69-2.016v-1.996h.813v1.955c.009.706.164 1.216.465 1.531s.82.465 1.545.465a6.41 6.41 0 0 0 1.935-.356v-3.595h.82V197zm6.856 0c-.082-.232-.134-.576-.157-1.032-.287.373-.654.663-1.1.868-.443.2-.912.301-1.409.301-.711 0-1.287-.199-1.729-.595s-.656-.898-.656-1.504c0-.72.298-1.29.895-1.709s1.438-.629 2.509-.629h1.483v-.841c0-.528-.164-.943-.492-1.244s-.797-.458-1.422-.458c-.569 0-1.041.146-1.415.438s-.56.642-.56 1.052l-.821-.006c0-.588.274-1.096.821-1.525s1.219-.649 2.016-.649c.825 0 1.474.207 1.948.622s.725.984.739 1.723v3.5c0 .715.075 1.25.225 1.606V197h-.875zm-2.57-.588a2.73 2.73 0 0 0 1.463-.396 2.33 2.33 0 0 0 .943-1.06v-1.627h-1.463c-.815.009-1.453.16-1.914.451s-.69.684-.69 1.19c0 .414.153.759.458 1.032s.711.41 1.203.41zm10.609-6.111h-2.693V197h-.82v-6.699h-2.591v-.697h6.104v.697z" fill="#000"/><g filter="url(#C)"><path d="M172 192a5 5 0 1 1-10 0 5 5 0 1 1 10 0z" fill="#ff9442"/></g><rect x="145" y="57" width="258" height="229" rx="5" fill="#fff" fill-opacity=".2"/><defs><filter id="A" x="141" y="55" width="266" height="237" filterUnits="userSpaceOnUse" class="E"><feFlood result="A" class="F"/><feColorMatrix in="SourceAlpha" values="0 0 0 0 0 0 0 0 0 0 0 0 0 0 0 0 0 0 127 0" result="B"/><feOffset dy="2"/><feGaussianBlur stdDeviation="2"/><feComposite in2="B" operator="out"/><feColorMatrix values="0 0 0 0 0 0 0 0 0 0 0 0 0 0 0 0 0 0 0.2 0"/><feBlend in2="A"/><feBlend in="SourceGraphic"/></filter><filter id="B" x="157" y="154" width="18" height="18" filterUnits="userSpaceOnUse" class="E"><feFlood result="A" class="F"/><feColorMatrix in="SourceAlpha" values="0 0 0 0 0 0 0 0 0 0 0 0 0 0 0 0 0 0 127 0" result="B"/><feOffset/><feGaussianBlur stdDeviation="2"/><feComposite in2="B" operator="out"/><feColorMatrix values="0 0 0 0 0.231373 0 0 0 0 0.729412 0 0 0 0 0.180392 0 0 0 0.25 0"/><feBlend in2="A"/><feBlend in="SourceGraphic"/></filter><filter id="C" x="158" y="183" width="18" height="18" filterUnits="userSpaceOnUse" class="E"><feFlood result="A" class="F"/><feColorMatrix in="SourceAlpha" values="0 0 0 0 0 0 0 0 0 0 0 0 0 0 0 0 0 0 127 0" result="B"/><feOffset/><feGaussianBlur stdDeviation="2"/><feComposite in2="B" operator="out"/><feColorMatrix values="0 0 0 0 0.231373 0 0 0 0 0.729412 0 0 0 0 0.180392 0 0 0 0.25 0"/><feBlend in2="A"/><feBlend in="SourceGraphic"/></filter></defs></svg>