<svg width="858" height="523" viewBox="0 0 858 523" fill="none" xmlns="http://www.w3.org/2000/svg">
<g filter="url(#filter0_d_923_925)">
<path d="M34 117.655C34 113.427 37.4271 110 41.6546 110H816.345C820.573 110 824 113.427 824 117.655V434.716C824 438.943 820.573 442.37 816.345 442.37H41.6546C37.4271 442.37 34 438.943 34 434.716V117.655Z" fill="white"/>
<g clip-path="url(#clip0_923_925)">
<g filter="url(#filter1_d_923_925)">
<rect x="108" y="218" width="379.105" height="115.546" rx="22.3214" fill="#FF424D"/>
<rect x="110.232" y="220.232" width="374.641" height="111.082" rx="20.0893" stroke="#FF424D" stroke-width="4.46428"/>
</g>
<path d="M250.001 295H244.646V258.989H224.726V295H219.4V254.606H250.001V295ZM257.547 279.713C257.547 276.773 258.12 274.128 259.267 271.779C260.432 269.43 262.041 267.617 264.094 266.341C266.166 265.065 268.524 264.427 271.169 264.427C275.256 264.427 278.558 265.842 281.073 268.672C283.607 271.501 284.874 275.265 284.874 279.963V280.324C284.874 283.246 284.31 285.872 283.182 288.203C282.072 290.515 280.472 292.318 278.382 293.613C276.31 294.908 273.925 295.555 271.224 295.555C267.155 295.555 263.854 294.14 261.32 291.31C258.804 288.48 257.547 284.735 257.547 280.074V279.713ZM262.707 280.324C262.707 283.653 263.475 286.326 265.01 288.342C266.563 290.358 268.635 291.366 271.224 291.366C273.832 291.366 275.904 290.348 277.439 288.314C278.974 286.261 279.741 283.394 279.741 279.713C279.741 276.421 278.955 273.758 277.383 271.723C275.83 269.67 273.758 268.644 271.169 268.644C268.635 268.644 266.591 269.652 265.037 271.668C263.484 273.684 262.707 276.569 262.707 280.324ZM310.731 264.982H315.863V295H310.731V273.111L296.887 295H291.754V264.982H296.887V286.899L310.731 264.982ZM336.143 291.366C337.974 291.366 339.574 290.811 340.943 289.701C342.312 288.591 343.07 287.204 343.218 285.54H348.073C347.98 287.26 347.389 288.896 346.297 290.45C345.206 292.004 343.745 293.243 341.914 294.168C340.101 295.092 338.178 295.555 336.143 295.555C332.056 295.555 328.801 294.195 326.378 291.477C323.973 288.739 322.771 285.003 322.771 280.268V279.408C322.771 276.486 323.307 273.887 324.38 271.612C325.453 269.338 326.988 267.571 328.986 266.313C331.002 265.056 333.378 264.427 336.116 264.427C339.482 264.427 342.275 265.435 344.494 267.451C346.732 269.467 347.925 272.084 348.073 275.302H343.218C343.07 273.36 342.33 271.77 340.998 270.53C339.685 269.273 338.058 268.644 336.116 268.644C333.508 268.644 331.482 269.587 330.04 271.474C328.616 273.342 327.904 276.051 327.904 279.603V280.574C327.904 284.032 328.616 286.696 330.04 288.564C331.464 290.432 333.498 291.366 336.143 291.366ZM363.193 282.21H359.448V295H354.287V264.982H359.448V277.688H362.805L372.903 264.982H379.118L367.244 279.408L380.116 295H373.597L363.193 282.21Z" fill="white"/>
</g>
</g>
<path d="M772.569 42.4578C772.586 43.4919 772.623 44.5183 772.623 45.5478C772.623 46.3891 772.597 47.2195 772.583 48.0562C772.597 47.2195 772.623 46.3891 772.623 45.5478C772.623 44.5183 772.586 43.4919 772.569 42.4578Z" fill="#F3F2F1"/>
<path d="M689.208 192.563C690.265 191.94 691.295 191.316 692.325 190.666C693.802 189.744 695.26 188.795 696.7 187.823C695.26 188.795 693.802 189.744 692.325 190.666C691.295 191.316 690.265 191.94 689.208 192.563Z" fill="#F9F9F8"/>
<path d="M772.57 42.4578C772.552 41.4236 772.556 40.3833 772.516 39.3678C772.516 39.0428 772.488 38.7442 772.461 38.4191V38.3912V38.4191C772.488 38.7442 772.516 39.0428 772.516 39.3678C772.556 40.3833 772.552 41.4236 772.57 42.4578Z" fill="#F9F9F8"/>
<path d="M772.541 50.563C772.568 49.7372 772.568 48.8928 772.582 48.0561C772.568 48.8928 772.568 49.7372 772.541 50.563Z" fill="#F9F9F8"/>
<path d="M650.549 472.442L651.052 472.429L651.062 472.932L652.009 518.15L652.019 518.648L651.521 518.66L592 520.061L591.468 520.073L591.489 519.542C591.523 518.66 592.154 517.772 593.019 516.931C593.908 516.067 595.15 515.154 596.607 514.228C599.524 512.375 603.38 510.42 607.213 508.642C611.049 506.862 614.877 505.251 617.745 504.086C619.179 503.504 620.374 503.032 621.21 502.706C621.628 502.543 621.956 502.417 622.181 502.331L620.34 473.75L620.306 473.232L620.826 473.218L650.549 472.442Z" fill="white" stroke="black"/>
<path d="M640.538 504.084C641.569 504.084 642.585 503.346 642.794 502.379C643.017 501.343 642.307 500.223 641.266 499.86C641.051 499.757 640.816 499.712 640.575 499.712C639.617 499.712 638.556 500.438 638.263 501.295C637.895 502.37 638.936 503.787 640.101 504.04C640.245 504.07 640.392 504.084 640.538 504.084" fill="white"/>
<path d="M591.989 519.561L651.509 518.16L591.989 519.561C592.013 518.89 592.511 518.122 593.363 517.294C593.301 517.294 593.253 517.294 593.191 517.294C592.513 517.804 591.797 518.591 591.989 519.561Z" fill="white"/>
<path d="M593.191 517.294C593.254 517.294 593.302 517.294 593.364 517.294C593.498 517.163 593.641 517.031 593.792 516.899C593.616 517.002 593.406 517.134 593.191 517.294Z" fill="#ACABAB"/>
<mask id="path-14-outside-1_923_925" maskUnits="userSpaceOnUse" x="590.988" y="511.561" width="62" height="9" fill="black">
<rect fill="white" x="590.988" y="511.561" width="62" height="9"/>
<path d="M591.988 519.561L651.509 518.16L651.225 513.605L594.263 516.652C594.263 516.652 594.069 516.737 593.791 516.899C593.64 517.031 593.497 517.163 593.363 517.294C592.511 518.122 592.013 518.89 591.988 519.561"/>
</mask>
<path d="M591.988 519.561L651.509 518.16L651.225 513.605L594.263 516.652C594.263 516.652 594.069 516.737 593.791 516.899C593.64 517.031 593.497 517.163 593.363 517.294C592.511 518.122 592.013 518.89 591.988 519.561" fill="black"/>
<path d="M651.509 518.16L652.507 518.098L652.572 519.135L651.532 519.16L651.509 518.16ZM651.225 513.605L651.172 512.607L652.162 512.554L652.223 513.543L651.225 513.605ZM594.263 516.652L593.863 515.735L594.029 515.663L594.21 515.653L594.263 516.652ZM593.791 516.899L593.133 516.146L593.205 516.083L593.287 516.035L593.791 516.899ZM593.363 517.294L594.062 518.009L594.06 518.011L593.363 517.294ZM591.965 518.561L651.485 517.16L651.532 519.16L592.012 520.561L591.965 518.561ZM650.511 518.222L650.227 513.667L652.223 513.543L652.507 518.098L650.511 518.222ZM651.279 514.604L594.317 517.65L594.21 515.653L651.172 512.607L651.279 514.604ZM594.263 516.652C594.664 517.568 594.664 517.568 594.664 517.568C594.664 517.568 594.665 517.568 594.665 517.568C594.665 517.568 594.665 517.568 594.665 517.568C594.665 517.567 594.665 517.567 594.665 517.567C594.666 517.567 594.666 517.567 594.666 517.567C594.667 517.567 594.667 517.567 594.667 517.567C594.667 517.566 594.667 517.567 594.666 517.567C594.663 517.568 594.658 517.571 594.651 517.574C594.636 517.581 594.611 517.593 594.577 517.61C594.51 517.643 594.412 517.694 594.294 517.763L593.287 516.035C593.448 515.941 593.586 515.869 593.686 515.819C593.736 515.794 593.777 515.775 593.807 515.761C593.822 515.754 593.834 515.748 593.843 515.744C593.848 515.742 593.852 515.74 593.855 515.739C593.857 515.738 593.858 515.737 593.86 515.737C593.86 515.737 593.861 515.736 593.861 515.736C593.861 515.736 593.862 515.736 593.862 515.736C593.862 515.736 593.862 515.736 593.862 515.736C593.862 515.736 593.862 515.736 593.862 515.736C593.863 515.736 593.863 515.735 594.263 516.652ZM594.449 517.652C594.312 517.772 594.182 517.891 594.062 518.009L592.664 516.578C592.811 516.435 592.968 516.29 593.133 516.146L594.449 517.652ZM594.06 518.011C593.231 518.817 592.997 519.344 592.988 519.598L590.989 519.524C591.029 518.435 591.791 517.428 592.666 516.577L594.06 518.011Z" fill="black" mask="url(#path-14-outside-1_923_925)"/>
<path d="M621.732 502.402C621.749 502.677 623.204 502.767 624.658 503.617C626.134 504.431 626.904 505.604 627.167 505.489C627.434 505.427 626.958 503.797 625.179 502.797C623.41 501.783 621.662 502.151 621.732 502.402Z" fill="#282828"/>
<path d="M615.554 504.989C615.495 505.257 616.765 505.694 617.782 506.834C618.835 507.944 619.118 509.193 619.407 509.176C619.681 509.212 619.84 507.599 618.546 506.206C617.266 504.803 615.552 504.727 615.554 504.989" fill="#282828"/>
<path d="M612.195 512.135C612.459 512.187 612.828 510.804 612.041 509.318C611.267 507.824 609.881 507.265 609.764 507.496C609.606 507.727 610.509 508.513 611.135 509.743C611.791 510.958 611.904 512.114 612.195 512.135" fill="#282828"/>
<path d="M622.08 495.761C622.21 496.009 623.533 495.597 625.178 495.664C626.825 495.701 628.117 496.191 628.264 495.952C628.427 495.749 627.15 494.762 625.211 494.709C623.273 494.642 621.933 495.548 622.08 495.761" fill="#282828"/>
<path d="M623.322 489.053C623.322 489.166 624.475 489.31 626.303 488.968C627.212 488.798 628.282 488.49 629.398 487.991C629.955 487.738 630.524 487.441 631.087 487.091C631.356 486.918 631.676 486.742 631.969 486.406C632.283 486.114 632.448 485.38 632.064 484.943C631.748 484.517 631.204 484.344 630.774 484.345C630.334 484.341 629.981 484.433 629.659 484.517C629.002 484.684 628.386 484.907 627.823 485.161C626.698 485.677 625.79 486.316 625.118 486.932C623.769 488.173 623.325 489.21 623.427 489.26C623.56 489.349 624.21 488.471 625.588 487.442C626.277 486.929 627.157 486.394 628.21 485.963C628.737 485.75 629.305 485.565 629.908 485.423C630.533 485.252 631.071 485.235 631.239 485.498C631.302 485.596 631.309 485.636 631.182 485.814C631.05 485.978 630.799 486.142 630.533 486.313C630.014 486.65 629.493 486.946 628.98 487.201C627.955 487.713 626.971 488.067 626.126 488.313C624.433 488.803 623.313 488.904 623.322 489.053" fill="#282828"/>
<path d="M623.712 489.437C623.816 489.479 624.367 488.48 624.426 486.697C624.452 485.815 624.328 484.748 623.939 483.624C623.74 483.064 623.476 482.49 623.134 481.931C622.77 481.385 622.325 480.649 621.194 480.552C620.605 480.545 620.128 480.993 619.971 481.369C619.784 481.753 619.753 482.081 619.692 482.409C619.6 483.069 619.63 483.712 619.74 484.305C619.958 485.5 620.504 486.483 621.09 487.187C622.291 488.616 623.513 488.916 623.535 488.823C623.628 488.683 622.6 488.176 621.673 486.796C621.218 486.115 620.803 485.213 620.661 484.17C620.589 483.652 620.583 483.098 620.673 482.542C620.751 481.941 620.975 481.453 621.213 481.51C621.509 481.498 622.025 481.937 622.28 482.408C622.599 482.904 622.857 483.414 623.059 483.917C623.459 484.926 623.648 485.894 623.711 486.714C623.837 488.364 623.552 489.399 623.712 489.437" fill="#282828"/>
<path d="M695.179 476.76L695.116 476.262L695.614 476.201L725.131 472.613L725.647 472.551L725.69 473.068L728.055 501.612C728.29 501.664 728.633 501.741 729.07 501.841C729.945 502.041 731.196 502.333 732.7 502.699C735.708 503.431 739.73 504.464 743.786 505.663C747.838 506.86 751.939 508.229 755.096 509.635C756.673 510.338 758.035 511.058 759.041 511.783C760.02 512.488 760.775 513.275 760.937 514.141L761.035 514.664L760.507 514.73L701.423 522.062L700.928 522.123L700.865 521.628L695.179 476.76Z" fill="white" stroke="black"/>
<path d="M709.825 506.061C710.08 506.061 710.336 506.017 710.578 505.927C711.693 505.508 712.516 503.952 711.994 502.945C711.621 502.221 710.655 501.695 709.776 501.695C709.429 501.695 709.094 501.777 708.816 501.962C707.838 502.472 707.299 503.687 707.671 504.678C707.982 505.508 708.904 506.061 709.825 506.061V506.061Z" fill="white"/>
<path d="M739.894 516.785L760.446 514.233C760.508 512.931 759.062 512.178 758.271 511.863C759.514 512.67 760.303 513.468 760.446 514.233L739.894 516.785" fill="white"/>
<mask id="path-25-outside-2_923_925" maskUnits="userSpaceOnUse" x="698.975" y="510.565" width="63" height="12" fill="black">
<rect fill="white" x="698.975" y="510.565" width="63" height="12"/>
<path d="M701.36 521.565L739.893 516.785L760.445 514.233C760.302 513.468 759.513 512.67 758.27 511.863C757.973 511.745 757.769 511.689 757.769 511.689L700.975 517.02L701.36 521.565"/>
</mask>
<path d="M701.36 521.565L739.893 516.785L760.445 514.233C760.302 513.468 759.513 512.67 758.27 511.863C757.973 511.745 757.769 511.689 757.769 511.689L700.975 517.02L701.36 521.565" fill="black"/>
<path d="M739.893 516.785L740.016 517.778L740.016 517.778L739.893 516.785ZM760.445 514.233L761.428 514.049L761.623 515.095L760.568 515.226L760.445 514.233ZM758.27 511.863L758.639 510.934L758.731 510.97L758.814 511.024L758.27 511.863ZM757.769 511.689L757.675 510.694L757.856 510.677L758.032 510.725L757.769 511.689ZM700.975 517.02L699.978 517.104L699.894 516.117L700.881 516.024L700.975 517.02ZM701.237 520.573L739.769 515.793L740.016 517.778L701.484 522.558L701.237 520.573ZM739.769 515.793L760.322 513.241L760.568 515.226L740.016 517.778L739.769 515.793ZM759.462 514.417C759.439 514.293 759.341 514.069 759.04 513.747C758.744 513.431 758.308 513.08 757.725 512.702L758.814 511.024C759.474 511.453 760.054 511.904 760.5 512.381C760.939 512.85 761.308 513.408 761.428 514.049L759.462 514.417ZM757.9 512.792C757.775 512.742 757.67 512.706 757.599 512.683C757.563 512.671 757.536 512.663 757.52 512.658C757.512 512.656 757.507 512.654 757.504 512.654C757.503 512.653 757.502 512.653 757.502 512.653C757.502 512.653 757.503 512.653 757.503 512.653C757.503 512.653 757.504 512.654 757.504 512.654C757.504 512.654 757.504 512.654 757.505 512.654C757.505 512.654 757.505 512.654 757.505 512.654C757.505 512.654 757.505 512.654 757.505 512.654C757.505 512.654 757.505 512.654 757.769 511.689C758.032 510.725 758.032 510.725 758.032 510.725C758.032 510.725 758.032 510.725 758.032 510.725C758.032 510.725 758.032 510.725 758.033 510.725C758.033 510.725 758.033 510.725 758.033 510.725C758.034 510.725 758.034 510.725 758.035 510.725C758.036 510.726 758.038 510.726 758.039 510.727C758.043 510.728 758.047 510.729 758.052 510.73C758.061 510.733 758.074 510.737 758.09 510.741C758.121 510.751 758.164 510.764 758.217 510.781C758.323 510.815 758.468 510.866 758.639 510.934L757.9 512.792ZM757.862 512.685L701.068 518.015L700.881 516.024L757.675 510.694L757.862 512.685ZM701.971 516.935L702.357 521.481L700.364 521.65L699.978 517.104L701.971 516.935Z" fill="black" mask="url(#path-25-outside-2_923_925)"/>
<path d="M728.511 501.617C728.534 501.892 727.107 502.193 725.793 503.248C724.451 504.268 723.862 505.542 723.585 505.466C723.312 505.445 723.545 503.761 725.157 502.512C726.759 501.249 728.542 501.359 728.511 501.617Z" fill="#282828"/>
<path d="M735 503.271C735.097 503.528 733.904 504.147 733.065 505.422C732.185 506.674 732.089 507.952 731.8 507.977C731.535 508.053 731.142 506.48 732.218 504.912C733.278 503.338 734.962 503.013 735 503.271" fill="#282828"/>
<path d="M739.371 509.846C739.115 509.938 738.549 508.624 739.109 507.039C739.657 505.448 740.946 504.691 741.095 504.904C741.286 505.106 740.507 506.017 740.068 507.325C739.598 508.624 739.654 509.784 739.371 509.846" fill="#282828"/>
<path d="M727.192 495.097C727.101 495.362 725.732 495.149 724.114 495.457C722.489 495.732 721.283 496.408 721.105 496.192C720.914 496.017 722.03 494.853 723.941 494.516C725.848 494.166 727.308 494.866 727.192 495.097" fill="#282828"/>
<path d="M724.982 488.644C724.998 488.758 723.878 489.067 722.02 488.997C721.096 488.963 719.994 488.815 718.816 488.482C718.227 488.318 717.62 488.106 717.013 487.841C716.721 487.71 716.378 487.583 716.04 487.294C715.685 487.05 715.416 486.349 715.731 485.859C715.982 485.394 716.495 485.142 716.92 485.078C717.354 485.013 717.717 485.05 718.047 485.086C718.724 485.154 719.366 485.285 719.959 485.455C721.147 485.8 722.139 486.3 722.893 486.809C724.41 487.838 725.001 488.799 724.909 488.865C724.788 488.971 724.017 488.199 722.503 487.383C721.748 486.975 720.797 486.575 719.694 486.305C719.141 486.172 718.552 486.07 717.935 486.02C717.291 485.941 716.757 486.003 716.629 486.288C716.583 486.395 716.579 486.436 716.732 486.593C716.886 486.736 717.159 486.86 717.447 486.991C718.008 487.249 718.568 487.464 719.113 487.642C720.201 487.997 721.227 488.205 722.099 488.324C723.844 488.56 724.969 488.498 724.982 488.644" fill="#282828"/>
<path d="M724.653 489.082C724.555 489.137 723.864 488.23 723.545 486.478C723.39 485.607 723.356 484.534 723.576 483.364C723.691 482.781 723.868 482.174 724.125 481.573C724.404 480.977 724.737 480.185 725.841 479.926C726.423 479.831 726.96 480.204 727.171 480.551C727.412 480.906 727.491 481.226 727.6 481.54C727.787 482.179 727.852 482.82 727.829 483.423C727.788 484.636 727.394 485.689 726.917 486.472C725.937 488.061 724.773 488.536 724.737 488.446C724.624 488.322 725.566 487.671 726.281 486.172C726.634 485.431 726.911 484.478 726.899 483.426C726.894 482.901 726.819 482.354 726.649 481.815C726.484 481.234 726.19 480.784 725.962 480.873C725.668 480.906 725.223 481.414 725.038 481.918C724.796 482.457 724.617 483 724.489 483.526C724.241 484.58 724.197 485.568 724.255 486.389C724.373 488.039 724.804 489.022 724.653 489.082" fill="#282828"/>
<path d="M604.392 232.949L697.069 235.912C697.069 235.912 718.908 381.771 718.306 391.902L731.776 497.702L692.582 499.076C692.582 499.076 686.416 464.768 682.116 441.286C679.255 425.662 674.035 402.74 672.62 389.695C671.203 376.648 648.283 285.54 648.283 285.54C648.283 285.54 649.976 391.299 649.938 395.643C649.899 399.988 654.468 498.993 654.468 498.993H615.55C613.539 481.125 608.764 409.618 607.736 395.166C605.879 369.079 600.019 295.368 599.167 276.535C598.313 257.701 604.392 232.949 604.392 232.949" fill="#282828"/>
<path d="M610.5 233.662C610.687 233.662 610.838 232.173 610.838 230.337C610.838 228.5 610.687 227.014 610.5 227.014C610.312 227.014 610.161 228.5 610.161 230.337C610.161 232.173 610.312 233.662 610.5 233.662Z" fill="#7B61FF"/>
<path d="M606.652 235.412C606.826 235.44 607.235 233.53 607.032 231.151C606.839 228.771 606.12 226.956 605.952 227.014C605.763 227.068 606.172 228.91 606.357 231.207C606.554 233.505 606.456 235.388 606.652 235.412Z" fill="#7B61FF"/>
<path d="M641.269 228.466C641.241 228.586 642.301 228.457 643.23 229.559C643.663 230.083 644.034 230.901 643.871 231.755C643.736 232.611 642.916 233.337 641.908 233.526C640.9 233.721 639.871 233.345 639.431 232.6C638.966 231.864 639.011 230.967 639.221 230.321C639.682 228.954 640.715 228.685 640.645 228.584C640.638 228.553 640.385 228.549 639.99 228.754C639.597 228.953 639.095 229.412 638.773 230.152C638.473 230.877 638.331 231.937 638.899 232.925C639.453 233.939 640.812 234.441 642.035 234.191C643.263 233.974 644.342 233.01 644.486 231.863C644.651 230.737 644.13 229.8 643.585 229.237C643.015 228.667 642.378 228.424 641.941 228.384C641.498 228.337 641.264 228.435 641.269 228.466" fill="#7B61FF"/>
<path d="M683.993 389.397C684.064 389.569 688.508 387.909 693.917 385.686C699.329 383.464 703.657 381.524 703.586 381.349C703.515 381.177 699.071 382.837 693.66 385.06C688.25 387.282 683.921 389.224 683.993 389.397Z" fill="#7B61FF"/>
<path d="M689.028 13.7427C688.722 8.34802 685.404 5.02942 680.756 2.27532C676.106 -0.48034 670.079 -0.754045 665.2 1.56929C661.937 3.12285 659.08 5.77587 655.496 6.23774C649.594 6.99974 644.007 1.53197 638.215 2.8958C634.786 3.70602 632.173 7.13502 632.306 10.6558C632.436 14.175 635.298 17.4019 638.778 17.9508C634.912 18.5107 632.724 23.3999 634.153 27.0342C635.582 30.6701 639.638 32.7788 643.544 32.8628C647.448 32.9483 651.201 31.3544 654.579 29.3934C657.957 27.4339 661.111 25.0748 664.633 23.3891C668.156 21.7033 672.209 20.7174 675.982 21.7235C681.092 23.0827 684.712 27.9067 686.046 33.0245C687.379 38.1408 686.804 43.5448 686.011 48.7731C685.216 53.9999 684.209 59.2733 684.706 64.5373C684.764 65.1547 684.901 65.8623 685.445 66.1624C686.23 66.5947 687.13 65.8545 687.708 65.1687C694.237 57.4289 699.224 48.3937 702.294 38.7458C704.078 33.1412 705.061 27.6858 702.921 22.2087C700.78 16.7301 693.568 11.5173 689.028 13.7427" fill="#282828"/>
<path d="M694.005 39.8142L685.367 93.1125C683.754 103.065 677.287 112.682 661.667 109.415C648.329 105.557 649.32 95.9615 651.057 84.1333C651.057 84.1333 651.014 84.5905 651.057 84.1333C651.057 84.1333 636.386 80.3171 637.701 65.3958C638.335 58.1863 640.853 43.4407 643.284 30.1274C645.896 15.8297 659.066 5.94544 673.527 7.39947L674.966 7.54412C690.378 10.009 696.896 24.4746 694.005 39.8142Z" fill="#FFAA88"/>
<path d="M651.058 84.1334C651.058 84.1334 660.396 85.6278 671.038 80.3482C671.038 80.3482 665.187 91.433 650.452 88.595L651.058 84.1334Z" fill="#FFAA88"/>
<path d="M646.21 43.1684C646.057 44.2881 646.88 45.3409 648.046 45.5213C649.21 45.7017 650.28 44.9443 650.433 43.8231C650.586 42.705 649.763 41.6491 648.599 41.4687C647.433 41.2883 646.363 42.0487 646.21 43.1684Z" fill="#282828"/>
<path d="M645.751 37.763C645.987 38.0678 647.719 37.0368 650.008 37.2732C652.299 37.4753 653.862 38.8236 654.137 38.567C654.272 38.4551 654.054 37.9279 653.376 37.3214C652.708 36.7196 651.531 36.0788 650.105 35.942C648.677 35.8067 647.424 36.2095 646.681 36.6791C645.923 37.1472 645.634 37.6262 645.751 37.763" fill="#282828"/>
<path d="M667.064 46.4685C666.912 47.5882 667.734 48.6411 668.901 48.8215C670.064 49.0034 671.135 48.2445 671.287 47.1232C671.44 46.0051 670.618 44.9508 669.453 44.7704C668.287 44.5884 667.217 45.3489 667.064 46.4685Z" fill="#282828"/>
<path d="M667.786 40.4487C668.024 40.7519 669.757 39.7225 672.045 39.9588C674.336 40.161 675.898 41.5077 676.175 41.2527C676.309 41.1407 676.093 40.6135 675.412 40.0071C674.746 39.4037 673.568 38.7645 672.141 38.6261C670.714 38.4908 669.462 38.8951 668.717 39.3632C667.961 39.8329 667.67 40.3118 667.786 40.4487" fill="#282828"/>
<path d="M658.2 56.6016C658.224 56.4725 656.824 56.0837 654.548 55.5565C653.969 55.4368 653.427 55.2657 653.368 54.8567C653.274 54.4197 653.581 53.8148 653.933 53.1632C654.626 51.8025 655.35 50.378 656.11 48.8835C659.15 42.7844 661.412 37.7474 661.165 37.6277C660.918 37.5064 658.255 42.3521 655.217 48.4496C654.481 49.955 653.778 51.3904 653.11 52.7635C652.822 53.4058 652.365 54.1211 652.575 55.0278C652.689 55.4803 653.086 55.8411 653.45 55.9795C653.814 56.1319 654.143 56.1708 654.43 56.2175C656.739 56.5751 658.178 56.7306 658.2 56.6016" fill="#282828"/>
<path d="M668.53 31.4196C668.694 32.0649 671.009 31.9996 673.664 32.5937C676.33 33.1349 678.417 34.1395 678.83 33.617C679.016 33.365 678.697 32.7414 677.882 32.0509C677.074 31.362 675.746 30.6498 674.15 30.3077C672.556 29.9702 671.053 30.0775 670.035 30.3761C669.008 30.6747 668.462 31.1148 668.53 31.4196" fill="#282828"/>
<path d="M647.259 31.2205C647.609 31.7803 649.242 31.3993 651.141 31.5657C653.046 31.6637 654.609 32.2671 655.034 31.7601C655.222 31.5113 655.022 30.9655 654.369 30.4025C653.727 29.8427 652.611 29.3248 651.303 29.2331C649.996 29.1429 648.818 29.5005 648.105 29.9686C647.381 30.4352 647.107 30.9484 647.259 31.2205Z" fill="#282828"/>
<path d="M691.678 50.7263C691.944 50.6423 702.223 48.7279 700.872 58.8828C699.523 69.0377 689.606 65.5884 689.627 65.2945C689.648 65.0022 691.678 50.7263 691.678 50.7263Z" fill="#FFAA88"/>
<path d="M693.241 61.8595C693.29 61.8331 693.402 62.0072 693.682 62.1845C693.956 62.3556 694.445 62.5142 695.001 62.3867C696.125 62.1363 697.256 60.5517 697.548 58.7291C697.697 57.8084 697.619 56.9018 697.39 56.1305C697.178 55.3467 696.767 54.7635 696.239 54.5956C695.719 54.3996 695.293 54.6718 695.131 54.9408C694.957 55.2067 694.994 55.4182 694.939 55.4291C694.906 55.4493 694.743 55.2301 694.881 54.8211C694.949 54.6251 695.1 54.4012 695.364 54.2379C695.635 54.073 696.007 54.0186 696.377 54.1088C697.153 54.2675 697.762 55.0823 698.016 55.9299C698.312 56.7867 698.421 57.8084 698.254 58.8426C697.916 60.8798 696.615 62.6557 695.09 62.8843C694.351 62.9761 693.783 62.6806 693.507 62.4007C693.226 62.1083 693.203 61.8735 693.241 61.8595" fill="#FFAA88"/>
<path d="M644.502 16.2324C646.122 13.4363 648.722 11.3322 651.483 9.6527C657.433 6.03396 664.487 4.11498 671.427 4.70592C678.367 5.29531 685.139 8.48481 689.667 13.7769C693.29 18.0114 695.389 23.4341 696.059 28.9672C696.731 34.5002 696.024 40.1422 694.497 45.5027C693.826 47.8555 692.923 50.2768 691.064 51.8677C689.904 52.8614 688.027 53.4042 686.914 52.356C686.259 51.7387 686.094 50.7776 685.964 49.8865C684.794 41.8279 683.709 33.18 687.35 25.8958C685.659 23.1604 683.628 20.5696 680.982 18.7408C678.337 16.912 675.005 15.9105 671.853 16.5434C667.17 17.4842 663.928 21.6224 659.994 24.3314C654.371 28.2036 646.829 29.1227 640.441 26.7154L644.502 16.2324" fill="#282828"/>
<path d="M656.183 62.7892C656.347 63.7456 656.516 64.716 656.943 65.5869C657.372 66.4577 658.103 67.2306 659.042 67.4732C660.043 67.7329 661.142 67.3379 661.882 66.6163C662.622 65.8947 663.033 64.887 663.199 63.8669C663.349 62.9432 663.159 61.7644 662.273 61.4674C661.905 61.343 661.501 61.4114 661.119 61.4798C659.392 61.7939 657.665 62.1049 655.938 62.4175" fill="#FFAA88"/>
<path d="M657.269 67.1173C657.324 66.9727 658.283 67.618 659.882 67.335C660.655 67.1966 661.555 66.7923 662.173 65.9883C662.788 65.1952 663.124 64.0179 662.889 62.878C662.839 62.595 662.732 62.3213 662.623 62.0772C662.474 61.8392 662.508 61.8548 662.295 61.8424C662.09 61.8548 661.745 61.9356 661.468 61.9823C661.178 62.0352 660.894 62.088 660.616 62.1378C659.507 62.3369 658.507 62.5048 657.664 62.6339C655.978 62.8905 654.924 62.9916 654.9 62.8734C654.876 62.7552 655.888 62.4411 657.544 62.029C658.37 61.8237 659.359 61.5935 660.459 61.351C660.736 61.2903 661.017 61.2296 661.304 61.1659C661.607 61.1114 661.846 61.029 662.251 60.9902C662.449 60.9762 662.72 61.0026 662.955 61.1581C663.187 61.3136 663.308 61.5173 663.395 61.6853C663.55 62.0134 663.677 62.3462 663.743 62.7039C664.031 64.1268 663.594 65.5419 662.797 66.4937C661.985 67.4641 660.861 67.8715 659.963 67.9462C659.049 68.0301 658.322 67.8124 657.878 67.5931C657.429 67.3692 657.24 67.1608 657.269 67.1173" fill="#282828"/>
<path d="M618.343 214.404L615.855 214.383L585.561 152.379L557.5 158C557.5 158 554.84 158.924 562.694 173.297C569.7 186.116 593.574 212.013 599.624 220.365C601.135 222.449 602.432 223.317 602.432 223.317L618.343 214.404Z" fill="#FFAA88"/>
<path d="M557.117 160.484L586.972 155.768L615.5 129L618.231 134.188L624.697 127.708L600.755 98.5001C600.755 98.5001 560.885 135.712 559.254 139C556.001 149.605 557.117 160.484 557.117 160.484Z" fill="#FF424D"/>
<path d="M600.754 98.4999L604.254 96.9999L605.652 107L600.754 98.4999Z" fill="#FF424D"/>
<path d="M710.147 107.132L720.505 113.56L696.589 207.713L700.923 261.921C694.748 267.302 679.149 271.924 649.557 270.246C619.964 268.568 600.279 255.763 600.279 255.763L603.111 199.924L609.835 136.912L605.652 107L604.254 96.9999C604.254 96.9999 613.521 94.9277 622.236 94.4926C629.26 94.142 640.219 95.4854 640.219 95.4854L649.085 90.2307L653.065 92.2197L658.167 106.363L671.459 96.7668L687.006 89.2727L692.685 99.8723L710.147 107.132Z" fill="#FF424D"/>
<path d="M617.448 104.794C617.395 104.777 617.106 105.524 616.628 106.891C616.145 108.254 615.509 110.248 614.778 112.73C613.311 117.691 611.559 124.634 610.173 132.411C608.794 140.193 608.046 147.316 607.713 152.479C607.545 155.06 607.455 157.152 607.438 158.6C607.416 160.046 607.43 160.845 607.486 160.847C607.542 160.85 607.633 160.055 607.753 158.615C607.892 157.024 608.07 154.979 608.283 152.524C608.761 147.387 609.596 140.305 610.969 132.553C612.352 124.807 614.008 117.871 615.328 112.884C615.974 110.506 616.512 108.523 616.93 106.984C617.314 105.59 617.501 104.811 617.448 104.794" fill="#282828"/>
<path d="M662.418 105.544C662.432 105.589 663.241 105.421 664.558 104.756C665.858 104.088 667.684 102.865 669.265 100.732L668.706 100.577C668.947 104.309 669.724 109.141 671.477 114.178L671.651 114.679L672.089 114.377C672.436 114.139 672.808 113.882 673.183 113.624C678.537 109.931 683.359 106.55 686.826 104.071C688.442 102.894 689.806 101.902 690.908 101.099C691.861 100.383 692.374 99.9642 692.341 99.9191C692.31 99.8725 691.737 100.204 690.729 100.84C689.588 101.585 688.174 102.507 686.501 103.599C682.95 105.959 678.077 109.264 672.722 112.957C672.348 113.215 671.976 113.472 671.629 113.711L672.24 113.912C670.505 108.954 669.67 104.208 669.322 100.527L669.242 99.6859L668.762 100.373C667.312 102.452 665.607 103.712 664.39 104.454C663.156 105.194 662.392 105.472 662.418 105.544" fill="#282828"/>
<path d="M641.124 97.2194C641.003 97.3361 643.098 99.6983 646.185 102.964L646.466 103.261L646.74 102.942C647.704 101.818 648.839 100.645 650.121 99.5163C650.763 98.9518 651.409 98.4246 652.051 97.9363C652.371 97.7031 652.685 97.4714 652.997 97.2443L653.186 97.151C653.176 97.1293 653.262 97.2179 653.317 97.375C653.836 98.6952 654.322 99.9316 654.772 101.079C655.624 103.18 656.203 104.462 656.308 104.423C656.414 104.384 656.023 103.034 655.31 100.88C654.909 99.7138 654.476 98.4542 654.015 97.1106C653.937 96.9286 653.855 96.6316 653.481 96.4497C653.083 96.2926 652.757 96.4839 652.579 96.5927C652.227 96.8291 651.913 97.0546 651.575 97.3019C650.911 97.7933 650.245 98.3298 649.586 98.9083C648.271 100.067 647.123 101.288 646.166 102.465L646.72 102.443C643.544 99.2644 641.244 97.1028 641.124 97.2194Z" fill="#282828"/>
<path d="M624.322 388.608C605.922 385.129 589.396 373.148 580.908 354.914C574.132 340.358 573.433 324.032 578.935 308.948C584.435 293.863 595.484 281.822 610.041 275.048C624.6 268.269 640.924 267.568 656.009 273.073C671.095 278.573 683.135 289.623 689.91 304.18C696.685 318.737 697.387 335.063 691.884 350.147C686.383 365.232 675.335 377.272 660.777 384.047C648.96 389.548 636.247 390.863 624.322 388.608V388.608ZM647.293 266.248C634.51 263.829 620.888 265.238 608.22 271.135C592.62 278.396 580.777 291.3 574.88 307.469C568.983 323.636 569.735 341.132 576.997 356.735C591.987 388.942 630.388 402.949 662.598 387.958C678.2 380.696 690.04 367.793 695.938 351.625C701.836 335.459 701.084 317.963 693.822 302.359C684.725 282.819 667.011 269.975 647.293 266.248" fill="#7B61FF"/>
<path d="M635.376 272.513C641.964 272.513 648.569 273.67 654.943 275.995C669.249 281.214 680.665 291.689 687.091 305.494C693.516 319.299 694.181 334.777 688.962 349.081C683.746 363.386 673.271 374.802 659.466 381.228C648.611 386.28 636.659 387.773 624.899 385.553C606.843 382.138 591.452 370.194 583.729 353.604C577.303 339.798 576.639 324.319 581.857 310.015C587.073 295.711 597.549 284.293 611.354 277.867C619.008 274.305 627.179 272.513 635.376 272.513V272.513ZM635.507 397.105C645.208 397.105 654.867 394.989 663.911 390.779C680.266 383.165 692.679 369.639 698.86 352.693C705.043 335.744 704.254 317.403 696.641 301.048C687.489 281.387 669.257 267.234 647.871 263.192C633.939 260.559 619.775 262.327 606.908 268.316C590.553 275.928 578.143 289.456 571.959 306.402C565.777 323.35 566.565 341.692 574.178 358.047C581.778 374.379 595.309 386.781 612.275 392.969C619.845 395.731 627.689 397.105 635.507 397.105" fill="#7B61FF"/>
<path d="M792.134 266.599L791.563 265.196C790.339 262.19 787.661 260.441 785.581 261.287L691.432 299.592C690.968 299.782 690.813 300.479 691.086 301.149L695.098 311.008C695.371 311.68 695.968 312.07 696.432 311.879L790.582 273.575C792.662 272.729 793.358 269.605 792.134 266.599" fill="#7B61FF"/>
<path d="M704.197 158.192L715.523 195.655L709.847 272.003L726.544 274.11C726.544 274.11 745.684 209.048 743.774 197.37C741.866 185.693 734.137 151.378 734.137 151.378L704.197 158.192Z" fill="#FFAA88"/>
<path d="M709.886 271.46L702.11 284.74L697.253 297.225L704.587 294.336C704.587 294.336 707.726 309.354 708.959 309.755C710.192 310.155 713.721 308.928 713.364 306.046C713.364 306.046 715.125 307.814 717.328 307.355C719.532 306.897 720.057 305.474 719.815 302.734C719.815 302.734 722.385 304.825 723.92 303.521C725.455 302.217 725.311 299.947 725.311 299.947C725.311 299.947 728.656 300.236 729.115 298.498C729.575 296.761 729.694 291.809 729.3 289.92C728.908 288.032 727.302 280.318 727.302 280.318L726.543 274.11L709.886 271.46" fill="#FFAA88"/>
<path d="M711.714 297.387C711.903 297.353 712.426 299.261 712.882 301.653C713.339 304.045 713.555 306.013 713.365 306.048C713.177 306.085 712.655 304.175 712.198 301.783C711.743 299.392 711.526 297.424 711.714 297.387Z" fill="#FFAA88"/>
<path d="M718.533 295.653C718.722 295.614 719.186 297.137 719.57 299.051C719.955 300.967 720.113 302.549 719.925 302.587C719.737 302.625 719.273 301.104 718.889 299.188C718.504 297.274 718.345 295.691 718.533 295.653Z" fill="#FFAA88"/>
<path d="M724.214 294.056C724.423 294.042 724.578 295.4 724.822 296.998C725.084 298.592 725.503 299.868 725.313 299.947C725.153 300.022 724.419 298.818 724.136 297.112C723.879 295.418 724.04 294.062 724.214 294.056Z" fill="#FFAA88"/>
<path d="M704.022 290.004C704.214 289.969 704.702 291.853 705.265 294.173C705.824 296.496 706.25 298.393 706.063 298.451C705.883 298.507 705.154 296.683 704.589 294.336C704.021 291.989 703.836 290.036 704.022 290.004Z" fill="#FFAA88"/>
<path d="M744.691 222.599C744.691 221.328 749.925 203.529 748.335 194.31C746.746 185.09 727.773 122.778 725.23 118.327C722.686 113.876 717.121 111.461 717.121 111.461C717.121 111.461 705.838 116.738 702.023 130.407C698.208 144.077 698.208 161.244 698.208 161.244L713.467 199.072L711.646 220.56L744.691 222.599" fill="#FF424D"/>
<path d="M699.189 159.99C699.342 159.978 699.047 157.199 699.198 152.718C699.26 150.479 699.509 147.82 699.952 144.896C700.438 141.979 701.142 138.798 702.158 135.539C703.205 132.289 704.46 129.281 705.742 126.616C707.064 123.969 708.392 121.652 709.631 119.786C712.087 116.035 713.927 113.934 713.809 113.834C713.767 113.799 713.284 114.301 712.444 115.245C711.589 116.175 710.455 117.615 709.155 119.465C707.844 121.31 706.449 123.622 705.074 126.283C703.739 128.962 702.446 132.001 701.386 135.295C700.357 138.596 699.666 141.823 699.214 144.784C698.806 147.75 698.614 150.445 698.625 152.707C698.622 154.969 698.721 156.797 698.883 158.051C699.027 159.307 699.133 159.996 699.189 159.99" fill="#282828"/>
<path d="M700.166 167.902C700.067 167.941 700.639 169.756 701.745 172.622C702.846 175.49 704.516 179.392 706.448 183.653C708.316 187.805 710.004 191.559 711.361 194.574C712.598 197.376 713.358 199.115 713.469 199.071C713.566 199.036 712.995 197.221 711.89 194.355C710.788 191.486 709.118 187.585 707.186 183.321C705.319 179.171 703.63 175.417 702.274 172.403C701.037 169.601 700.277 167.862 700.166 167.902Z" fill="#282828"/>
<path d="M712.582 200.538C712.718 200.762 716.982 197.781 723.036 195.992C729.074 194.142 734.275 194.277 734.265 194.014C734.268 193.918 732.976 193.756 730.878 193.837C728.783 193.913 725.882 194.294 722.804 195.216C719.728 196.146 717.098 197.428 715.309 198.519C713.514 199.611 712.526 200.459 712.582 200.538" fill="#282828"/>
<path d="M613.275 307.701C613.13 307.87 625.389 318.6 640.655 331.662C655.925 344.729 668.419 355.178 668.564 355.009C668.709 354.839 656.452 344.112 641.181 331.046C625.916 317.985 613.419 307.531 613.275 307.701Z" fill="white"/>
<path d="M597.504 307.701C597.358 307.87 607.686 316.986 620.565 328.057C633.449 339.132 644.01 347.969 644.156 347.801C644.301 347.631 633.978 338.517 621.094 327.443C608.213 316.37 597.651 307.531 597.504 307.701Z" fill="white"/>
<path d="M574.285 329.547C574.285 329.547 574.33 329.211 574.377 328.558C574.421 327.877 574.483 326.911 574.564 325.656C574.601 325.017 574.645 324.304 574.691 323.521C574.774 322.737 574.94 321.889 575.078 320.967C575.225 320.043 575.383 319.053 575.551 317.992C575.679 316.924 576.075 315.838 576.351 314.661C577.427 309.938 579.637 304.36 583.12 298.448C586.633 292.56 591.699 286.41 598.601 281.187C599.467 280.542 600.344 279.889 601.232 279.228C602.156 278.623 603.13 278.068 604.092 277.474C605.075 276.917 606.005 276.238 607.059 275.76C608.101 275.261 609.153 274.756 610.216 274.245C610.75 273.994 611.285 273.74 611.823 273.485C612.382 273.281 612.944 273.076 613.51 272.871C614.639 272.46 615.78 272.043 616.931 271.625C618.093 271.241 619.311 270.994 620.513 270.667C621.729 270.392 622.925 269.963 624.192 269.834C626.705 269.479 629.245 268.96 631.877 268.946C633.188 268.901 634.509 268.773 635.84 268.793C637.171 268.862 638.511 268.932 639.861 269.002C640.535 269.048 641.217 269.045 641.891 269.134L643.917 269.445C645.27 269.67 646.645 269.827 648.005 270.109C650.687 270.84 653.464 271.384 656.106 272.487C658.832 273.361 661.394 274.706 664.029 275.97C665.311 276.665 666.54 277.475 667.811 278.23C668.432 278.628 669.096 278.967 669.688 279.415L671.476 280.755C673.945 282.45 676.104 284.57 678.366 286.61C680.409 288.873 682.555 291.084 684.316 293.65L685.714 295.519L686.936 297.518L688.157 299.528C688.581 300.191 688.97 300.875 689.288 301.6C689.974 303.021 690.661 304.449 691.351 305.883C691.898 307.376 692.447 308.875 692.999 310.38C694.978 316.476 696.045 322.95 696.132 329.537C696.046 336.128 694.982 342.605 693.003 348.703C692.451 350.208 691.902 351.709 691.355 353.202C690.665 354.635 689.977 356.064 689.293 357.486L688.775 358.548L688.162 359.559L686.941 361.57L685.718 363.569L684.321 365.437C682.558 368.003 680.413 370.217 678.369 372.479C676.107 374.522 673.948 376.642 671.478 378.337L669.69 379.675C669.098 380.125 668.434 380.466 667.812 380.864C666.543 381.616 665.313 382.428 664.03 383.123C661.395 384.386 658.832 385.734 656.106 386.605C653.464 387.709 650.687 388.255 648.004 388.985C646.644 389.266 645.269 389.425 643.916 389.649L641.89 389.96C641.214 390.05 640.533 390.045 639.859 390.092C638.508 390.162 637.168 390.23 635.837 390.3C634.506 390.321 633.185 390.193 631.874 390.148C629.241 390.134 626.702 389.614 624.189 389.258C622.92 389.129 621.724 388.702 620.509 388.426C619.306 388.098 618.09 387.852 616.927 387.467C615.776 387.047 614.634 386.633 613.505 386.221C612.941 386.014 612.378 385.809 611.818 385.607C611.28 385.352 610.745 385.097 610.213 384.845C609.149 384.335 608.097 383.831 607.055 383.332C606.002 382.853 605.07 382.174 604.089 381.616C603.126 381.022 602.153 380.469 601.229 379.862C600.341 379.202 599.464 378.55 598.598 377.905C591.696 372.682 586.63 366.531 583.118 360.643C579.635 354.729 577.425 349.15 576.349 344.431C576.075 343.252 575.677 342.168 575.551 341.1C575.383 340.039 575.225 339.047 575.078 338.125C574.94 337.204 574.774 336.355 574.691 335.573C574.645 334.789 574.601 334.077 574.564 333.438C574.483 332.181 574.421 331.218 574.377 330.537C574.33 329.883 574.285 329.547 574.285 329.547C574.285 329.547 574.275 329.883 574.293 330.539C574.32 331.222 574.355 332.189 574.4 333.447C574.427 334.091 574.456 334.806 574.489 335.593C574.559 336.378 574.715 337.231 574.841 338.159C574.976 339.087 575.122 340.086 575.278 341.153C575.393 342.227 575.78 343.32 576.044 344.508C577.078 349.264 579.257 354.895 582.73 360.874C586.23 366.828 591.308 373.059 598.251 378.358C599.124 379.013 600.005 379.677 600.898 380.347C601.829 380.963 602.809 381.528 603.778 382.13C604.769 382.699 605.708 383.386 606.769 383.873C607.82 384.381 608.88 384.896 609.953 385.414C610.49 385.671 611.031 385.929 611.574 386.189C612.137 386.395 612.706 386.605 613.275 386.815C614.417 387.235 615.567 387.658 616.731 388.084C617.903 388.478 619.132 388.731 620.348 389.066C621.576 389.349 622.785 389.784 624.064 389.919C626.606 390.286 629.173 390.816 631.835 390.84C633.16 390.888 634.496 391.02 635.841 391.002C637.188 390.936 638.544 390.869 639.911 390.801C640.593 390.756 641.282 390.76 641.965 390.672L644.017 390.363C645.385 390.14 646.777 389.98 648.155 389.699C650.871 388.967 653.684 388.419 656.36 387.306C659.121 386.428 661.719 385.07 664.388 383.795C665.689 383.091 666.936 382.273 668.223 381.512C668.853 381.11 669.525 380.766 670.125 380.311L671.939 378.957C674.442 377.245 676.632 375.102 678.923 373.034C680.997 370.748 683.172 368.505 684.96 365.908L686.376 364.014L687.617 361.991L688.855 359.954L689.477 358.931L690.003 357.854C690.698 356.414 691.395 354.967 692.095 353.516C692.65 352.001 693.207 350.483 693.767 348.956C695.776 342.779 696.855 336.215 696.942 329.537C696.855 322.863 695.773 316.3 693.763 310.127C693.204 308.601 692.645 307.082 692.091 305.568C691.39 304.116 690.694 302.671 689.999 301.231C689.676 300.497 689.282 299.804 688.851 299.132L687.613 297.096L686.372 295.073L684.955 293.18C683.168 290.583 680.993 288.343 678.921 286.056C676.629 283.99 674.438 281.847 671.936 280.133L670.123 278.78C669.523 278.326 668.851 277.984 668.221 277.581C666.934 276.821 665.687 276.001 664.387 275.3C661.719 274.023 659.121 272.665 656.36 271.785C653.684 270.675 650.872 270.128 648.155 269.395C646.779 269.112 645.387 268.955 644.018 268.731L641.967 268.42C641.284 268.333 640.595 268.336 639.913 268.291C638.546 268.224 637.19 268.157 635.844 268.09C634.498 268.075 633.162 268.204 631.838 268.255C629.176 268.277 626.609 268.806 624.069 269.174C622.788 269.31 621.579 269.745 620.351 270.026C619.135 270.361 617.908 270.614 616.734 271.006C615.572 271.435 614.42 271.858 613.28 272.278C612.709 272.487 612.141 272.695 611.577 272.903C611.034 273.163 610.495 273.421 609.958 273.678C608.885 274.197 607.823 274.71 606.773 275.219C605.711 275.706 604.773 276.393 603.783 276.961C602.812 277.564 601.833 278.127 600.903 278.744C600.01 279.415 599.127 280.076 598.254 280.732C591.311 286.032 586.233 292.261 582.731 298.216C579.257 304.195 577.08 309.826 576.044 314.583C575.78 315.77 575.394 316.865 575.278 317.941C575.122 319.006 574.976 320.005 574.841 320.933C574.715 321.861 574.559 322.714 574.489 323.5C574.456 324.287 574.427 325.003 574.4 325.647C574.355 326.906 574.32 327.872 574.293 328.556C574.275 329.211 574.285 329.547 574.285 329.547" fill="#282828"/>
<path d="M596.848 361.997C596.896 361.955 596.319 361.238 595.316 359.917C594.31 358.598 592.921 356.638 591.423 354.088C588.414 349.025 585.172 341.331 584.229 332.343C583.284 323.351 584.861 315.153 586.753 309.575C587.689 306.769 588.64 304.562 589.35 303.065C590.058 301.566 590.475 300.745 590.417 300.713C590.392 300.699 590.26 300.888 590.028 301.259C589.806 301.639 589.45 302.182 589.067 302.925C588.266 304.387 587.228 306.576 586.212 309.388C584.159 314.975 582.463 323.291 583.425 332.427C584.38 341.56 587.766 349.343 590.932 354.383C592.51 356.923 593.981 358.85 595.068 360.114C595.596 360.761 596.057 361.218 596.353 361.542C596.656 361.859 596.826 362.016 596.848 361.997" fill="#282828"/>
<path d="M680.251 355.724C680.277 355.735 680.406 355.483 680.628 354.993C680.84 354.5 681.193 353.785 681.542 352.824C682.295 350.922 683.224 348.098 684.01 344.519C685.613 337.406 686.262 326.992 683.324 316.122C680.39 305.248 674.584 296.575 669.62 291.237C667.137 288.54 664.914 286.568 663.306 285.306C662.521 284.651 661.856 284.211 661.424 283.89C660.985 283.579 660.746 283.428 660.73 283.449C660.689 283.503 661.569 284.211 663.103 285.547C664.641 286.876 666.789 288.899 669.192 291.619C674.005 297.008 679.649 305.611 682.543 316.333C685.438 327.051 684.894 337.324 683.45 344.404C682.742 347.964 681.905 350.793 681.246 352.716C680.591 354.643 680.188 355.698 680.251 355.724" fill="white"/>
<path d="M644.156 279.499C644.138 279.721 645.75 280.038 647.758 280.205C649.765 280.373 651.407 280.326 651.427 280.105C651.445 279.881 649.833 279.566 647.825 279.398C645.817 279.23 644.175 279.276 644.156 279.499Z" fill="white"/>
<defs>
<filter id="filter0_d_923_925" x="0.490002" y="76.49" width="857.02" height="399.39" filterUnits="userSpaceOnUse" color-interpolation-filters="sRGB">
<feFlood flood-opacity="0" result="BackgroundImageFix"/>
<feColorMatrix in="SourceAlpha" type="matrix" values="0 0 0 0 0 0 0 0 0 0 0 0 0 0 0 0 0 0 127 0" result="hardAlpha"/>
<feOffset/>
<feGaussianBlur stdDeviation="16.755"/>
<feComposite in2="hardAlpha" operator="out"/>
<feColorMatrix type="matrix" values="0 0 0 0 0 0 0 0 0 0 0 0 0 0 0 0 0 0 0.25 0"/>
<feBlend mode="normal" in2="BackgroundImageFix" result="effect1_dropShadow_923_925"/>
<feBlend mode="normal" in="SourceGraphic" in2="effect1_dropShadow_923_925" result="shape"/>
</filter>
<filter id="filter1_d_923_925" x="90.1429" y="204.607" width="414.82" height="151.26" filterUnits="userSpaceOnUse" color-interpolation-filters="sRGB">
<feFlood flood-opacity="0" result="BackgroundImageFix"/>
<feColorMatrix in="SourceAlpha" type="matrix" values="0 0 0 0 0 0 0 0 0 0 0 0 0 0 0 0 0 0 127 0" result="hardAlpha"/>
<feOffset dy="4.46428"/>
<feGaussianBlur stdDeviation="8.92857"/>
<feComposite in2="hardAlpha" operator="out"/>
<feColorMatrix type="matrix" values="0 0 0 0 0 0 0 0 0 0 0 0 0 0 0 0 0 0 0.05 0"/>
<feBlend mode="normal" in2="BackgroundImageFix" result="effect1_dropShadow_923_925"/>
<feBlend mode="normal" in="SourceGraphic" in2="effect1_dropShadow_923_925" result="shape"/>
</filter>
<clipPath id="clip0_923_925">
<path d="M108 237.748C108 226.841 116.841 218 127.748 218H467.357C478.264 218 487.105 226.841 487.105 237.748V313.798C487.105 324.704 478.264 333.546 467.357 333.546H127.748C116.841 333.546 108 324.704 108 313.798V237.748Z" fill="white"/>
</clipPath>
</defs>
</svg>
