<svg xmlns="http://www.w3.org/2000/svg" width="265" height="401" fill="none" xmlns:v="https://vecta.io/nano"><g filter="url(#A)"><rect x="4" y="2" width="257" height="393" rx="5" fill="#fff"/></g><path d="M4 7a5 5 0 0 1 5-5h247a5 5 0 0 1 5 5v123H4V7z" fill="#7b61ff"/><path d="M90.456 44.912v5.76h-2.232V47H74.4l-.024 3.672h-2.232l.024-5.76h.816c1.056-.064 1.8-.896 2.232-2.496.432-1.616.696-3.888.792-6.816l.168-5.4h11.808v14.712h2.472zM78.12 35.816c-.08 2.368-.272 4.328-.576 5.88-.288 1.552-.76 2.624-1.416 3.216h9.48V32.288H78.24l-.12 3.528zm20.4 11.328c-1.264 0-2.4-.28-3.408-.84s-1.8-1.328-2.376-2.304c-.56-.992-.84-2.112-.84-3.36s.28-2.36.84-3.336c.576-.992 1.368-1.76 2.376-2.304 1.008-.56 2.144-.84 3.408-.84s2.392.28 3.384.84a5.82 5.82 0 0 1 2.352 2.304c.576.976.864 2.088.864 3.336s-.288 2.368-.864 3.36a6.03 6.03 0 0 1-2.352 2.304c-.992.56-2.12.84-3.384.84zm0-2.016c.816 0 1.544-.184 2.184-.552a4.06 4.06 0 0 0 1.536-1.584c.368-.688.552-1.472.552-2.352s-.184-1.656-.552-2.328c-.368-.688-.88-1.216-1.536-1.584-.64-.368-1.368-.552-2.184-.552s-1.552.184-2.208.552c-.64.368-1.152.896-1.536 1.584-.368.672-.552 1.448-.552 2.328s.184 1.664.552 2.352c.384.672.896 1.2 1.536 1.584.656.368 1.392.552 2.208.552zm16.407-10.416c1.184 0 2.24.264 3.168.792s1.648 1.264 2.16 2.208c.528.928.792 1.992.792 3.192 0 1.232-.28 2.328-.84 3.288a5.64 5.64 0 0 1-2.328 2.208c-.992.528-2.128.792-3.408.792-2.16 0-3.832-.736-5.016-2.208-1.168-1.488-1.752-3.576-1.752-6.264 0-2.608.536-4.648 1.608-6.12 1.072-1.488 2.712-2.472 4.92-2.952l5.808-1.296.336 2.112-5.352 1.152c-1.664.368-2.904.992-3.72 1.872s-1.28 2.144-1.392 3.792c.544-.816 1.248-1.448 2.112-1.896s1.832-.672 2.904-.672zm-.408 10.56c.816 0 1.536-.184 2.16-.552a3.86 3.86 0 0 0 1.488-1.512c.352-.656.528-1.4.528-2.232 0-1.264-.384-2.28-1.152-3.048s-1.776-1.152-3.024-1.152-2.264.384-3.048 1.152c-.768.768-1.152 1.784-1.152 3.048 0 .832.176 1.576.528 2.232.368.64.872 1.144 1.512 1.512s1.36.552 2.16.552zm14.237-11.112c1.76 0 3.104.432 4.032 1.296.944.864 1.416 2.152 1.416 3.864V47h-2.184v-1.68c-.384.592-.936 1.048-1.656 1.368-.704.304-1.544.456-2.52.456-1.424 0-2.568-.344-3.432-1.032-.848-.688-1.272-1.592-1.272-2.712s.408-2.016 1.224-2.688c.816-.688 2.112-1.032 3.888-1.032h3.648v-.456c0-.992-.288-1.752-.864-2.28s-1.424-.792-2.544-.792c-.752 0-1.488.128-2.208.384-.72.24-1.328.568-1.824.984l-.96-1.728c.656-.528 1.44-.928 2.352-1.2.912-.288 1.88-.432 2.904-.432zm-.528 11.208c.88 0 1.64-.192 2.28-.576.64-.4 1.104-.96 1.392-1.68v-1.776h-3.552c-1.952 0-2.928.656-2.928 1.968 0 .64.248 1.144.744 1.512s1.184.552 2.064.552zm18.789-4.968c1.648.416 2.472 1.448 2.472 3.096 0 1.12-.424 1.984-1.272 2.592-.832.608-2.08.912-3.744.912h-6.12V34.28h5.904c1.504 0 2.68.288 3.528.864.848.56 1.272 1.36 1.272 2.4 0 .672-.184 1.256-.552 1.752-.352.48-.848.848-1.488 1.104zm-6.408-.648h3.456c.88 0 1.544-.16 1.992-.48.464-.32.696-.784.696-1.392 0-1.216-.896-1.824-2.688-1.824h-3.456v3.696zm3.696 5.472c.96 0 1.68-.152 2.16-.456s.72-.776.72-1.416c0-.656-.224-1.144-.672-1.464-.432-.32-1.12-.48-2.064-.48h-3.84v3.816h3.696zm8.79-10.944h2.304v9.264l7.8-9.264h2.088V47h-2.304v-9.264L155.207 47h-2.112V34.28zm26.144 2.016h-4.656V47h-2.304V36.296h-4.656V34.28h11.616v2.016zm8.236 2.304c1.616.016 2.848.384 3.696 1.104s1.272 1.736 1.272 3.048c0 1.376-.464 2.44-1.392 3.192-.912.736-2.224 1.096-3.936 1.08l-5.52-.024V34.28h2.304v4.296l3.576.024zm-.552 6.672c1.04.016 1.824-.192 2.352-.624.544-.432.816-1.072.816-1.92 0-.832-.264-1.44-.792-1.824-.512-.384-1.304-.584-2.376-.6l-3.024-.048v4.992l3.024.024zM93.303 63.28l-6.168 13.992c-.544 1.296-1.184 2.208-1.92 2.736-.72.528-1.592.792-2.616.792-.624 0-1.232-.104-1.824-.312-.576-.192-1.056-.48-1.44-.864l.984-1.728c.656.624 1.416.936 2.28.936.56 0 1.024-.152 1.392-.456.384-.288.728-.792 1.032-1.512l.408-.888-5.616-12.696h2.4l4.44 10.176 4.392-10.176h2.256zm9.103-.12c1.232 0 2.336.272 3.312.816s1.736 1.304 2.28 2.28c.56.976.84 2.104.84 3.384s-.28 2.416-.84 3.408c-.544.976-1.304 1.736-2.28 2.28s-2.08.816-3.312.816c-.912 0-1.752-.176-2.52-.528-.752-.352-1.392-.864-1.92-1.536v6.576h-2.304V63.28h2.208v2.016c.512-.704 1.16-1.232 1.944-1.584.784-.368 1.648-.552 2.592-.552zm-.192 10.968c.816 0 1.544-.184 2.184-.552a4.06 4.06 0 0 0 1.536-1.584c.384-.688.576-1.472.576-2.352s-.192-1.656-.576-2.328c-.368-.688-.88-1.216-1.536-1.584-.64-.368-1.368-.552-2.184-.552-.8 0-1.528.192-2.184.576a4.11 4.11 0 0 0-1.536 1.56c-.368.672-.552 1.448-.552 2.328s.184 1.664.552 2.352a4.06 4.06 0 0 0 1.536 1.584c.656.368 1.384.552 2.184.552zm15.419 2.016c-1.264 0-2.4-.28-3.408-.84s-1.8-1.328-2.376-2.304c-.56-.992-.84-2.112-.84-3.36s.28-2.36.84-3.336c.576-.992 1.368-1.76 2.376-2.304 1.008-.56 2.144-.84 3.408-.84s2.392.28 3.384.84a5.82 5.82 0 0 1 2.352 2.304c.576.976.864 2.088.864 3.336s-.288 2.368-.864 3.36a6.03 6.03 0 0 1-2.352 2.304c-.992.56-2.12.84-3.384.84zm0-2.016c.816 0 1.544-.184 2.184-.552a4.06 4.06 0 0 0 1.536-1.584c.368-.688.552-1.472.552-2.352s-.184-1.656-.552-2.328c-.368-.688-.88-1.216-1.536-1.584-.64-.368-1.368-.552-2.184-.552s-1.552.184-2.208.552c-.64.368-1.152.896-1.536 1.584-.368.672-.552 1.448-.552 2.328s.184 1.664.552 2.352c.384.672.896 1.2 1.536 1.584.656.368 1.392.552 2.208.552zm18.591-4.728c1.648.416 2.472 1.448 2.472 3.096 0 1.12-.424 1.984-1.272 2.592-.832.608-2.08.912-3.744.912h-6.12V63.28h5.904c1.504 0 2.68.288 3.528.864.848.56 1.272 1.36 1.272 2.4 0 .672-.184 1.256-.552 1.752-.352.48-.848.848-1.488 1.104zm-6.408-.648h3.456c.88 0 1.544-.16 1.992-.48.464-.32.696-.784.696-1.392 0-1.216-.896-1.824-2.688-1.824h-3.456v3.696zm3.696 5.472c.96 0 1.68-.152 2.16-.456s.72-.776.72-1.416c0-.656-.224-1.144-.672-1.464-.432-.32-1.12-.48-2.064-.48h-3.84v3.816h3.696zm20.286-4.512c0 .176-.016.408-.048.696h-10.32c.144 1.12.632 2.024 1.464 2.712.848.672 1.896 1.008 3.144 1.008 1.52 0 2.744-.512 3.672-1.536l1.272 1.488c-.576.672-1.296 1.184-2.16 1.536-.848.352-1.8.528-2.856.528-1.344 0-2.536-.272-3.576-.816-1.04-.56-1.848-1.336-2.424-2.328-.56-.992-.84-2.112-.84-3.36 0-1.232.272-2.344.816-3.336.56-.992 1.32-1.76 2.28-2.304.976-.56 2.072-.84 3.288-.84s2.296.28 3.24.84a5.63 5.63 0 0 1 2.232 2.304c.544.992.816 2.128.816 3.408zm-6.288-4.608c-1.104 0-2.032.336-2.784 1.008-.736.672-1.168 1.552-1.296 2.64h8.16c-.128-1.072-.568-1.944-1.32-2.616-.736-.688-1.656-1.032-2.76-1.032zm9.863-1.824h2.304v5.4h7.248v-5.4h2.304V76h-2.304v-5.328h-7.248V76h-2.304V63.28zm22.216 4.32c1.616.016 2.848.384 3.696 1.104s1.272 1.736 1.272 3.048c0 1.376-.464 2.44-1.392 3.192-.912.736-2.224 1.096-3.936 1.08l-5.52-.024V63.28h2.304v4.296l3.576.024zm-.552 6.672c1.04.016 1.824-.192 2.352-.624.544-.432.816-1.072.816-1.92 0-.832-.264-1.44-.792-1.824-.512-.384-1.304-.584-2.376-.6l-3.024-.048v4.992l3.024.024zM83.973 92.28V105h-2.304V94.296h-7.176V105h-2.304V92.28h11.784zm9.906 12.864c-1.264 0-2.4-.28-3.408-.84s-1.8-1.328-2.376-2.304c-.56-.992-.84-2.112-.84-3.36s.28-2.36.84-3.336c.576-.992 1.368-1.76 2.376-2.304 1.008-.56 2.144-.84 3.408-.84s2.392.28 3.384.84a5.82 5.82 0 0 1 2.352 2.304c.576.976.864 2.088.864 3.336s-.288 2.368-.864 3.36a6.03 6.03 0 0 1-2.352 2.304c-.992.56-2.12.84-3.384.84zm0-2.016c.816 0 1.544-.184 2.184-.552a4.06 4.06 0 0 0 1.536-1.584c.368-.688.552-1.472.552-2.352s-.184-1.656-.552-2.328c-.368-.688-.88-1.216-1.536-1.584-.64-.368-1.368-.552-2.184-.552s-1.552.184-2.208.552c-.64.368-1.152.896-1.536 1.584-.368.672-.552 1.448-.552 2.328s.184 1.664.552 2.352c.384.672.896 1.2 1.536 1.584.656.368 1.392.552 2.208.552zm22.769-.144v4.968h-2.16V105h-10.632v2.952h-2.184v-4.968h.672c.816-.048 1.376-.624 1.68-1.728s.512-2.664.624-4.68l.192-4.296h9.864v10.704h1.944zm-9.888-6.24c-.064 1.6-.2 2.928-.408 3.984-.192 1.04-.552 1.792-1.08 2.256h7.128v-8.688h-5.52l-.12 2.448zm24.674-4.464V105h-2.304V94.296h-7.176V105h-2.304V92.28h11.784zm4.458 0h2.304v9.264l7.8-9.264h2.088V105h-2.304v-9.264L138.004 105h-2.112V92.28zm22.208 12.864c-1.296 0-2.456-.28-3.48-.84-1.008-.56-1.8-1.328-2.376-2.304-.576-.992-.864-2.112-.864-3.36s.288-2.36.864-3.336c.576-.992 1.368-1.76 2.376-2.304 1.024-.56 2.184-.84 3.48-.84 1.152 0 2.176.232 3.072.696a4.94 4.94 0 0 1 2.112 2.016L161.532 96c-.4-.608-.896-1.064-1.488-1.368s-1.248-.456-1.968-.456c-.832 0-1.584.184-2.256.552-.656.368-1.176.896-1.56 1.584-.368.672-.552 1.448-.552 2.328 0 .896.184 1.688.552 2.376a4.06 4.06 0 0 0 1.56 1.56c.672.368 1.424.552 2.256.552.72 0 1.376-.152 1.968-.456s1.088-.76 1.488-1.368l1.752 1.104a5.09 5.09 0 0 1-2.112 2.04c-.896.464-1.92.696-3.072.696zm13.111-5.52h-2.64V105h-2.304V92.28h2.304v5.376h2.688l4.128-5.376h2.472l-4.824 6.12 5.16 6.6h-2.712l-4.272-5.376zm9.4-7.344h2.304v9.264l7.8-9.264h2.088V105h-2.304v-9.264L182.723 105h-2.112V92.28z" fill="#fff"/><path d="M168.96 238.18a2 2 0 0 1-2 2h-25.64a2 2 0 0 0-2 2v25.151a2 2 0 0 1-2 2h-9.68a2 2 0 0 1-2-2V242.18a2 2 0 0 0-2-2H98a2 2 0 0 1-2-2v-8.866a2 2 0 0 1 2-2h25.64a2 2 0 0 0 2-2V200a2 2 0 0 1 2-2h9.68a2 2 0 0 1 2 2v25.314a2 2 0 0 0 2 2h25.64a2 2 0 0 1 2 2v8.866z" fill="#7b61ff"/><defs><filter id="A" x="0" y="0" width="265" height="401" filterUnits="userSpaceOnUse" color-interpolation-filters="sRGB"><feFlood flood-opacity="0" result="A"/><feColorMatrix in="SourceAlpha" values="0 0 0 0 0 0 0 0 0 0 0 0 0 0 0 0 0 0 127 0" result="B"/><feOffset dy="2"/><feGaussianBlur stdDeviation="2"/><feComposite in2="B" operator="out"/><feColorMatrix values="0 0 0 0 0 0 0 0 0 0 0 0 0 0 0 0 0 0 0.25 0"/><feBlend in2="A"/><feBlend in="SourceGraphic"/></filter></defs></svg>