<svg width="870" height="578" viewBox="0 0 870 578" fill="none" xmlns="http://www.w3.org/2000/svg">
<path d="M176.624 163.912H10.0315C6.47585 163.912 3.59375 161.029 3.59375 157.474C3.59375 153.918 6.47585 151.036 10.0315 151.036H176.624C180.18 151.036 183.062 153.918 183.062 157.474C183.062 161.029 180.18 163.912 176.624 163.912Z" fill="#FF42B5"/>
<path d="M84.2166 248.87H65.0642C60.0311 248.87 55.9517 244.791 55.9517 239.758V221.78C55.9517 216.747 60.0311 212.668 65.0642 212.668H84.2166C89.2482 212.668 93.3277 216.747 93.3277 221.78V239.758C93.3277 244.791 89.2482 248.87 84.2166 248.87Z" fill="#7B61FF"/>
<path d="M641.298 568.097H630.851C628.105 568.097 625.879 565.871 625.879 563.125V553.316C625.879 550.571 628.105 548.345 630.851 548.345H641.298C644.044 548.345 646.272 550.571 646.272 553.316V563.125C646.272 565.871 644.044 568.097 641.298 568.097Z" fill="#FF42B5"/>
<path d="M828.7 149.239H818.251C815.505 149.239 813.279 147.014 813.279 144.269V134.46C813.279 131.714 815.505 129.488 818.251 129.488H828.7C831.446 129.488 833.67 131.714 833.67 134.46V144.269C833.67 147.014 831.446 149.239 828.7 149.239Z" fill="#7B61FF"/>
<path d="M281.801 566.016H220.153C215.589 566.016 211.888 562.315 211.888 557.751C211.888 553.185 215.589 549.485 220.153 549.485H281.801C286.365 549.485 290.066 553.185 290.066 557.751C290.066 562.315 286.365 566.016 281.801 566.016Z" fill="#FF424D"/>
<path d="M677.433 507.454H180.959C175.208 507.454 170.548 502.792 170.548 497.043V83.5293C170.548 77.7799 175.208 73.1181 180.959 73.1181H677.433C683.182 73.1181 687.844 77.7799 687.844 83.5293V497.043C687.844 502.792 683.182 507.454 677.433 507.454V507.454Z" stroke="#FCFCEC" stroke-width="2.58815" stroke-miterlimit="10"/>
<path d="M677.433 507.454H180.959C175.208 507.454 170.548 502.792 170.548 497.043V83.5293C170.548 77.7799 175.208 73.1181 180.959 73.1181H677.433C683.182 73.1181 687.844 77.7799 687.844 83.5293V497.043C687.844 502.792 683.182 507.454 677.433 507.454Z" fill="#2B2B2B"/>
<path d="M170.548 125.381H687.844" stroke="#FCFCEC" stroke-width="2.58815" stroke-miterlimit="10"/>
<path d="M221.571 99.7833C221.571 103.81 218.306 107.076 214.278 107.076C210.251 107.076 206.986 103.81 206.986 99.7833C206.986 95.7548 210.251 92.4907 214.278 92.4907C218.306 92.4907 221.571 95.7548 221.571 99.7833Z" stroke="#FCFCEC" stroke-width="2.58815" stroke-miterlimit="10"/>
<path d="M249.913 99.7833C249.913 103.81 246.649 107.076 242.621 107.076C238.594 107.076 235.328 103.81 235.328 99.7833C235.328 95.7548 238.594 92.4907 242.621 92.4907C246.649 92.4907 249.913 95.7548 249.913 99.7833Z" stroke="#FCFCEC" stroke-width="2.58815" stroke-miterlimit="10"/>
<path d="M278.257 99.7833C278.257 103.81 274.991 107.076 270.963 107.076C266.936 107.076 263.671 103.81 263.671 99.7833C263.671 95.7548 266.936 92.4907 270.963 92.4907C274.991 92.4907 278.257 95.7548 278.257 99.7833Z" stroke="#FCFCEC" stroke-width="2.58815" stroke-miterlimit="10"/>
<path d="M277.926 484H15.0729C6.74805 484 0 474.373 0 462.496V323.502C0 311.627 6.74805 302 15.0729 302H277.926C286.252 302 293 311.627 293 323.502V462.496C293 474.373 286.252 484 277.926 484Z" fill="#E42F2F"/>
<path d="M0 346H293V398H0V346Z" fill="#E42F2F"/>
<path d="M0 398H293V464C293 475.046 284.046 484 273 484H20C8.9543 484 0 475.046 0 464V398Z" fill="white"/>
<path d="M35.5354 325.272C35.5354 328.337 33.0516 330.821 29.9869 330.821C26.9223 330.821 24.4385 328.337 24.4385 325.272C24.4385 322.208 26.9223 319.724 29.9869 319.724C33.0516 319.724 35.5354 322.208 35.5354 325.272Z" stroke="#FCFCEC" stroke-width="1.96904" stroke-miterlimit="10"/>
<path d="M57.0974 325.272C57.0974 328.337 54.6136 330.821 51.5489 330.821C48.4857 330.821 46.002 328.337 46.002 325.272C46.002 322.208 48.4857 319.724 51.5489 319.724C54.6136 319.724 57.0974 322.208 57.0974 325.272Z" stroke="#FCFCEC" stroke-width="1.96904" stroke-miterlimit="10"/>
<path d="M78.6609 325.272C78.6609 328.337 76.1771 330.821 73.1124 330.821C70.0477 330.821 67.564 328.337 67.564 325.272C67.564 322.208 70.0477 319.724 73.1124 319.724C76.1771 319.724 78.6609 322.208 78.6609 325.272Z" stroke="#FCFCEC" stroke-width="1.96904" stroke-miterlimit="10"/>
<path d="M0 346.275H293.015" stroke="#FCFCEC" stroke-width="1.96904" stroke-miterlimit="10"/>
<path d="M26.88 366C28.1733 366 29.3 366.213 30.26 366.64C31.22 367.067 31.96 367.68 32.48 368.48C33 369.28 33.26 370.213 33.26 371.28C33.26 372.347 33 373.28 32.48 374.08C31.96 374.88 31.22 375.493 30.26 375.92C29.3 376.347 28.1733 376.56 26.88 376.56H24.86V380H20.14V366H26.88ZM26.58 372.92C27.22 372.92 27.7 372.78 28.02 372.5C28.34 372.207 28.5 371.8 28.5 371.28C28.5 370.76 28.34 370.36 28.02 370.08C27.7 369.787 27.22 369.64 26.58 369.64H24.86V372.92H26.58ZM39.4703 368.86C41.3903 368.86 42.857 369.293 43.8703 370.16C44.8836 371.013 45.3903 372.333 45.3903 374.12V380H41.1903V378.56C40.6703 379.653 39.637 380.2 38.0903 380.2C37.2236 380.2 36.4836 380.053 35.8703 379.76C35.2703 379.453 34.8103 379.047 34.4903 378.54C34.1836 378.02 34.0303 377.44 34.0303 376.8C34.0303 375.72 34.4436 374.9 35.2703 374.34C36.097 373.78 37.3503 373.5 39.0303 373.5H40.8503C40.7036 372.647 40.017 372.22 38.7903 372.22C38.297 372.22 37.797 372.3 37.2903 372.46C36.7836 372.607 36.3503 372.813 35.9903 373.08L34.5503 370.1C35.177 369.713 35.9303 369.413 36.8103 369.2C37.7036 368.973 38.5903 368.86 39.4703 368.86ZM39.4503 377.48C39.7703 377.48 40.057 377.393 40.3103 377.22C40.5636 377.047 40.7503 376.787 40.8703 376.44V375.68H39.7503C38.8303 375.68 38.3703 375.987 38.3703 376.6C38.3703 376.853 38.4636 377.067 38.6503 377.24C38.8503 377.4 39.117 377.48 39.4503 377.48ZM55.4038 379.62C54.7238 380.007 53.7971 380.2 52.6238 380.2C51.0904 380.2 49.9104 379.833 49.0838 379.1C48.2571 378.353 47.8438 377.24 47.8438 375.76V372.96H46.3438V369.66H47.8438V366.6H52.3638V369.66H54.6038V372.96H52.3638V375.72C52.3638 376.053 52.4504 376.313 52.6238 376.5C52.7971 376.687 53.0238 376.78 53.3038 376.78C53.6904 376.78 54.0304 376.68 54.3238 376.48L55.4038 379.62ZM60.843 370.24C61.643 369.32 62.823 368.86 64.383 368.86V372.86C64.023 372.807 63.6896 372.78 63.383 372.78C61.8363 372.78 61.063 373.567 61.063 375.14V380H56.543V369.06H60.843V370.24ZM77.2064 374.52C77.2064 374.587 77.1864 374.94 77.1464 375.58H69.5464C69.7064 375.993 69.9731 376.313 70.3464 376.54C70.7197 376.753 71.1864 376.86 71.7464 376.86C72.2264 376.86 72.6264 376.8 72.9464 376.68C73.2797 376.56 73.6397 376.353 74.0264 376.06L76.3864 378.44C75.3197 379.613 73.7264 380.2 71.6064 380.2C70.2864 380.2 69.1264 379.96 68.1264 379.48C67.1264 378.987 66.3531 378.307 65.8064 377.44C65.2597 376.573 64.9864 375.6 64.9864 374.52C64.9864 373.427 65.2531 372.453 65.7864 371.6C66.3331 370.733 67.0731 370.06 68.0064 369.58C68.9531 369.1 70.0131 368.86 71.1864 368.86C72.2931 368.86 73.2997 369.08 74.2064 369.52C75.1264 369.96 75.8531 370.607 76.3864 371.46C76.9331 372.313 77.2064 373.333 77.2064 374.52ZM71.2264 371.94C70.7597 371.94 70.3731 372.067 70.0664 372.32C69.7597 372.573 69.5597 372.933 69.4664 373.4H72.9864C72.8931 372.947 72.6931 372.593 72.3864 372.34C72.0797 372.073 71.6931 371.94 71.2264 371.94ZM84.4128 380.2C83.1995 380.2 82.1061 379.96 81.1328 379.48C80.1728 378.987 79.4195 378.313 78.8728 377.46C78.3261 376.593 78.0528 375.613 78.0528 374.52C78.0528 373.427 78.3261 372.453 78.8728 371.6C79.4195 370.733 80.1728 370.06 81.1328 369.58C82.1061 369.1 83.1995 368.86 84.4128 368.86C85.6395 368.86 86.7328 369.1 87.6928 369.58C88.6661 370.06 89.4195 370.733 89.9528 371.6C90.4995 372.453 90.7728 373.427 90.7728 374.52C90.7728 375.613 90.4995 376.593 89.9528 377.46C89.4195 378.313 88.6661 378.987 87.6928 379.48C86.7328 379.96 85.6395 380.2 84.4128 380.2ZM84.4128 376.68C84.9328 376.68 85.3595 376.493 85.6928 376.12C86.0261 375.733 86.1928 375.2 86.1928 374.52C86.1928 373.84 86.0261 373.313 85.6928 372.94C85.3595 372.567 84.9328 372.38 84.4128 372.38C83.8928 372.38 83.4661 372.567 83.1328 372.94C82.7995 373.313 82.6328 373.84 82.6328 374.52C82.6328 375.2 82.7995 375.733 83.1328 376.12C83.4661 376.493 83.8928 376.68 84.4128 376.68ZM99.7875 368.86C101.134 368.86 102.214 369.267 103.028 370.08C103.854 370.893 104.268 372.12 104.268 373.76V380H99.7475V374.54C99.7475 373.287 99.3008 372.66 98.4075 372.66C97.9008 372.66 97.4875 372.84 97.1675 373.2C96.8608 373.547 96.7075 374.1 96.7075 374.86V380H92.1875V369.06H96.4875V370.14C96.9142 369.713 97.4075 369.393 97.9675 369.18C98.5275 368.967 99.1342 368.86 99.7875 368.86Z" fill="white"/>
<path d="M704.025 89.2031L696.191 81.3689L700.444 77.1177L708.276 84.9504L704.025 89.2031Z" fill="#FCFCEC"/>
<path d="M750.362 139.621H632.436C622.595 139.621 614.616 131.643 614.616 121.801V26.6778C614.616 16.8344 622.595 8.85608 632.436 8.85608H750.362C760.204 8.85608 768.182 16.8344 768.182 26.6778V121.801C768.182 131.643 760.204 139.621 750.362 139.621Z" fill="#FF424D"/>
<path d="M681.707 42.0524C670.39 42.0524 661.185 51.2595 661.185 62.5763C661.185 73.893 670.39 83.1002 681.707 83.1002C693.025 83.1002 702.231 73.893 702.231 62.5763C702.231 51.2595 693.025 42.0524 681.707 42.0524ZM681.707 89.113C667.075 89.113 655.172 77.2096 655.172 62.5763C655.172 47.9444 667.075 36.0395 681.707 36.0395C696.339 36.0395 708.244 47.9444 708.244 62.5763C708.244 77.2096 696.339 89.113 681.707 89.113Z" fill="#FCFCEC"/>
<path d="M712.306 83.8293L727.81 99.3333C729.454 100.978 729.454 103.644 727.81 105.288L724.361 108.737C722.717 110.381 720.051 110.381 718.406 108.737L702.902 93.2316C701.259 91.5878 701.259 88.9221 702.902 87.2784L706.351 83.8293C707.996 82.1856 710.662 82.1856 712.306 83.8293Z" fill="#FCFCEC"/>
<path d="M125.535 98.626H57.7599C46.398 98.626 37.1851 89.413 37.1851 78.0497V20.5749C37.1851 9.21301 46.398 6.86646e-05 57.7599 6.86646e-05H125.535C136.899 6.86646e-05 146.11 9.21301 146.11 20.5749V78.0497C146.11 89.413 136.899 98.626 125.535 98.626Z" fill="#7B61FF"/>
<path d="M91.6474 31.3441C82.7474 31.3441 75.5072 38.5843 75.5072 47.4842C75.5072 56.3841 82.7474 63.6244 91.6474 63.6244C100.547 63.6244 107.788 56.3841 107.788 47.4842C107.788 38.5843 100.547 31.3441 91.6474 31.3441ZM91.6474 70.5588C78.9242 70.5588 68.5728 60.2074 68.5728 47.4842C68.5728 34.761 78.9242 24.4096 91.6474 24.4096C104.372 24.4096 114.722 34.761 114.722 47.4842C114.722 60.2074 104.372 70.5588 91.6474 70.5588Z" fill="#FCFCEC"/>
<path d="M105.25 31.3442L78.7891 63.6245" stroke="#FCFCEC" stroke-width="6.02939" stroke-miterlimit="10"/>
<path d="M850.369 445.594H604.841C594.351 445.594 585.849 437.09 585.849 426.599V243.388C585.849 232.898 594.351 224.394 604.841 224.394H850.369C860.859 224.394 869.363 232.898 869.363 243.388V426.599C869.363 437.09 860.859 445.594 850.369 445.594Z" fill="#7B61FF"/>
<path d="M620.562 245.278C620.562 248.246 618.157 250.651 615.188 250.651C612.221 250.651 609.814 248.246 609.814 245.278C609.814 242.309 612.221 239.904 615.188 239.904C618.157 239.904 620.562 242.309 620.562 245.278Z" stroke="#FCFCEC" stroke-width="1.90724" stroke-miterlimit="10"/>
<path d="M641.449 245.278C641.449 248.246 639.044 250.651 636.075 250.651C633.108 250.651 630.701 248.246 630.701 245.278C630.701 242.309 633.108 239.904 636.075 239.904C639.044 239.904 641.449 242.309 641.449 245.278Z" stroke="#FCFCEC" stroke-width="1.90724" stroke-miterlimit="10"/>
<path d="M662.335 245.278C662.335 248.246 659.928 250.651 656.96 250.651C653.993 250.651 651.587 248.246 651.587 245.278C651.587 242.309 653.993 239.904 656.96 239.904C659.928 239.904 662.335 242.309 662.335 245.278Z" stroke="#FCFCEC" stroke-width="1.90724" stroke-miterlimit="10"/>
<path d="M585.849 267.691H869.363" stroke="#FCFCEC" stroke-width="1.90724" stroke-miterlimit="10"/>
<path d="M456.226 353.014L455.144 338.406L364.085 342.883V356.981C364.085 356.981 343.603 376.465 335.521 506.102H499.435C499.435 506.102 517.418 391.371 456.226 353.014Z" fill="#7B61FF"/>
<path d="M364.085 356.98L456.226 353.013" stroke="#131112" stroke-width="2.06876" stroke-miterlimit="10"/>
<path d="M382.912 416.752L401.787 424.437L411.891 506.102" stroke="#131112" stroke-width="2.06876" stroke-miterlimit="10"/>
<path d="M264.535 324.776L289.69 241.731L345.025 262.473L318.476 342.005C313.037 358.432 294.265 366.182 278.822 358.375C266.511 352.15 260.476 337.959 264.535 324.776Z" fill="#F2AE88"/>
<path d="M303.342 197.382C308.324 181.192 325.705 172.33 341.733 177.804C357.318 183.127 365.706 200.012 360.528 215.647L345.025 262.474L289.69 241.731L303.342 197.382Z" fill="#FCFCEC"/>
<path d="M307.257 318.544L244.058 198.712C244.058 198.712 245.501 177.061 209.533 175.767L209.541 175.799C209.052 175.775 208.564 175.732 208.074 175.732H196.052C193.818 175.732 191.787 177.304 191.479 179.517C191.124 182.075 192.918 184.279 195.326 184.581L207.452 186.294L190.955 190.697L187.876 191.834L165.411 176.991C163.622 175.716 161.118 176.304 160.084 178.243C159.272 179.765 159.636 181.646 160.961 182.751C162.347 183.907 164.579 185.821 167.01 187.924L162.051 184.953C160.166 183.824 157.717 184.61 156.84 186.625C156.153 188.207 156.667 190.054 158.075 191.049C159.286 191.905 160.846 193.003 162.502 194.169L160.779 193.495C158.89 192.759 156.651 193.291 155.5 194.96C153.933 197.23 154.872 200.31 157.363 201.353L181.91 211.629C186.148 213.402 190.198 214.508 195.183 213.328L217.065 208.169L266.029 345.222L307.257 318.544Z" fill="#F2AE88"/>
<path d="M281.32 269.364L293.015 291.539" stroke="#DD9C77" stroke-width="2" stroke-miterlimit="10"/>
<path d="M352.54 176.482L329.048 178.239C329.048 178.239 295.03 224.381 364.085 342.883L455.146 338.406L462.008 210.731L450.766 174.483H409.965L352.54 176.482Z" fill="#FCFCEC"/>
<path d="M325.873 255.294C325.873 255.294 319.097 241.042 323.451 209.47" stroke="#747474" stroke-width="2.06876" stroke-miterlimit="10"/>
<path d="M537.254 308.103L499.435 230.005L448.02 259.137L486.664 333.545C494.602 348.922 514.354 353.645 528.389 343.522C539.576 335.451 543.321 320.491 537.254 308.103Z" fill="#F2AE88"/>
<path d="M479.026 188.332C471.575 173.121 453.024 167.082 438.048 174.992C423.485 182.682 417.839 200.671 425.394 215.304L448.02 259.136L499.435 230.005L479.026 188.332Z" fill="#FCFCEC"/>
<path d="M448.02 259.136L429.338 222.947" stroke="#747474" stroke-width="2.06876" stroke-miterlimit="10"/>
<path d="M616.191 174.493C615.04 172.825 612.802 172.293 610.912 173.03L599.927 177.318L610.245 168.588C611.955 167.141 612.435 164.587 611.144 162.759C609.661 160.665 606.824 160.345 604.936 161.866L595.335 169.595L603.518 158.896C604.879 157.117 604.8 154.52 603.146 153.011C601.254 151.282 598.41 151.577 596.893 153.467L580.736 170.232L564.239 165.829L576.366 164.114C578.773 163.814 580.568 161.61 580.211 159.05C579.906 156.837 577.873 155.266 575.64 155.266H563.617C556.517 155.266 549.584 157.746 544.329 162.463C544.239 162.53 544.16 162.577 544.069 162.648C536.692 168.466 539.376 180.39 539.376 180.39L494.08 308.623L538.97 328.534L564.849 190.825L581.376 190.856C582.4 190.952 583.43 190.948 584.457 190.862L584.581 190.863L584.573 190.856C586.348 190.696 588.105 190.277 589.781 189.576L614.329 180.887C616.82 179.845 617.759 176.763 616.191 174.493Z" fill="#F2AE88"/>
<path d="M511.681 255.294L501.899 289.441" stroke="#DD9C77" stroke-width="2" stroke-miterlimit="10"/>
<path d="M350.713 70.6999C347.883 72.6421 328.898 77.5762 328.522 81.0209C328.522 81.0209 334.768 105.436 328.371 109.992C311.076 122.31 305.539 146.461 305.539 146.461C305.539 146.461 351.163 180.625 472.445 144.753C472.445 144.753 473.897 130.225 451.84 119.678C445.542 116.667 439.947 112.129 436.409 105.968C433.669 101.195 433.253 99.1702 432.526 94.8884C430.495 82.9135 397.453 38.6351 350.713 70.6999Z" fill="#501E21"/>
<path d="M352.505 107.294C353.061 115.308 347.018 122.255 339.006 122.813C330.993 123.37 324.045 117.325 323.487 109.314C322.93 101.3 328.973 94.3527 336.986 93.7951C344.998 93.2375 351.946 99.2824 352.505 107.294Z" fill="#DD9C77"/>
<path d="M359.077 142.922L361.088 174.553C361.771 185.663 366.313 193.231 377.241 192.471C386.572 191.821 397.672 184.347 398.184 175.009L392.623 125.381L359.077 142.922Z" fill="#F2AE88"/>
<path d="M352.54 176.482L409.965 174.483C409.965 174.483 408.569 202.717 374.438 200.073C350.713 198.236 352.54 176.482 352.54 176.482Z" fill="#F2AE88"/>
<path d="M360.733 168.978L397.438 133.093L358.805 139.682L360.733 168.978Z" fill="#DD9C77"/>
<path d="M368.702 148.034C350.014 148.089 334.581 133.373 334.022 118.113L332.922 82.0999C332.223 62.9752 346.82 46.7418 365.912 45.4126C385.458 44.0528 405.832 58.558 407.192 78.102L407.761 107.076C408.202 129.484 391.06 146.477 368.702 148.034Z" fill="#F2AE88"/>
<path d="M353.623 105.436L352.54 114.378L357.161 114.549" stroke="#131112" stroke-width="1.65133" stroke-miterlimit="10" stroke-linecap="round" stroke-linejoin="round"/>
<path d="M372.082 83.6078C372.082 83.6078 361.759 82.7604 361.655 86.9636C361.655 86.9636 361.664 89.8085 370.67 90.3734C379.678 90.9368 382.02 90.2773 382.843 87.6042C383.666 84.9312 376.925 83.634 372.082 83.6078Z" fill="#131112"/>
<path d="M342.15 89.7459C342.15 89.7459 349.97 89.1169 350.707 92.895C350.707 92.895 351.145 95.4516 344.295 95.8447C337.445 96.2363 335.325 95.386 335.195 93.224C335.043 90.6471 338.425 89.708 342.15 89.7459Z" fill="#131112"/>
<path d="M346.69 102.024C346.75 103.848 345.32 105.375 343.496 105.435C341.672 105.494 340.145 104.063 340.085 102.239C340.025 100.415 341.455 98.8875 343.279 98.8278C345.105 98.7696 346.631 100.199 346.69 102.024Z" fill="#131112"/>
<path d="M374.435 101.115C374.495 102.94 373.065 104.467 371.241 104.527C369.417 104.586 367.89 103.157 367.828 101.332C367.769 99.508 369.2 97.9808 371.024 97.9211C372.848 97.8614 374.376 99.2925 374.435 101.115Z" fill="#131112"/>
<path d="M364.772 120.761C364.772 120.761 359.888 118.534 353.99 123.624" stroke="#131112" stroke-width="1.65133" stroke-miterlimit="10" stroke-linecap="round" stroke-linejoin="round"/>
<path d="M427.237 107.44C427.795 115.453 421.751 122.4 413.738 122.957C405.724 123.516 398.777 117.471 398.219 109.457C397.662 101.446 403.707 94.498 411.718 93.9404C419.732 93.3828 426.679 99.4262 427.237 107.44Z" fill="#F2AE88"/>
<path d="M407.176 112.605C407.176 112.605 406.443 102.087 416.617 103.043" stroke="#131112" stroke-width="1.65133" stroke-miterlimit="10" stroke-linecap="round" stroke-linejoin="round"/>
<g filter="url(#filter0_d)">
<path d="M65.4367 499L12.6762 526.333L27.8758 533.694L9 556.26L23.7294 568.32L41.9617 544.087L54.184 557.19L65.4367 499Z" fill="#FCFCEC"/>
</g>
<path d="M377.478 39.222C372.819 38.9745 368.121 39.4855 363.612 40.6867C352.419 43.6669 332.319 51.9568 328.874 73.4547C327.727 79.1211 328.522 81.0211 328.522 81.0211C328.522 81.0211 366.063 82.493 388.255 72.0148C391.451 85.5387 394.402 93.9058 407.761 107.076L419.62 89.2498L432.972 101.225C433.058 101.677 433.042 42.1746 377.478 39.222Z" fill="#501E21"/>
<path d="M691.376 359.307H698.059V371.047H691.376V385H676.158V371.047H650.736L649.833 361.745L676.158 319.389V319.254H691.376V359.307ZM664.328 359.307H676.158V339.077L675.21 340.612L664.328 359.307ZM750.394 358.133C750.394 367.013 748.392 373.862 744.388 378.678C740.414 383.495 734.8 385.903 727.545 385.903C720.23 385.903 714.571 383.48 710.567 378.633C706.563 373.786 704.561 366.953 704.561 358.133V346.121C704.561 337.241 706.548 330.392 710.522 325.575C714.525 320.759 720.17 318.351 727.455 318.351C734.74 318.351 740.384 320.774 744.388 325.621C748.392 330.467 750.394 337.316 750.394 346.166V358.133ZM735.176 344.18C735.176 339.453 734.559 335.931 733.325 333.613C732.091 331.265 730.134 330.091 727.455 330.091C724.836 330.091 722.924 331.175 721.72 333.342C720.546 335.51 719.914 338.791 719.824 343.186V359.984C719.824 364.891 720.441 368.488 721.675 370.776C722.909 373.034 724.866 374.163 727.545 374.163C730.134 374.163 732.046 373.064 733.28 370.866C734.514 368.639 735.146 365.162 735.176 360.435V344.18ZM798.484 359.307H805.167V371.047H798.484V385H783.267V371.047H757.844L756.941 361.745L783.267 319.389V319.254H798.484V359.307ZM771.436 359.307H783.267V339.077L782.319 340.612L771.436 359.307Z" fill="white"/>
<defs>
<filter id="filter0_d" x="1" y="488" width="76.4367" height="89.3202" filterUnits="userSpaceOnUse" color-interpolation-filters="sRGB">
<feFlood flood-opacity="0" result="BackgroundImageFix"/>
<feColorMatrix in="SourceAlpha" type="matrix" values="0 0 0 0 0 0 0 0 0 0 0 0 0 0 0 0 0 0 127 0" result="hardAlpha"/>
<feOffset dx="2" dy="-1"/>
<feGaussianBlur stdDeviation="5"/>
<feComposite in2="hardAlpha" operator="out"/>
<feColorMatrix type="matrix" values="0 0 0 0 0 0 0 0 0 0 0 0 0 0 0 0 0 0 0.5 0"/>
<feBlend mode="normal" in2="BackgroundImageFix" result="effect1_dropShadow"/>
<feBlend mode="normal" in="SourceGraphic" in2="effect1_dropShadow" result="shape"/>
</filter>
</defs>
</svg>
