<svg xmlns="http://www.w3.org/2000/svg" xmlns:xlink="http://www.w3.org/1999/xlink" width="870" height="578" fill="none" xmlns:v="https://vecta.io/nano"><style><![CDATA[.B{stroke-miterlimit:10}.C{fill:#fcfcec}.D{fill:#f2ae88}.E{fill:#7b61ff}.F{stroke:#fcfcec}.G{stroke:#131112}.H{stroke-width:2.069}.I{stroke-width:1.651}.J{stroke-linecap:round}.K{stroke-linejoin:round}.L{stroke-width:2.588}]]></style><path d="M176.624 163.912H10.032a6.44 6.44 0 0 1-6.438-6.438 6.44 6.44 0 0 1 6.438-6.438h166.593a6.44 6.44 0 0 1 6.438 6.438 6.44 6.44 0 0 1-6.438 6.438z" fill="#ff42b5"/><path d="M84.217 248.87H65.064c-5.033 0-9.112-4.079-9.112-9.112V221.78c0-5.033 4.079-9.112 9.112-9.112h19.152c5.032 0 9.111 4.079 9.111 9.112v17.978c0 5.033-4.079 9.112-9.111 9.112z" class="E"/><path d="M641.298 568.097h-10.447c-2.746 0-4.972-2.226-4.972-4.972v-9.809c0-2.745 2.226-4.971 4.972-4.971h10.447c2.746 0 4.974 2.226 4.974 4.971v9.809c0 2.746-2.228 4.972-4.974 4.972z" fill="#ff42b5"/><path d="M828.7 149.239h-10.449a4.97 4.97 0 0 1-4.972-4.97v-9.809c0-2.746 2.226-4.972 4.972-4.972H828.7a4.97 4.97 0 0 1 4.97 4.972v9.809a4.97 4.97 0 0 1-4.97 4.97z" class="E"/><path d="M281.801 566.016h-61.648a8.27 8.27 0 0 1-8.265-8.265c0-4.566 3.701-8.266 8.265-8.266h61.648c4.564 0 8.265 3.7 8.265 8.266a8.27 8.27 0 0 1-8.265 8.265z" fill="#ff424d"/><path d="M677.433 507.454H180.959c-5.751 0-10.411-4.662-10.411-10.411V83.529c0-5.749 4.66-10.411 10.411-10.411h496.474c5.749 0 10.411 4.662 10.411 10.411v413.514c0 5.749-4.662 10.411-10.411 10.411h0z" class="B F L"/><path d="M677.433 507.454H180.959c-5.751 0-10.411-4.662-10.411-10.411V83.529c0-5.749 4.66-10.411 10.411-10.411h496.474c5.749 0 10.411 4.662 10.411 10.411v413.514c0 5.749-4.662 10.411-10.411 10.411z" fill="#2b2b2b"/><g class="B F L"><path d="M170.548 125.381h517.296M221.571 99.783c0 4.027-3.265 7.293-7.293 7.293s-7.292-3.266-7.292-7.293 3.265-7.293 7.292-7.293 7.293 3.264 7.293 7.293z"/><path d="M249.913 99.783c0 4.027-3.264 7.293-7.292 7.293s-7.293-3.266-7.293-7.293 3.266-7.293 7.293-7.293 7.292 3.264 7.292 7.293zm28.344 0c0 4.027-3.266 7.293-7.294 7.293s-7.292-3.266-7.292-7.293 3.265-7.293 7.292-7.293 7.294 3.264 7.294 7.293z"/></g><g fill="#e42f2f"><path d="M277.926 484H15.073C6.748 484 0 474.373 0 462.496V323.502C0 311.627 6.748 302 15.073 302h262.853c8.326 0 15.074 9.627 15.074 21.502v138.994c0 11.877-6.748 21.504-15.074 21.504z"/><path d="M0 346h293v52H0v-52z"/></g><path d="M0 398h293v66c0 11.046-8.954 20-20 20H20c-11.046 0-20-8.954-20-20v-66z" fill="#fff"/><g stroke-width="1.969" class="B F"><use xlink:href="#B"/><path d="M57.097 325.272a5.55 5.55 0 0 1-5.548 5.549 5.55 5.55 0 0 1-5.547-5.549 5.55 5.55 0 0 1 5.547-5.548 5.55 5.55 0 0 1 5.548 5.548z"/><use xlink:href="#B" x="43.126"/><path d="M0 346.275H293.015"/></g><path d="M26.88 366c1.293 0 2.42.213 3.38.64s1.7 1.04 2.22 1.84.78 1.733.78 2.8-.26 2-.78 2.8-1.26 1.413-2.22 1.84-2.087.64-3.38.64h-2.02V380h-4.72v-14h6.74zm-.3 6.92c.64 0 1.12-.14 1.44-.42.32-.293.48-.7.48-1.22s-.16-.92-.48-1.2c-.32-.293-.8-.44-1.44-.44h-1.72v3.28h1.72zm12.89-4.06c1.92 0 3.387.433 4.4 1.3 1.013.853 1.52 2.173 1.52 3.96V380h-4.2v-1.44c-.52 1.093-1.553 1.64-3.1 1.64-.867 0-1.607-.147-2.22-.44-.6-.307-1.06-.713-1.38-1.22a3.36 3.36 0 0 1-.46-1.74c0-1.08.413-1.9 1.24-2.46s2.08-.84 3.76-.84h1.82c-.147-.853-.833-1.28-2.06-1.28-.493 0-.993.08-1.5.24-.507.147-.94.353-1.3.62l-1.44-2.98c.627-.387 1.38-.687 2.26-.9.893-.227 1.78-.34 2.66-.34zm-.02 8.62a1.49 1.49 0 0 0 .86-.26c.253-.173.44-.433.56-.78v-.76h-1.12c-.92 0-1.38.307-1.38.92a.84.84 0 0 0 .28.64c.2.16.467.24.8.24zm15.953 2.14c-.68.387-1.607.58-2.78.58-1.533 0-2.713-.367-3.54-1.1-.827-.747-1.24-1.86-1.24-3.34v-2.8h-1.5v-3.3h1.5v-3.06h4.52v3.06h2.24v3.3h-2.24v2.76c0 .333.087.593.26.78s.4.28.68.28c.387 0 .727-.1 1.02-.3l1.08 3.14zm5.439-9.38c.8-.92 1.98-1.38 3.54-1.38v4c-.36-.053-.693-.08-1-.08-1.547 0-2.32.787-2.32 2.36V380h-4.52v-10.94h4.3v1.18zm16.363 4.28c0 .067-.02.42-.06 1.06h-7.6c.16.413.427.733.8.96.373.213.84.32 1.4.32.48 0 .88-.06 1.2-.18.333-.12.693-.327 1.08-.62l2.36 2.38c-1.067 1.173-2.66 1.76-4.78 1.76-1.32 0-2.48-.24-3.48-.72-1-.493-1.773-1.173-2.32-2.04s-.82-1.84-.82-2.92c0-1.093.267-2.067.8-2.92.547-.867 1.287-1.54 2.22-2.02.947-.48 2.007-.72 3.18-.72 1.107 0 2.113.22 3.02.66.92.44 1.647 1.087 2.18 1.94.547.853.82 1.873.82 3.06zm-5.98-2.58c-.467 0-.853.127-1.16.38s-.507.613-.6 1.08h3.52c-.093-.453-.293-.807-.6-1.06-.307-.267-.693-.4-1.16-.4zm13.186 8.26c-1.213 0-2.307-.24-3.28-.72-.96-.493-1.713-1.167-2.26-2.02-.547-.867-.82-1.847-.82-2.94s.273-2.067.82-2.92c.547-.867 1.3-1.54 2.26-2.02.973-.48 2.067-.72 3.28-.72 1.227 0 2.32.24 3.28.72.973.48 1.727 1.153 2.26 2.02.547.853.82 1.827.82 2.92s-.273 2.073-.82 2.94c-.533.853-1.287 1.527-2.26 2.02-.96.48-2.053.72-3.28.72zm0-3.52c.52 0 .947-.187 1.28-.56.333-.387.5-.92.5-1.6s-.167-1.207-.5-1.58-.76-.56-1.28-.56-.947.187-1.28.56-.5.9-.5 1.58.167 1.213.5 1.6c.333.373.76.56 1.28.56zm15.375-7.82c1.347 0 2.427.407 3.241 1.22.826.813 1.24 2.04 1.24 3.68V380h-4.52v-5.46c0-1.253-.447-1.88-1.34-1.88-.507 0-.92.18-1.24.54-.307.347-.46.9-.46 1.66V380h-4.52v-10.94h4.3v1.08a4.16 4.16 0 0 1 1.48-.96c.56-.213 1.167-.32 1.82-.32z" fill="#fff"/><path d="M704.025 89.203l-7.834-7.834 4.253-4.251 7.832 7.833-4.251 4.253z" class="C"/><path d="M750.362 139.621H632.436c-9.841 0-17.82-7.978-17.82-17.82V26.678c0-9.843 7.979-17.822 17.82-17.822h117.926c9.842 0 17.82 7.978 17.82 17.822v95.123c0 9.842-7.978 17.82-17.82 17.82z" fill="#ff424d"/><path d="M681.707 42.052c-11.317 0-20.522 9.207-20.522 20.524S670.39 83.1 681.707 83.1s20.524-9.207 20.524-20.524-9.206-20.524-20.524-20.524zm0 47.061c-14.632 0-26.535-11.903-26.535-26.537s11.903-26.537 26.535-26.537 26.537 11.905 26.537 26.537-11.905 26.537-26.537 26.537zm30.599-5.284l15.504 15.504a4.21 4.21 0 0 1 0 5.955l-3.449 3.449c-1.644 1.644-4.31 1.644-5.955 0l-15.504-15.505a4.21 4.21 0 0 1 0-5.953l3.449-3.449c1.645-1.644 4.311-1.644 5.955 0z" class="C"/><path d="M125.535 98.626H57.76A20.58 20.58 0 0 1 37.185 78.05V20.575A20.58 20.58 0 0 1 57.76 0h67.775a20.58 20.58 0 0 1 20.575 20.575V78.05a20.58 20.58 0 0 1-20.575 20.576z" class="E"/><path d="M91.647 31.344c-8.9 0-16.14 7.24-16.14 16.14s7.24 16.14 16.14 16.14 16.141-7.24 16.141-16.14-7.241-16.14-16.141-16.14zm0 39.215c-12.723 0-23.075-10.351-23.075-23.075S78.924 24.41 91.647 24.41s23.075 10.351 23.075 23.075-10.35 23.075-23.075 23.075z" class="C"/><path d="M105.25 31.344l-26.461 32.28" stroke-width="6.029" class="B F"/><path d="M850.369 445.594H604.841c-10.49 0-18.992-8.504-18.992-18.995V243.388c0-10.49 8.502-18.994 18.992-18.994h245.528c10.49 0 18.994 8.504 18.994 18.994v183.211c0 10.491-8.504 18.995-18.994 18.995z" class="E"/><g stroke-width="1.907" class="B F"><use xlink:href="#C"/><use xlink:href="#C" x="20.887"/><path d="M662.335 245.278c0 2.968-2.407 5.373-5.375 5.373s-5.373-2.405-5.373-5.373 2.406-5.374 5.373-5.374 5.375 2.405 5.375 5.374zm-76.486 22.413h283.514"/></g><path d="M456.226 353.014l-1.082-14.608-91.059 4.477v14.098s-20.482 19.484-28.564 149.121h163.914s17.983-114.731-43.209-153.088z" class="E"/><path d="M364.085 356.98l92.141-3.967m-73.314 63.739l18.875 7.685 10.104 81.665" class="B G H"/><path d="M264.535 324.776l25.155-83.045 55.335 20.742-26.549 79.532c-5.439 16.427-24.211 24.177-39.654 16.37a28.32 28.32 0 0 1-14.287-33.599z" class="D"/><path d="M303.342 197.382c4.982-16.19 22.363-25.052 38.391-19.578 15.585 5.323 23.973 22.208 18.795 37.843l-15.503 46.827-55.335-20.743 13.652-44.349z" class="C"/><path d="M307.257 318.544l-63.199-119.832s1.443-21.651-34.525-22.945l.008.032-1.467-.067h-12.022c-2.234 0-4.265 1.572-4.573 3.785a4.45 4.45 0 0 0 3.847 5.064l12.126 1.713-16.497 4.403-3.079 1.137-22.465-14.843c-1.789-1.275-4.293-.687-5.327 1.252-.812 1.522-.448 3.403.877 4.508l6.049 5.173-4.959-2.971c-1.885-1.129-4.334-.343-5.211 1.672a3.64 3.64 0 0 0 1.235 4.424l4.427 3.12-1.723-.674c-1.889-.736-4.128-.204-5.279 1.465-1.567 2.27-.628 5.35 1.863 6.393l24.547 10.276c4.238 1.773 8.288 2.879 13.273 1.699l21.882-5.159 48.964 137.053 41.228-26.678z" class="D"/><path d="M281.32 269.364l11.695 22.175" stroke="#dd9c77" stroke-width="2" class="B"/><path d="M352.54 176.482l-23.492 1.757s-34.018 46.142 35.037 164.644l91.061-4.477 6.862-127.675-11.242-36.248h-40.801l-57.425 1.999z" class="C"/><path d="M325.873 255.294s-6.776-14.252-2.422-45.824" stroke="#747474" class="B H"/><path d="M537.254 308.103l-37.819-78.098-51.415 29.132 38.644 74.408c7.938 15.377 27.69 20.1 41.725 9.977 11.187-8.071 14.932-23.031 8.865-35.419z" class="D"/><path d="M479.026 188.332c-7.451-15.211-26.002-21.25-40.978-13.34-14.563 7.69-20.209 25.679-12.654 40.312l22.626 43.832 51.415-29.131-20.409-41.673z" class="C"/><path d="M448.02 259.136l-18.682-36.189" stroke="#747474" class="B H"/><path d="M616.191 174.493c-1.151-1.668-3.389-2.2-5.279-1.463l-10.985 4.288 10.318-8.73c1.71-1.447 2.19-4.001.899-5.829-1.483-2.094-4.32-2.414-6.208-.893l-9.601 7.729 8.183-10.699c1.361-1.779 1.282-4.376-.372-5.885-1.892-1.729-4.736-1.434-6.253.456l-16.157 16.765-16.497-4.403 12.127-1.715c2.407-.3 4.202-2.504 3.845-5.064-.305-2.213-2.338-3.784-4.571-3.784h-12.023c-7.1 0-14.033 2.48-19.288 7.197-.09.067-.169.114-.26.185-7.377 5.818-4.693 17.742-4.693 17.742L494.08 308.623l44.89 19.911 25.879-137.709 16.527.031a17.42 17.42 0 0 0 3.081.006l.124.001-.008-.007c1.775-.16 3.532-.579 5.208-1.28l24.548-8.689c2.491-1.042 3.43-4.124 1.862-6.394z" class="D"/><path d="M511.681 255.294l-9.782 34.147" stroke="#dd9c77" stroke-width="2" class="B"/><path d="M350.713 70.7c-2.83 1.942-21.815 6.876-22.191 10.321 0 0 6.246 24.415-.151 28.971-17.295 12.318-22.832 36.469-22.832 36.469s45.624 34.164 166.906-1.708c0 0 1.452-14.528-20.605-25.075-6.298-3.011-11.893-7.549-15.431-13.71-2.74-4.773-3.156-6.798-3.883-11.08-2.031-11.975-35.073-56.253-81.813-24.189z" fill="#501e21"/><path d="M352.505 107.294a14.55 14.55 0 0 1-13.499 15.519 14.55 14.55 0 0 1-15.519-13.499c-.557-8.014 5.486-14.961 13.499-15.519a14.55 14.55 0 0 1 15.519 13.499z" fill="#dd9c77"/><g class="D"><path d="M359.077 142.922l2.011 31.631c.683 11.11 5.225 18.678 16.153 17.918 9.331-.65 20.431-8.124 20.943-17.462l-5.561-49.628-33.546 17.541z"/><path d="M352.54 176.482l57.425-1.999s-1.396 28.234-35.527 25.59c-23.725-1.837-21.898-23.591-21.898-23.591z"/></g><path d="M360.733 168.978l36.705-35.885-38.633 6.589 1.928 29.296z" fill="#dd9c77"/><path d="M368.702 148.034c-18.688.055-34.121-14.661-34.68-29.921l-1.1-36.013c-.699-19.125 13.898-35.358 32.99-36.687 19.546-1.36 39.92 13.145 41.28 32.689l.569 28.974c.441 22.408-16.701 39.401-39.059 40.958z" class="D"/><path d="M353.623 105.436l-1.083 8.942 4.621.171" class="B G I J K"/><path d="M372.082 83.608s-10.323-.847-10.427 3.356c0 0 .009 2.845 9.015 3.41s11.35-.096 12.173-2.769-5.918-3.97-10.761-3.996zm-29.932 6.138s7.82-.629 8.557 3.149c0 0 .438 2.557-6.412 2.95s-8.97-.459-9.1-2.621c-.152-2.577 3.23-3.516 6.955-3.478zm4.54 12.278c.06 1.824-1.37 3.351-3.194 3.411s-3.351-1.372-3.411-3.196 1.37-3.352 3.194-3.411 3.352 1.371 3.411 3.196zm27.745-.909c.06 1.825-1.37 3.352-3.194 3.412a3.31 3.31 0 0 1-3.413-3.195c-.059-1.824 1.372-3.351 3.196-3.411s3.352 1.371 3.411 3.194z" fill="#131112"/><path d="M364.772 120.761s-4.884-2.227-10.782 2.863" class="B G I J K"/><path d="M427.237 107.44c.558 8.013-5.486 14.96-13.499 15.517s-14.961-5.486-15.519-13.5a14.55 14.55 0 0 1 13.499-15.517c8.014-.558 14.961 5.486 15.519 13.5z" class="D"/><path d="M407.176 112.605s-.733-10.518 9.441-9.562" class="B G I J K"/><g filter="url(#A)" class="C"><path d="M65.437 499l-52.76 27.333 15.2 7.361L9 556.26l14.729 12.06 18.232-24.233 12.222 13.103L65.437 499z"/></g><path d="M377.478 39.222c-4.659-.248-9.357.264-13.866 1.465-11.193 2.98-31.293 11.27-34.738 32.768-1.147 5.666-.352 7.566-.352 7.566s37.541 1.472 59.733-9.006c3.196 13.524 6.147 21.891 19.506 35.061L419.62 89.25l13.352 11.975c.086.452.07-59.05-55.494-62.003z" fill="#501e21"/><path d="M691.376 359.307h6.683v11.74h-6.683V385h-15.218v-13.953h-25.422l-.903-9.302 26.325-42.356v-.135h15.218v40.053zm-27.048 0h11.83v-20.23l-.948 1.535-10.882 18.695zm86.066-1.174c0 8.88-2.002 15.729-6.006 20.545-3.974 4.817-9.588 7.225-16.843 7.225-7.315 0-12.974-2.423-16.978-7.27s-6.006-11.68-6.006-20.5v-12.012c0-8.88 1.987-15.729 5.961-20.546 4.003-4.816 9.648-7.224 16.933-7.224s12.929 2.423 16.933 7.27 6.006 11.695 6.006 20.545v11.967zm-15.218-13.953c0-4.727-.617-8.249-1.851-10.567-1.234-2.348-3.191-3.522-5.87-3.522-2.619 0-4.531 1.084-5.735 3.251-1.174 2.168-1.806 5.449-1.896 9.844v16.798c0 4.907.617 8.504 1.851 10.792 1.234 2.258 3.191 3.387 5.87 3.387 2.589 0 4.501-1.099 5.735-3.297 1.234-2.227 1.866-5.704 1.896-10.431V344.18zm63.308 15.127h6.683v11.74h-6.683V385h-15.217v-13.953h-25.423l-.903-9.302 26.326-42.356v-.135h15.217v40.053zm-27.048 0h11.831v-20.23l-.948 1.535-10.883 18.695z" fill="#fff"/><defs><filter id="A" x="1" y="488" width="76.437" height="89.32" filterUnits="userSpaceOnUse" color-interpolation-filters="sRGB"><feFlood flood-opacity="0" result="A"/><feColorMatrix in="SourceAlpha" values="0 0 0 0 0 0 0 0 0 0 0 0 0 0 0 0 0 0 127 0" result="B"/><feOffset dx="2" dy="-1"/><feGaussianBlur stdDeviation="5"/><feComposite in2="B" operator="out"/><feColorMatrix values="0 0 0 0 0 0 0 0 0 0 0 0 0 0 0 0 0 0 0.5 0"/><feBlend in2="A"/><feBlend in="SourceGraphic"/></filter><path id="B" d="M35.535 325.272a5.55 5.55 0 0 1-5.549 5.549 5.55 5.55 0 0 1-5.548-5.549 5.55 5.55 0 0 1 5.548-5.548 5.55 5.55 0 0 1 5.549 5.548z"/><path id="C" d="M620.562 245.278c0 2.968-2.405 5.373-5.374 5.373s-5.374-2.405-5.374-5.373 2.407-5.374 5.374-5.374 5.374 2.405 5.374 5.374z"/></defs></svg>