<svg width="858" height="523" viewBox="0 0 858 523" fill="none" xmlns="http://www.w3.org/2000/svg">
<g filter="url(#filter0_d_799:1618)">
<path d="M34 117.655C34 113.427 37.4271 110 41.6546 110H816.345C820.573 110 824 113.427 824 117.655V434.716C824 438.943 820.573 442.37 816.345 442.37H41.6546C37.4271 442.37 34 438.943 34 434.716V117.655Z" fill="white"/>
<path d="M150.854 188.405V218.467H147.719V204.595H128.909V218.467H125.731V188.405H128.909V201.804H147.719V188.405H150.854ZM168.045 195.705C170.994 195.705 173.256 196.45 174.831 197.939C176.405 199.399 177.193 201.575 177.193 204.466V218.467H174.272V214.945C173.585 216.119 172.569 217.035 171.223 217.694C169.906 218.352 168.331 218.682 166.499 218.682C163.98 218.682 161.975 218.08 160.487 216.878C158.998 215.675 158.253 214.086 158.253 212.111C158.253 210.193 158.941 208.647 160.315 207.473C161.718 206.299 163.937 205.712 166.971 205.712H174.143V204.338C174.143 202.391 173.6 200.916 172.512 199.914C171.424 198.883 169.835 198.368 167.745 198.368C166.313 198.368 164.939 198.611 163.622 199.098C162.305 199.556 161.174 200.2 160.229 201.031L158.855 198.755C160 197.781 161.374 197.037 162.977 196.521C164.581 195.977 166.27 195.705 168.045 195.705ZM166.971 216.277C168.689 216.277 170.164 215.89 171.395 215.117C172.626 214.315 173.542 213.17 174.143 211.681V207.988H167.057C163.192 207.988 161.26 209.334 161.26 212.025C161.26 213.342 161.761 214.387 162.763 215.16C163.765 215.904 165.168 216.277 166.971 216.277ZM185.31 195.877H188.359V213.829L203.433 195.877H206.139V218.467H203.09V200.515L188.058 218.467H185.31V195.877ZM195.574 192.613C193.627 192.613 192.081 192.127 190.936 191.153C189.791 190.18 189.204 188.805 189.175 187.03H191.365C191.394 188.147 191.795 189.049 192.568 189.736C193.341 190.394 194.343 190.724 195.574 190.724C196.805 190.724 197.807 190.394 198.58 189.736C199.382 189.049 199.797 188.147 199.826 187.03H202.016C201.987 188.805 201.386 190.18 200.212 191.153C199.067 192.127 197.521 192.613 195.574 192.613ZM236.909 215.804V223.921H234.031V218.467H213.804V223.921H210.926V215.804H212.215C213.732 215.718 214.763 214.602 215.307 212.454C215.851 210.307 216.223 207.301 216.423 203.436L216.724 195.877H233.387V215.804H236.909ZM219.215 203.608C219.072 206.814 218.8 209.463 218.399 211.553C217.998 213.614 217.282 215.031 216.252 215.804H230.338V198.583H219.473L219.215 203.608ZM242.851 195.877H245.9V213.829L260.974 195.877H263.68V218.467H260.631V200.515L245.6 218.467H242.851V195.877ZM288.309 198.583H279.762V218.467H276.713V198.583H268.167V195.877H288.309V198.583ZM311.424 208.117H292.528C292.699 210.465 293.601 212.369 295.233 213.829C296.865 215.26 298.927 215.976 301.418 215.976C302.82 215.976 304.109 215.733 305.283 215.246C306.457 214.731 307.473 213.986 308.332 213.013L310.05 214.988C309.048 216.191 307.788 217.107 306.27 217.737C304.782 218.367 303.135 218.682 301.332 218.682C299.013 218.682 296.951 218.195 295.147 217.221C293.372 216.219 291.984 214.845 290.982 213.099C289.98 211.352 289.478 209.377 289.478 207.172C289.478 204.968 289.951 202.992 290.896 201.245C291.869 199.499 293.186 198.139 294.847 197.166C296.536 196.192 298.426 195.705 300.516 195.705C302.606 195.705 304.481 196.192 306.142 197.166C307.802 198.139 309.105 199.499 310.05 201.245C310.995 202.963 311.467 204.939 311.467 207.172L311.424 208.117ZM300.516 198.325C298.34 198.325 296.507 199.027 295.019 200.43C293.558 201.804 292.728 203.608 292.528 205.841H308.547C308.346 203.608 307.502 201.804 306.013 200.43C304.553 199.027 302.72 198.325 300.516 198.325ZM338.905 218.682C336.671 218.682 334.667 218.195 332.892 217.221C331.146 216.248 329.771 214.888 328.769 213.142C327.767 211.366 327.266 209.377 327.266 207.172C327.266 204.968 327.767 202.992 328.769 201.245C329.771 199.499 331.146 198.139 332.892 197.166C334.667 196.192 336.671 195.705 338.905 195.705C340.851 195.705 342.584 196.092 344.101 196.865C345.647 197.609 346.864 198.712 347.751 200.172L345.475 201.718C344.731 200.601 343.786 199.771 342.641 199.227C341.496 198.654 340.25 198.368 338.905 198.368C337.273 198.368 335.798 198.74 334.481 199.485C333.193 200.2 332.176 201.231 331.432 202.577C330.716 203.922 330.358 205.454 330.358 207.172C330.358 208.919 330.716 210.465 331.432 211.81C332.176 213.127 333.193 214.158 334.481 214.902C335.798 215.618 337.273 215.976 338.905 215.976C340.25 215.976 341.496 215.704 342.641 215.16C343.786 214.616 344.731 213.786 345.475 212.669L347.751 214.215C346.864 215.675 345.647 216.792 344.101 217.565C342.555 218.309 340.823 218.682 338.905 218.682ZM368.042 206.786C371.106 207.501 372.638 209.348 372.638 212.326C372.638 214.301 371.908 215.819 370.447 216.878C368.987 217.937 366.811 218.467 363.92 218.467H353.656V195.877H363.619C366.196 195.877 368.214 196.378 369.674 197.38C371.135 198.382 371.865 199.814 371.865 201.675C371.865 202.906 371.521 203.965 370.834 204.853C370.175 205.712 369.245 206.356 368.042 206.786ZM356.619 205.927H363.404C365.151 205.927 366.482 205.597 367.398 204.939C368.343 204.28 368.816 203.321 368.816 202.061C368.816 200.802 368.343 199.857 367.398 199.227C366.482 198.597 365.151 198.282 363.404 198.282H356.619V205.927ZM363.791 216.062C365.738 216.062 367.198 215.747 368.171 215.117C369.145 214.487 369.631 213.499 369.631 212.154C369.631 210.808 369.188 209.82 368.3 209.191C367.413 208.532 366.01 208.203 364.091 208.203H356.619V216.062H363.791ZM389.103 218.682C386.927 218.682 384.966 218.195 383.22 217.221C381.473 216.219 380.099 214.845 379.097 213.099C378.095 211.352 377.594 209.377 377.594 207.172C377.594 204.968 378.095 202.992 379.097 201.245C380.099 199.499 381.473 198.139 383.22 197.166C384.966 196.192 386.927 195.705 389.103 195.705C391.279 195.705 393.24 196.192 394.987 197.166C396.733 198.139 398.093 199.499 399.067 201.245C400.069 202.992 400.57 204.968 400.57 207.172C400.57 209.377 400.069 211.352 399.067 213.099C398.093 214.845 396.733 216.219 394.987 217.221C393.24 218.195 391.279 218.682 389.103 218.682ZM389.103 215.976C390.707 215.976 392.138 215.618 393.398 214.902C394.686 214.158 395.688 213.113 396.404 211.767C397.12 210.422 397.478 208.89 397.478 207.172C397.478 205.454 397.12 203.922 396.404 202.577C395.688 201.231 394.686 200.2 393.398 199.485C392.138 198.74 390.707 198.368 389.103 198.368C387.5 198.368 386.054 198.74 384.766 199.485C383.506 200.2 382.504 201.231 381.759 202.577C381.044 203.922 380.686 205.454 380.686 207.172C380.686 208.89 381.044 210.422 381.759 211.767C382.504 213.113 383.506 214.158 384.766 214.902C386.054 215.618 387.5 215.976 389.103 215.976ZM407.087 195.877H410.136V213.829L425.21 195.877H427.916V218.467H424.866V200.515L409.835 218.467H407.087V195.877ZM450.783 218.467L443.611 209.019L436.396 218.467H432.961L441.893 206.871L433.39 195.877H436.826L443.611 204.724L450.397 195.877H453.747L445.243 206.871L454.262 218.467H450.783ZM145.271 247.877V270.467H142.222V250.583H128.05V270.467H125.001V247.877H145.271ZM173.694 260.117H154.798C154.97 262.465 155.872 264.369 157.504 265.829C159.135 267.26 161.197 267.976 163.688 267.976C165.091 267.976 166.379 267.733 167.553 267.246C168.727 266.731 169.743 265.986 170.602 265.013L172.32 266.988C171.318 268.191 170.058 269.107 168.541 269.737C167.052 270.367 165.406 270.682 163.602 270.682C161.283 270.682 159.221 270.195 157.418 269.221C155.643 268.219 154.254 266.845 153.252 265.099C152.25 263.352 151.749 261.377 151.749 259.172C151.749 256.968 152.221 254.992 153.166 253.245C154.139 251.499 155.456 250.139 157.117 249.166C158.806 248.192 160.696 247.705 162.786 247.705C164.876 247.705 166.751 248.192 168.412 249.166C170.072 250.139 171.375 251.499 172.32 253.245C173.265 254.963 173.737 256.939 173.737 259.172L173.694 260.117ZM162.786 250.325C160.61 250.325 158.778 251.027 157.289 252.43C155.829 253.804 154.998 255.608 154.798 257.841H170.817C170.616 255.608 169.772 253.804 168.283 252.43C166.823 251.027 164.99 250.325 162.786 250.325ZM192.125 247.705C194.244 247.705 196.162 248.192 197.88 249.166C199.598 250.11 200.943 251.456 201.917 253.203C202.89 254.949 203.377 256.939 203.377 259.172C203.377 261.434 202.89 263.438 201.917 265.185C200.943 266.931 199.598 268.291 197.88 269.264C196.191 270.209 194.273 270.682 192.125 270.682C190.293 270.682 188.632 270.309 187.143 269.565C185.683 268.792 184.481 267.675 183.536 266.215V278.798H180.487V247.877H183.407V252.344C184.323 250.855 185.526 249.71 187.015 248.908C188.532 248.106 190.236 247.705 192.125 247.705ZM191.91 267.976C193.485 267.976 194.917 267.618 196.205 266.902C197.493 266.158 198.496 265.113 199.211 263.767C199.956 262.422 200.328 260.89 200.328 259.172C200.328 257.454 199.956 255.937 199.211 254.62C198.496 253.274 197.493 252.229 196.205 251.485C194.917 250.74 193.485 250.368 191.91 250.368C190.307 250.368 188.861 250.74 187.573 251.485C186.313 252.229 185.311 253.274 184.567 254.62C183.851 255.937 183.493 257.454 183.493 259.172C183.493 260.89 183.851 262.422 184.567 263.767C185.311 265.113 186.313 266.158 187.573 266.902C188.861 267.618 190.307 267.976 191.91 267.976ZM224.315 258.786C227.379 259.501 228.911 261.348 228.911 264.326C228.911 266.301 228.181 267.819 226.72 268.878C225.26 269.937 223.084 270.467 220.193 270.467H209.928V247.877H219.892C222.469 247.877 224.487 248.378 225.947 249.38C227.407 250.382 228.138 251.814 228.138 253.675C228.138 254.906 227.794 255.965 227.107 256.853C226.448 257.712 225.518 258.356 224.315 258.786ZM212.892 257.927H219.677C221.424 257.927 222.755 257.597 223.671 256.939C224.616 256.28 225.088 255.321 225.088 254.061C225.088 252.802 224.616 251.857 223.671 251.227C222.755 250.597 221.424 250.282 219.677 250.282H212.892V257.927ZM220.064 268.062C222.011 268.062 223.471 267.747 224.444 267.117C225.418 266.487 225.904 265.499 225.904 264.154C225.904 262.808 225.461 261.82 224.573 261.191C223.685 260.532 222.283 260.203 220.364 260.203H212.892V268.062H220.064ZM245.548 255.865C248.382 255.894 250.544 256.524 252.033 257.755C253.522 258.986 254.266 260.761 254.266 263.08C254.266 265.485 253.464 267.332 251.861 268.62C250.258 269.909 247.967 270.538 244.99 270.51L236.057 270.467V247.877H239.106V255.779L245.548 255.865ZM258.045 247.877H261.094V270.467H258.045V247.877ZM244.818 268.191C246.908 268.219 248.483 267.804 249.542 266.945C250.63 266.058 251.174 264.769 251.174 263.08C251.174 261.42 250.644 260.188 249.585 259.387C248.526 258.585 246.936 258.17 244.818 258.141L239.106 258.055V268.105L244.818 268.191ZM283.906 270.467L276.734 261.019L269.519 270.467H266.083L275.016 258.871L266.512 247.877H269.948L276.734 256.724L283.519 247.877H286.869L278.365 258.871L287.384 270.467H283.906ZM311.824 260.418H306.671V270.467H303.622V247.877H306.671V257.798H311.867L319.812 247.877H323.119L314.229 258.829L323.763 270.467H320.156L311.824 260.418ZM340.214 247.705C342.333 247.705 344.251 248.192 345.969 249.166C347.687 250.11 349.032 251.456 350.006 253.203C350.979 254.949 351.466 256.939 351.466 259.172C351.466 261.434 350.979 263.438 350.006 265.185C349.032 266.931 347.687 268.291 345.969 269.264C344.28 270.209 342.361 270.682 340.214 270.682C338.382 270.682 336.721 270.309 335.232 269.565C333.772 268.792 332.57 267.675 331.625 266.215V278.798H328.576V247.877H331.496V252.344C332.412 250.855 333.615 249.71 335.103 248.908C336.621 248.106 338.324 247.705 340.214 247.705ZM339.999 267.976C341.574 267.976 343.006 267.618 344.294 266.902C345.582 266.158 346.584 265.113 347.3 263.767C348.045 262.422 348.417 260.89 348.417 259.172C348.417 257.454 348.045 255.937 347.3 254.62C346.584 253.274 345.582 252.229 344.294 251.485C343.006 250.74 341.574 250.368 339.999 250.368C338.396 250.368 336.95 250.74 335.662 251.485C334.402 252.229 333.4 253.274 332.656 254.62C331.94 255.937 331.582 257.454 331.582 259.172C331.582 260.89 331.94 262.422 332.656 263.767C333.4 265.113 334.402 266.158 335.662 266.902C336.95 267.618 338.396 267.976 339.999 267.976ZM377.772 260.117H358.876C359.048 262.465 359.95 264.369 361.582 265.829C363.214 267.26 365.275 267.976 367.766 267.976C369.169 267.976 370.457 267.733 371.631 267.246C372.805 266.731 373.821 265.986 374.68 265.013L376.398 266.988C375.396 268.191 374.136 269.107 372.619 269.737C371.13 270.367 369.484 270.682 367.68 270.682C365.361 270.682 363.3 270.195 361.496 269.221C359.721 268.219 358.332 266.845 357.33 265.099C356.328 263.352 355.827 261.377 355.827 259.172C355.827 256.968 356.299 254.992 357.244 253.245C358.218 251.499 359.535 250.139 361.195 249.166C362.884 248.192 364.774 247.705 366.864 247.705C368.954 247.705 370.83 248.192 372.49 249.166C374.151 250.139 375.453 251.499 376.398 253.245C377.343 254.963 377.815 256.939 377.815 259.172L377.772 260.117ZM366.864 250.325C364.688 250.325 362.856 251.027 361.367 252.43C359.907 253.804 359.077 255.608 358.876 257.841H374.895C374.695 255.608 373.85 253.804 372.361 252.43C370.901 251.027 369.069 250.325 366.864 250.325ZM391.709 247.705C394.658 247.705 396.92 248.45 398.495 249.939C400.069 251.399 400.857 253.575 400.857 256.466V270.467H397.936V266.945C397.249 268.119 396.233 269.035 394.887 269.694C393.57 270.352 391.995 270.682 390.163 270.682C387.644 270.682 385.639 270.08 384.151 268.878C382.662 267.675 381.917 266.086 381.917 264.111C381.917 262.193 382.605 260.647 383.979 259.473C385.382 258.299 387.601 257.712 390.636 257.712H397.808V256.338C397.808 254.391 397.264 252.916 396.176 251.914C395.088 250.883 393.499 250.368 391.409 250.368C389.977 250.368 388.603 250.611 387.286 251.098C385.969 251.556 384.838 252.2 383.893 253.031L382.519 250.755C383.664 249.781 385.038 249.037 386.642 248.521C388.245 247.977 389.934 247.705 391.709 247.705ZM390.636 268.277C392.353 268.277 393.828 267.89 395.059 267.117C396.29 266.315 397.206 265.17 397.808 263.681V259.988H390.721C386.856 259.988 384.924 261.334 384.924 264.025C384.924 265.342 385.425 266.387 386.427 267.16C387.429 267.904 388.832 268.277 390.636 268.277ZM424.864 250.583H416.318V270.467H413.269V250.583H404.722V247.877H424.864V250.583ZM437.544 270.682C435.368 270.682 433.406 270.195 431.66 269.221C429.913 268.219 428.539 266.845 427.537 265.099C426.535 263.352 426.034 261.377 426.034 259.172C426.034 256.968 426.535 254.992 427.537 253.245C428.539 251.499 429.913 250.139 431.66 249.166C433.406 248.192 435.368 247.705 437.544 247.705C439.719 247.705 441.681 248.192 443.427 249.166C445.174 250.139 446.534 251.499 447.507 253.245C448.509 254.992 449.01 256.968 449.01 259.172C449.01 261.377 448.509 263.352 447.507 265.099C446.534 266.845 445.174 268.219 443.427 269.221C441.681 270.195 439.719 270.682 437.544 270.682ZM437.544 267.976C439.147 267.976 440.578 267.618 441.838 266.902C443.127 266.158 444.129 265.113 444.844 263.767C445.56 262.422 445.918 260.89 445.918 259.172C445.918 257.454 445.56 255.922 444.844 254.577C444.129 253.231 443.127 252.2 441.838 251.485C440.578 250.74 439.147 250.368 437.544 250.368C435.94 250.368 434.494 250.74 433.206 251.485C431.946 252.2 430.944 253.231 430.2 254.577C429.484 255.922 429.126 257.454 429.126 259.172C429.126 260.89 429.484 262.422 430.2 263.767C430.944 265.113 431.946 266.158 433.206 266.902C434.494 267.618 435.94 267.976 437.544 267.976ZM467.165 247.705C469.284 247.705 471.202 248.192 472.92 249.166C474.638 250.11 475.984 251.456 476.957 253.203C477.93 254.949 478.417 256.939 478.417 259.172C478.417 261.434 477.93 263.438 476.957 265.185C475.984 266.931 474.638 268.291 472.92 269.264C471.231 270.209 469.313 270.682 467.165 270.682C465.333 270.682 463.672 270.309 462.184 269.565C460.723 268.792 459.521 267.675 458.576 266.215V278.798H455.527V247.877H458.447V252.344C459.363 250.855 460.566 249.71 462.055 248.908C463.572 248.106 465.276 247.705 467.165 247.705ZM466.951 267.976C468.525 267.976 469.957 267.618 471.245 266.902C472.534 266.158 473.536 265.113 474.251 263.767C474.996 262.422 475.368 260.89 475.368 259.172C475.368 257.454 474.996 255.937 474.251 254.62C473.536 253.274 472.534 252.229 471.245 251.485C469.957 250.74 468.525 250.368 466.951 250.368C465.347 250.368 463.901 250.74 462.613 251.485C461.353 252.229 460.351 253.274 459.607 254.62C458.891 255.937 458.533 257.454 458.533 259.172C458.533 260.89 458.891 262.422 459.607 263.767C460.351 265.113 461.353 266.158 462.613 266.902C463.901 267.618 465.347 267.976 466.951 267.976ZM494.288 270.682C492.112 270.682 490.151 270.195 488.404 269.221C486.658 268.219 485.283 266.845 484.281 265.099C483.279 263.352 482.778 261.377 482.778 259.172C482.778 256.968 483.279 254.992 484.281 253.245C485.283 251.499 486.658 250.139 488.404 249.166C490.151 248.192 492.112 247.705 494.288 247.705C496.464 247.705 498.425 248.192 500.171 249.166C501.918 250.139 503.278 251.499 504.251 253.245C505.253 254.992 505.754 256.968 505.754 259.172C505.754 261.377 505.253 263.352 504.251 265.099C503.278 266.845 501.918 268.219 500.171 269.221C498.425 270.195 496.464 270.682 494.288 270.682ZM494.288 267.976C495.891 267.976 497.323 267.618 498.582 266.902C499.871 266.158 500.873 265.113 501.589 263.767C502.304 262.422 502.662 260.89 502.662 259.172C502.662 257.454 502.304 255.922 501.589 254.577C500.873 253.231 499.871 252.2 498.582 251.485C497.323 250.74 495.891 250.368 494.288 250.368C492.685 250.368 491.239 250.74 489.95 251.485C488.691 252.2 487.688 253.231 486.944 254.577C486.228 255.922 485.87 257.454 485.87 259.172C485.87 260.89 486.228 262.422 486.944 263.767C487.688 265.113 488.691 266.158 489.95 266.902C491.239 267.618 492.685 267.976 494.288 267.976ZM526.658 258.786C529.722 259.501 531.253 261.348 531.253 264.326C531.253 266.301 530.523 267.819 529.063 268.878C527.603 269.937 525.427 270.467 522.535 270.467H512.271V247.877H522.235C524.812 247.877 526.83 248.378 528.29 249.38C529.75 250.382 530.48 251.814 530.48 253.675C530.48 254.906 530.137 255.965 529.45 256.853C528.791 257.712 527.861 258.356 526.658 258.786ZM515.235 257.927H522.02C523.766 257.927 525.098 257.597 526.014 256.939C526.959 256.28 527.431 255.321 527.431 254.061C527.431 252.802 526.959 251.857 526.014 251.227C525.098 250.597 523.766 250.282 522.02 250.282H515.235V257.927ZM522.407 268.062C524.353 268.062 525.814 267.747 526.787 267.117C527.76 266.487 528.247 265.499 528.247 264.154C528.247 262.808 527.803 261.82 526.916 261.191C526.028 260.532 524.625 260.203 522.707 260.203H515.235V268.062H522.407Z" fill="black"/>
<g clip-path="url(#clip0_799:1618)">
<g filter="url(#filter1_d_799:1618)">
<rect x="118.087" y="332.758" width="146.948" height="44.7875" rx="8.65216" fill="#FF424D"/>
<rect x="118.952" y="333.624" width="145.217" height="43.0571" rx="7.78694" stroke="#FF424D" stroke-width="1.73043"/>
</g>
<path d="M166.515 347.101H168.58V362.758H166.515V350.693L158.805 362.758H156.729V347.101H158.805V359.167L166.515 347.101ZM176.699 361.35C177.409 361.35 178.029 361.134 178.559 360.704C179.09 360.274 179.384 359.736 179.441 359.091H181.323C181.287 359.758 181.058 360.392 180.635 360.995C180.212 361.597 179.646 362.077 178.936 362.436C178.233 362.794 177.488 362.973 176.699 362.973C175.115 362.973 173.853 362.446 172.914 361.393C171.982 360.332 171.516 358.883 171.516 357.048V356.715C171.516 355.582 171.724 354.575 172.139 353.693C172.555 352.811 173.15 352.126 173.925 351.639C174.706 351.151 175.627 350.908 176.688 350.908C177.993 350.908 179.076 351.298 179.936 352.08C180.803 352.861 181.266 353.876 181.323 355.123H179.441C179.384 354.37 179.097 353.754 178.581 353.273C178.072 352.786 177.441 352.542 176.688 352.542C175.677 352.542 174.892 352.908 174.333 353.639C173.781 354.363 173.505 355.413 173.505 356.79V357.166C173.505 358.507 173.781 359.539 174.333 360.263C174.885 360.988 175.674 361.35 176.699 361.35ZM187.184 357.801H185.732V362.758H183.732V351.123H185.732V356.048H187.033L190.948 351.123H193.357L188.754 356.715L193.744 362.758H191.217L187.184 357.801ZM202.637 362.758C202.522 362.529 202.429 362.12 202.357 361.532C201.433 362.493 200.329 362.973 199.045 362.973C197.898 362.973 196.955 362.651 196.217 362.006C195.486 361.353 195.12 360.529 195.12 359.532C195.12 358.321 195.579 357.381 196.497 356.715C197.421 356.041 198.719 355.704 200.389 355.704H202.325V354.79C202.325 354.094 202.117 353.542 201.701 353.134C201.286 352.718 200.673 352.51 199.863 352.51C199.153 352.51 198.558 352.689 198.077 353.048C197.597 353.406 197.357 353.84 197.357 354.349H195.357C195.357 353.768 195.561 353.209 195.97 352.671C196.386 352.126 196.945 351.696 197.647 351.381C198.357 351.065 199.135 350.908 199.981 350.908C201.321 350.908 202.372 351.245 203.132 351.919C203.892 352.585 204.286 353.506 204.315 354.682V360.038C204.315 361.106 204.451 361.955 204.723 362.586V362.758H202.637ZM199.336 361.242C199.959 361.242 200.551 361.081 201.11 360.758C201.669 360.435 202.074 360.016 202.325 359.5V357.113H200.766C198.328 357.113 197.11 357.826 197.11 359.253C197.11 359.876 197.318 360.364 197.733 360.715C198.149 361.066 198.683 361.242 199.336 361.242ZM215.907 352.736H212.004V362.758H210.014V352.736H206.186V351.123H215.907V352.736ZM220.015 355.134H223.037C224.356 355.148 225.399 355.492 226.166 356.166C226.933 356.84 227.317 357.754 227.317 358.908C227.317 360.07 226.923 361.002 226.134 361.704C225.345 362.407 224.284 362.758 222.951 362.758H218.026V351.123H220.015V355.134ZM220.015 356.758V361.134H222.972C223.718 361.134 224.295 360.945 224.704 360.565C225.112 360.177 225.317 359.65 225.317 358.984C225.317 358.339 225.116 357.812 224.714 357.403C224.32 356.987 223.765 356.772 223.048 356.758H220.015Z" fill="white"/>
</g>
</g>
<path d="M772.569 42.4579C772.586 43.492 772.623 44.5184 772.623 45.5479C772.623 46.3892 772.597 47.2196 772.583 48.0563C772.597 47.2196 772.623 46.3892 772.623 45.5479C772.623 44.5184 772.586 43.492 772.569 42.4579Z" fill="#F3F2F1"/>
<path d="M689.209 192.563C690.266 191.94 691.296 191.316 692.326 190.666C693.803 189.744 695.261 188.795 696.701 187.823C695.261 188.795 693.803 189.744 692.326 190.666C691.296 191.316 690.266 191.94 689.209 192.563Z" fill="#F9F9F8"/>
<path d="M772.571 42.4578C772.553 41.4236 772.557 40.3833 772.517 39.3678C772.517 39.0428 772.489 38.7442 772.462 38.4191V38.3912V38.4191C772.489 38.7442 772.517 39.0428 772.517 39.3678C772.557 40.3833 772.553 41.4236 772.571 42.4578Z" fill="#F9F9F8"/>
<path d="M772.542 50.5631C772.569 49.7373 772.569 48.8929 772.583 48.0563C772.569 48.8929 772.569 49.7373 772.542 50.5631Z" fill="#F9F9F8"/>
<path d="M650.55 472.442L651.053 472.429L651.063 472.932L652.01 518.15L652.02 518.648L651.522 518.66L592.001 520.061L591.469 520.073L591.49 519.542C591.523 518.661 592.155 517.772 593.02 516.931C593.909 516.067 595.151 515.154 596.608 514.229C599.525 512.375 603.381 510.42 607.214 508.642C611.05 506.862 614.878 505.251 617.746 504.086C619.18 503.504 620.375 503.032 621.211 502.706C621.629 502.543 621.957 502.417 622.182 502.331L620.341 473.75L620.307 473.232L620.827 473.218L650.55 472.442Z" fill="white" stroke="black"/>
<path d="M640.539 504.084C641.57 504.084 642.586 503.346 642.795 502.379C643.018 501.343 642.308 500.223 641.267 499.859C641.052 499.757 640.817 499.712 640.576 499.712C639.618 499.712 638.557 500.438 638.264 501.295C637.896 502.37 638.937 503.787 640.102 504.039C640.246 504.07 640.393 504.084 640.539 504.084Z" fill="white"/>
<path d="M591.989 519.561L651.509 518.16L591.989 519.561C592.013 518.89 592.511 518.122 593.363 517.294C593.301 517.294 593.253 517.294 593.191 517.294C592.513 517.804 591.797 518.591 591.989 519.561Z" fill="white"/>
<path d="M593.191 517.294C593.254 517.294 593.302 517.294 593.364 517.294C593.498 517.163 593.641 517.031 593.792 516.899C593.616 517.002 593.406 517.133 593.191 517.294Z" fill="#ACABAB"/>
<mask id="path-15-outside-1_799:1618" maskUnits="userSpaceOnUse" x="590.989" y="511.561" width="62" height="9" fill="black">
<rect fill="white" x="590.989" y="511.561" width="62" height="9"/>
<path d="M591.989 519.561L651.51 518.16L651.226 513.605L594.264 516.652C594.264 516.652 594.07 516.737 593.792 516.899C593.641 517.031 593.498 517.163 593.364 517.294C592.512 518.122 592.014 518.89 591.989 519.561Z"/>
</mask>
<path d="M591.989 519.561L651.51 518.16L651.226 513.605L594.264 516.652C594.264 516.652 594.07 516.737 593.792 516.899C593.641 517.031 593.498 517.163 593.364 517.294C592.512 518.122 592.014 518.89 591.989 519.561Z" fill="black"/>
<path d="M651.51 518.16L652.508 518.098L652.573 519.135L651.533 519.16L651.51 518.16ZM651.226 513.605L651.173 512.607L652.162 512.554L652.224 513.543L651.226 513.605ZM594.264 516.652L593.864 515.736L594.03 515.663L594.211 515.653L594.264 516.652ZM593.792 516.899L593.134 516.146L593.206 516.083L593.288 516.035L593.792 516.899ZM593.364 517.294L594.063 518.009L594.061 518.011L593.364 517.294ZM591.966 518.561L651.486 517.16L651.533 519.16L592.013 520.561L591.966 518.561ZM650.512 518.222L650.228 513.668L652.224 513.543L652.508 518.098L650.512 518.222ZM651.279 514.604L594.318 517.65L594.211 515.653L651.173 512.607L651.279 514.604ZM594.264 516.652C594.665 517.568 594.665 517.568 594.665 517.568C594.665 517.568 594.665 517.568 594.666 517.568C594.666 517.568 594.666 517.568 594.666 517.568C594.666 517.568 594.666 517.567 594.666 517.567C594.667 517.567 594.667 517.567 594.667 517.567C594.668 517.567 594.668 517.567 594.668 517.567C594.668 517.567 594.668 517.567 594.667 517.567C594.664 517.568 594.659 517.571 594.652 517.574C594.637 517.581 594.612 517.593 594.578 517.61C594.511 517.643 594.413 517.694 594.295 517.763L593.288 516.035C593.449 515.941 593.587 515.869 593.687 515.819C593.737 515.794 593.778 515.775 593.808 515.761C593.823 515.754 593.835 515.748 593.844 515.744C593.849 515.742 593.853 515.74 593.856 515.739C593.858 515.738 593.859 515.737 593.861 515.737C593.861 515.737 593.862 515.736 593.862 515.736C593.862 515.736 593.863 515.736 593.863 515.736C593.863 515.736 593.863 515.736 593.863 515.736C593.863 515.736 593.863 515.736 593.863 515.736C593.864 515.736 593.864 515.736 594.264 516.652ZM594.45 517.652C594.313 517.772 594.183 517.892 594.063 518.009L592.665 516.578C592.812 516.435 592.969 516.29 593.134 516.146L594.45 517.652ZM594.061 518.011C593.232 518.817 592.998 519.344 592.989 519.598L590.99 519.524C591.03 518.435 591.792 517.428 592.667 516.577L594.061 518.011Z" fill="black" mask="url(#path-15-outside-1_799:1618)"/>
<path d="M621.733 502.402C621.75 502.677 623.205 502.767 624.659 503.617C626.135 504.431 626.905 505.604 627.168 505.489C627.435 505.427 626.959 503.797 625.18 502.797C623.41 501.783 621.663 502.151 621.733 502.402Z" fill="#282828"/>
<path d="M615.554 504.989C615.495 505.257 616.765 505.694 617.782 506.834C618.835 507.944 619.118 509.193 619.407 509.176C619.681 509.212 619.84 507.599 618.546 506.206C617.266 504.803 615.552 504.727 615.554 504.989Z" fill="#282828"/>
<path d="M612.195 512.135C612.459 512.187 612.828 510.804 612.041 509.318C611.267 507.824 609.881 507.265 609.764 507.496C609.606 507.727 610.509 508.513 611.135 509.743C611.791 510.958 611.904 512.114 612.195 512.135Z" fill="#282828"/>
<path d="M622.08 495.761C622.21 496.009 623.533 495.597 625.178 495.664C626.825 495.701 628.117 496.191 628.264 495.952C628.427 495.749 627.15 494.762 625.211 494.709C623.273 494.642 621.933 495.548 622.08 495.761Z" fill="#282828"/>
<path d="M623.323 489.053C623.323 489.166 624.476 489.31 626.304 488.968C627.213 488.798 628.283 488.49 629.399 487.991C629.956 487.738 630.525 487.441 631.088 487.091C631.357 486.918 631.677 486.742 631.97 486.406C632.284 486.114 632.449 485.38 632.065 484.943C631.749 484.517 631.205 484.344 630.775 484.345C630.335 484.341 629.982 484.433 629.66 484.517C629.003 484.684 628.387 484.907 627.824 485.161C626.699 485.677 625.791 486.316 625.119 486.932C623.77 488.173 623.326 489.21 623.427 489.26C623.561 489.349 624.211 488.471 625.589 487.442C626.278 486.929 627.158 486.394 628.211 485.963C628.738 485.75 629.306 485.565 629.909 485.423C630.534 485.252 631.072 485.235 631.24 485.498C631.303 485.596 631.31 485.636 631.183 485.814C631.051 485.978 630.8 486.142 630.534 486.313C630.015 486.65 629.494 486.946 628.981 487.201C627.956 487.713 626.972 488.067 626.127 488.313C624.434 488.803 623.314 488.904 623.323 489.053Z" fill="#282828"/>
<path d="M623.712 489.437C623.816 489.479 624.367 488.48 624.426 486.697C624.452 485.815 624.328 484.748 623.939 483.624C623.74 483.064 623.476 482.49 623.134 481.931C622.77 481.385 622.325 480.649 621.194 480.553C620.605 480.545 620.128 480.993 619.971 481.369C619.784 481.753 619.753 482.082 619.692 482.409C619.6 483.069 619.63 483.713 619.74 484.305C619.958 485.5 620.504 486.483 621.09 487.187C622.291 488.616 623.513 488.916 623.535 488.823C623.628 488.683 622.6 488.176 621.673 486.797C621.218 486.116 620.803 485.213 620.661 484.17C620.589 483.652 620.583 483.098 620.673 482.542C620.751 481.941 620.975 481.453 621.213 481.51C621.509 481.498 622.025 481.937 622.28 482.408C622.599 482.904 622.857 483.414 623.059 483.917C623.459 484.926 623.648 485.894 623.711 486.714C623.837 488.364 623.552 489.4 623.712 489.437Z" fill="#282828"/>
<path d="M695.18 476.76L695.117 476.262L695.615 476.201L725.132 472.613L725.648 472.551L725.691 473.068L728.056 501.612C728.291 501.664 728.634 501.741 729.071 501.841C729.946 502.041 731.197 502.333 732.701 502.699C735.709 503.431 739.731 504.464 743.787 505.663C747.839 506.86 751.94 508.229 755.097 509.635C756.674 510.338 758.036 511.058 759.042 511.783C760.021 512.488 760.776 513.275 760.938 514.141L761.036 514.664L760.508 514.73L701.424 522.062L700.929 522.123L700.866 521.628L695.18 476.76Z" fill="white" stroke="black"/>
<path d="M709.826 506.061C710.081 506.061 710.336 506.017 710.579 505.927C711.694 505.508 712.517 503.952 711.995 502.945C711.622 502.221 710.656 501.695 709.777 501.695C709.43 501.695 709.095 501.777 708.817 501.962C707.839 502.472 707.3 503.687 707.672 504.678C707.983 505.508 708.905 506.061 709.826 506.061Z" fill="white"/>
<path d="M739.894 516.785L760.446 514.233C760.508 512.932 759.062 512.178 758.271 511.863C759.514 512.67 760.303 513.468 760.446 514.233L739.894 516.785Z" fill="white"/>
<mask id="path-26-outside-2_799:1618" maskUnits="userSpaceOnUse" x="698.976" y="510.565" width="63" height="12" fill="black">
<rect fill="white" x="698.976" y="510.565" width="63" height="12"/>
<path d="M701.361 521.565L739.893 516.785L760.446 514.233C760.303 513.468 759.514 512.67 758.271 511.863C757.974 511.745 757.769 511.689 757.769 511.689L700.976 517.02L701.361 521.565Z"/>
</mask>
<path d="M701.361 521.565L739.893 516.785L760.446 514.233C760.303 513.468 759.514 512.67 758.271 511.863C757.974 511.745 757.769 511.689 757.769 511.689L700.976 517.02L701.361 521.565Z" fill="black"/>
<path d="M739.893 516.785L740.017 517.778L740.017 517.778L739.893 516.785ZM760.446 514.233L761.429 514.049L761.624 515.095L760.569 515.226L760.446 514.233ZM758.271 511.863L758.64 510.934L758.732 510.97L758.815 511.024L758.271 511.863ZM757.769 511.689L757.676 510.694L757.857 510.677L758.033 510.725L757.769 511.689ZM700.976 517.02L699.979 517.104L699.895 516.117L700.882 516.024L700.976 517.02ZM701.238 520.573L739.77 515.793L740.017 517.778L701.485 522.558L701.238 520.573ZM739.77 515.793L760.323 513.241L760.569 515.226L740.017 517.778L739.77 515.793ZM759.463 514.417C759.44 514.293 759.342 514.069 759.041 513.747C758.745 513.431 758.309 513.08 757.726 512.702L758.815 511.024C759.475 511.453 760.055 511.904 760.501 512.381C760.94 512.85 761.309 513.408 761.429 514.049L759.463 514.417ZM757.901 512.792C757.776 512.742 757.671 512.706 757.599 512.683C757.564 512.671 757.537 512.663 757.521 512.658C757.513 512.656 757.508 512.654 757.505 512.654C757.504 512.653 757.503 512.653 757.503 512.653C757.503 512.653 757.504 512.653 757.504 512.653C757.504 512.653 757.505 512.654 757.505 512.654C757.505 512.654 757.505 512.654 757.506 512.654C757.506 512.654 757.506 512.654 757.506 512.654C757.506 512.654 757.506 512.654 757.506 512.654C757.506 512.654 757.506 512.654 757.769 511.689C758.033 510.725 758.033 510.725 758.033 510.725C758.033 510.725 758.033 510.725 758.033 510.725C758.033 510.725 758.033 510.725 758.034 510.725C758.034 510.725 758.034 510.725 758.034 510.725C758.035 510.725 758.035 510.725 758.036 510.725C758.037 510.726 758.039 510.726 758.04 510.727C758.044 510.728 758.048 510.729 758.053 510.73C758.062 510.733 758.075 510.737 758.091 510.741C758.122 510.751 758.165 510.764 758.218 510.781C758.324 510.815 758.469 510.866 758.64 510.934L757.901 512.792ZM757.863 512.685L701.069 518.015L700.882 516.024L757.676 510.694L757.863 512.685ZM701.972 516.935L702.358 521.481L700.365 521.65L699.979 517.104L701.972 516.935Z" fill="black" mask="url(#path-26-outside-2_799:1618)"/>
<path d="M728.512 501.617C728.535 501.892 727.108 502.193 725.794 503.248C724.452 504.268 723.863 505.542 723.586 505.466C723.313 505.445 723.546 503.761 725.158 502.512C726.76 501.249 728.543 501.359 728.512 501.617Z" fill="#282828"/>
<path d="M735.001 503.271C735.098 503.528 733.905 504.147 733.066 505.422C732.186 506.674 732.09 507.952 731.801 507.977C731.536 508.053 731.143 506.48 732.219 504.912C733.279 503.339 734.963 503.014 735.001 503.271Z" fill="#282828"/>
<path d="M739.372 509.846C739.116 509.938 738.55 508.624 739.11 507.039C739.658 505.448 740.947 504.691 741.096 504.904C741.287 505.106 740.508 506.017 740.069 507.325C739.599 508.624 739.655 509.784 739.372 509.846Z" fill="#282828"/>
<path d="M727.192 495.097C727.101 495.362 725.732 495.149 724.114 495.456C722.489 495.732 721.283 496.408 721.105 496.192C720.914 496.016 722.03 494.853 723.941 494.516C725.848 494.166 727.308 494.866 727.192 495.097Z" fill="#282828"/>
<path d="M724.983 488.644C724.999 488.758 723.879 489.067 722.021 488.997C721.097 488.963 719.995 488.815 718.817 488.482C718.228 488.318 717.621 488.106 717.014 487.841C716.722 487.71 716.379 487.583 716.041 487.294C715.686 487.05 715.417 486.349 715.732 485.859C715.983 485.394 716.496 485.142 716.921 485.078C717.355 485.013 717.718 485.05 718.048 485.086C718.725 485.154 719.367 485.285 719.96 485.455C721.148 485.8 722.14 486.3 722.894 486.809C724.411 487.838 725.002 488.799 724.91 488.865C724.789 488.971 724.018 488.199 722.504 487.383C721.749 486.975 720.798 486.575 719.695 486.305C719.142 486.172 718.553 486.07 717.936 486.02C717.292 485.941 716.758 486.003 716.63 486.288C716.584 486.395 716.58 486.436 716.733 486.593C716.887 486.736 717.16 486.86 717.448 486.991C718.009 487.249 718.569 487.464 719.114 487.642C720.202 487.997 721.228 488.205 722.1 488.324C723.845 488.56 724.97 488.498 724.983 488.644Z" fill="#282828"/>
<path d="M724.654 489.082C724.556 489.137 723.865 488.23 723.546 486.478C723.391 485.607 723.357 484.534 723.577 483.364C723.692 482.781 723.869 482.174 724.126 481.573C724.405 480.977 724.737 480.185 725.842 479.926C726.424 479.831 726.961 480.204 727.172 480.551C727.413 480.906 727.492 481.226 727.601 481.54C727.788 482.179 727.853 482.82 727.83 483.423C727.789 484.636 727.395 485.689 726.918 486.472C725.938 488.061 724.774 488.536 724.738 488.446C724.625 488.322 725.567 487.671 726.282 486.172C726.635 485.431 726.912 484.478 726.9 483.426C726.895 482.901 726.82 482.354 726.65 481.815C726.485 481.234 726.191 480.784 725.963 480.873C725.669 480.906 725.224 481.414 725.039 481.918C724.797 482.457 724.618 483 724.49 483.526C724.242 484.58 724.198 485.568 724.256 486.389C724.374 488.039 724.805 489.022 724.654 489.082Z" fill="#282828"/>
<path d="M604.392 232.95L697.069 235.912C697.069 235.912 718.908 381.771 718.306 391.902L731.775 497.702L692.582 499.076C692.582 499.076 686.416 464.768 682.116 441.286C679.255 425.662 674.035 402.74 672.62 389.695C671.203 376.648 648.283 285.54 648.283 285.54C648.283 285.54 649.976 391.299 649.938 395.643C649.899 399.988 654.468 498.993 654.468 498.993H615.55C613.539 481.125 608.764 409.618 607.736 395.166C605.879 369.079 600.019 295.369 599.167 276.535C598.313 257.701 604.392 232.95 604.392 232.95Z" fill="#282828"/>
<path d="M610.501 233.662C610.688 233.662 610.839 232.174 610.839 230.337C610.839 228.5 610.688 227.014 610.501 227.014C610.313 227.014 610.162 228.5 610.162 230.337C610.162 232.174 610.313 233.662 610.501 233.662Z" fill="#7B61FF"/>
<path d="M606.653 235.411C606.827 235.439 607.236 233.53 607.033 231.15C606.84 228.771 606.121 226.956 605.953 227.014C605.764 227.068 606.173 228.91 606.358 231.206C606.555 233.505 606.457 235.388 606.653 235.411Z" fill="#7B61FF"/>
<path d="M641.269 228.466C641.241 228.586 642.301 228.457 643.23 229.559C643.663 230.083 644.034 230.901 643.871 231.755C643.736 232.611 642.916 233.337 641.908 233.526C640.9 233.721 639.871 233.345 639.431 232.6C638.966 231.864 639.011 230.967 639.221 230.321C639.682 228.954 640.715 228.685 640.645 228.584C640.638 228.553 640.385 228.549 639.99 228.754C639.597 228.953 639.095 229.412 638.773 230.152C638.473 230.877 638.331 231.937 638.899 232.925C639.453 233.939 640.812 234.441 642.035 234.191C643.263 233.974 644.342 233.01 644.486 231.863C644.651 230.737 644.13 229.8 643.585 229.237C643.015 228.667 642.378 228.424 641.941 228.384C641.498 228.337 641.264 228.435 641.269 228.466Z" fill="#7B61FF"/>
<path d="M683.993 389.397C684.064 389.569 688.508 387.909 693.917 385.686C699.329 383.464 703.657 381.523 703.586 381.349C703.515 381.176 699.071 382.837 693.66 385.059C688.25 387.281 683.921 389.224 683.993 389.397Z" fill="#7B61FF"/>
<path d="M689.029 13.7427C688.723 8.34802 685.405 5.02942 680.757 2.27531C676.107 -0.480339 670.08 -0.754044 665.201 1.56929C661.938 3.12284 659.081 5.77587 655.497 6.23774C649.595 6.99974 644.008 1.53197 638.216 2.89581C634.787 3.70602 632.174 7.13502 632.307 10.6558C632.437 14.175 635.299 17.4019 638.779 17.9508C634.913 18.5107 632.725 23.3999 634.154 27.0342C635.583 30.6701 639.639 32.7788 643.545 32.8628C647.449 32.9483 651.202 31.3544 654.58 29.3934C657.957 27.4339 661.112 25.0748 664.634 23.3891C668.157 21.7033 672.21 20.7174 675.983 21.7235C681.093 23.0827 684.713 27.9067 686.047 33.0245C687.38 38.1408 686.805 43.5448 686.012 48.7731C685.217 53.9999 684.21 59.2733 684.707 64.5373C684.765 65.1547 684.902 65.8623 685.446 66.1624C686.231 66.5947 687.131 65.8545 687.709 65.1687C694.238 57.4289 699.225 48.3937 702.295 38.7458C704.079 33.1412 705.062 27.6858 702.921 22.2087C700.781 16.7301 693.569 11.5173 689.029 13.7427Z" fill="#282828"/>
<path d="M694.005 39.8142L685.367 93.1125C683.754 103.065 677.287 112.682 661.667 109.415C648.329 105.557 649.32 95.9615 651.057 84.1333C651.057 84.1333 651.014 84.5905 651.057 84.1333C651.057 84.1333 636.386 80.3171 637.701 65.3958C638.335 58.1863 640.853 43.4407 643.284 30.1274C645.896 15.8298 659.066 5.94544 673.527 7.39948L674.966 7.54412C690.378 10.009 696.896 24.4746 694.005 39.8142Z" fill="#FFAA88"/>
<path d="M651.058 84.1334C651.058 84.1334 660.396 85.6278 671.038 80.3482C671.038 80.3482 665.187 91.433 650.452 88.595L651.058 84.1334Z" fill="#FFAA88"/>
<path d="M646.211 43.1685C646.058 44.2882 646.881 45.341 648.047 45.5214C649.211 45.7018 650.281 44.9444 650.434 43.8232C650.587 42.7051 649.764 41.6492 648.6 41.4688C647.434 41.2884 646.364 42.0488 646.211 43.1685Z" fill="#282828"/>
<path d="M645.752 37.7629C645.988 38.0677 647.72 37.0367 650.009 37.273C652.3 37.4752 653.863 38.8235 654.138 38.5669C654.273 38.4549 654.055 37.9277 653.377 37.3213C652.709 36.7194 651.532 36.0787 650.106 35.9419C648.678 35.8066 647.425 36.2093 646.682 36.679C645.924 37.1471 645.635 37.626 645.752 37.7629Z" fill="#282828"/>
<path d="M667.064 46.4684C666.912 47.5881 667.734 48.6409 668.901 48.8213C670.064 49.0033 671.135 48.2444 671.287 47.1231C671.44 46.005 670.618 44.9507 669.453 44.7703C668.287 44.5883 667.217 45.3487 667.064 46.4684Z" fill="#282828"/>
<path d="M667.787 40.4486C668.025 40.7518 669.758 39.7223 672.046 39.9587C674.337 40.1609 675.899 41.5076 676.176 41.2525C676.31 41.1406 676.094 40.6134 675.413 40.0069C674.746 39.4035 673.569 38.7644 672.142 38.626C670.715 38.4907 669.463 38.895 668.718 39.3631C667.962 39.8327 667.671 40.3117 667.787 40.4486Z" fill="#282828"/>
<path d="M658.201 56.6017C658.225 56.4726 656.825 56.0838 654.549 55.5567C653.97 55.4369 653.428 55.2659 653.369 54.8569C653.275 54.4199 653.582 53.8149 653.934 53.1633C654.627 51.8026 655.351 50.3781 656.111 48.8837C659.151 42.7845 661.413 37.7475 661.166 37.6278C660.919 37.5065 658.256 42.3522 655.218 48.4498C654.482 49.9551 653.779 51.3905 653.111 52.7636C652.823 53.4059 652.366 54.1213 652.576 55.0279C652.69 55.4804 653.087 55.8412 653.451 55.9796C653.815 56.132 654.144 56.1709 654.431 56.2176C656.74 56.5753 658.179 56.7308 658.201 56.6017Z" fill="#282828"/>
<path d="M668.531 31.4197C668.695 32.0651 671.01 31.9997 673.665 32.5938C676.331 33.135 678.418 34.1396 678.831 33.6171C679.017 33.3651 678.698 32.7415 677.883 32.0511C677.075 31.3622 675.747 30.6499 674.151 30.3078C672.557 29.9703 671.054 30.0776 670.036 30.3762C669.009 30.6748 668.463 31.1149 668.531 31.4197Z" fill="#282828"/>
<path d="M647.259 31.2205C647.609 31.7803 649.242 31.3993 651.141 31.5657C653.046 31.6637 654.609 32.2671 655.034 31.7601C655.222 31.5113 655.022 30.9655 654.369 30.4025C653.727 29.8427 652.611 29.3248 651.303 29.2331C649.996 29.1429 648.818 29.5005 648.105 29.9686C647.381 30.4352 647.107 30.9484 647.259 31.2205Z" fill="#282828"/>
<path d="M691.679 50.7263C691.945 50.6423 702.224 48.7279 700.873 58.8828C699.524 69.0377 689.607 65.5884 689.628 65.2945C689.649 65.0022 691.679 50.7263 691.679 50.7263Z" fill="#FFAA88"/>
<path d="M693.242 61.8594C693.291 61.8329 693.403 62.0071 693.683 62.1844C693.957 62.3555 694.446 62.5141 695.002 62.3866C696.126 62.1362 697.257 60.5515 697.549 58.7289C697.698 57.8083 697.62 56.9017 697.391 56.1304C697.179 55.3466 696.768 54.7634 696.24 54.5955C695.72 54.3995 695.294 54.6716 695.132 54.9407C694.958 55.2066 694.995 55.4181 694.94 55.429C694.907 55.4492 694.744 55.2299 694.882 54.8209C694.95 54.625 695.101 54.4011 695.365 54.2378C695.636 54.0729 696.008 54.0185 696.378 54.1087C697.154 54.2673 697.763 55.0822 698.017 55.9297C698.313 56.7866 698.422 57.8083 698.255 58.8425C697.917 60.8797 696.616 62.6556 695.091 62.8842C694.352 62.9759 693.784 62.6805 693.508 62.4006C693.227 62.1082 693.203 61.8734 693.242 61.8594Z" fill="#FFAA88"/>
<path d="M644.503 16.2324C646.123 13.4363 648.723 11.3322 651.484 9.6527C657.434 6.03395 664.488 4.11498 671.428 4.70592C678.368 5.29531 685.14 8.48481 689.668 13.7769C693.291 18.0114 695.39 23.4341 696.06 28.9672C696.732 34.5002 696.025 40.1422 694.498 45.5027C693.827 47.8555 692.924 50.2768 691.065 51.8677C689.905 52.8614 688.028 53.4042 686.915 52.356C686.26 51.7387 686.095 50.7776 685.965 49.8865C684.795 41.8279 683.71 33.18 687.351 25.8958C685.66 23.1604 683.629 20.5696 680.983 18.7408C678.338 16.912 675.006 15.9105 671.854 16.5434C667.171 17.4842 663.929 21.6224 659.995 24.3314C654.372 28.2036 646.83 29.1227 640.442 26.7154L644.503 16.2324Z" fill="#282828"/>
<path d="M656.184 62.7893C656.348 63.7457 656.517 64.7161 656.944 65.587C657.373 66.4578 658.104 67.2307 659.043 67.4733C660.044 67.733 661.143 67.338 661.883 66.6164C662.623 65.8949 663.034 64.8872 663.2 63.867C663.35 62.9433 663.16 61.7645 662.274 61.4675C661.906 61.3431 661.502 61.4115 661.12 61.4799C659.393 61.794 657.666 62.1051 655.938 62.4176" fill="#FFAA88"/>
<path d="M657.27 67.1172C657.325 66.9725 658.284 67.6179 659.883 67.3349C660.656 67.1965 661.556 66.7921 662.174 65.9881C662.789 65.195 663.125 64.0178 662.89 62.8779C662.84 62.5949 662.733 62.3212 662.624 62.0771C662.475 61.8391 662.509 61.8547 662.296 61.8422C662.091 61.8547 661.746 61.9355 661.469 61.9822C661.179 62.035 660.895 62.0879 660.617 62.1377C659.508 62.3367 658.508 62.5047 657.665 62.6338C655.979 62.8904 654.925 62.9914 654.901 62.8733C654.877 62.7551 655.889 62.4409 657.544 62.0288C658.371 61.8236 659.36 61.5934 660.46 61.3508C660.737 61.2902 661.018 61.2295 661.305 61.1657C661.608 61.1113 661.847 61.0289 662.252 60.99C662.45 60.976 662.721 61.0024 662.956 61.158C663.188 61.3135 663.309 61.5172 663.396 61.6852C663.551 62.0133 663.678 62.3461 663.744 62.7038C664.032 64.1267 663.595 65.5418 662.798 66.4936C661.986 67.4639 660.862 67.8714 659.964 67.946C659.05 68.03 658.323 67.8123 657.879 67.593C657.43 67.3691 657.241 67.1607 657.27 67.1172Z" fill="#282828"/>
<path d="M618.344 214.404L615.855 214.383L585.561 152.379L556.642 154.072C556.642 154.072 554.84 158.924 562.695 173.297C569.701 186.115 593.575 212.013 599.624 220.365C601.136 222.449 602.433 223.317 602.433 223.317L618.344 214.404Z" fill="#FFAA88"/>
<path d="M557.118 160.483L586.973 155.768L615.501 129L618.232 134.188L624.698 127.708L600.756 98.5C600.756 98.5 560.886 135.712 559.255 139C556.002 149.604 557.118 160.483 557.118 160.483Z" fill="#FF424D"/>
<path d="M600.755 98.5L604.255 97L605.653 107L600.755 98.5Z" fill="#FF424D"/>
<path d="M710.148 107.132L720.506 113.561L696.59 207.713L700.924 261.921C694.749 267.302 679.15 271.924 649.558 270.246C619.965 268.568 600.28 255.763 600.28 255.763L603.112 199.924L609.836 136.912L605.653 107L604.255 97C604.255 97 613.522 94.9279 622.237 94.4928C629.261 94.1421 640.22 95.4855 640.22 95.4855L649.086 90.2308L653.066 92.2198L658.168 106.364L671.46 96.7669L687.007 89.2728L692.686 99.8725L710.148 107.132Z" fill="#FF424D"/>
<path d="M617.448 104.794C617.395 104.777 617.106 105.524 616.628 106.891C616.145 108.255 615.509 110.248 614.778 112.73C613.311 117.691 611.559 124.635 610.173 132.412C608.794 140.193 608.046 147.316 607.713 152.479C607.545 155.06 607.455 157.152 607.438 158.6C607.416 160.046 607.43 160.845 607.486 160.847C607.542 160.85 607.633 160.055 607.753 158.615C607.892 157.024 608.07 154.979 608.283 152.524C608.761 147.387 609.596 140.305 610.969 132.553C612.352 124.807 614.008 117.871 615.328 112.884C615.974 110.506 616.512 108.524 616.93 106.984C617.314 105.591 617.501 104.811 617.448 104.794Z" fill="#282828"/>
<path d="M662.419 105.544C662.433 105.589 663.242 105.421 664.559 104.756C665.859 104.088 667.685 102.865 669.266 100.732L668.707 100.577C668.948 104.309 669.725 109.141 671.478 114.178L671.652 114.679L672.09 114.377C672.437 114.139 672.809 113.882 673.184 113.624C678.538 109.931 683.36 106.55 686.827 104.071C688.443 102.894 689.807 101.902 690.909 101.099C691.862 100.383 692.375 99.9642 692.342 99.9191C692.311 99.8725 691.738 100.204 690.73 100.84C689.589 101.585 688.175 102.507 686.502 103.599C682.951 105.959 678.078 109.264 672.723 112.957C672.349 113.215 671.977 113.472 671.63 113.711L672.241 113.912C670.506 108.954 669.671 104.208 669.323 100.527L669.243 99.6859L668.763 100.373C667.313 102.452 665.608 103.712 664.39 104.454C663.157 105.194 662.392 105.472 662.419 105.544Z" fill="#282828"/>
<path d="M641.124 97.2194C641.003 97.3361 643.098 99.6983 646.185 102.964L646.466 103.261L646.74 102.942C647.704 101.818 648.839 100.645 650.121 99.5163C650.763 98.9518 651.409 98.4246 652.051 97.9363C652.371 97.7031 652.685 97.4714 652.997 97.2443L653.186 97.151C653.176 97.1293 653.262 97.2179 653.317 97.375C653.836 98.6952 654.322 99.9316 654.772 101.079C655.624 103.18 656.203 104.462 656.308 104.423C656.414 104.384 656.023 103.034 655.31 100.88C654.909 99.7138 654.476 98.4542 654.015 97.1106C653.937 96.9286 653.855 96.6316 653.481 96.4497C653.083 96.2926 652.757 96.4839 652.579 96.5927C652.227 96.8291 651.913 97.0546 651.575 97.3019C650.911 97.7933 650.245 98.3298 649.586 98.9083C648.271 100.067 647.123 101.288 646.166 102.465L646.72 102.443C643.544 99.2644 641.244 97.1028 641.124 97.2194Z" fill="#282828"/>
<path d="M624.322 388.608C605.922 385.129 589.396 373.148 580.908 354.914C574.132 340.358 573.433 324.032 578.935 308.948C584.435 293.863 595.484 281.822 610.041 275.048C624.6 268.269 640.924 267.568 656.009 273.073C671.095 278.573 683.135 289.623 689.91 304.18C696.685 318.737 697.387 335.063 691.884 350.147C686.383 365.232 675.335 377.272 660.777 384.047C648.96 389.548 636.247 390.863 624.322 388.608ZM647.293 266.248C634.51 263.829 620.888 265.238 608.22 271.135C592.62 278.396 580.777 291.3 574.88 307.469C568.983 323.636 569.735 341.132 576.997 356.735C591.987 388.942 630.388 402.949 662.598 387.958C678.2 380.696 690.04 367.793 695.938 351.625C701.836 335.459 701.084 317.963 693.822 302.359C684.725 282.819 667.011 269.975 647.293 266.248Z" fill="#7B61FF"/>
<path d="M635.377 272.513C641.965 272.513 648.57 273.67 654.944 275.995C669.25 281.214 680.666 291.689 687.092 305.494C693.517 319.299 694.182 334.777 688.963 349.081C683.747 363.386 673.272 374.802 659.467 381.228C648.612 386.28 636.66 387.773 624.9 385.553C606.844 382.138 591.453 370.194 583.73 353.604C577.304 339.798 576.64 324.319 581.858 310.015C587.074 295.711 597.55 284.293 611.355 277.867C619.009 274.305 627.18 272.513 635.377 272.513ZM635.508 397.105C645.209 397.105 654.868 394.989 663.912 390.779C680.267 383.165 692.68 369.639 698.861 352.693C705.044 335.744 704.255 317.403 696.642 301.048C687.49 281.387 669.258 267.234 647.872 263.192C633.94 260.559 619.776 262.327 606.909 268.316C590.554 275.928 578.144 289.456 571.96 306.402C565.778 323.35 566.566 341.692 574.179 358.047C581.779 374.379 595.31 386.781 612.276 392.969C619.846 395.731 627.69 397.105 635.508 397.105Z" fill="#7B61FF"/>
<path d="M792.135 266.599L791.564 265.196C790.34 262.19 787.662 260.441 785.582 261.287L691.433 299.592C690.969 299.782 690.814 300.479 691.087 301.149L695.099 311.008C695.372 311.68 695.969 312.07 696.433 311.879L790.582 273.575C792.663 272.729 793.359 269.605 792.135 266.599Z" fill="#7B61FF"/>
<path d="M704.198 158.192L715.524 195.655L709.848 272.003L726.545 274.11C726.545 274.11 745.685 209.048 743.775 197.37C741.867 185.693 734.138 151.378 734.138 151.378L704.198 158.192Z" fill="#FFAA88"/>
<path d="M709.887 271.461L702.111 284.74L697.254 297.226L704.588 294.336C704.588 294.336 707.727 309.354 708.96 309.755C710.193 310.155 713.722 308.928 713.365 306.046C713.365 306.046 715.126 307.814 717.329 307.356C719.533 306.897 720.058 305.474 719.816 302.734C719.816 302.734 722.386 304.825 723.921 303.521C725.456 302.218 725.312 299.947 725.312 299.947C725.312 299.947 728.657 300.236 729.116 298.498C729.576 296.761 729.695 291.809 729.301 289.92C728.909 288.032 727.303 280.318 727.303 280.318L726.544 274.11L709.887 271.461Z" fill="#FFAA88"/>
<path d="M711.715 297.387C711.904 297.353 712.427 299.261 712.883 301.653C713.34 304.045 713.556 306.013 713.366 306.048C713.178 306.085 712.656 304.175 712.199 301.783C711.744 299.392 711.527 297.424 711.715 297.387Z" fill="#FFAA88"/>
<path d="M718.534 295.653C718.723 295.614 719.187 297.137 719.571 299.051C719.956 300.967 720.114 302.549 719.926 302.587C719.738 302.625 719.274 301.104 718.89 299.188C718.505 297.274 718.346 295.691 718.534 295.653Z" fill="#FFAA88"/>
<path d="M724.214 294.056C724.423 294.042 724.578 295.4 724.822 296.998C725.084 298.592 725.503 299.868 725.313 299.947C725.153 300.022 724.419 298.818 724.136 297.112C723.879 295.418 724.04 294.062 724.214 294.056Z" fill="#FFAA88"/>
<path d="M704.023 290.004C704.215 289.969 704.703 291.853 705.266 294.173C705.825 296.496 706.251 298.393 706.064 298.451C705.884 298.507 705.155 296.683 704.59 294.336C704.022 291.989 703.837 290.036 704.023 290.004Z" fill="#FFAA88"/>
<path d="M744.692 222.599C744.692 221.328 749.926 203.528 748.336 194.31C746.747 185.09 727.774 122.778 725.231 118.327C722.687 113.876 717.122 111.461 717.122 111.461C717.122 111.461 705.839 116.738 702.024 130.407C698.209 144.077 698.209 161.243 698.209 161.243L713.468 199.071L711.647 220.56L744.692 222.599Z" fill="#FF424D"/>
<path d="M699.19 159.99C699.343 159.978 699.048 157.199 699.199 152.718C699.261 150.479 699.51 147.82 699.953 144.896C700.439 141.979 701.143 138.798 702.159 135.539C703.206 132.289 704.461 129.281 705.743 126.616C707.065 123.969 708.393 121.652 709.632 119.786C712.088 116.035 713.928 113.934 713.81 113.834C713.768 113.799 713.285 114.301 712.445 115.245C711.59 116.175 710.456 117.615 709.156 119.465C707.845 121.31 706.45 123.622 705.075 126.283C703.74 128.962 702.447 132.001 701.387 135.295C700.358 138.596 699.667 141.823 699.215 144.784C698.807 147.75 698.615 150.445 698.626 152.707C698.623 154.969 698.722 156.797 698.884 158.051C699.028 159.307 699.134 159.996 699.19 159.99Z" fill="#282828"/>
<path d="M700.167 167.902C700.068 167.941 700.64 169.756 701.746 172.622C702.847 175.49 704.517 179.392 706.449 183.653C708.317 187.805 710.005 191.559 711.362 194.574C712.599 197.376 713.359 199.115 713.47 199.071C713.567 199.036 712.996 197.221 711.891 194.355C710.789 191.486 709.119 187.585 707.187 183.321C705.32 179.171 703.631 175.417 702.275 172.403C701.038 169.601 700.278 167.862 700.167 167.902Z" fill="#282828"/>
<path d="M712.582 200.538C712.718 200.762 716.982 197.781 723.036 195.992C729.074 194.142 734.275 194.277 734.265 194.014C734.268 193.918 732.976 193.756 730.878 193.837C728.783 193.913 725.882 194.294 722.804 195.216C719.728 196.146 717.098 197.428 715.309 198.519C713.514 199.611 712.526 200.459 712.582 200.538Z" fill="#282828"/>
<path d="M613.275 307.701C613.13 307.87 625.389 318.6 640.655 331.662C655.925 344.729 668.419 355.178 668.564 355.009C668.709 354.839 656.452 344.112 641.181 331.046C625.916 317.985 613.419 307.531 613.275 307.701Z" fill="white"/>
<path d="M597.505 307.701C597.359 307.87 607.687 316.986 620.566 328.057C633.45 339.132 644.011 347.969 644.157 347.801C644.302 347.631 633.979 338.517 621.095 327.443C608.214 316.37 597.652 307.531 597.505 307.701Z" fill="white"/>
<path d="M574.285 329.547C574.285 329.547 574.33 329.211 574.377 328.558C574.421 327.877 574.483 326.911 574.564 325.656C574.601 325.017 574.645 324.305 574.691 323.521C574.774 322.737 574.94 321.889 575.078 320.967C575.225 320.044 575.383 319.053 575.551 317.992C575.679 316.924 576.075 315.839 576.351 314.661C577.427 309.938 579.637 304.36 583.12 298.448C586.633 292.56 591.699 286.41 598.601 281.188C599.467 280.542 600.344 279.889 601.232 279.228C602.156 278.623 603.13 278.068 604.092 277.474C605.075 276.917 606.005 276.238 607.059 275.76C608.101 275.261 609.153 274.756 610.216 274.246C610.75 273.994 611.285 273.74 611.823 273.485C612.382 273.281 612.944 273.076 613.51 272.871C614.639 272.46 615.78 272.044 616.931 271.625C618.093 271.241 619.311 270.994 620.513 270.667C621.729 270.392 622.925 269.963 624.192 269.834C626.705 269.479 629.245 268.96 631.877 268.946C633.188 268.901 634.509 268.773 635.84 268.793C637.171 268.862 638.511 268.932 639.861 269.002C640.535 269.048 641.217 269.045 641.891 269.134L643.917 269.445C645.27 269.67 646.645 269.827 648.005 270.109C650.687 270.84 653.464 271.384 656.106 272.487C658.832 273.361 661.394 274.706 664.029 275.97C665.311 276.665 666.54 277.476 667.811 278.23C668.432 278.628 669.096 278.967 669.688 279.415L671.476 280.755C673.945 282.45 676.104 284.57 678.366 286.61C680.409 288.873 682.555 291.084 684.316 293.65L685.714 295.519L686.936 297.518L688.157 299.529C688.581 300.191 688.97 300.875 689.288 301.6C689.974 303.021 690.661 304.449 691.351 305.883C691.898 307.376 692.447 308.875 692.999 310.38C694.978 316.476 696.045 322.95 696.132 329.538C696.046 336.128 694.982 342.605 693.003 348.703C692.451 350.208 691.902 351.709 691.355 353.202C690.665 354.635 689.977 356.065 689.293 357.486L688.775 358.548L688.162 359.559L686.941 361.57L685.718 363.57L684.321 365.437C682.558 368.003 680.413 370.217 678.369 372.479C676.107 374.522 673.948 376.642 671.478 378.337L669.69 379.676C669.098 380.125 668.434 380.466 667.812 380.864C666.543 381.616 665.313 382.429 664.03 383.124C661.395 384.386 658.832 385.734 656.106 386.606C653.464 387.709 650.687 388.255 648.004 388.985C646.644 389.266 645.269 389.425 643.916 389.649L641.89 389.96C641.214 390.05 640.533 390.045 639.859 390.092C638.508 390.162 637.168 390.23 635.837 390.3C634.506 390.321 633.185 390.193 631.874 390.148C629.241 390.134 626.702 389.614 624.189 389.258C622.92 389.13 621.724 388.702 620.509 388.426C619.306 388.098 618.09 387.853 616.927 387.467C615.776 387.047 614.634 386.633 613.505 386.221C612.941 386.014 612.378 385.809 611.818 385.607C611.28 385.352 610.745 385.097 610.213 384.845C609.149 384.335 608.097 383.831 607.055 383.332C606.002 382.853 605.07 382.175 604.089 381.616C603.126 381.022 602.153 380.469 601.229 379.863C600.341 379.202 599.464 378.55 598.598 377.905C591.696 372.682 586.63 366.531 583.118 360.643C579.635 354.729 577.425 349.151 576.349 344.431C576.075 343.252 575.677 342.168 575.551 341.1C575.383 340.039 575.225 339.047 575.078 338.125C574.94 337.204 574.774 336.355 574.691 335.573C574.645 334.789 574.601 334.077 574.564 333.438C574.483 332.181 574.421 331.219 574.377 330.537C574.33 329.883 574.285 329.547 574.285 329.547C574.285 329.547 574.275 329.883 574.293 330.539C574.32 331.222 574.355 332.189 574.4 333.447C574.427 334.091 574.456 334.806 574.489 335.593C574.559 336.378 574.715 337.231 574.841 338.159C574.976 339.087 575.122 340.086 575.278 341.153C575.393 342.227 575.78 343.32 576.044 344.509C577.078 349.264 579.257 354.895 582.73 360.875C586.23 366.828 591.308 373.059 598.251 378.359C599.124 379.013 600.005 379.677 600.898 380.347C601.829 380.963 602.809 381.528 603.778 382.13C604.769 382.699 605.708 383.386 606.769 383.873C607.82 384.382 608.88 384.896 609.953 385.414C610.49 385.671 611.031 385.929 611.574 386.189C612.137 386.395 612.706 386.606 613.275 386.815C614.417 387.235 615.567 387.658 616.731 388.084C617.903 388.478 619.132 388.731 620.348 389.066C621.576 389.349 622.785 389.784 624.064 389.919C626.606 390.286 629.173 390.817 631.835 390.84C633.16 390.888 634.496 391.021 635.841 391.002C637.188 390.936 638.544 390.869 639.911 390.801C640.593 390.756 641.282 390.761 641.965 390.672L644.017 390.363C645.385 390.14 646.777 389.98 648.155 389.699C650.871 388.967 653.684 388.419 656.36 387.306C659.121 386.428 661.719 385.071 664.388 383.795C665.689 383.091 666.936 382.273 668.223 381.513C668.853 381.11 669.525 380.766 670.125 380.312L671.939 378.958C674.442 377.245 676.632 375.102 678.923 373.034C680.997 370.748 683.172 368.505 684.96 365.908L686.376 364.014L687.617 361.991L688.855 359.954L689.477 358.931L690.003 357.855C690.698 356.415 691.395 354.967 692.095 353.516C692.65 352.001 693.207 350.483 693.767 348.956C695.776 342.779 696.855 336.215 696.942 329.538C696.855 322.863 695.773 316.3 693.763 310.127C693.204 308.601 692.645 307.082 692.091 305.569C691.39 304.116 690.694 302.671 689.999 301.231C689.676 300.497 689.282 299.804 688.851 299.132L687.613 297.096L686.372 295.073L684.955 293.181C683.168 290.584 680.993 288.343 678.921 286.057C676.629 283.99 674.438 281.847 671.936 280.133L670.123 278.78C669.523 278.326 668.851 277.984 668.221 277.581C666.934 276.821 665.687 276.001 664.387 275.3C661.719 274.023 659.121 272.666 656.36 271.785C653.684 270.675 650.872 270.128 648.155 269.395C646.779 269.112 645.387 268.955 644.018 268.731L641.967 268.42C641.284 268.333 640.595 268.336 639.913 268.291C638.546 268.224 637.19 268.157 635.844 268.09C634.498 268.075 633.162 268.204 631.838 268.255C629.176 268.277 626.609 268.806 624.069 269.174C622.788 269.31 621.579 269.745 620.351 270.027C619.135 270.361 617.908 270.614 616.734 271.006C615.572 271.435 614.42 271.858 613.28 272.278C612.709 272.487 612.141 272.695 611.577 272.903C611.034 273.163 610.495 273.421 609.958 273.678C608.885 274.197 607.823 274.711 606.773 275.219C605.711 275.706 604.773 276.393 603.783 276.961C602.812 277.564 601.833 278.127 600.903 278.744C600.01 279.415 599.127 280.076 598.254 280.732C591.311 286.032 586.233 292.262 582.731 298.216C579.257 304.195 577.08 309.826 576.044 314.584C575.78 315.77 575.394 316.865 575.278 317.941C575.122 319.006 574.976 320.005 574.841 320.933C574.715 321.861 574.559 322.714 574.489 323.501C574.456 324.287 574.427 325.003 574.4 325.647C574.355 326.906 574.32 327.872 574.293 328.556C574.275 329.211 574.285 329.547 574.285 329.547Z" fill="#282828"/>
<path d="M596.848 361.997C596.897 361.955 596.32 361.238 595.317 359.916C594.311 358.598 592.922 356.638 591.424 354.088C588.415 349.024 585.173 341.331 584.23 332.343C583.285 323.351 584.862 315.153 586.754 309.574C587.69 306.769 588.641 304.562 589.351 303.065C590.059 301.566 590.476 300.744 590.418 300.713C590.393 300.699 590.261 300.888 590.029 301.259C589.807 301.639 589.451 302.181 589.068 302.925C588.267 304.387 587.229 306.576 586.213 309.388C584.16 314.975 582.464 323.29 583.426 332.427C584.381 341.56 587.767 349.343 590.933 354.383C592.511 356.923 593.982 358.85 595.069 360.114C595.597 360.761 596.058 361.218 596.354 361.542C596.657 361.859 596.827 362.016 596.848 361.997Z" fill="#282828"/>
<path d="M680.251 355.724C680.277 355.735 680.406 355.483 680.628 354.993C680.84 354.5 681.193 353.785 681.542 352.824C682.295 350.922 683.224 348.098 684.01 344.519C685.613 337.406 686.262 326.992 683.324 316.122C680.39 305.248 674.584 296.575 669.62 291.237C667.137 288.54 664.914 286.568 663.306 285.306C662.521 284.651 661.856 284.211 661.424 283.89C660.985 283.579 660.746 283.428 660.73 283.449C660.689 283.503 661.569 284.211 663.103 285.547C664.641 286.876 666.789 288.899 669.192 291.619C674.005 297.008 679.649 305.611 682.543 316.333C685.438 327.051 684.894 337.324 683.45 344.404C682.742 347.964 681.905 350.793 681.246 352.716C680.591 354.643 680.188 355.698 680.251 355.724Z" fill="white"/>
<path d="M644.157 279.499C644.139 279.721 645.751 280.038 647.759 280.205C649.766 280.373 651.408 280.326 651.428 280.105C651.446 279.881 649.834 279.566 647.826 279.398C645.818 279.23 644.176 279.276 644.157 279.499Z" fill="white"/>
<defs>
<filter id="filter0_d_799:1618" x="0.490002" y="76.49" width="857.02" height="399.39" filterUnits="userSpaceOnUse" color-interpolation-filters="sRGB">
<feFlood flood-opacity="0" result="BackgroundImageFix"/>
<feColorMatrix in="SourceAlpha" type="matrix" values="0 0 0 0 0 0 0 0 0 0 0 0 0 0 0 0 0 0 127 0" result="hardAlpha"/>
<feOffset/>
<feGaussianBlur stdDeviation="16.755"/>
<feComposite in2="hardAlpha" operator="out"/>
<feColorMatrix type="matrix" values="0 0 0 0 0 0 0 0 0 0 0 0 0 0 0 0 0 0 0.25 0"/>
<feBlend mode="normal" in2="BackgroundImageFix" result="effect1_dropShadow_799:1618"/>
<feBlend mode="normal" in="SourceGraphic" in2="effect1_dropShadow_799:1618" result="shape"/>
</filter>
<filter id="filter1_d_799:1618" x="111.165" y="327.567" width="160.791" height="58.6309" filterUnits="userSpaceOnUse" color-interpolation-filters="sRGB">
<feFlood flood-opacity="0" result="BackgroundImageFix"/>
<feColorMatrix in="SourceAlpha" type="matrix" values="0 0 0 0 0 0 0 0 0 0 0 0 0 0 0 0 0 0 127 0" result="hardAlpha"/>
<feOffset dy="1.73043"/>
<feGaussianBlur stdDeviation="3.46086"/>
<feComposite in2="hardAlpha" operator="out"/>
<feColorMatrix type="matrix" values="0 0 0 0 0 0 0 0 0 0 0 0 0 0 0 0 0 0 0.05 0"/>
<feBlend mode="normal" in2="BackgroundImageFix" result="effect1_dropShadow_799:1618"/>
<feBlend mode="normal" in="SourceGraphic" in2="effect1_dropShadow_799:1618" result="shape"/>
</filter>
<clipPath id="clip0_799:1618">
<path d="M118.087 340.413C118.087 336.185 121.514 332.758 125.741 332.758H257.38C261.607 332.758 265.034 336.185 265.034 340.413V369.891C265.034 374.119 261.607 377.546 257.38 377.546H125.741C121.514 377.546 118.087 374.119 118.087 369.891V340.413Z" fill="white"/>
</clipPath>
</defs>
</svg>
