<svg xmlns="http://www.w3.org/2000/svg" width="858" height="523" fill="none" xmlns:v="https://vecta.io/nano"><style><![CDATA[.B{fill:#fff}.C{fill:#282828}.D{fill:#000}.E{fill:#ff424d}.F{color-interpolation-filters:sRGB}]]></style><g filter="url(#C)"><path d="M34 117.655c0-4.228 3.427-7.655 7.655-7.655h774.69c4.228 0 7.655 3.427 7.655 7.655v317.061c0 4.227-3.427 7.654-7.655 7.654H41.655c-4.227 0-7.655-3.427-7.655-7.654V117.655z" class="B"/><path d="M150.854 188.405v30.062h-3.135v-13.872h-18.81v13.872h-3.178v-30.062h3.178v13.399h18.81v-13.399h3.135zm17.191 7.3c2.949 0 5.211.745 6.786 2.234 1.574 1.46 2.362 3.636 2.362 6.527v14.001h-2.921v-3.522c-.687 1.174-1.703 2.09-3.049 2.749-1.317.658-2.892.988-4.724.988-2.519 0-4.524-.602-6.012-1.804s-2.234-2.792-2.234-4.767c0-1.918.688-3.464 2.062-4.638 1.403-1.174 3.622-1.761 6.656-1.761h7.172v-1.374c0-1.947-.543-3.422-1.631-4.424-1.088-1.031-2.677-1.546-4.767-1.546a11.79 11.79 0 0 0-4.123.73c-1.317.458-2.448 1.102-3.393 1.933l-1.374-2.276c1.145-.974 2.519-1.718 4.122-2.234a15.67 15.67 0 0 1 5.068-.816zm-1.074 20.572c1.718 0 3.193-.387 4.424-1.16 1.231-.802 2.147-1.947 2.748-3.436v-3.693h-7.086c-3.865 0-5.797 1.346-5.797 4.037 0 1.317.501 2.362 1.503 3.135 1.002.744 2.405 1.117 4.208 1.117zm18.339-20.4h3.049v17.952l15.074-17.952h2.706v22.59h-3.049v-17.952l-15.032 17.952h-2.748v-22.59zm10.264-3.264c-1.947 0-3.493-.486-4.638-1.46s-1.732-2.348-1.761-4.123h2.19c.029 1.117.43 2.019 1.203 2.706.773.658 1.775.988 3.006.988s2.233-.33 3.006-.988c.802-.687 1.217-1.589 1.246-2.706h2.19c-.029 1.775-.63 3.15-1.804 4.123-1.145.974-2.691 1.46-4.638 1.46zm41.335 23.191v8.117h-2.878v-5.454h-20.227v5.454h-2.878v-8.117h1.289c1.517-.086 2.548-1.202 3.092-3.35s.916-5.153 1.116-9.018l.301-7.559h16.663v19.927h3.522zm-17.694-12.196c-.143 3.206-.415 5.855-.816 7.945-.401 2.061-1.117 3.478-2.147 4.251h14.086v-17.221h-10.865l-.258 5.025zm23.636-7.731h3.049v17.952l15.074-17.952h2.706v22.59h-3.049v-17.952L245.6 218.467h-2.749v-22.59zm45.458 2.706h-8.547v19.884h-3.049v-19.884h-8.546v-2.706h20.142v2.706zm23.115 9.534h-18.896c.171 2.348 1.073 4.252 2.705 5.712 1.632 1.431 3.694 2.147 6.185 2.147 1.402 0 2.691-.243 3.865-.73 1.174-.515 2.19-1.26 3.049-2.233l1.718 1.975c-1.002 1.203-2.262 2.119-3.78 2.749-1.488.63-3.135.945-4.938.945-2.319 0-4.381-.487-6.185-1.461a10.87 10.87 0 0 1-4.165-4.122c-1.002-1.747-1.504-3.722-1.504-5.927s.473-4.18 1.418-5.927c.973-1.746 2.29-3.106 3.951-4.079 1.689-.974 3.579-1.461 5.669-1.461s3.965.487 5.626 1.461 2.963 2.333 3.908 4.079c.945 1.718 1.417 3.694 1.417 5.927l-.043.945zm-10.908-9.792c-2.176 0-4.009.702-5.497 2.105-1.461 1.374-2.291 3.178-2.491 5.411h16.019c-.201-2.233-1.045-4.037-2.534-5.411-1.46-1.403-3.293-2.105-5.497-2.105zm38.389 20.357c-2.234 0-4.238-.487-6.013-1.461a10.65 10.65 0 0 1-4.123-4.079c-1.002-1.776-1.503-3.765-1.503-5.97s.501-4.18 1.503-5.927a10.65 10.65 0 0 1 4.123-4.079c1.775-.974 3.779-1.461 6.013-1.461 1.946 0 3.679.387 5.196 1.16a8.49 8.49 0 0 1 3.65 3.307l-2.276 1.546c-.744-1.117-1.689-1.947-2.834-2.491-1.145-.573-2.391-.859-3.736-.859-1.632 0-3.107.372-4.424 1.117-1.288.715-2.305 1.746-3.049 3.092-.716 1.345-1.074 2.877-1.074 4.595 0 1.747.358 3.293 1.074 4.638.744 1.317 1.761 2.348 3.049 3.092 1.317.716 2.792 1.074 4.424 1.074 1.345 0 2.591-.272 3.736-.816s2.09-1.374 2.834-2.491l2.276 1.546c-.887 1.46-2.104 2.577-3.65 3.35-1.546.744-3.278 1.117-5.196 1.117zm29.137-11.896c3.064.715 4.596 2.562 4.596 5.54 0 1.975-.73 3.493-2.191 4.552s-3.636 1.589-6.527 1.589h-10.264v-22.59h9.963c2.577 0 4.595.501 6.055 1.503s2.191 2.434 2.191 4.295c0 1.231-.344 2.29-1.031 3.178-.659.859-1.589 1.503-2.792 1.933zm-11.423-.859h6.785c1.747 0 3.078-.33 3.994-.988.945-.659 1.418-1.618 1.418-2.878s-.473-2.204-1.418-2.834c-.916-.63-2.247-.945-3.994-.945h-6.785v7.645zm7.172 10.135c1.947 0 3.407-.315 4.38-.945s1.46-1.618 1.46-2.963-.443-2.334-1.331-2.963c-.887-.659-2.29-.988-4.209-.988h-7.472v7.859h7.172zm25.312 2.62c-2.176 0-4.137-.487-5.883-1.461-1.747-1.002-3.121-2.376-4.123-4.122s-1.503-3.722-1.503-5.927.501-4.18 1.503-5.927 2.376-3.106 4.123-4.079 3.707-1.461 5.883-1.461 4.137.487 5.884 1.461a10.36 10.36 0 0 1 4.08 4.079c1.002 1.747 1.503 3.723 1.503 5.927s-.501 4.18-1.503 5.927a10.66 10.66 0 0 1-4.08 4.122c-1.747.974-3.708 1.461-5.884 1.461zm0-2.706c1.604 0 3.035-.358 4.295-1.074 1.288-.744 2.29-1.789 3.006-3.135s1.074-2.877 1.074-4.595-.358-3.25-1.074-4.595-1.718-2.377-3.006-3.092c-1.26-.745-2.691-1.117-4.295-1.117s-3.049.372-4.337 1.117c-1.26.715-2.262 1.746-3.007 3.092-.715 1.345-1.073 2.877-1.073 4.595s.358 3.25 1.073 4.595c.745 1.346 1.747 2.391 3.007 3.135 1.288.716 2.734 1.074 4.337 1.074zm17.984-20.099h3.049v17.952l15.074-17.952h2.706v22.59h-3.05v-17.952l-15.031 17.952h-2.748v-22.59zm43.696 22.59l-7.172-9.448-7.215 9.448h-3.435l8.932-11.596-8.503-10.994h3.436l6.785 8.847 6.786-8.847h3.35l-8.504 10.994 9.019 11.596h-3.479zm-305.512 29.41v22.59h-3.049v-19.884H128.05v19.884h-3.049v-22.59h20.27zm28.423 12.24h-18.896c.172 2.348 1.074 4.252 2.706 5.712 1.631 1.431 3.693 2.147 6.184 2.147 1.403 0 2.691-.243 3.865-.73 1.174-.515 2.19-1.26 3.049-2.233l1.718 1.975c-1.002 1.203-2.262 2.119-3.779 2.749-1.489.63-3.135.945-4.939.945-2.319 0-4.381-.487-6.184-1.461-1.775-1.002-3.164-2.376-4.166-4.122s-1.503-3.722-1.503-5.927.472-4.18 1.417-5.927c.973-1.746 2.29-3.106 3.951-4.079 1.689-.974 3.579-1.461 5.669-1.461s3.965.487 5.626 1.461 2.963 2.333 3.908 4.079c.945 1.718 1.417 3.694 1.417 5.927l-.043.945zm-10.908-9.792c-2.176 0-4.008.702-5.497 2.105-1.46 1.374-2.291 3.178-2.491 5.411h16.019c-.201-2.233-1.045-4.037-2.534-5.411-1.46-1.403-3.293-2.105-5.497-2.105zm29.339-2.62c2.119 0 4.037.487 5.755 1.461 1.718.944 3.063 2.29 4.037 4.037s1.46 3.736 1.46 5.969c0 2.262-.487 4.266-1.46 6.013s-2.319 3.106-4.037 4.079c-1.689.945-3.607 1.418-5.755 1.418-1.832 0-3.493-.373-4.982-1.117-1.46-.773-2.662-1.89-3.607-3.35v12.583h-3.049v-30.921h2.92v4.467c.916-1.489 2.119-2.634 3.608-3.436 1.517-.802 3.221-1.203 5.11-1.203zm-.215 20.271c1.575 0 3.007-.358 4.295-1.074 1.288-.744 2.291-1.789 3.006-3.135.745-1.345 1.117-2.877 1.117-4.595s-.372-3.235-1.117-4.552c-.715-1.346-1.718-2.391-3.006-3.135s-2.72-1.117-4.295-1.117c-1.603 0-3.049.372-4.337 1.117-1.26.744-2.262 1.789-3.006 3.135-.716 1.317-1.074 2.834-1.074 4.552s.358 3.25 1.074 4.595c.744 1.346 1.746 2.391 3.006 3.135 1.288.716 2.734 1.074 4.337 1.074zm32.405-9.19c3.064.715 4.596 2.562 4.596 5.54 0 1.975-.73 3.493-2.191 4.552s-3.636 1.589-6.527 1.589h-10.265v-22.59h9.964c2.577 0 4.595.501 6.055 1.503s2.191 2.434 2.191 4.295c0 1.231-.344 2.29-1.031 3.178-.659.859-1.589 1.503-2.792 1.933zm-11.423-.859h6.785c1.747 0 3.078-.33 3.994-.988.945-.659 1.417-1.618 1.417-2.878s-.472-2.204-1.417-2.834c-.916-.63-2.247-.945-3.994-.945h-6.785v7.645zm7.172 10.135c1.947 0 3.407-.315 4.38-.945s1.46-1.618 1.46-2.963-.443-2.334-1.331-2.963c-.888-.659-2.29-.988-4.209-.988h-7.472v7.859h7.172zm25.484-12.197c2.834.029 4.996.659 6.485 1.89s2.233 3.006 2.233 5.325c0 2.405-.802 4.252-2.405 5.54s-3.894 1.918-6.871 1.89l-8.933-.043v-22.59h3.049v7.902l6.442.086zm12.497-7.988h3.049v22.59h-3.049v-22.59zm-13.227 20.314c2.09.028 3.665-.387 4.724-1.246 1.088-.887 1.632-2.176 1.632-3.865 0-1.66-.53-2.892-1.589-3.693s-2.649-1.217-4.767-1.246l-5.712-.086v10.05l5.712.086zm39.088 2.276l-7.172-9.448-7.215 9.448h-3.436l8.933-11.596-8.504-10.994h3.436l6.786 8.847 6.785-8.847h3.35l-8.504 10.994 9.019 11.596h-3.478zm27.918-10.049h-5.153v10.049h-3.049v-22.59h3.049v9.921h5.196l7.945-9.921h3.307l-8.89 10.952 9.534 11.638h-3.607l-8.332-10.049zm28.39-12.713c2.119 0 4.037.487 5.755 1.461 1.718.944 3.063 2.29 4.037 4.037s1.46 3.736 1.46 5.969c0 2.262-.487 4.266-1.46 6.013s-2.319 3.106-4.037 4.079c-1.689.945-3.608 1.418-5.755 1.418-1.832 0-3.493-.373-4.982-1.117-1.46-.773-2.662-1.89-3.607-3.35v12.583h-3.049v-30.921h2.92v4.467c.916-1.489 2.119-2.634 3.607-3.436 1.518-.802 3.221-1.203 5.111-1.203zm-.215 20.271c1.575 0 3.007-.358 4.295-1.074 1.288-.744 2.29-1.789 3.006-3.135.745-1.345 1.117-2.877 1.117-4.595s-.372-3.235-1.117-4.552c-.716-1.346-1.718-2.391-3.006-3.135s-2.72-1.117-4.295-1.117c-1.603 0-3.049.372-4.337 1.117-1.26.744-2.262 1.789-3.006 3.135-.716 1.317-1.074 2.834-1.074 4.552s.358 3.25 1.074 4.595c.744 1.346 1.746 2.391 3.006 3.135 1.288.716 2.734 1.074 4.337 1.074zm37.773-7.859h-18.896c.172 2.348 1.074 4.252 2.706 5.712 1.632 1.431 3.693 2.147 6.184 2.147 1.403 0 2.691-.243 3.865-.73 1.174-.515 2.19-1.26 3.049-2.233l1.718 1.975c-1.002 1.203-2.262 2.119-3.779 2.749-1.489.63-3.135.945-4.939.945-2.319 0-4.38-.487-6.184-1.461-1.775-1.002-3.164-2.376-4.166-4.122s-1.503-3.722-1.503-5.927.472-4.18 1.417-5.927c.974-1.746 2.291-3.106 3.951-4.079 1.689-.974 3.579-1.461 5.669-1.461s3.966.487 5.626 1.461 2.963 2.333 3.908 4.079c.945 1.718 1.417 3.694 1.417 5.927l-.043.945zm-10.908-9.792c-2.176 0-4.008.702-5.497 2.105-1.46 1.374-2.29 3.178-2.491 5.411h16.019c-.2-2.233-1.045-4.037-2.534-5.411-1.46-1.403-3.292-2.105-5.497-2.105zm24.845-2.62c2.949 0 5.211.745 6.786 2.234 1.574 1.46 2.362 3.636 2.362 6.527v14.001h-2.921v-3.522c-.687 1.174-1.703 2.09-3.049 2.749-1.317.658-2.892.988-4.724.988-2.519 0-4.524-.602-6.012-1.804s-2.234-2.792-2.234-4.767c0-1.918.688-3.464 2.062-4.638 1.403-1.174 3.622-1.761 6.657-1.761h7.172v-1.374c0-1.947-.544-3.422-1.632-4.424-1.088-1.031-2.677-1.546-4.767-1.546a11.79 11.79 0 0 0-4.123.73c-1.317.458-2.448 1.102-3.393 1.933l-1.374-2.276c1.145-.974 2.519-1.718 4.123-2.234 1.603-.544 3.292-.816 5.067-.816zm-1.073 20.572c1.717 0 3.192-.387 4.423-1.16 1.231-.802 2.147-1.947 2.749-3.436v-3.693h-7.087c-3.865 0-5.797 1.346-5.797 4.037 0 1.317.501 2.362 1.503 3.135 1.002.744 2.405 1.117 4.209 1.117zm34.228-17.694h-8.546v19.884h-3.049v-19.884h-8.547v-2.706h20.142v2.706zm12.68 20.099c-2.176 0-4.138-.487-5.884-1.461-1.747-1.002-3.121-2.376-4.123-4.122s-1.503-3.722-1.503-5.927.501-4.18 1.503-5.927 2.376-3.106 4.123-4.079 3.708-1.461 5.884-1.461 4.137.487 5.883 1.461 3.107 2.333 4.08 4.079c1.002 1.747 1.503 3.723 1.503 5.927s-.501 4.18-1.503 5.927c-.973 1.746-2.333 3.12-4.08 4.122-1.746.974-3.708 1.461-5.883 1.461zm0-2.706c1.603 0 3.034-.358 4.294-1.074 1.289-.744 2.291-1.789 3.006-3.135s1.074-2.877 1.074-4.595-.358-3.25-1.074-4.595-1.717-2.377-3.006-3.092c-1.26-.745-2.691-1.117-4.294-1.117s-3.05.372-4.338 1.117c-1.26.715-2.262 1.746-3.006 3.092-.716 1.345-1.074 2.877-1.074 4.595s.358 3.25 1.074 4.595c.744 1.346 1.746 2.391 3.006 3.135 1.288.716 2.734 1.074 4.338 1.074zm29.621-20.271c2.119 0 4.037.487 5.755 1.461a10.13 10.13 0 0 1 4.037 4.037c.973 1.746 1.46 3.736 1.46 5.969 0 2.262-.487 4.266-1.46 6.013a10.43 10.43 0 0 1-4.037 4.079c-1.689.945-3.607 1.418-5.755 1.418-1.832 0-3.493-.373-4.981-1.117-1.461-.773-2.663-1.89-3.608-3.35v12.583h-3.049v-30.921h2.92v4.467c.916-1.489 2.119-2.634 3.608-3.436 1.517-.802 3.221-1.203 5.11-1.203zm-.214 20.271c1.574 0 3.006-.358 4.294-1.074 1.289-.744 2.291-1.789 3.006-3.135.745-1.345 1.117-2.877 1.117-4.595s-.372-3.235-1.117-4.552c-.715-1.346-1.717-2.391-3.006-3.135s-2.72-1.117-4.294-1.117c-1.604 0-3.05.372-4.338 1.117-1.26.744-2.262 1.789-3.006 3.135-.716 1.317-1.074 2.834-1.074 4.552s.358 3.25 1.074 4.595c.744 1.346 1.746 2.391 3.006 3.135 1.288.716 2.734 1.074 4.338 1.074zm27.337 2.706c-2.176 0-4.137-.487-5.884-1.461-1.746-1.002-3.121-2.376-4.123-4.122s-1.503-3.722-1.503-5.927.501-4.18 1.503-5.927a10.65 10.65 0 0 1 4.123-4.079c1.747-.974 3.708-1.461 5.884-1.461s4.137.487 5.883 1.461 3.107 2.333 4.08 4.079c1.002 1.747 1.503 3.723 1.503 5.927s-.501 4.18-1.503 5.927c-.973 1.746-2.333 3.12-4.08 4.122-1.746.974-3.707 1.461-5.883 1.461zm0-2.706c1.603 0 3.035-.358 4.294-1.074a7.73 7.73 0 0 0 3.007-3.135c.715-1.345 1.073-2.877 1.073-4.595s-.358-3.25-1.073-4.595-1.718-2.377-3.007-3.092c-1.259-.745-2.691-1.117-4.294-1.117s-3.049.372-4.338 1.117c-1.259.715-2.262 1.746-3.006 3.092-.716 1.345-1.074 2.877-1.074 4.595s.358 3.25 1.074 4.595c.744 1.346 1.747 2.391 3.006 3.135 1.289.716 2.735 1.074 4.338 1.074zm32.37-9.19c3.064.715 4.595 2.562 4.595 5.54 0 1.975-.73 3.493-2.19 4.552s-3.636 1.589-6.528 1.589h-10.264v-22.59h9.964c2.577 0 4.595.501 6.055 1.503s2.19 2.434 2.19 4.295c0 1.231-.343 2.29-1.03 3.178-.659.859-1.589 1.503-2.792 1.933zm-11.423-.859h6.785c1.746 0 3.078-.33 3.994-.988.945-.659 1.417-1.618 1.417-2.878s-.472-2.204-1.417-2.834c-.916-.63-2.248-.945-3.994-.945h-6.785v7.645zm7.172 10.135c1.946 0 3.407-.315 4.38-.945s1.46-1.618 1.46-2.963-.444-2.334-1.331-2.963c-.888-.659-2.291-.988-4.209-.988h-7.472v7.859h7.172z" class="D"/><g clip-path="url(#E)"><g filter="url(#D)"><rect x="118.087" y="332.758" width="146.948" height="44.788" rx="8.652" class="E"/><rect x="118.952" y="333.624" width="145.217" height="43.057" rx="7.787" stroke="#ff424d" stroke-width="1.73"/></g><path d="M166.515 347.101h2.065v15.657h-2.065v-12.065l-7.71 12.065h-2.076v-15.657h2.076v12.066l7.71-12.066zm10.184 14.249c.71 0 1.33-.216 1.86-.646s.825-.968.882-1.613h1.882c-.036.667-.265 1.301-.688 1.904s-.989 1.082-1.699 1.441a4.86 4.86 0 0 1-2.237.537c-1.584 0-2.846-.527-3.785-1.58-.932-1.061-1.398-2.51-1.398-4.345v-.333c0-1.133.208-2.14.623-3.022s1.011-1.567 1.786-2.054c.781-.488 1.702-.731 2.763-.731 1.305 0 2.388.39 3.248 1.172.867.781 1.33 1.796 1.387 3.043h-1.882c-.057-.753-.344-1.369-.86-1.85-.509-.487-1.14-.731-1.893-.731-1.011 0-1.796.366-2.355 1.097-.552.724-.828 1.774-.828 3.151v.376c0 1.341.276 2.373.828 3.097s1.341 1.087 2.366 1.087zm10.485-3.549h-1.452v4.957h-2v-11.635h2v4.925h1.301l3.915-4.925h2.409l-4.603 5.592 4.99 6.043h-2.527l-4.033-4.957zm15.453 4.957c-.115-.229-.208-.638-.28-1.226-.924.961-2.028 1.441-3.312 1.441-1.147 0-2.09-.322-2.828-.967a3.17 3.17 0 0 1-1.097-2.474c0-1.211.459-2.151 1.377-2.817.924-.674 2.222-1.011 3.892-1.011h1.936v-.914c0-.696-.208-1.248-.624-1.656-.415-.416-1.028-.624-1.838-.624-.71 0-1.305.179-1.786.538s-.72.792-.72 1.301h-2c0-.581.204-1.14.613-1.678.416-.545.975-.975 1.677-1.29.71-.316 1.488-.473 2.334-.473 1.34 0 2.391.337 3.151 1.011.76.666 1.154 1.587 1.183 2.763v5.356c0 1.068.136 1.917.408 2.548v.172h-2.086zm-3.301-1.516c.623 0 1.215-.161 1.774-.484s.964-.742 1.215-1.258v-2.387h-1.559c-2.438 0-3.656.713-3.656 2.14 0 .623.208 1.111.623 1.462s.95.527 1.603.527zm16.571-8.506h-3.903v10.022h-1.99v-10.022h-3.828v-1.613h9.721v1.613zm4.108 2.398h3.022c1.319.014 2.362.358 3.129 1.032s1.151 1.588 1.151 2.742c0 1.162-.394 2.094-1.183 2.796s-1.85 1.054-3.183 1.054h-4.925v-11.635h1.989v4.011zm0 1.624v4.376h2.957c.746 0 1.323-.189 1.732-.569.408-.388.613-.915.613-1.581 0-.645-.201-1.172-.603-1.581-.394-.416-.949-.631-1.666-.645h-3.033z" class="B"/></g></g><path d="M772.569 42.458l.054 3.09-.04 2.508.04-2.508-.054-3.09z" fill="#f3f2f1"/><path d="M689.209 192.563l3.117-1.897 4.375-2.843-4.375 2.843-3.117 1.897zm83.362-150.105l-.054-3.09c0-.325-.028-.624-.055-.949v-.028.028l.055.949.054 3.09zm-.029 8.105l.041-2.507-.041 2.507z" fill="#f9f9f8"/><g class="B"><path d="M650.55 472.442l.503-.013.01.503.947 45.218.01.498-.498.012-59.521 1.401-.532.012.021-.531c.033-.881.665-1.77 1.53-2.611.889-.864 2.131-1.777 3.588-2.702 2.917-1.854 6.773-3.809 10.606-5.587s7.664-3.391 10.532-4.556l3.465-1.38.971-.375-1.841-28.581-.034-.518.52-.014 29.723-.776z" stroke="#000"/><path d="M640.539 504.084c1.031 0 2.047-.738 2.256-1.705.223-1.036-.487-2.156-1.528-2.52a1.6 1.6 0 0 0-.691-.147c-.958 0-2.019.726-2.312 1.583-.368 1.075.673 2.492 1.838 2.744a2.08 2.08 0 0 0 .437.045zm-48.55 15.477l59.52-1.401-59.52 1.401c.024-.671.522-1.439 1.374-2.267h-.172c-.678.51-1.394 1.297-1.202 2.267z"/></g><path d="M593.191 517.294h.173l.428-.395a6.35 6.35 0 0 0-.601.395z" fill="#acabab"/><mask id="A" maskUnits="userSpaceOnUse" x="590.989" y="511.561" width="62" height="9" class="D"><path d="M590.989 511.561h62v9h-62z" class="B"/><path d="M591.989 519.561l59.521-1.401-.284-4.555-56.962 3.047s-.194.085-.472.247l-.428.395c-.852.828-1.35 1.596-1.375 2.267z"/></mask><path d="M591.989 519.561l59.521-1.401-.284-4.555-56.962 3.047s-.194.085-.472.247l-.428.395c-.852.828-1.35 1.596-1.375 2.267z" class="D"/><path d="M651.51 518.16l.998-.062.065 1.037-1.04.025-.023-1zm-.284-4.555l-.053-.998.989-.053.062.989-.998.062zm-56.962 3.047l-.4-.916.166-.073.181-.01.053.999zm-.472.247l-.658-.753.072-.063.082-.048.504.864zm-.428.395l.699.715-.002.002-.697-.717zm-1.398 1.267l59.52-1.401.047 2-59.52 1.401-.047-2zm58.546-.339l-.284-4.554 1.996-.125.284 4.555-1.996.124zm.767-3.618l-56.961 3.046-.107-1.997 56.962-3.046.106 1.997zm-57.015 2.048l.401.916-.087.042-.283.153-1.007-1.728.399-.216.121-.058.036-.017.019-.008a79.75 79.75 0 0 1 .401.916zm.186 1l-.387.357-1.398-1.431.469-.432 1.316 1.506zm-.389.359c-.829.806-1.063 1.333-1.072 1.587l-1.999-.074c.04-1.089.802-2.096 1.677-2.947l1.394 1.434z" mask="url(#A)" class="D"/><g class="C"><path d="M621.733 502.402c.017.275 1.472.365 2.926 1.215 1.476.814 2.246 1.987 2.509 1.872.267-.062-.209-1.692-1.988-2.692-1.77-1.014-3.517-.646-3.447-.395zm-6.179 2.587c-.059.268 1.211.705 2.228 1.845 1.053 1.11 1.336 2.359 1.625 2.342.274.036.433-1.577-.861-2.97-1.28-1.403-2.994-1.479-2.992-1.217zm-3.359 7.146c.264.052.633-1.331-.154-2.817-.774-1.494-2.16-2.053-2.277-1.822-.158.231.745 1.017 1.371 2.247.656 1.215.769 2.371 1.06 2.392zm9.885-16.374c.13.248 1.453-.164 3.098-.097 1.647.037 2.939.527 3.086.288.163-.203-1.114-1.19-3.053-1.243-1.938-.067-3.278.839-3.131 1.052zm1.243-6.708c0 .113 1.153.257 2.981-.085.909-.17 1.979-.478 3.095-.977a14.76 14.76 0 0 0 1.689-.9c.269-.173.589-.349.882-.685.314-.292.479-1.026.095-1.463-.316-.426-.86-.599-1.29-.598-.44-.004-.793.088-1.115.172a11.16 11.16 0 0 0-1.836.644c-1.125.516-2.033 1.155-2.705 1.771-1.349 1.241-1.793 2.278-1.692 2.328.134.089.784-.789 2.162-1.818a12.06 12.06 0 0 1 2.622-1.479 11.68 11.68 0 0 1 1.698-.54c.625-.171 1.163-.188 1.331.075.063.098.07.138-.057.316-.132.164-.383.328-.649.499-.519.337-1.04.633-1.553.888a17.1 17.1 0 0 1-2.854 1.112c-1.693.49-2.813.591-2.804.74z"/><path d="M623.712 489.437c.104.042.655-.957.714-2.74.026-.882-.098-1.949-.487-3.073a9.06 9.06 0 0 0-.805-1.693c-.364-.546-.809-1.282-1.94-1.378-.589-.008-1.066.44-1.223.816-.187.384-.218.713-.279 1.04-.092.66-.062 1.304.048 1.896a6.31 6.31 0 0 0 1.35 2.882c1.201 1.429 2.423 1.729 2.445 1.636.093-.14-.935-.647-1.862-2.026-.455-.681-.87-1.584-1.012-2.627-.072-.518-.078-1.072.012-1.628.078-.601.302-1.089.54-1.032.296-.012.812.427 1.067.898.319.496.577 1.006.779 1.509.4 1.009.589 1.977.652 2.797.126 1.65-.159 2.686.001 2.723z"/></g><g class="B"><path d="M695.18 476.76l-.063-.498.498-.061 29.517-3.588.516-.062.043.517 2.365 28.544 1.015.229 3.63.858c3.008.732 7.03 1.765 11.086 2.964s8.153 2.566 11.31 3.972c1.577.703 2.939 1.423 3.945 2.148.979.705 1.734 1.492 1.896 2.358l.098.523-.528.066-59.084 7.332-.495.061-.063-.495-5.686-44.868z" stroke="#000"/><path d="M709.826 506.061c.255 0 .51-.044.753-.134 1.115-.419 1.938-1.975 1.416-2.982-.373-.724-1.339-1.25-2.218-1.25-.347 0-.682.082-.96.267-.978.51-1.517 1.725-1.145 2.716.311.83 1.233 1.383 2.154 1.383zm30.068 10.724l20.552-2.552c.062-1.301-1.384-2.055-2.175-2.37 1.243.807 2.032 1.605 2.175 2.37l-20.552 2.552z"/></g><mask id="B" maskUnits="userSpaceOnUse" x="698.976" y="510.565" width="63" height="12" class="D"><path d="M698.976 510.565h63v12h-63z" class="B"/><path d="M701.361 521.565l38.532-4.78 20.553-2.552c-.143-.765-.932-1.563-2.175-2.37l-.502-.174-56.793 5.331.385 4.545z"/></mask><path d="M701.361 521.565l38.532-4.78 20.553-2.552c-.143-.765-.932-1.563-2.175-2.37l-.502-.174-56.793 5.331.385 4.545z" class="D"/><path d="M739.893 516.785l.124.993h0l-.124-.993zm20.553-2.552l.983-.184.195 1.046-1.055.131-.123-.993zm-2.175-2.37l.369-.929.092.036.083.054-.544.839zm-.502-.174l-.093-.995.181-.017.176.048-.264.964zm-56.793 5.331l-.997.084-.084-.987.987-.093.094.996zm.262 3.553l38.532-4.78.247 1.985-38.532 4.78-.247-1.985zm38.532-4.78l20.553-2.552.246 1.985-20.552 2.552-.247-1.985zm19.693-1.376c-.023-.124-.121-.348-.422-.67-.296-.316-.732-.667-1.315-1.045l1.089-1.678c.66.429 1.24.88 1.686 1.357.439.469.808 1.027.928 1.668l-1.966.368zm-1.562-1.625l-.302-.109-.078-.025c-.015-.004-.015-.004.248-.969l.264-.964.02.005.038.011.127.04.422.153-.739 1.858zm-.038-.107l-56.794 5.33-.187-1.991 56.794-5.33.187 1.991zm-55.891 4.25l.386 4.546-1.993.169-.386-4.546 1.993-.169z" mask="url(#B)" class="D"/><g class="C"><path d="M728.512 501.617c.023.275-1.404.576-2.718 1.631-1.342 1.02-1.931 2.294-2.208 2.218-.273-.021-.04-1.705 1.572-2.954 1.602-1.263 3.385-1.153 3.354-.895zm6.489 1.654c.097.257-1.096.876-1.935 2.151-.88 1.252-.976 2.53-1.265 2.555-.265.076-.658-1.497.418-3.065 1.06-1.573 2.744-1.898 2.782-1.641zm4.371 6.575c-.256.092-.822-1.222-.262-2.807.548-1.591 1.837-2.348 1.986-2.135.191.202-.588 1.113-1.027 2.421-.47 1.299-.414 2.459-.697 2.521zm-12.18-14.749c-.091.265-1.46.052-3.078.359-1.625.276-2.831.952-3.009.736-.191-.176.925-1.339 2.836-1.676 1.907-.35 3.367.35 3.251.581zm-2.209-6.453c.016.114-1.104.423-2.962.353-.924-.034-2.026-.182-3.204-.515-.589-.164-1.196-.376-1.803-.641-.292-.131-.635-.258-.973-.547-.355-.244-.624-.945-.309-1.435.251-.465.764-.717 1.189-.781.434-.065.797-.028 1.127.008.677.068 1.319.199 1.912.369 1.188.345 2.18.845 2.934 1.354 1.517 1.029 2.108 1.99 2.016 2.056-.121.106-.892-.666-2.406-1.482-.755-.408-1.706-.808-2.809-1.078-.553-.133-1.142-.235-1.759-.285-.644-.079-1.178-.017-1.306.268-.046.107-.05.148.103.305.154.143.427.267.715.398.561.258 1.121.473 1.666.651 1.088.355 2.114.563 2.986.682 1.745.236 2.87.174 2.883.32z"/><path d="M724.654 489.082c-.098.055-.789-.852-1.108-2.604-.155-.871-.189-1.944.031-3.114.115-.583.292-1.19.549-1.791.279-.596.611-1.388 1.716-1.647.582-.095 1.119.278 1.33.625.241.355.32.675.429.989a5.91 5.91 0 0 1 .229 1.883c-.041 1.213-.435 2.266-.912 3.049-.98 1.589-2.144 2.064-2.18 1.974-.113-.124.829-.775 1.544-2.274.353-.741.63-1.694.618-2.746-.005-.525-.08-1.072-.25-1.611-.165-.581-.459-1.031-.687-.942-.294.033-.739.541-.924 1.045-.242.539-.421 1.082-.549 1.608a9.63 9.63 0 0 0-.234 2.863c.118 1.65.549 2.633.398 2.693z"/><path d="M604.392 232.95l92.677 2.962 21.237 155.99 13.469 105.8-39.193 1.374-10.466-57.79c-2.861-15.624-8.081-38.546-9.496-51.591S648.283 285.54 648.283 285.54l1.655 110.103c-.039 4.345 4.53 103.35 4.53 103.35H615.55c-2.011-17.868-6.786-89.375-7.814-103.827l-8.569-118.631c-.854-18.834 5.225-43.585 5.225-43.585z"/></g><path d="M610.501 233.662c.187 0 .338-1.488.338-3.325s-.151-3.323-.338-3.323-.339 1.486-.339 3.323.151 3.325.339 3.325zm-3.848 1.749c.174.028.583-1.881.38-4.261-.193-2.379-.912-4.194-1.08-4.136-.189.054.22 1.896.405 4.192l.295 4.205zm34.616-6.945c-.028.12 1.032-.009 1.961 1.093.433.524.804 1.342.641 2.196-.135.856-.955 1.582-1.963 1.771-1.008.195-2.037-.181-2.477-.926-.465-.736-.42-1.633-.21-2.279.461-1.367 1.494-1.636 1.424-1.737-.007-.031-.26-.035-.655.17-.393.199-.895.658-1.217 1.398-.3.725-.442 1.785.126 2.773.554 1.014 1.913 1.516 3.136 1.266 1.228-.217 2.307-1.181 2.451-2.328.165-1.126-.356-2.063-.901-2.626-.57-.57-1.207-.813-1.644-.853-.443-.047-.677.051-.672.082zm42.724 160.931c.071.172 4.515-1.488 9.924-3.711s9.74-4.163 9.669-4.337-4.515 1.488-9.926 3.71-9.739 4.165-9.667 4.338z" fill="#7b61ff"/><path d="M689.029 13.743c-.306-5.395-3.624-8.713-8.272-11.467s-10.677-3.029-15.556-.706c-3.263 1.554-6.12 4.207-9.704 4.668-5.902.762-11.489-4.706-17.281-3.342-3.429.81-6.042 4.239-5.909 7.76s2.992 6.746 6.472 7.295c-3.866.56-6.054 5.449-4.625 9.083s5.485 5.745 9.391 5.829 7.657-1.508 11.035-3.469 6.532-4.319 10.054-6.004 7.576-2.672 11.349-1.666c5.11 1.359 8.73 6.183 10.064 11.301s.758 10.52-.035 15.749-1.802 10.5-1.305 15.764c.058.617.195 1.325.739 1.625.785.432 1.685-.308 2.263-.994 6.529-7.74 11.516-16.775 14.586-26.423 1.784-5.605 2.767-11.06.626-16.537s-9.352-10.691-13.892-8.466z" class="C"/><g fill="#fa8"><path d="M694.005 39.814l-8.638 53.298c-1.613 9.953-8.08 19.57-23.7 16.303-13.338-3.858-12.347-13.454-10.61-25.282 0 0-.043.457 0 0 0 0-14.671-3.816-13.356-18.738.634-7.209 3.152-21.955 5.583-35.268 2.612-14.298 15.782-24.182 30.243-22.728l1.439.145c15.412 2.465 21.93 16.93 19.039 32.27z"/><path d="M651.058 84.133s9.338 1.494 19.98-3.785c0 0-5.851 11.085-20.586 8.247l.606-4.462z"/></g><path d="M646.211 43.169c-.153 1.12.67 2.172 1.836 2.353s2.234-.577 2.387-1.698-.67-2.174-1.834-2.354-2.236.58-2.389 1.7zm-.459-5.406c.236.305 1.968-.726 4.257-.49 2.291.202 3.854 1.55 4.129 1.294.135-.112-.083-.639-.761-1.246-.668-.602-1.845-1.243-3.271-1.379s-2.681.267-3.424.737c-.758.468-1.047.947-.93 1.084zm21.312 8.705c-.152 1.12.67 2.172 1.837 2.353s2.234-.577 2.386-1.698-.669-2.172-1.834-2.353-2.236.578-2.389 1.698zm.723-6.019c.238.303 1.971-.726 4.259-.49 2.291.202 3.853 1.549 4.13 1.294.134-.112-.082-.639-.763-1.246-.667-.603-1.844-1.242-3.271-1.381s-2.679.269-3.424.737c-.756.47-1.047.949-.931 1.085zm-9.586 16.153c.024-.129-1.376-.518-3.652-1.045-.579-.12-1.121-.291-1.18-.7-.094-.437.213-1.042.565-1.694l2.177-4.28c3.04-6.099 5.302-11.136 5.055-11.256s-2.91 4.724-5.948 10.822l-2.107 4.314c-.288.642-.745 1.358-.535 2.264.114.453.511.813.875.952.364.152.693.191.98.238 2.309.358 3.748.513 3.77.384zm10.33-25.182c.164.645 2.479.58 5.134 1.174 2.666.541 4.753 1.546 5.166 1.023.186-.252-.133-.876-.948-1.566-.808-.689-2.136-1.401-3.732-1.743s-3.097-.23-4.115.068c-1.027.299-1.573.739-1.505 1.043zm-21.272-.199c.35.56 1.983.179 3.882.345 1.905.098 3.468.701 3.893.194.188-.249-.012-.795-.665-1.358-.642-.56-1.758-1.078-3.066-1.169s-2.485.267-3.198.735c-.724.467-.998.98-.846 1.252z" class="C"/><g fill="#fa8"><path d="M691.679 50.726c.266-.084 10.545-1.998 9.194 8.157s-11.266 6.706-11.245 6.412 2.051-14.568 2.051-14.568z"/><path d="M693.242 61.859c.049-.026.161.148.441.325.274.171.763.33 1.319.202 1.124-.25 2.255-1.835 2.547-3.658.149-.921.071-1.827-.158-2.599-.212-.784-.623-1.367-1.151-1.535-.52-.196-.946.076-1.108.345-.174.266-.137.477-.192.488-.033.02-.196-.199-.058-.608.068-.196.219-.42.483-.583.271-.165.643-.219 1.013-.129.776.159 1.385.974 1.639 1.821.296.857.405 1.879.238 2.913-.338 2.037-1.639 3.813-3.164 4.042-.739.092-1.307-.204-1.583-.484-.281-.292-.305-.527-.266-.541z"/></g><path d="M644.503 16.232c1.62-2.796 4.22-4.9 6.981-6.58 5.95-3.619 13.004-5.538 19.944-4.947s13.712 3.779 18.24 9.071c3.623 4.234 5.722 9.657 6.392 15.19s-.035 11.175-1.562 16.536c-.671 2.353-1.574 4.774-3.433 6.365-1.16.994-3.037 1.537-4.15.488-.655-.617-.82-1.578-.95-2.47-1.17-8.059-2.255-16.706 1.386-23.991-1.691-2.735-3.722-5.326-6.368-7.155s-5.977-2.83-9.129-2.197c-4.683.941-7.925 5.079-11.859 7.788-5.623 3.872-13.165 4.791-19.553 2.384l4.061-10.483z" class="C"/><path d="M656.184 62.789c.164.956.333 1.927.76 2.798s1.16 1.644 2.099 1.886c1.001.26 2.1-.135 2.84-.857s1.151-1.729 1.317-2.749c.15-.924-.04-2.102-.926-2.399-.368-.124-.772-.056-1.154.012l-5.182.938" fill="#fa8"/><path d="M657.27 67.117c.055-.145 1.014.501 2.613.218.773-.138 1.673-.543 2.291-1.347.615-.793.951-1.97.716-3.11a3.49 3.49 0 0 0-.266-.801c-.149-.238-.115-.222-.328-.235-.205.013-.55.093-.827.14l-.852.156-2.952.496c-1.686.257-2.74.358-2.764.239s.988-.432 2.643-.845l2.916-.678.845-.185c.303-.054.542-.137.947-.176a1.14 1.14 0 0 1 .704.168c.232.155.353.359.44.527.155.328.282.661.348 1.019.288 1.423-.149 2.838-.946 3.79-.812.97-1.936 1.378-2.834 1.452-.914.084-1.641-.134-2.085-.353-.449-.224-.638-.432-.609-.476z" class="C"/><path d="M618.344 214.404l-2.489-.021-30.294-62.004-28.919 1.693s-1.802 4.852 6.053 19.225c7.006 12.818 30.88 38.716 36.929 47.068 1.512 2.084 2.809 2.952 2.809 2.952l15.911-8.913z" fill="#fa8"/><g class="E"><path d="M557.118 160.483l29.855-4.715L615.501 129l2.731 5.188 6.466-6.48L600.756 98.5s-39.87 37.212-41.501 40.5c-3.253 10.604-2.137 21.483-2.137 21.483z"/><path d="M600.755 98.5l3.5-1.5 1.398 10-4.898-8.5z"/><path d="M710.148 107.132l10.358 6.429-23.916 94.152 4.334 54.208c-6.175 5.381-21.774 10.003-51.366 8.325s-49.278-14.483-49.278-14.483l2.832-55.839 6.724-63.012L605.653 107l-1.398-10s9.267-2.072 17.982-2.507c7.024-.351 17.983.993 17.983.993l8.866-5.255 3.98 1.989 5.102 14.144 13.292-9.597 15.547-7.494 5.679 10.6 17.462 7.26z"/></g><path d="M617.448 104.794c-.053-.017-.342.73-.82 2.097l-1.85 5.839c-1.467 4.961-3.219 11.905-4.605 19.682-1.379 7.781-2.127 14.904-2.46 20.067-.168 2.581-.258 4.673-.275 6.121s-.008 2.245.048 2.247.147-.792.267-2.232l.53-6.091a248.92 248.92 0 0 1 2.686-19.971c1.383-7.746 3.039-14.682 4.359-19.669l1.602-5.9c.384-1.393.571-2.173.518-2.19zm44.971.75c.014.045.823-.123 2.14-.788 1.3-.668 3.126-1.891 4.707-4.024l-.559-.155c.241 3.732 1.018 8.564 2.771 13.601l.174.501.438-.302 1.094-.753 13.643-9.553 4.082-2.972c.953-.716 1.466-1.135 1.433-1.18s-.604.285-1.612.921l-4.228 2.759-13.779 9.358-1.093.754.611.201a57.55 57.55 0 0 1-2.918-13.385l-.08-.841-.48.687a14.45 14.45 0 0 1-4.373 4.081c-1.233.74-1.998 1.018-1.971 1.09zm-21.295-8.325c-.121.117 1.974 2.479 5.061 5.745l.281.297.274-.319c.964-1.124 2.099-2.297 3.381-3.426l1.93-1.58.946-.692.189-.093c-.01-.022.076.067.131.224l1.455 3.704 1.536 3.344c.106-.039-.285-1.389-.998-3.543l-1.295-3.769c-.078-.182-.16-.479-.534-.661-.398-.157-.724.034-.902.143l-1.004.709-1.989 1.606a29.99 29.99 0 0 0-3.42 3.557l.554-.022-5.596-5.224z" class="C"/><g fill="#7b61ff"><path d="M624.322 388.608c-18.4-3.479-34.926-15.46-43.414-33.694-6.776-14.556-7.475-30.882-1.973-45.966s16.549-27.126 31.106-33.9 30.883-7.48 45.968-1.975 27.126 16.55 33.901 31.107 7.477 30.883 1.974 45.967-16.549 27.125-31.107 33.9c-11.817 5.501-24.53 6.816-36.455 4.561zm22.971-122.36a64.06 64.06 0 0 0-39.073 4.887c-15.6 7.261-27.443 20.165-33.34 36.334s-5.145 33.663 2.117 49.266c14.99 32.207 53.391 46.214 85.601 31.223 15.602-7.262 27.442-20.165 33.34-36.333a64 64 0 0 0-2.116-49.266c-9.097-19.54-26.811-32.384-46.529-36.111z"/><path d="M635.377 272.513c6.588 0 13.193 1.157 19.567 3.482 14.306 5.219 25.722 15.694 32.148 29.499s7.09 29.283 1.871 43.587-15.691 25.721-29.496 32.147c-10.855 5.052-22.807 6.545-34.567 4.325-18.056-3.415-33.447-15.359-41.17-31.949-6.426-13.806-7.09-29.285-1.872-43.589s15.692-25.722 29.497-32.148c7.654-3.562 15.825-5.354 24.022-5.354zm.131 124.592c9.701 0 19.36-2.116 28.404-6.326 16.355-7.614 28.768-21.14 34.949-38.086s5.394-35.29-2.219-51.645c-9.152-19.661-27.384-33.814-48.77-37.856-13.932-2.633-28.096-.865-40.963 5.124-16.355 7.612-28.765 21.14-34.949 38.086s-5.394 35.29 2.219 51.645c7.6 16.332 21.131 28.734 38.097 34.922 7.57 2.762 15.414 4.136 23.232 4.136z"/><path d="M792.135 266.599l-.571-1.403c-1.224-3.006-3.902-4.755-5.982-3.909l-94.149 38.305c-.464.19-.619.887-.346 1.557l4.012 9.859c.273.672.87 1.062 1.334.871l94.149-38.304c2.081-.846 2.777-3.97 1.553-6.976z"/></g><g fill="#fa8"><path d="M704.198 158.192l11.326 37.463-5.676 76.348 16.697 2.107s19.14-65.062 17.23-76.74-9.637-45.992-9.637-45.992l-29.94 6.814z"/><path d="M709.887 271.461l-7.776 13.279-4.857 12.486 7.334-2.89s3.139 15.018 4.372 15.419 4.762-.827 4.405-3.709c0 0 1.761 1.768 3.964 1.31s2.729-1.882 2.487-4.622c0 0 2.57 2.091 4.105.787s1.391-3.574 1.391-3.574 3.345.289 3.804-1.449.579-6.689.185-8.578l-1.998-9.602-.759-6.208-16.657-2.649z"/><path d="M711.715 297.387c.189-.034.712 1.874 1.168 4.266s.673 4.36.483 4.395-.71-1.873-1.167-4.265-.672-4.359-.484-4.396zm6.819-1.734c.189-.039.653 1.484 1.037 3.398s.543 3.498.355 3.536-.652-1.483-1.036-3.399-.544-3.497-.356-3.535zm5.68-1.597c.209-.014.364 1.344.608 2.942.262 1.594.681 2.87.491 2.949-.16.075-.894-1.129-1.177-2.835-.257-1.694-.096-3.05.078-3.056zm-20.191-4.052c.192-.035.68 1.849 1.243 4.169s.985 4.22.798 4.278c-.18.056-.909-1.768-1.474-4.115s-.753-4.3-.567-4.332z"/></g><path d="M744.692 222.599c0-1.271 5.234-19.071 3.644-28.289s-20.562-71.532-23.105-75.983-8.109-6.866-8.109-6.866-11.283 5.277-15.098 18.946-3.815 30.836-3.815 30.836l15.259 37.828-1.821 21.489 33.045 2.039z" class="E"/><path d="M699.19 159.99c.153-.012-.142-2.791.009-7.272.062-2.239.311-4.898.754-7.822.486-2.917 1.19-6.098 2.206-9.357 1.047-3.25 2.302-6.258 3.584-8.923 1.322-2.647 2.65-4.964 3.889-6.83l4.178-5.952c-.042-.035-.525.467-1.365 1.411-.855.93-1.989 2.37-3.289 4.22-1.311 1.845-2.706 4.157-4.081 6.818-1.335 2.679-2.628 5.718-3.688 9.012-1.029 3.301-1.72 6.528-2.172 9.489-.408 2.966-.6 5.661-.589 7.923l.258 5.344.306 1.939zm.977 7.912c-.099.039.473 1.854 1.579 4.72s2.771 6.77 4.703 11.031l4.913 10.921 2.108 4.497c.097-.035-.474-1.85-1.579-4.716s-2.772-6.77-4.704-11.034l-4.912-10.918-2.108-4.501zm12.415 32.636c.136.224 4.4-2.757 10.454-4.546 6.038-1.85 11.239-1.715 11.229-1.978.003-.096-1.289-.258-3.387-.177s-4.996.457-8.074 1.379c-3.076.93-5.706 2.212-7.495 3.303-1.795 1.092-2.783 1.94-2.727 2.019z" class="C"/><path d="M613.275 307.701c-.145.169 12.114 10.899 27.38 23.961l27.909 23.347c.145-.17-12.112-10.897-27.383-23.963l-27.906-23.345zm-15.77 0c-.146.169 10.182 9.285 23.061 20.356l23.591 19.744c.145-.17-10.178-9.284-23.062-20.358l-23.59-19.742z" class="B"/><path d="M574.285 329.547l.092-.989.187-2.902.127-2.135.387-2.554.473-2.975c.128-1.068.524-2.153.8-3.331 1.076-4.723 3.286-10.301 6.769-16.213 3.513-5.888 8.579-12.038 15.481-17.26l2.631-1.96c.924-.605 1.898-1.16 2.86-1.754.983-.557 1.913-1.236 2.967-1.714l3.157-1.514 1.607-.761 1.687-.614 3.421-1.246c1.162-.384 2.38-.631 3.582-.958 1.216-.275 2.412-.704 3.679-.833 2.513-.355 5.053-.874 7.685-.888 1.311-.045 2.632-.173 3.963-.153l4.021.209c.674.046 1.356.043 2.03.132l2.026.311c1.353.225 2.728.382 4.088.664 2.682.731 5.459 1.275 8.101 2.378 2.726.874 5.288 2.219 7.923 3.483 1.282.695 2.511 1.506 3.782 2.26.621.398 1.285.737 1.877 1.185l1.788 1.34c2.469 1.695 4.628 3.815 6.89 5.855 2.043 2.263 4.189 4.474 5.95 7.04l1.398 1.869 1.222 1.999 1.221 2.011c.424.662.813 1.346 1.131 2.071l2.063 4.283 1.648 4.497c1.979 6.096 3.046 12.57 3.133 19.158-.086 6.59-1.15 13.067-3.129 19.165l-1.648 4.499-2.062 4.284-.518 1.062-.613 1.011-1.221 2.011-1.223 2-1.397 1.867c-1.763 2.566-3.908 4.78-5.952 7.042-2.262 2.043-4.421 4.163-6.891 5.858l-1.788 1.339c-.592.449-1.256.79-1.878 1.188-1.269.752-2.499 1.565-3.782 2.26-2.635 1.262-5.198 2.61-7.924 3.482-2.642 1.103-5.419 1.649-8.102 2.379-1.36.281-2.735.44-4.088.664l-2.026.311c-.676.09-1.357.085-2.031.132l-4.022.208c-1.331.021-2.652-.107-3.963-.152-2.633-.014-5.172-.534-7.685-.89-1.269-.128-2.465-.556-3.68-.832-1.203-.328-2.419-.573-3.582-.959l-3.422-1.246-1.687-.614-1.605-.762-3.158-1.513c-1.053-.479-1.985-1.157-2.966-1.716-.963-.594-1.936-1.147-2.86-1.753l-2.631-1.958c-6.902-5.223-11.968-11.374-15.48-17.262-3.483-5.914-5.693-11.492-6.769-16.212-.274-1.179-.672-2.263-.798-3.331l-.473-2.975c-.138-.921-.304-1.77-.387-2.552l-.127-2.135-.187-2.901c-.047-.654-.092-.99-.092-.99s-.01.336.008.992l.107 2.908.089 2.146c.07.785.226 1.638.352 2.566l.437 2.994c.115 1.074.502 2.167.766 3.356 1.034 4.755 3.213 10.386 6.686 16.366 3.5 5.953 8.578 12.184 15.521 17.484l2.647 1.988c.931.616 1.911 1.181 2.88 1.783.991.569 1.93 1.256 2.991 1.743l3.184 1.541 1.621.775 1.701.626 3.456 1.269c1.172.394 2.401.647 3.617.982 1.228.283 2.437.718 3.716.853 2.542.367 5.109.898 7.771.921 1.325.048 2.661.181 4.006.162l4.07-.201c.682-.045 1.371-.04 2.054-.129l2.052-.309c1.368-.223 2.76-.383 4.138-.664 2.716-.732 5.529-1.28 8.205-2.393 2.761-.878 5.359-2.235 8.028-3.511 1.301-.704 2.548-1.522 3.835-2.282.63-.403 1.302-.747 1.902-1.201l1.814-1.354c2.503-1.713 4.693-3.856 6.984-5.924 2.074-2.286 4.249-4.529 6.037-7.126l1.416-1.894 1.241-2.023 1.238-2.037.622-1.023.526-1.076 2.092-4.339 1.672-4.56c2.009-6.177 3.088-12.741 3.175-19.418-.087-6.675-1.169-13.238-3.179-19.411l-1.672-4.558-2.092-4.338c-.323-.734-.717-1.427-1.148-2.099l-1.238-2.036-1.241-2.023-1.417-1.892c-1.787-2.597-3.962-4.838-6.034-7.124-2.292-2.067-4.483-4.21-6.985-5.924l-1.813-1.353c-.6-.454-1.272-.796-1.902-1.199-1.287-.76-2.534-1.58-3.834-2.281-2.668-1.277-5.266-2.634-8.027-3.515-2.676-1.11-5.488-1.657-8.205-2.39-1.376-.283-2.768-.44-4.137-.664l-2.051-.311c-.683-.087-1.372-.084-2.054-.129l-4.069-.201c-1.346-.015-2.682.114-4.006.165-2.662.022-5.229.551-7.769.919-1.281.136-2.49.571-3.718.853-1.216.334-2.443.587-3.617.979l-3.454 1.272-1.703.625-1.619.775-3.185 1.541c-1.062.487-2 1.174-2.99 1.742-.971.603-1.95 1.166-2.88 1.783l-2.649 1.988c-6.943 5.3-12.021 11.53-15.523 17.484-3.474 5.979-5.651 11.61-6.687 16.368-.264 1.186-.65 2.281-.766 3.357l-.437 2.992c-.126.928-.282 1.781-.352 2.568l-.089 2.146-.107 2.909c-.018.655-.008.991-.008.991zm22.563 32.45c.049-.042-.528-.759-1.531-2.081s-2.395-3.278-3.893-5.828c-3.009-5.064-6.251-12.757-7.194-21.745a54.84 54.84 0 0 1 2.524-22.769c.936-2.805 1.887-5.012 2.597-6.509s1.125-2.321 1.067-2.352c-.025-.014-.157.175-.389.546-.222.38-.578.922-.961 1.666-.801 1.462-1.839 3.651-2.855 6.463-2.053 5.587-3.749 13.902-2.787 23.039.955 9.133 4.341 16.916 7.507 21.956 1.578 2.54 3.049 4.467 4.136 5.731.528.647.989 1.104 1.285 1.428.303.317.473.474.494.455z" class="C"/><path d="M680.251 355.724c.026.011.155-.241.377-.731l.914-2.169c.753-1.902 1.682-4.726 2.468-8.305 1.603-7.113 2.252-17.527-.686-28.397s-8.74-19.547-13.704-24.885c-2.483-2.697-4.706-4.669-6.314-5.931-.785-.655-1.45-1.095-1.882-1.416-.439-.311-.678-.462-.694-.441-.041.054.839.762 2.373 2.098 1.538 1.329 3.686 3.352 6.089 6.072 4.813 5.389 10.457 13.992 13.351 24.714s2.351 20.991.907 28.071c-.708 3.56-1.545 6.389-2.204 8.312s-1.058 2.982-.995 3.008zm-36.094-76.225c-.018.222 1.594.539 3.602.706s3.649.121 3.669-.1-1.594-.539-3.602-.707-3.65-.122-3.669.101z" class="B"/><defs><filter id="C" x=".49" y="76.49" width="857.02" height="399.39" filterUnits="userSpaceOnUse" class="F"><feFlood flood-opacity="0" result="A"/><feColorMatrix in="SourceAlpha" values="0 0 0 0 0 0 0 0 0 0 0 0 0 0 0 0 0 0 127 0" result="B"/><feOffset/><feGaussianBlur stdDeviation="16.755"/><feComposite in2="B" operator="out"/><feColorMatrix values="0 0 0 0 0 0 0 0 0 0 0 0 0 0 0 0 0 0 0.25 0"/><feBlend in2="A"/><feBlend in="SourceGraphic"/></filter><filter id="D" x="111.165" y="327.567" width="160.791" height="58.631" filterUnits="userSpaceOnUse" class="F"><feFlood flood-opacity="0" result="A"/><feColorMatrix in="SourceAlpha" values="0 0 0 0 0 0 0 0 0 0 0 0 0 0 0 0 0 0 127 0" result="B"/><feOffset dy="1.73043"/><feGaussianBlur stdDeviation="3.461"/><feComposite in2="B" operator="out"/><feColorMatrix values="0 0 0 0 0 0 0 0 0 0 0 0 0 0 0 0 0 0 0.05 0"/><feBlend in2="A"/><feBlend in="SourceGraphic"/></filter><clipPath id="E"><path d="M118.087 340.413c0-4.228 3.427-7.655 7.654-7.655H257.38c4.227 0 7.654 3.427 7.654 7.655v29.478c0 4.228-3.427 7.655-7.654 7.655H125.741c-4.227 0-7.654-3.427-7.654-7.655v-29.478z" class="B"/></clipPath></defs></svg>