<svg xmlns="http://www.w3.org/2000/svg" width="446" height="407" fill="none" xmlns:v="https://vecta.io/nano"><style><![CDATA[.B{fill:#d63078}.C{fill:#ff9442}.D{fill:#3bba2e}.E{fill:#7b61ff}.F{fill:#3a2e71}.G{fill:#3b3256}.H{fill:#c44a6e}.I{fill:#d06080}.J{fill:#dc1f6c}]]></style><mask id="A" maskUnits="userSpaceOnUse" x="0" y="0" width="446" height="407" mask-type="alpha"><path fill="#c4c4c4" d="M0 0h446v406.693H0z"/></mask><g mask="url(#A)"><path d="M378.518 177.356l-21.899-7.32-.083-14.011c-.044-7.429-8.516-13.405-18.962-13.405l-.183.002c-10.528.067-19.027 6.183-18.982 13.655l.006.993-168.842-56.424-41.079 39.171a58.3 58.3 0 0 1-3.531-6.9c-9.905-23.029-2.999-51.697 13.523-70.052s41.051-27.147 65.07-27.768l2.256-.03c14.521 0 30.022 3.704 39.015 15.541 6.974 9.179 8.758 21.591 14.607 31.6 6.767 11.586 19.155 19.313 32.063 20.002a39.53 39.53 0 0 0 2.12.056c15.799 0 30.333-9.256 45.341-14.895 8.596-3.23 18.058-4.984 27.393-4.984 18.705 0 36.901 7.039 46.601 23.353 13.345 22.441 4.285 53.574-14.434 71.417z" class="C"/><path d="M234.021 395.18c-106.247 0-192.377-44.276-192.377-98.895 0-20.228 11.811-39.034 32.086-54.702l.215 36.039 5.205 6.928 5.149-4.151-.275-46.042c14.54-9.294 32.283-17.21 52.364-23.302l.023.837 1.976 1.074c-.957 4.014-2.033 10.277-2.342 11.324-1.894 6.434-4.911 13.082-4.916 19.843a23.13 23.13 0 0 0 .024 1.087c.289 5.972 3.598 11.78 4.599 17.666 1.482 8.7 1.854 17.56 2.224 26.389l2.148 65.965a69.36 69.36 0 0 1 4.557-.208c1.152 8.991 2.073 19.282.542 19.292 2.47.924 5.179 1.407 7.89 1.407.179 0 .358-.004.538-.008.572-.012 1.187-.06 1.621-.37s.587-.806.712-1.271a181.01 181.01 0 0 0 3.804-17.602 65.92 65.92 0 0 1 2.027.45l6.481-85.994c4.503 3.331 9.098 6.424 13.002 9.554.587.471 1.182.952 1.627 1.571.842 1.172 1.05 2.702 1.222 4.16.475 4.034 1.936 40.349.749 51.272-.193 1.787 1.006 3.428 2.7 3.672a121.61 121.61 0 0 0 17.27 1.25h.022c.927 0 1.935-.048 2.636-.684.791-.717.923-1.934.998-3.029l3.317-47.126c.984-13.966 2.513-25.089-8.121-35.418-4.778-4.64-10.346-8.428-14.51-13.683-.655-.827-1.284-1.711-1.584-2.738-.41-1.404-.166-2.913.053-4.363.494-3.3 1.316-7.276 1.708-11.155l118.371 44.534.565 94.869 5.204 6.926 5.15-4.149-.604-101.313 40.398-44.218c15.805 6.9 29.414 15.088 40.211 24.25-6.519 2.189-11.021 6.913-10.989 12.359l.154 25.885 19.107 7.208 17.818-7.21c1.074 4.229 1.627 8.545 1.627 12.925 0 54.619-86.129 98.895-192.376 98.895zm101.841-79.662l.155 25.884 19.109 7.21 19.018-7.697-.153-25.649c-.046-7.431-8.518-13.405-18.964-13.405h-.181c-10.528.069-19.027 6.183-18.984 13.657zm-102.009-11.534l.155 25.883 19.107 7.21 19.018-7.696-.153-25.649c-.044-7.431-8.516-13.408-18.962-13.408l-.183.002c-10.528.068-19.027 6.184-18.982 13.658z" fill="#eacace"/><path d="M307.726 263.638l.595 99.984 5.204 6.926-.621-104.173-5.178-2.737z" class="H"/><path d="M312.904 266.375l.621 104.173 5.15-4.149-.613-102.828-5.158 2.804z" class="I"/><path d="M73.348 177.638l.597 99.984 5.205 6.928-.62-104.175-5.181-2.737z" class="H"/><path d="M78.529 180.375l.62 104.175 5.149-4.152-.614-102.828-5.155 2.805z" class="I"/><path d="M377.06 186.135l.597 99.982 5.204 6.928-.621-104.175-5.18-2.735z" class="H"/><path d="M382.24 188.87l.622 104.175 5.148-4.151-.612-102.828-5.158 2.804z" class="I"/><path d="M149.573 100.846L73.086 173.78l239.813 89.824 74.465-83.293-237.791-79.465z" fill="#d06060"/><path d="M312.899 263.604l.041 7.099 74.477-81.523-.053-8.869-74.465 83.293z" class="H"/><path d="M312.94 270.703l-.041-7.099L73.086 173.78l.041 6.698 239.814 90.225z" class="I"/><path d="M312.94 270.703l-123.555-46.485c.24-2.379.321-4.723.066-6.85l123.448 46.236.041 7.099zm-176.993-66.59l-52.22-19.646-5.185-1.951-5.416-2.038-.041-6.698 62.079 23.254.782 7.079z" fill="#cb4a6d"/><path d="M165.761 127.341l-41.706 45.601 151.761 56.834 52.185-48.295-162.24-54.14z" fill="#fff"/><path d="M224.493 201.199c-.447 1.333-.213 2.894.602 4.017s2.185 1.771 3.523 1.668c.585-.044 1.165-.222 1.752-.185s1.218.374 1.359.974c.514-2.624-.434-5.508-2.38-7.238-.859-.765-1.984-1.327-3.092-1.117s-2.064 1.434-1.732 2.567" class="F"/><path d="M171.43 371.637c-6.955-.727-13.636 1.787-20.547 1.857-3.421.034-5.01-.64-6.577 2.912-.935 2.117-1.012 4.634-.059 6.755.263.584.608 1.158 1.137 1.53.508.355 1.134.498 1.748.609 8.048 1.484 16.736-.808 22.95-6.058 1.805-1.525 3.527-3.629 3.177-5.943-.079-.536-.303-1.094-.77-1.382-.313-.193-.691-.24-1.059-.28zm43.05-20.983c-7.072-.727-13.862 1.787-20.887 1.859-3.477.034-5.093-.642-6.686 2.912-.95 2.117-1.029 4.634-.061 6.757.266.582.619 1.154 1.155 1.526.516.357 1.154.498 1.777.611 8.182 1.484 17.013-.812 23.33-6.062 1.835-1.523 3.583-3.629 3.23-5.941-.083-.538-.31-1.094-.784-1.384-.317-.191-.702-.241-1.074-.278z" class="J"/><path d="M145.223 374.324c2.632.986 5.537 1.468 8.428 1.399.572-.012 1.187-.06 1.621-.37s.587-.806.712-1.271c3.23-12.023 5.205-24.274 5.892-36.572-10.844-2.016-21.869-7.335-19.15 4.652.745 3.294 5.061 32.146 2.497 32.162zm42.578-21.102c2.632.983 5.537 1.466 8.43 1.398.57-.011 1.185-.061 1.619-.369s.587-.806.712-1.271c3.23-12.025 5.103-41.311 5.792-53.608-10.846-2.016-21.871-7.336-19.152 4.654.747 3.291 5.163 49.178 2.599 49.196z" class="H"/><path d="M131.153 245.22c.289 5.972 3.599 11.78 4.599 17.666 1.482 8.7 1.854 17.56 2.224 26.389l2.148 65.965c7.257-.572 14.595-.002 21.692 1.69l10.562-138.549c-.055.624-8.008-1.877-16.083-4.38-7.993-2.477-16.105-4.954-16.78-4.398-.978.803-3.025 13.175-3.47 14.687-1.994 6.777-5.235 13.793-4.892 20.93z" fill="#467ac6"/><path d="M161.815 356.93l-2.027-.45a69.92 69.92 0 0 0-14.187-1.454l-.919.006a69.36 69.36 0 0 0-4.558.208l-2.148-65.965c-.37-8.829-.742-17.689-2.224-26.389-1-5.886-4.31-11.694-4.599-17.666a23.13 23.13 0 0 1-.024-1.087c.005-6.761 3.022-13.409 4.916-19.843.309-1.047 1.385-7.31 2.342-11.324 4.692 2.477 9.593 4.561 14.646 5.979-3.224 5.943-4.232 13.89-4.691 20.304-1.033 14.41 9.194 23.726 19.954 31.687l-6.481 85.994z" fill="#352a6a"/><path d="M148.342 239.249c-1.465 20.439 19.72 30.629 32.956 41.241.587.471 1.182.952 1.627 1.571.842 1.172 1.05 2.702 1.221 4.16.476 4.034 1.937 40.349.75 51.272-.193 1.787 1.006 3.428 2.7 3.672a121.61 121.61 0 0 0 17.269 1.25c.933 0 1.951-.042 2.659-.683.791-.718.923-1.935.998-3.03l3.317-47.126c.984-13.966 2.513-25.089-8.121-35.418-4.778-4.64-10.346-8.428-14.51-13.683-.655-.827-1.284-1.711-1.584-2.737-.41-1.405-.166-2.914.053-4.364 1.467-9.771 5.782-25.476-6.589-27.034-6.72-.844-16.031.455-22.014 4.009-8.219 4.882-10.06 17.527-10.732 26.9z" class="F"/><path d="M133.026 180.123c1.042 10.293 3.143 21.152 3.385 31.769 7.887 4.399 16.403 7.768 25.282 8.767 8.874.999 18.151-.493 25.852-5.246-2.009-9.435-.189-16.867 1.721-25.796 1.86-8.696 1.02-18.442.922-27.289-.102-9.149-2.243-19.615-9.353-25.616-7.345-6.197-18.206-5.851-26.779-1.747-21.383 10.233-22.888 26.801-21.03 45.158z" class="J"/><path d="M166.907 220.953a46.5 46.5 0 0 1-5.214-.294c-8.879-.999-17.395-4.368-25.282-8.768-.242-10.616-2.343-21.475-3.385-31.768-.349-3.46-.58-6.857-.581-10.158-.004-14.22 4.259-26.696 21.611-35.001 3.993-1.91 8.481-3.007 12.879-3.007 5.046 0 9.976 1.444 13.9 4.755 7.11 6.001 9.251 16.467 9.353 25.616l.273 13.375c.002 4.74-.243 9.465-1.195 13.914l-1.495 7.187c-.647 3.456-1.102 6.82-1.102 10.344a39.43 39.43 0 0 0 .876 8.265c-6.202 3.828-13.425 5.54-20.638 5.54z" fill="#ff424d"/><path d="M184.373 85.458c1.399 4.515 2.807 9.06 3.411 13.763s.374 9.632-1.414 13.989c-1.785 4.362-5.276 8.087-9.635 9.308s-9.501-.443-11.925-4.447-1.363-10.106 2.571-12.434" class="H"/><path d="M222.102 196.138l2.301 4.984c1.108-.137 2.156-.755 2.843-1.681l-4.055-8.549c-1.765 1.186-1.548 3.921-1.118 6.078" fill="#7fb2d4"/><path d="M225.535 184.554l1.613-.467c.857-.198 2.599-.997 3.439-.556.068.036 1.784 1.347 1.129 1.51 4.478-1.114 1.86 3.99.512 5.653-2.93 3.611-8.526 7.961-12.873 9.554-3.744 1.372-11.361 3.808-13.17-1.78-2.439-7.538 8.188-13.707 12.862-17.046.895 2.383-.487 4.127-1.167 6.219 1.75-.332 5.964-2.517 7.655-3.087z" class="H"/><path d="M192.85 196.571c5.355-2.538 15.789-6.41 16.99-4.447l5.641 9.222c-5.943 5.439-12.545 9.914-19.53 13.237-2.869 1.364-6.06 2.548-8.939 1.521-8.431-3.011-1.455-14.422 2.908-17.926.438-.354 1.504-.934 2.93-1.607z" fill="#e42f2f"/><path d="M189.984 158.903l6.698 23.669c2.027 7.166 4.079 14.71 2.824 22.101s-7.064 14.343-13.581 13.306c-5.396-.856-15.539-31.891-17.651-37.532-4.263-11.38-9.526-24.507-9.862-37.11-.242-9.086 2.037-16.628 11.123-15.013 12.271 2.181 17.2 19.093 20.449 30.579z" fill="#e42f2f"/><path d="M167.585 68.976c2.135-.099 4.279.073 6.324.709 3.821 1.186 6.94 3.875 9.696 6.803 2.169 2.304 4.876 4.314 6.905 6.603 1.124 1.287 2.168 2.779 2.462 4.541.584 3.542-3.487 7.798-5.154 10.659-.332-2.094-.953-4.443-2.206-6.118-5.449 3.323-6.768 17.102-6.31 23.035.474 6.12 2.5 12.112 5.87 17.134 2.588 3.853 6.005 7.299 7.206 11.848 1.145 4.352.026 9.089-2.103 13.01s-5.19 7.177-8.216 10.381l-7.554 8.002a14.42 14.42 0 0 0-.796-7.947c-5.112 5.762-7.927 13.31-10.631 20.664-1.276 3.478-2.565 7.003-2.977 10.71s.146 7.669 2.269 10.656c-5.021-.139-10.092-.405-14.925-1.845s-9.465-4.169-12.441-8.426c-.853 2.499-.817 5.321.101 7.796-7.988-3.102-13.891-10.859-16.23-19.471-2.564-9.447-1.201-19.621 1.506-29.022 3.542-12.289 9.253-23.758 12.617-36.109 3.798-13.942.075-27.675 9.392-39.948 5.622-7.407 14.079-12.355 23.024-13.473.719-.091 1.444-.157 2.171-.191z" class="F"/><path d="M212.258 171.498c-.287-1.068-.358-2.57.642-2.928 1.295 1.713 2.211 3.703 3.113 5.673 1.795 3.917 3.983 7.856 5.369 11.942-.26.187-3.396 1.952-3.313 2.119-2.592-5.293-4.266-11.046-5.811-16.806z" fill="#7fb2d4"/><path d="M263.105 195.962l.26.341-.26-.341zm.009-1.407l.111.113-.216-.357.105.244zm.51-.784c-.592-.276-.083.345-.362.363l-.134-.065.383.371c.051-.228-.113-.646.113-.669zm1.463.232c-.235-.089-.136-.214-.128.083l.066.008.062-.091z" class="E"/><path d="M265.025 194.095c-.034.112.219.037 0 0h0zm.102-.539l.136.238.311.026c-.043-.201-.194-.232-.447-.264zm-.372-.331l.059.108-.059-.108z" class="E"/><path d="M264.926 193.566l-.113-.232c-.103-.028-.288-.117.036.097l.077.135zm-.126.036c-.161.01-.283.056-.42-.172-.036.275.376.465.42.172zm-1.724-.226l-.207-.024.145.182c-.073-.089.237-.055.062-.158zm2.7-.551l-.522-.141.109.161c.11-.016.223-.085.413-.02z" class="E"/><path d="M265.253 192.684l-.171-.232.171.232zm-1.138.209l.347.44-.336-.486-.011.046zm1.872-.669l.274.188-.407-.307.133.119zm.056-.424c.236.139.451.022.59.139-.017-.129-.211-.286-.388-.421.088.12.035.215-.202.282z" class="E"/><path d="M265.992 191.308l.252.21-.252-.21zm-.765.913l.407.008-.382-.063-.025.055z" class="E"/><path d="M265.238 192.164l.014.002.058-.121-.072.119zm-.019.071l.008-.013-.008.013zm-.641.445c-.167-.169-.318-.413-.686-.385.225.157.434.137.686.385z" class="E"/><path d="M264.742 192.146l-.13.119.329.137-.199-.256z" class="E"/><path d="M264.649 192.034l.093.112.049-.043-.142-.069zm.923-.53l-.145-.283-.177.245.322.038zm-.186.314l-.017-.022.017.022zm.193-1.443l-.071.004.066.011.005-.015z" class="E"/><path d="M265.176 191.463l.096.184-.022-.18-.074-.004zm.685-.441l-.228.077.228-.077zm-.385.783l.015.013-.015-.013z" class="E"/><path d="M265.476 191.804l-.204-.157.096.149.108.008zm-2.318-1.998c.351.05.668.252.268.318.242.165 1.412.294 2.082.254-.152-.028-.292-.052-.487-.234-.194.031-.494.26-.794.087-.153-.211.143-.133.341-.201-.447.016-.617-.315-1.27-.343l.213.175-.353-.056z" class="E"/><path d="M265.422 190.672l.032.073c.075-.061.224-.089.517-.145l-.397-.21-.103.314-.049-.032z" class="E"/><path d="M265.404 191.039c-.37-.137-.505-.313-.934-.311-.004.178.3.192.438.337-.036-.316.198.135.453-.033l.066.188.206-.121-.025.002v.002l-.004-.002-.05-.008-.008-.008-.138-.046.138.046.058.016h.004l-.155-.355-.049.293zm-2.238.809l.085.026-.085-.026z" class="E"/><path d="M263.417 191.832l.13.153-.295-.111c.087.071.216.228.433.184l-.044-.037.705.01-.929-.199zm.906-.368l-.127-.28-.353.024.197.05.283.206zm1.45-1.092l.402.097-.555-.238.153.141zm-.01-.349l.351.053-.204-.117-.147.064zm-11.202-8.286l-.061.1.061-.1zm.351.07l.032-.182-.032.182zm8.688.258c.198-.3.521-.743.217-.469l-.285.284.068.185zm-5.147-1.346l-.032.121.223-.319-.191.198zm-.773 1.489l.026-.281-.026.281zm-5.277-.159l-.081.414c.107.002.066-.21.081-.414zm13.062 4.484l.175-.292c-.19.171-.499.331-.175.292zm-10.276-9.107l-.083.242.083-.242z" class="E"/><path d="M265.572 185.961l-.077.075.145.204c.142-.126.217-.255-.068-.279zm-22.348-8.748l.026-.049-.026.049zm3.264-3.251l.015.055-.015-.055zm17.965 15.004l-.189-.028.189.028zm1.369-.221l.113-.094-.113.094zm.182-.014l-.035.064.035-.064z" class="E"/><path d="M265.973 188.531l-.038.119.062-.018-.024-.101zm-17.648-8.416l-.003-.039.003.039zm11.297 3.658l.015-.009.006-.018-.021.027z" class="E"/><path d="M259.311 183.883c.379-.332.366-.252.332-.137l.732-.902-1.064 1.039z" class="E"/><path d="M248.684 177.012l-.017.121.017-.121zm16.755 11.094h.181l-.096-.128-.085.128zm.168-.255l-.023-.004.023.004zm-7.286-6.215l-.06-.143.06.143zm-2.873.062c-.051.087-.162.365-.138.095.125-.506.114-.254.138-.095zm-1.791.083l.105.378c-.179.594-.279.381-.187.903.083-1.281.47-.101.574-1.378l.057.278-.051.046c.1.625.189-.916.379-.715l.027.443.185-.296-.036.22.242-.071-.008.035a5.62 5.62 0 0 1 .232-.613c.032.19-.051.129-.058.29l.175-.288c0 .337-.154.639-.23.579-.081 1.288.161-.309.27.481l-.134.137c-.055.733.066.489.085.958.03-.237-.013-1.172.166-1.46.017.101.053.157.174-.082-.089.449-.002.35.085.344l-.138.588c.121-.145.185-.447.3-.697.087.087-.009.544-.087.931.123.133.083-.753.295-.814.071.258.221.057.492-.233.033.231-.128.346-.147.521l.23-.429-.062.224.366-.675c.261-.61-.103 1.003.299.353-.031.173-.153.336-.229.557.365-.372.285-.261.706-.793l-.028.423c.089-.455.436-.886.748-1.207l.119-.505.345-.175c-.019.102-.132.274-.274.481l.1-.109c-.028.238-.222.524-.417.8l.094-.371c-.205.302-.419.643-.558.965l.124-.113-.119.214.149-.17-.258.619.128-.232.021.488c.457-.506 1.087-1.277 1.51-1.324-.323.367-.432.667-.74 1.156.253-.57-.323.103-.377-.082l-.182.401.499-.343c-.249.401-.14.334-.191.538.453-.822.491-.411.738-.586-.168.262-.368.515-.43.378-.28.665.766-.805.545-.217l-.117.056c.219-.177.24.123.044.311l-.028-.013c.103.214.473.417 1.015-.153l-.747.818 2.052-1.69c-.48.474-1.484 1.744-1.862 1.902-.03.106-.068.229.166.128l.688-.779-.552.928.889-.749-.84.786.884-.558c-.172.086-.646.594-.835.825l.201.109.13-.223c.013.274 1.24-.762 1.361-.51-.189.103-1.069.761-1.103.929.44-.296 2.154-1.33 2.649-1.317l-.221.215.393-.012-2.862 1.285c-.145.211-.272.231-.185.312-.208.199-.38.201-.412.185l-.011.316c.504-.362.614-.175 1.038-.457l-.685.099c.487-.373 1.539-.844 1.565-.566-.179.179-.946.544-1.114.659.189-.091.436-.043.317.05l-.321.095c-.149.207.793-.25.342.163-.013.064-.638.491-.315.328.591-.381 2.477-1.43 2.973-1.609-.032.05-.441.614-.734.82-.463.314-1.227.434-1.62.708l.419-.128-.366.269c.568-.237.034.23.495-.165.203.036-.074.163 0 .272.355-.193 1.308-.379 1.514-.296l-.418.187c.029.274-.198.488-.152.721-.138.061-.289.212-.557.23l.355.05c-.488.25-.118-.129-.716.117.351-.078.521.054.751.113.54-.141.065-.264-.179-.302.736-.186 1.563-.185 1.954.052.225.2-.468.185-.355.206-.06.429 1.363.195.861.644-.468.191-.957.089-1.303.155-.2-.155.28-.3.248-.423l-.212.177-.164-.217c-.425.165-.01.677-.415.991.164.048.336.137.528.092l-.07-.098c.387-.105.544.181.721.046.284.133.712.31.482.514l-.553.02.168-.182c.241.097-.757.272-.04.399l.387-.123c.272.157.85.399.653.584.552-.04-.058-.048.591-.139-.793.063.059-.521-.781-.368.743-.111.321-.232.959-.421-.183.006-.348.068-.259-.105l-.16-.038.013-.012-.021.01-.008.004-.275.085c-.417-.085-.414-.337-.633-.413.085-.097.212.032.404-.028l-.328-.113c.404-.03.661-.302.906-.077l.008-.219c.213-.143.287-.335.107-.427.076-.115-.47-.2-.147-.153l-.293-.298.1-.02c-.003-.353-.762-.516-.147-1.06-.126-.084-.264-.159-.211-.372l.324-.141c-.158-.101.199-.546-.164-.482.842-.495-.07-.779-.015-1.085l-.419.193c-.051-.171-.242-.266-.495-.368l-.351.209c-.36.004.042-.542-.136-.775l.089.114c.606-.821-.925-.223-.536-.865l-.104-.15.028.001-.015-.027.11-.223-.119.211-.266-.084.317-.311-.021-.01c.072-.175-.2.081-.428.331l-.269.086c.499-.527-.311-.012.195-.59-.312.206-.483-.135-1.067.387l.125-.099c.006-.131.006-.258-.202-.155l.364-.435-.655.413c.155-.334.251-.522.631-.755-.652.286-.338.012-.946.358l.245-.272c-.073-.05-.483.242-.328-.028.292-.687-.648-.676-.706-1.504-.491.979.06-.548-.395.165.108-.236.119-.401.304-.548-.345.081-.14-.574-.632-.04.094-.242.226-.306.275-.453l-.132.006.225-.25c-.264-.099-.644.6-.995 1.257.049-.375-.034-.365-.321.036.068-.24.11-.508.283-.512-.055-.078-.345-.571-.585-.022l-.14-.04c-.162-.113-.162-.167-.358-.187l.015.112c-.321.651-.199.095-.368.119l.026-.068c-.16-.618-.211.189-.359-.496l-.113.439c-.302.921-.121-.648-.423-.342l.004.27c-.176.298.028-1.365-.07-1.517l.119-.173c-.183-.642-.17.566-.421.649.025-.322.223-.784.077-.878-.039-.27-.636.922-.734.29.01.253.013.503-.113.67-.157.063-.298-.992-.529-.231l-.004-.196c-.141.182-.411.288-.511.705.011-1.577-.738.707-.642-.735l-.344.059.016-.147c-.214-.105-.303.237-.389.582l.003-.309c-.298-.304-.332-.243-.606.468l-.013-.468c-.079.268-.409-.751-.712-.215l.038-.211c-.353.539-.672-1.334-.885.362l-.234.401c.26.155-.095.737-.004 1.029l-.102-.614.015.088c.115-.88-.308-.346-.24-.952-.515-.01-.898-.58-1.274-.719l-.111.682-.142-.08.178-.479c.049-.395-.248.267-.293.408-.123-.326.293-.751.234-.785l-.089.026-.005.083c-.138.251-.244.539-.333.463l.089-.449-.026-.034-.11-.105-.147.527c-.166.224-.134-.1-.296.508.258-.916-.44-.624-.363-.934-.294.263-.396.185-.476.06l-.44.465c.795-.956.152-.584.673-1.319-.335.502-.31-.115-.803.582-.002-.147.317-.338.472-.596-.5.159-.062-.566-.304-.652-.138.086-.319.265-.545.344l.619-.542c-.087.008-.823.423-.383.073l-.342.183c.243-.415.019-.538-.085-.753-.125-.184-.091-.522.648-.578-.312 0-.338-.029-.338-.073-.08.014-.384-.062-.595-.092.213-.037.421-.059.625-.061-.565-.191.03-.179-.489-.389l.068.095c-.572-.33-1.454-.328-2.292-.558.697.337-1.269.314-.219.838-.183.06-.27-.093-.474-.074.359.134.425.229.246.422l-.091-.024c.087.554-.266.816-.342 1.577l.399-.159-.221.31c.662-.046-.074-.388.657-.439-.801.429.249.848-.584 1.366.08.203.421-.28.499-.085l-.217.175.33-.121c.009.139-.251.369-.446.492l-.134-.077c-.186.325.342.405.286.506l.037-.268c.482.34.623 1.116 1.365 1.081l.117-.173c.512-.024.042.385.459.518l-.042.028c.189-.105.331-.121.395-.034-.225.131-.134.503-.398.636.566-.089.358-.137.983-.634l-.141.324c.234-.213.326-.35.523-.334-.28.175-.163.523-.51.767.005.904.872-.367.572.723.564-.792-.098-.649.085-.787.068-.319.443-.579.502-.444.087.071-.302 1.231.055 1.348l-.091.034c.047.28.353-.216.374.211.243-.539.175.087.396-.626l-.315.085c.217-.139.574-.939.7-.463l-.251.404c.019.238.174-.1.195.137-.197.727-.365.067-.689.562.002.33.468-.421.173.332.38-.956.284.216.665-.503l-.106.435.215-.226-.226.544c.27-.441.253.496.472.266-.351-.054.017-.548-.066-.896.5-.518.041 1.21.555 1.069-.074.051-.202-.304-.074-.495.076.106.168.294.197.537.324-.048.007-.467.173-.721.04.558.172-.205.315-.364l-.045.455c.31.328.181-.936.44-.554l-.177.617.168-.149-.074.517c.202-.372.243-.268.402-.109-.017-.322.076-.823.215-.831.081.276-.079.431.125.378-.061.282-.132.637-.196.212l-.08.429c.087.318.265.088.338.088l-.075-.111.322-.616-.045.443.197-.292c-.038.369-.048.753-.178.923l.293-.399.085.584c.141.223.392-.707.572-.413l.077-.191c.179.09.321.55.54.05l.092.669c.167-.145-.126-.844.151-1.084.195-.203.046.57.102.759.102-.33.302-1.006.437-.453l-.153.067z" class="E"/><path d="M257.77 182.035l.092-.229-.092.229zm-5.352-.064l-.007-.005-.008.081.015-.076zm8.822 4.105l.183-.153-.183.153zm4.936 3.337l-.105-.167-.147.137.252.03zm-2.799.92l.049.067.199.034-.248-.101zm1.355-.868c-.364-.012-.243.079-.189.184l.002-.018c.503.076.353-.049.187-.166z" class="E"/><path d="M264.553 189.674v.09c.204.032.047-.033 0-.09zm1.137-1.274l.321.051c.466.04-.574-.329-.321-.051zm-2.16 1.052l.451.002-.36-.077-.091.075zm.351-.69l-.125.142.151.042-.026-.184z" class="E"/><path d="M263.907 188.946l.072.119-.072-.119zm-.506.308l.097-.036.035-.097-.132.133zm.43-2.062l-.152-.131-.17.121.322.01zm-1.154.638l.334-.107-.553.071.219.036zm-.186-.374l-.407.052.407-.052zm.055-2.243l.025.03.825-.419-.85.389zm-2.709-.23c-.094.246.465-.34.321-.068.193-.111.117-.224.285-.317-.232.079-.155-.038-.606.385z" class="E"/><path d="M260.443 184.598l.136-.053-.136.053zm-13.43-10.69l.192.026-.296-.077.104.051zm-.589-.322l.538.203-.464-.231-.074.028zm9.003 9.371l.038-.145-.024-.204-.014.349zm-1.04-.635l.019.013.011-.556-.03.543zm-1.136.631l.15-.069c-.103.095-.135-.622-.15.069z" class="E"/><path d="M221.597 169.72l-.345-.267c-.004.265.439.297.345.267zm.589 2.091l-.156-.012.403.194-.247-.182zm.45 1.461c.507-.415-.314-.421-.189-.781l.128-.091-.528.032c.171.347.649.568.589.84zm-.722 1.512c.166-.206.283.025-.06-.224l-.03.073.09.151z" class="D"/><path d="M221.824 174.633c-.115-.147-.104.229 0 0h0zm.603.545l-.313-.018-.101.337c.25.095.32-.054.414-.319zm.476-.188l-.139-.011.139.011z" class="D"/><path d="M222.464 174.945l.299.033c.057-.097.209-.245-.122-.027l-.177-.006zm-.011-.175c.032-.193.013-.366.311-.348-.302-.252-.64.066-.311.348zm.796-1.776l.109-.204-.241.004c.119-.002-.041.309.132.2zm-.072 3.382l.267-.502-.216.032-.051.47z" class="D"/><path d="M223.444 175.874l.312-.057-.312.057zm-.004-1.378l-.591.091.638-.049-.047-.042zm.466 2.425l-.281.21.453-.3-.172.09zm.548.254c-.212.197-.074.483-.244.582.176.042.408-.107.608-.25-.172.053-.3-.042-.364-.332z" class="D"/><path d="M225.129 177.308l-.311.199.311-.199zm-1.115-1.215l-.07.444.136-.388-.066-.056z" class="D"/><path d="M224.084 176.135l-.004.014.143.119-.139-.133zm-.087-.055l.016.013-.016-.013zm-.419-.941c.236-.085.553-.131.594-.538-.23.159-.249.399-.594.538z" class="D"/><path d="M224.183 175.6l-.121-.2-.224.291.345-.091z" class="D"/><path d="M224.338 175.557l-.154.043.047.077.107-.12zm.55 1.231l.392-.059-.313-.278-.079.337zm-.389-.336l.028-.009-.028.009zm1.855.652v-.074l-.022.064.022.01z" class="D"/><path d="M224.98 176.372l-.247.031.234.047.013-.078zm.529.884l-.081-.265.081.265zm-1.002-.698l-.023.007.023-.007z" class="D"/><path d="M224.507 176.557l.226-.154-.206.039-.02.115zm2.682-1.914c-.072.367-.34.663-.393.228-.215.23-.46 1.438-.441 2.157a.71.71 0 0 1 .322-.471c-.032-.212-.296-.574-.062-.858.27-.121.149.175.234.4 0-.473.44-.598.472-1.294l-.213.203.081-.365z" class="D"/><path d="M225.979 176.877l-.094.016c.075.094.096.26.154.58a.68.68 0 0 0 .293-.379l-.396-.173.043-.044z" class="D"/><path d="M225.522 176.762c.2-.356.429-.455.461-.912-.219-.051-.257.268-.457.372.406.061-.187.171.007.496l-.252.01.147.262-.002-.027h-.002l.002-.004.015-.052.011-.004.068-.139-.068.139-.026.056v.004l.459-.07c-.066-.079-.168-.105-.363-.131zm-.686-2.723l-.046.079.046-.079z" class="D"/><path d="M224.799 174.319l-.2.061.191-.262c-.097.058-.304.119-.302.375l.052-.027c.019.202-.098.725-.149.758l.408-.905zm.279 1.13l.36-.03.015-.386-.084.19-.291.226zm1.267 1.861l-.145.405.338-.54-.193.135zm.512.065l-.079.364.18-.198-.101-.166zm-3.625-14.159l-.106.055.106-.055zm.393.282l.102-.151-.102.151zm9.499 5.311c.282-.241.712-.58.34-.429l-.357.17.017.259zm-5.016-4.252l-.066.109.324-.209-.258.1zm-1.234 1.096l.098-.28-.098.28zm-6.16-3.201l-.212.363c.11.041.132-.173.212-.363zm11.151 13.347c.21.002.342-.048.427-.119-.293-.01-.621-.163-.427.119zm-6.375-16.238l-.179.179.179-.179z" class="D"/><path d="M232.563 175.311l-.12.008-.151.36c.209.01.394-.065.271-.368zm-22.602-16.189l-.002-.063.002.063zm1.593-4.756l.032.062-.032-.062zm16.766 21.683l.009-.202-.009.202zm2.639-2.952l.002-.005-.002.005zm-2.097 4.349l.169.097-.169-.097z" class="D"/><path d="M228.92 177.632l-.109-.026.109.026zm.308-.079l-.196-.01.039.059.157-.049zm-12.556-17.633l-.009-.038.009.038zm11.994 8.633l.018-.002.01-.015-.028.017z" class="D"/><path d="M228.307 168.493c.474-.151.447-.069.387.042l.97-.598-1.357.556z" class="D"/><path d="M216.24 156.776l.036.125-.036-.125zm13.505 20.083l.046.185.162-.149-.208-.036zm.419.06l-.002-.026c.24.094.152.054.002.026zm-2.425-11.487l-.034-.182.034.182zm-3.412-1.702c-.089.052-.317.244-.202 0 .317-.405.221-.171.202 0zm-2.158-.969l-.017.403c-.415.455-.445.222-.532.745.559-1.154.557.159 1.144-.971l-.03.288-.078.016c-.105.637.55-.747.703-.457l-.127.431.323-.165-.119.185.312.079-.021.032.491-.441c-.025.2-.102.093-.166.238l.307-.167c-.111.32-.398.515-.475.41-.523 1.173.296-.205.181.629l-.212.04c-.3.669-.068.52-.177.995.102-.215.334-1.154.649-1.311-.009.111.021.189.242.038-.247.375-.11.341.004.391l-.344.487c.2-.068.365-.32.582-.495.086.135-.163.531-.367.864.116.225.316-.699.587-.612.014.31.259.201.663.078-.023.25-.247.268-.315.433l.391-.29-.134.189c.194-.072.387-.457.609-.463.461-.459-.381.963.253.55-.077.159-.262.252-.406.431.523-.163.41-.099 1.024-.397l-.142.429c.217-.425.708-.658 1.137-.817l.258-.448.425.007c-.047.094-.215.209-.425.342l.14-.056c-.091.229-.376.418-.661.592l.196-.327c-.303.192-.628.423-.864.675l.17-.046-.189.155.211-.091-.438.496.199-.168-.083.53c.641-.264 1.502-.705 1.976-.524-.44.212-.629.466-1.08.812.408-.461-.377-.083-.398-.316l-.295.32.629-.066c-.368.284-.226.278-.326.467.681-.618.649-.165.943-.196-.245.188-.515.339-.549.151-.455.564 1.004-.418.632.093l-.139-.006c.277-.068.232.272-.023.367l-.028-.033c.073.296.417.75 1.114.423l-.976.484 2.541-.733c-.612.263-1.945 1.129-2.385 1.091-.056.103-.111.218.151.244l.897-.496c-.598.49-.308.294-.802.756l1.091-.357-1.048.429 1.04-.143c-.196.004-.802.324-1.047.486.175-.101.069.219.186.247l.18-.191c-.049.322 1.446-.21 1.487.151-.213.014-1.261.284-1.347.453.511-.099 2.497-.334 2.954-.016l-.279.121.373.223c-.794-.098-2.482-.179-3.137-.161-.208.155-.336.111-.278.246-.26.105-.426.018-.451-.014l-.119.328c.597-.123.633.133 1.129.06a6.55 6.55 0 0 0-.672-.259c.585-.153 1.733-.097 1.661.237-.232.097-1.078.067-1.276.103.213.002.415.189.27.222l-.33-.073c-.219.127.819.183.239.3-.037.049-.777.05-.422.081l3.341.225c-.051.049-.683.443-1.036.435-.546-.016-1.258-.419-1.73-.419l.423.151-.441-.018c.604.178-.091.198.502.19l-.149.221c.398.093 1.253.673 1.34.955l-.425-.171c-.179.292-.494.275-.655.493-.138-.079-.349-.113-.529-.352l.167.36c-.495-.31.043-.185-.52-.596.272.272.274.519.338.773.419.451.278-.117.161-.356.617.562 1.049 1.333.932 1.907-.139.379-.407-.318-.387-.189-.524.195.253 1.49-.526 1.22-.395-.387-.397-.924-.586-1.242.123-.244.454.157.593.06l-.283-.121.189-.272c-.327-.306-.801.284-1.267-.1-.015.175-.092.372.002.563l.104-.084c.219.384-.123.586.089.751-.119.308-.314.789-.642.556l-.089-.58c.011.169.208.346.268.165-.115.264-.445-.783-.551-.036l.206.415c-.191.284-.529.88-.823.65.083.592.067-.056.247.64-.151-.841.825.095.51-.805.247.785.385.34.777.973-.037-.188-.16-.353.127-.284l.03-.172.021.011-.019-.021-.006-.006-.179-.276c.062-.439.428-.481.489-.731.157.057.002.222.126.403l.091-.368c.132.406.604.553.33.896l.329-.085c.272.155.589.125.664-.117.197.008.132-.606.174-.247l.306-.508.062.083c.48-.294.33-1.164 1.214-1.15.03-.212.015-.439.257-.632l.324.145c.002-.27.623-.5.321-.77.982.143.546-1.13.738-1.516l-.447-.097c.051-.292-.049-.6-.236-.953l-.402.011c-.328-.29.27-.679.179-1.072l.044.191c.853-.618-.789-.835-.229-1.353l-.06-.238.028.017-.005-.041.169-.201-.177.179-.238-.25.398-.187-.02-.022c.117-.167-.223-.02-.514.145l-.29-.052c.632-.339-.318-.17.341-.556-.364.072-.447-.389-1.17-.119l.149-.046c.038-.137.075-.282-.157-.28l.483-.286-.77.107c.238-.28.383-.433.831-.492-.746-.022-.353-.155-1.059-.107l.321-.163c-.063-.094-.555 0-.327-.209.472-.576-.504-1.078-.362-1.966-.769.759.202-.537-.461-.038.176-.189.232-.352.464-.407-.385-.099.012-.672-.656-.378.164-.198.32-.194.413-.319l-.144-.06.308-.139c-.258-.234-.849.276-1.401.761.151-.358.059-.39-.358-.137.136-.209.251-.457.443-.368-.043-.111-.207-.77-.626-.339l-.146-.11c-.151-.198-.13-.254-.34-.381l-.015.119c-.534.473-.243-.018-.434-.087l.049-.052c-.004-.687-.292.072-.257-.673l-.254.367c-.612.735.056-.693-.359-.568l-.081.266c-.287.177.457-1.293.402-1.485l.187-.106c.013-.695-.372.451-.669.402.133-.294.501-.628.378-.791.053-.274-.993.528-.889-.113-.078.238-.161.475-.361.564-.2-.026.017-1.083-.509-.509l.064-.184c-.219.087-.57.039-.838.371.579-1.452-1.114.246-.491-1.043l-.438-.127.068-.127c-.225-.212-.451.06-.674.336l.107-.288c-.266-.451-.343-.405-.911.135l.128-.451c-.176.228-.317-.93-.884-.54l.106-.185c-.585.385-.713-1.613-1.325-.002l-.391.328c.334.228-.234.703-.153 1.017-.16.061-.241-.596-.047-.634l.008.089c.275-.844-.382-.429-.24-1.017-.748-.131-1.399-.764-2.13-.897l-.003.699-.24-.076c-.046-.168-.027-.55.151-.496-.051-.403-.34.284-.357.433-.315-.322.217-.787.117-.815l-.153.032.025.084c-.144.27-.185.566-.387.51l-.076-.463-.077-.028-.291-.089.068.556c-.155.254-.272-.055-.193.574-.12-.967-1.028-.453-1.098-.766-.214.371-.383.339-.57.256l-.206.625c.285-1.233-.219-.605-.14-1.525-.03.618-.445.028-.502.902-.102-.141.117-.459.108-.773-.427.377-.501-.532-.737-.496-.088.139-.168.383-.349.56a7.29 7.29 0 0 1 .317-.779c-.079.044-.587.735-.332.215l-.244.311c.006-.514-.277-.607-.498-.842-.208-.202-.313-.58.393-.902-.3.1-.333.07-.346.016-.07.044-.385.046-.598.076a2.96 2.96 0 0 1 .593-.274c-.586-.058-.002-.233-.537-.324l.076.093c-.615-.224-1.491.056-2.36.036.361.141.078.284-.172.501-.232.204-.417.5.161.609-.157.132-.285-.027-.474.062.379.05.472.147.379.437l-.094-.002c.291.665.083 1.098.349 1.966l.312-.311-.068.423c.619-.259-.253-.414.428-.709-.581.748.667.868.125 1.706.194.19.268-.441.455-.26l-.115.26.266-.241c.089.151-.04.489-.166.688l-.185-.042c.002.425.612.316.627.441l-.14-.296c.772.228 1.361.84 2.107.481l.013-.217c.51-.258.279.326.774.254l-.026.046c.132-.189.266-.268.381-.222-.153.224.132.51-.059.756.51-.337.274-.288.657-1.025l.019.36c.132-.304.161-.469.376-.532-.204.278.075.548-.162.919.368.817.723-.699.811.439.283-.947-.317-.574-.189-.77-.062-.326.229-.706.35-.596.128.035.119 1.261.443 1.275l-.071.055c.098.261.27-.307.373.11.142-.578.182.055.284-.686l-.308.138c.183-.181.436-1.027.663-.565l-.212.433c.053.233.168-.121.221.116-.117.741-.363.109-.597.655.051.324.378-.492.204.3.244-1.007.276.173.584-.58l-.076.443.196-.244-.188.56c.234-.467.245.469.436.238-.321-.051.017-.55-.072-.898.512-.512.043 1.206.515 1.083-.069.05-.175-.312-.043-.497.07.108.149.3.153.543.311-.032.047-.461.226-.708-.009.559.193-.192.365-.323l-.098.445c.273.377.302-.9.534-.473l-.276.578.197-.115-.155.494c.26-.327.294-.216.423-.03.043-.319.232-.794.39-.764.033.296-.171.399.059.407-.127.258-.27.584-.251.151l-.168.403c.026.326.245.153.321.173l-.051-.129.477-.505c0 .181-.079.298-.154.415l.281-.22c-.134.346-.242.711-.414.836l.401-.298-.072.584c.079.254.598-.532.708-.183l.141-.15c.163.158.165.633.569.274l-.131.669c.229-.058.151-.848.537-.942.29-.093-.146.555-.148.755.227-.254.697-.796.65-.204l-.197-.018z" class="D"/><path d="M227.017 165.526l.16-.185-.16.185zm-6.264-3.139l-.006-.008-.033.072.039-.064zm8.728 9.387l.228-.005-.228.005zm-1.629 6.101l.258-.111-.236-.157-.022.268zm-1.301-3.091l-.083.038-.058.202.141-.24zm1.1 1.561c-.006-.384-.126-.268-.269-.214l.024.002c-.09.529.089.373.245.212z" class="D"/><path d="M227.347 176.139l-.126-.01c-.043.209.047.053.126.01zm2.021 1.086l-.012.347c.044.491.382-.697.012-.347zm-1.765-2.157l.017.478.077-.375-.094-.103zm.898.365l-.202-.12-.03.162.232-.042z" class="D"/><path d="M228.269 175.476l-.143.08.143-.08zm-.436-.529l.051.103.12.039-.171-.142zm2.556-.177l.069-.242-.203-.075.134.317zm-1.169-.809l.246.296-.308-.534.062.238zm.259-.349l-.257-.373c.098.139.083.345.257.373zm1.542-1.782l.004.048.91.125-.914-.173zm-2.408-1.736c-.163.216.551-.139.328.087.219-.024.183-.187.374-.204-.249-.032-.144-.12-.702.117z" class="D"/><path d="M229.315 169.977l.147.012-.147-.012zm-17.253-15.847l.196-.027-.305-.002.109.029zm-.619-.209l.56.08-.487-.135-.073.055zm12.484 11.026l.091-.113.024-.222-.115.335zm-1.11-1.289l.019.026.209-.51-.228.484zm-1.51 0l.188.006c-.147.04.07-.642-.188-.006z" class="D"/><path d="M297.116 194.758l.39.172c-.053-.228-.488-.18-.39-.172zm-.867-1.776l.155-.002-.417-.147.262.149zm-.464-1.384c-.508.411.306.417.183.762l-.124.088.523-.052c-.178-.31-.64-.532-.582-.798zm.753-1.494c-.171.201-.282-.037.053.226l.03-.069-.083-.157z" class="B"/><path d="M296.622 190.261c.115.144.109-.223 0 0h0zm-.595-.574l.315.033.107-.338c-.249-.115-.32.035-.422.305zm-.485.169l.143.015c.036-.059.03-.096-.143-.015z" class="B"/><path d="M295.986 189.925l-.301-.053c-.056.097-.213.239.123.035l.178.018zm.009.175c-.032.191-.015.363-.317.34.298.266.647-.052.317-.34zm-.827 1.766l-.109.206.243-.004c-.121.002.041-.307-.134-.202zm.095-3.439l-.272.501.221-.02.051-.481z" class="B"/><path d="M294.99 188.928l-.32.046.32-.046zm.004 1.408c.199-.037.395-.051.599-.063-.219-.008-.434-.004-.648.02l.049.043zm-.492-2.49l.29-.203-.468.288.178-.085zm-.571-.273c.216-.192.07-.484.246-.582-.187-.041-.419.1-.623.241.176-.052.304.051.377.341z" class="B"/><path d="M293.237 187.43l.316-.198-.316.198zm1.164 1.252l.066-.446-.135.388.069.058z" class="B"/><path d="M294.328 188.636l.003-.012-.149-.125.146.137zm.09.062l-.016-.015.016.015zm.437.977c-.244.077-.567.105-.61.522.236-.153.255-.395.61-.522z" class="B"/><path d="M294.228 189.177l.126.21.23-.287-.356.077z" class="B"/><path d="M294.071 189.214l.157-.038-.048-.079-.109.117zm-.586-1.257l-.399.052.322.287.077-.339zm.408.346l-.029.007.029-.007zm-2.019-.687l.005.076.019-.066-.024-.01z" class="B"/><path d="M293.397 188.374l.255-.028-.243-.049-.012.077zm-.572-.907l.1.277-.1-.277zm1.061.728l.021-.007-.021.007z" class="B"/><path d="M293.886 188.195l-.234.151.211-.036.023-.115zm-2.747 1.917c.055-.378.314-.672.395-.246.213-.243.423-1.452.345-2.173-.035.156-.073.303-.328.478.055.217.372.566.132.86-.285.137-.179-.173-.279-.395.026.473-.399.634-.414 1.323l.214-.217-.065.37z" class="B"/><path d="M292.312 187.843l.105-.016c-.09-.095-.124-.266-.211-.592-.213.139-.272.271-.308.39l.459.173-.045.045z" class="B"/><path d="M292.831 187.969c-.208.349-.457.449-.472.907.236.064.272-.256.479-.361-.432-.07.197-.163-.02-.501l.268-.005-.161-.265.002.026.002.002-.002.004-.013.052-.011.004-.072.135.072-.135.024-.056v-.006l-.51.058c.076.085.201.099.414.141zm.736 2.768l.047-.079-.047.079z" class="B"/><path d="M293.603 190.456l.206-.058-.195.258c.099-.053.31-.105.31-.369l-.055.028c-.022-.203.098-.733.149-.765l-.415.906zm-.297-1.158l-.371.028-.012.386.085-.19.298-.224zm-1.44-1.891l.136-.411-.341.552.205-.141zm-.508-.034l.06-.369-.154.208.094.161zm-13.977 15.046l.028.133-.028-.133zm.383-.449l-.128-.129.128.129zm4.293-11.089c-.293-.211-.71-.563-.463-.231l.261.308.202-.077zm-2.94 6.006l.11.06-.221-.325.111.265zm1.14 1.206l-.28-.067.28.067zm-4.702 7.175l.217.367-.217-.367zm11.332-17.108l-.358-.121c.217.164.435.454.358.121zm-12.561 11.31l.14.21-.14-.21z" class="B"/><path d="M286.218 188.175l.09.064.221-.2c-.16-.123-.313-.173-.311.136zm-22.468 22.292l-.026-.051.026.051zm-1.944-4.898l.099.024-.099-.024zm28.203-16.811l-.023.202.023-.202zm-3.502 2.085l-.004.002.004-.002zm3.111-3.496l-.136-.108.136.108z" class="B"/><path d="M289.582 187.157l.091.031-.091-.031zm-.262.055l.162.026-.029-.063-.133.037zm-19.086 20.667l-.032-.026c.003.191.022.149.032.026zm12.778-12.396l-.005-.02-.017-.006.022.026z" class="B"/><path d="M283.012 195.88c-.234-.461-.149-.455-.022-.423l-.782-.856.804 1.279z" class="B"/><path d="M268.274 205.468l.085.089-.085-.089zm20.542-17.625l-.016-.19-.152.123.168.067zm-.34-.131l-.004.022c-.183-.141-.115-.083.004-.022zm-8.475 9.467l-.179.06.179-.06zm-1.856 3.976c.038.104.189.378-.033.239-.348-.38-.135-.26.033-.239zm-1.576 2.462l.393.087c.283.582.019.584.513.775-.904-.862.401-.692-.519-1.542l.278.074-.014.095c.606.197-.558-.743-.23-.876l.391.189-.081-.397.153.156.156-.363.027.026-.332-.59c.194.042.071.123.203.204l-.102-.359c.297.143.431.483.308.566 1.063.657-.134-.34.674-.197v.259c.616.357.512.073.98.188-.206-.109-1.11-.377-1.21-.755.109.01.192-.025.075-.282.338.288.327.124.397-.008l.44.39c-.032-.235-.268-.419-.412-.664.151-.099.517.169.833.388.241-.157-.671-.326-.552-.658.314-.035.231-.318.136-.764.253.007.253.26.416.325l-.265-.421.183.137c-.062-.214-.434-.397-.436-.651-.449-.473.948.333.548-.338.158.07.249.264.428.405-.156-.572-.088-.443-.396-1.086l.425.095c-.425-.179-.674-.697-.859-1.138l-.45-.228-.024-.451c.094.039.219.204.362.413l-.064-.139c.227.069.432.351.619.637l-.334-.172c.21.303.451.627.71.856l-.051-.183.161.187-.101-.219.516.409-.178-.192.54.01c-.294-.662-.815-1.536-.691-2.058.255.433.525.594.91 1.015-.494-.356-.051.423-.281.494l.342.265-.115-.68c.315.348.298.197.498.264-.685-.621-.215-.657-.293-.981.216.223.401.487.216.566.615.37-.535-1.003.013-.711l.013.153c-.104-.284.238-.312.368-.061l-.028.037c.296-.135.696-.643.241-1.287l.654.902-1.216-2.461c.379.568 1.512 1.72 1.552 2.191.115.028.253.059.224-.233l-.677-.79c.604.475.349.232.913.6l-.6-1.029.664.955-.383-1.031c.051.199.512.725.735.924l.213-.274-.24-.123c.355-.074-.577-1.413-.262-1.579.085.206.662 1.164.872 1.172-.242-.489-1.142-2.36-1.091-2.9l.215.222.021-.439 1.063 3.126c.234.13.226.283.36.151.208.205.157.423.123.469l.442-.087c-.351-.519-.068-.719-.355-1.154l-.038.818c-.357-.512-.731-1.66-.402-1.748.196.167.532.985.647 1.16-.079-.206.029-.516.133-.401l.064.361c.258.108-.191-.87.285-.466.083-.006.576.592.402.262-.446-.566-1.576-2.471-1.767-2.986.049.026.687.378.929.648.37.435.483 1.271.802 1.643l-.132-.445.325.333c-.274-.578.305-.113-.187-.514.054-.24.207.034.355-.081-.24-.34-.474-1.339-.393-1.588l.242.404c.332-.104.609.085.893-.034.084.131.285.252.326.534l.04-.391c.351.455-.159.157.196.733-.121-.354.036-.572.087-.834-.219-.537-.329.006-.364.272-.284-.737-.35-1.619-.104-2.094.221-.288.272.451.287.324.536-.022.104-1.486.711-1.045.287.459.206.989.319 1.341-.173.232-.4-.232-.551-.175l.24.187c-.03.183-.138.338-.249.224.24.398.844-.141 1.272.245.044-.181.146-.362.07-.563l-.117.084c-.164-.393.185-.592-.002-.765.149-.298.347-.782.636-.55l.059.58-.247-.163c.115-.258.398.771.522.02l-.183-.403c.189-.292.491-.9.752-.688-.078-.583-.061.054-.217-.625.126.838-.718-.064-.459.822-.195-.773-.334-.328-.631-.975.019.193.114.359-.122.284l-.038.173-.017-.014.015.022.006.008.134.28c-.082.445-.412.463-.489.709-.132-.072.02-.227-.072-.417l-.119.361c-.072-.421-.445-.639-.179-.937l-.28.031c-.204-.202-.455-.242-.549-.031-.151-.056-.206.54-.176.188l-.336.374-.032-.1c-.425.08-.549.934-1.233.404-.081.155-.158.325-.4.313l-.185-.315c-.102.188-.613-.1-.515.278-.597-.797-.818.21-1.142.204l.219.423c-.18.08-.278.296-.38.59l.223.354c.006.403-.583.024-.829.242l.123-.107c-.823-.586-.296 1.039-.946.663l-.172.122.006-.03-.032.016-.221-.112.206.124-.119.298-.289-.344-.011.026c-.172-.078.058.22.292.467l.051.301c-.477-.544-.062.354-.592-.206.166.347-.223.542.211 1.209l-.079-.141c-.138-.004-.276-.006-.216.235l-.379-.423.287.759c-.319-.181-.493-.298-.651-.737.151.756-.057.387.139 1.098l-.22-.294c-.07.081.12.574-.119.381-.625-.377-.907.717-1.766.684.82.699-.526-.143.029.478-.2-.157-.359-.198-.442-.431-.042.41-.614.062-.26.723-.206-.153-.219-.313-.348-.397l-.04.149-.166-.3c-.187.276.351.848.863 1.377-.355-.123-.376-.028-.1.391-.209-.125-.451-.228-.387-.435-.096.058-.693.272-.266.679l-.1.155c-.18.165-.232.147-.342.368l.113.014c.469.546-.007.258-.064.464l-.049-.053c-.657.004.066.31-.642.262l.348.272c.689.654-.657-.067-.537.366l.246.095c.162.316-1.212-.542-1.384-.511l-.092-.194c-.644-.084.409.411.347.709-.266-.165-.561-.566-.714-.463-.247-.091.45 1.067-.151.868.216.113.429.228.493.443-.051.205-.997-.195-.527.431l-.164-.097c.062.238-.038.576.219.909-1.221-.905.006 1.18-1.04.237l-.215.379-.098-.107c-.24.145-.057.443.126.749l-.225-.197c-.462.105-.44.167-.162.908l-.347-.296c.126.262-.876-.101-.767.552l-.111-.181c.058.711-1.524-.272-.561 1.101l.057.506c.353-.147.415.602.702.715-.053.181-.6-.137-.519-.323l.073.045c-.49-.721-.538.05-.889-.431-.511.491-1.28.425-1.806.683l.375.573-.207.071-.163-.491c-.239-.309-.073.414-.017.553-.379-.106-.243-.779-.332-.747l-.081.103.058.06c.034.302.146.572-.034.621l-.271-.367-.07.008-.255.057.296.459c-.009.304-.247.076.095.602-.514-.808-1.071.048-1.273-.214-.054.437-.226.478-.436.472.074.1.242.69.038.662-.191-1.26-.438-.451-.719-1.341.215.578-.448.218-.148 1.041-.158-.078-.068-.469-.209-.749-.289.524-.738-.25-1.099-.101-.013.167.049.421-.047.667l-.17-.838c-.072.071-.14.949-.232.357l-.042.404c-.355-.441-.738-.35-1.134-.406-.385-.035-.797-.242-.71-1.086-.077.328-.142.324-.212.294.004.091-.202.351-.303.55a5.23 5.23 0 0 1 .056-.699c-.387.475-.275-.173-.659.274l.148-.018c-.544.451-.742 1.383-1.248 2.114.577-.519-.091 1.36.804.585-.01.209-.195.219-.251.428.264-.284.393-.302.521-.056l-.061.077c.597.189.703.628 1.346 1.093l.055-.449.176.361c.313-.623-.402-.133-.072-.824-.017.932.972.24.967 1.255.232.032-.008-.522.219-.49l.032.286.09-.354c.14.076.191.433.182.67l-.155.071c.185.362.577-.075.638.032l-.219-.177c.629-.234 1.421.098 1.933-.558l-.068-.203c.366-.458.378.189.812-.089l-.006.054c.053-.229.149-.362.278-.366-.065.27.324.415.23.719.368-.518.16-.375.251-1.219l.157.318c.013-.336-.025-.499.16-.652-.092.344.291.467.204.91.717.58.432-.983 1.021-.008-.128-.985-.577-.348-.53-.59-.196-.26-.074-.745.091-.705.139-.028.677 1.056 1.042.862l-.051.095c.238.159.132-.431.464-.147-.155-.576.227-.085-.07-.769l-.243.324c.109-.266-.119-1.142.347-.917l.042.498c.185.147.098-.218.288-.069.318.671-.307.355-.26.973.234.23.141-.689.394.085-.317-.993.423-.077.287-.913l.201.399.049-.352.16.582c-.053-.548.591.129.644-.224-.385.266-.365-.399-.691-.572.145-.799.872.812 1.293.242-.038.105-.415-.024-.417-.276.147.004.374.048.568.191.289-.336-.313-.33-.327-.662.423.35.025-.304.053-.548l.268.358c.525-.064-.473-.819.044-.801l.253.598.062-.262.283.427c-.062-.453.051-.423.312-.467-.24-.207-.497-.644-.363-.785.268.112.223.376.38.134.139.256.315.572-.042.343l.217.376c.31.133.319-.205.389-.281h-.149l-.117-.75.262.349-.009-.401c.223.29.481.56.47.81l.008-.578.49.306c.299-.01-.111-.896.27-.907l-.064-.211c.234-.139.716-.01.559-.59l.585.31c.053-.288-.747-.379-.662-.854.034-.356.473.296.67.34-.147-.332-.485-.966.07-.813l-.093.231z" class="B"/><path d="M280.125 197.952l-.188-.149.188.149zm-4.611 7.251l-.009.002.05.062-.041-.064zm10.975-12.31l-.19-.159.19.159zm4.006-5.971l-.224.119.198.147.026-.266zm1.296 3.029l.086-.038.053-.206-.139.244zm-1.144-1.505c0 .384.116.259.252.194h-.023c.08-.531-.082-.365-.229-.194z" class="B"/><path d="M290.932 188.63l.12.006c.036-.21-.047-.049-.12-.006zm-1.76-1.102l.042-.344c.011-.497-.381.654-.042.344zm1.514 2.187l-.017-.475-.081.377.098.098zm-.898-.334l.19.115.041-.162-.231.047z" class="B"/><path d="M290.02 189.333l.149-.082-.149.082zm.423.513l-.051-.099-.123-.034.174.133zm-2.613-.121l-.147.197.164.15-.017-.347zm.899 1.072l-.165-.328.142.568.023-.24zm-.45.285c.029.161-.09.525.098.418-.034-.158.091-.345-.098-.418zm-2.801.563l.038-.034-.469-.828.431.862zm-.833 3.329c.297.06-.29-.512.025-.395-.085-.216-.259-.095-.327-.286.029.272-.098.205.302.681z" class="B"/><path d="M284.343 194.293l-.026-.159.026.159zm-22.554 10.629l.045-.216-.143.291.098-.075zm-.581.432l.357-.482-.395.381.038.101zm18.105-3.748l-.101-.103-.225-.021.326.124zm-1.613 1.351l.032-.022-.447-.3.415.322zm-.639 1.877l.102-.235c-.032.192-.607-.207-.102.235z" class="B"/><path d="M281.351 171.852l-.03-.432.03.432zm-.276.942l-.011-.163-.011.401.022-.238zm-.353.035c.11.668.116-.125.204.107l.029.151-.033-.544c-.066.096-.126.467-.2.286zm-.347-1.428c.039.26-.015.23.051.078l-.015-.066-.036-.012z" class="C"/><path d="M280.411 171.413c.036-.024-.047-.215 0 0h0zm-.151.169l.021-.239-.07-.298c-.034.135-.008.286.049.537zm.007.494l.014-.101c-.012-.063-.021-.085-.014.101z" class="C"/><path d="M280.311 171.761l-.03.214c.018.107.043.325.017-.077.017.198.007.008.013-.137zm.041.1c.044.143.089.23.066.468l-.066-.468zm.431 1.666l.056.192.008-.23c-.004.113-.091-.172-.064.038zm-.859-2.257l.079.562.017-.169c-.028-.095-.072-.18-.096-.393z" class="C"/><path d="M280.003 171.833l-.028.25.028-.25zm.336.99l.032-.524-.049.534.017-.01zm-.617-1.547l-.006-.334v.506l.006-.172zm-.127.073c-.005-.278-.077-.461-.071-.633-.031.053-.038.292-.044.508.017-.121.051-.095.115.125z" class="C"/><path d="M279.465 171.538l.015-.313-.015.313zm.413.485l-.084-.403.062.399.022.004z" class="C"/><path d="M279.857 172.033l-.002-.014-.046-.017.048.031zm.027-.009l-.005-.001.005.001zm.276.453c-.008.229-.047.477.053.813-.008-.278-.064-.469-.053-.813z" class="C"/><path d="M279.964 172.523l.065.086-.035-.371-.03.285z" class="C"/><path d="M279.948 172.654l.015-.13-.026-.032.011.162zm-.351-.75l-.058.226.109.109-.051-.335zm.132.097l-.003.023.003-.023zm-.483.16l.011.07-.005-.068-.006-.002z" class="C"/><path d="M279.661 172.315l.038-.151-.051.076.013.075zm-.26-.58l.064.216-.064-.216zm.304.178l.002-.016-.002.016z" class="C"/><path d="M279.705 171.914l-.006.25.027-.139-.021-.111zm-.308 2.838c-.028-.373.004-.727.098-.332.029-.284-.126-1.507-.238-2.189.014.163.029.312-.005.541.037.2.168.462.153.804-.057.199-.074-.125-.129-.318.074.461-.032.686.047 1.367l.044-.246.03.373z" class="C"/><path d="M279.367 172.257l.017-.048c-.032-.061-.064-.21-.127-.498-.02.186-.015.325-.005.45l.117.04-.002.056z" class="C"/><path d="M279.486 172.198c.023.407-.015.586.06 1.021.066-.036.015-.344.038-.525-.098.114.01-.23-.092-.451l.047-.113-.074-.179.004.024h.002v.006l.005.054-.001.006.011.155-.011-.155-.004-.06-.002-.006-.085.235.102-.012zm.76 1.97l-.013-.092.013.092z" class="C"/><path d="M280.175 173.929l.023-.182.035.327c.004-.109.025-.298-.047-.488l-.002.055-.168-.689.159.977zm-.34-.762l-.072.209.083.347-.024-.21.013-.346zm-.619-1.21l-.028-.429.005.61.023-.181zm-.112.064l-.03-.371-.009.226.039.145zm-7.094 4.329l-.055.094.055-.094zm.219.078l.045-.178-.045.178zm4.112-4.199c-.036-.349-.076-.891-.072-.47l.011.411.061.059zm-2.043 2.35v.123l.066-.386-.066.263zm-.198 1.684l-.032-.269.032.269zm-3.444.136l-.162.383c.06.018.096-.19.162-.383zm7.287-4.124l-.096-.242c.053.232.108.583.096.242zm-4.906-.148l-.074.239.074-.239z" class="C"/><path d="M277.756 172.041l.021.095.07-.103c-.04-.173-.077-.28-.091.008zm-11.179 1.584l.022-.042-.022.042zm1.946-3.799l.047.007-.047-.007zm10.361 3.669l.005.198-.005-.198zm-1.238 1.112l-.001-.001.001.001zm1.034-2.537l-.042-.119.042.119z" class="C"/><path d="M278.659 171.879l.024.034-.024-.034zm-.064.035l.043.037-.012-.062-.031.025zm-9.366 2.285l.011-.036-.011.036zm6.398 2.285l.004-.019-.004-.016v.035z" class="C"/><path d="M275.516 176.786c.058-.511.081-.447.111-.338v-1.184l-.111 1.522zm-5.124-5.417l-.043.111.043-.111zm8.097 1.102l-.011-.19-.038.095.049.095zm-.098-.19v.022-.022zm-4.029 3.186l-.055-.104.055.104zm-1.757.838c-.038.089-.138.371-.102.103.122-.506.094-.258.102-.103zm-1.163.012l-.019.377c-.244.558-.263.338-.319.858.336-1.235.338-.039.655-1.281l-.013.276-.044.04c-.045.626.287-.88.363-.673l-.055.435.162-.286-.054.216.164-.065-.008.035.219-.609c-.002.19-.045.129-.07.288l.14-.287c-.034.334-.162.636-.208.575-.181 1.273.129-.298.144.466l-.108.145c-.088.723.025.477.032.942.019-.237.033-1.158.182-1.454.007.099.03.151.124-.094-.083.449-.017.348.046.334l-.11.594c.096-.159.144-.463.225-.725.058.074-.004.538-.049.932l.194-.847c.055.245.161.012.319-.329.034.218-.064.365-.066.54l.125-.469-.025.235.181-.749c.104-.658.025.987.21.246.002.175-.055.368-.076.602.184-.479.15-.346.323-.997l.042.405c-.013-.459.122-.983.23-1.414l.002-.509.132-.312c.002.1-.028.306-.068.557l.032-.143c.015.226-.036.572-.096.905l-.002-.375-.159 1.12.053-.159-.034.247.057-.221-.04.675.032-.266.11.433c.168-.665.336-1.652.508-1.918-.074.49-.066.806-.108 1.39 0-.62-.147.252-.226.119l-.012.441.199-.548c-.038.481.007.361.033.562.036-.947.159-.622.238-.908-.017.318-.051.642-.122.558.041.719.175-1.102.221-.492l-.042.119c.057-.28.149-.05.111.226l-.019.004c.118.124.376.024.42-.778l-.063 1.13.291-2.699-.115 2.727c.026.099.06.216.128-.028v-1.063l.123 1.071.068-1.198-.03 1.182.128-1.061c-.028.191-.013.902.011 1.204-.011-.21.102.02.134-.085l-.047-.249.253-1.44c-.013.219-.032 1.353.036 1.486l.204-3.043.024.312.074-.358-.234 3.222c.051.246.017.368.093.338.03.292-.038.443-.059.461l.181.186c-.017-.635.125-.639.106-1.17l-.178.662c-.015-.636.082-1.804.199-1.698.034.254.002 1.134.009 1.346.01-.22.104-.423.121-.268l-.043.342c.075.238.086-.846.185-.241.028.04.111.815.103.439a55.66 55.66 0 0 1-.139-3.513l.202 1.044c.066.567-.015 1.361.041 1.846l.019-.459.07.457c-.015-.644.13.049.008-.547.052-.186.069.132.141.1-.041-.417-.002-1.42.045-1.607l.04.473.319.337c.021.155.087.34.081.618l.046-.352c.103.553-.074.094.02.757-.019-.373.061-.522.095-.759-.053-.576-.123-.103-.159.136-.049-.799-.013-1.639.074-2.015.077-.206.073.511.083.398.183.125.045-1.403.226-.839.095.501.08 1.008.119 1.373-.06.199-.137-.314-.188-.288l.081.234-.091.159c.081.451.302.064.472.471.009-.171.036-.352 0-.554l-.038.075c-.071-.405.034-.574-.036-.758.034-.292.057-.751.155-.527l.066.576-.088-.161c.009-.26.188.771.158.01l-.09-.393c.032-.296.043-.916.13-.741-.083-.568-.012.066-.119-.596.115.827-.178-.02-.032.846-.119-.768-.115-.319-.236-.973.017.189.053.362-.012.272v.171l-.003-.014.003.022.002.008.055.286c.008.441-.085.435-.098.665-.043-.087-.004-.22-.04-.421l-.019.344c-.037-.423-.145-.697-.085-.952l-.073-.013c-.061-.233-.123-.324-.146-.143-.041-.088-.051.476-.045.143l-.092.272-.01-.108c-.113-.043-.181.719-.355-.037l-.13.127-.03-.368c-.042.133-.159-.359-.159.024-.096-.985-.232-.204-.321-.375l.015.48c-.056-.025-.105.112-.169.306l.017.425c-.051.35-.167-.298-.259-.25l.047-.024c-.132-.953-.23.701-.343.004l-.063-.004.006-.022-.01-.006-.037-.224.032.226-.08.169-.013-.455-.007.012c-.029-.166-.023.217-.008.559l-.039.276c-.021-.737-.08.246-.108-.539-.023.382-.149.286-.179 1.091l.009-.163c-.032-.091-.064-.183-.1.044l-.002-.58-.091.776a3.83 3.83 0 0 1 .006-1.003c-.123.681-.09.254-.204.93l.017-.374c-.032.012-.104.513-.111.203-.042-.711-.357-.119-.495-.791-.041 1.103-.047-.498-.115.352.008-.26-.006-.409.04-.634-.11.247-.097-.425-.221.286.013-.26.053-.377.056-.534l-.043.07.057-.33c-.091.036-.176.836-.255 1.585-.015-.36-.042-.312-.129.175.008-.247.008-.507.074-.588-.03-.04-.158-.384-.23.216l-.059.018-.151-.053.008.101c-.123.719-.083.153-.153.228l.011-.071c-.062-.545-.096.238-.141-.378l-.061.449c-.16.962-.032-.588-.164-.23l-.015.258c-.1.324.102-1.329.089-1.456l.06-.191c.002-.587-.115.582-.219.702.045-.318.164-.797.126-.866.027-.261-.341.993-.292.373-.036.246-.068.491-.142.663-.077.072.047-.947-.168-.198l.032-.191c-.085.185-.209.29-.334.693.332-1.527-.455.662-.098-.735l-.147.038.041-.141c-.054-.113-.173.207-.3.53l.081-.298c-.037-.317-.058-.26-.375.392l.13-.451c-.115.252.058-.755-.225-.28l.081-.195c-.319.469.157-1.323-.483.243l-.236.353c.064.173-.285.679-.34.961l.155-.584-.022.082c.345-.814-.025-.352.205-.908-.228-.061-.226-.6-.381-.731l-.281.626-.049-.072.251-.441c.151-.361-.223.251-.293.38.036-.294.398-.691.378-.721l-.059.026-.028.075c-.157.232-.3.497-.338.433l.181-.415-.011-.03-.046-.097-.23.492c-.162.213-.06-.071-.319.487.4-.856-.136-.483-.017-.759-.253.302-.302.261-.334.179l-.379.521c.7-1.031.2-.523.666-1.298-.302.519-.215.02-.646.753.017-.115.266-.383.406-.645-.379.32-.013-.413-.211-.372-.104.127-.24.338-.414.507l.453-.684c-.069.046-.617.712-.294.241l-.255.302c.329-.777-.893.026-.004-1.218-.207.24-.245.244-.272.229l-.453.423.376-.503c-.47.383-.109-.071-.561.296l.106-.038c-.559.4-1.104 1.057-1.769 1.635.629-.461-.721.948.187.296l-.361.328c.299-.233.382-.258.31-.084l-.072.06c.212.093.006.431.017.796l.284-.335-.142.288c.489-.449-.081-.133.453-.632-.551.705.244.256-.379 1.061l.366-.344-.161.227.24-.257c.002.08-.194.362-.34.545l-.094.029c-.149.3.225.05.175.149l.046-.186c.326-.054.326.421.821.089l.108-.179c.341-.22-.031.266.209.225l-.034.037.263-.168c-.168.18-.189.445-.384.639.367-.25.249-.222.748-.818l-.161.31c.195-.247.284-.388.395-.417-.208.216-.227.48-.493.774-.23.761.606-.52.129.489.538-.795.13-.544.271-.699.125-.29.41-.588.404-.479l-.379 1.186-.055.04c-.068.244.246-.237.121.149.298-.499.062.071.406-.584l-.191.089c.157-.133.604-.876.516-.447l-.263.375c-.068.213.123-.097.055.122-.336.661-.21.069-.538.532-.106.3.379-.403-.019.294.508-.884.074.189.502-.465l-.196.397.183-.206-.294.496c.281-.405-.042.467.147.259-.157-.062.189-.505.264-.829.421-.457-.383 1.109-.083 1.017l.13-.464a1.84 1.84 0 0 1-.083.512c.174-.018.159-.433.325-.656-.166.523.153-.17.274-.305l-.172.419c.043.335.396-.856.396-.473l-.29.558.132-.119-.204.473c.221-.322.207-.221.234-.05.096-.306.302-.765.372-.751-.049.27-.176.391-.059.374-.119.256-.268.58-.164.17l-.179.392c-.057.312.105.121.143.131l-.002-.113.355-.539-.162.413.191-.246c-.133.344-.255.705-.376.844l.275-.333-.132.568c.014.234.418-.606.431-.3l.096-.173c.07.111.028.576.287.127l-.117.66c.13-.116.142-.833.357-1.023.16-.173-.114.556-.125.744.144-.305.406-.937.366-.389l-.107.05z" class="C"/><path d="M274.122 176.069l.017-.246-.017.246zm-3.436.259l-.002-.006-.028.076.03-.07zm6.685.096l-.047-.234.047.234zm1.49-4.764l-.042.123.059.144-.017-.267zm.731 2.762l.018-.065-.022-.21.004.275zm-.548-1.257c.038.381.06.248.092.173l-.005.002c-.038-.535-.062-.355-.087-.175z" class="C"/><path d="M279.144 173.324l.036-.012c-.017-.215-.019-.044-.036.012zm-.572-1.115l-.006-.335c-.018-.489-.07.6.006.335zm.615 2.213l-.056-.473.013.384.043.089zm-.335-.318l.073.125.002-.162-.075.037z" class="C"/><path d="M278.927 174.067l.043-.082-.043.082zm.189.504l-.029-.097-.047-.03.076.127zm-.935-.502l-.058.141.049.192.009-.333zm.297 1.277l-.055-.356.04.586.015-.23zm-.193.156l.017.43-.017-.43zm-1.083-.685l.017-.008-.038-.961.021.969zm-.914 2.326c.089.231.021-.596.1-.308.019-.228-.066-.234-.045-.431-.051.241-.08.106-.055.739z" class="C"/><path d="M276.343 176.405l.026-.147-.026.147zm-7.535-7.026l.124-.157-.222.222.098-.065zm-.575.389l.449-.391-.429.327-.02.064zm4.317 7.787l.03-.145-.019-.202-.011.347zm-.749-.64l.011.016.098-.546-.109.53zm-.884.485l.115-.046c-.092.077.062-.618-.115.046zm-38.059 31.584l.061.426-.061-.426zm.214-.96l.022.159-.015-.399-.007.24zm.351-.064c-.153-.657-.108.133-.213-.089l-.038-.151.07.54.181-.3zm.441 1.399c-.058-.254 0-.228-.058-.071l.021.063.037.008z" class="C"/><path d="M233.827 209.352c-.034.026.062.211 0 0h0zm.14-.182l-.006.24.089.292c.026-.137-.012-.286-.083-.532zm-.04-.492l-.01.103c.017.061.029.083.01-.103z" class="C"/><path d="M233.902 208.995l.015-.214c-.024-.107-.064-.321-.009.078-.03-.197-.008-.006-.006.136zm-.047-.093c-.053-.141-.102-.224-.096-.462l.096.462zm-.538-1.631l-.072-.188.008.23c-.004-.113.103.165.064-.042zm1.004 2.185l-.115-.552-.007.167c.034.095.085.177.122.385z" class="C"/><path d="M234.206 208.904l.01-.253-.01.253zm-.402-.965l.004.526.011-.536-.015.01zm.719 1.497l.027.334-.032-.504.005.17zm.121-.081c.025.276.108.453.114.626.026-.056.018-.294.011-.509-.01.121-.045.098-.125-.117z" class="C"/><path d="M234.763 209.157l.006.315-.006-.315zm-.445-.455l.109.397-.087-.393-.022-.004z" class="C"/><path d="M234.336 208.694l.004.012.047.013-.051-.025zm-.33-.423c-.007-.229.017-.479-.106-.807.025.278.095.463.106.807z" class="C"/><path d="M234.2 208.21l-.071-.08.058.369.013-.289z" class="C"/><path d="M234.206 208.078l-.005.131.026.03-.021-.161zm.398.725l.046-.23-.117-.101.071.331zm-.135-.089l.002-.022-.002.022zm.469-.193l-.014-.07.009.068.005.002z" class="C"/><path d="M234.514 208.398l-.026.15.045-.077-.019-.073zm.298.558l-.077-.21.077.21z" class="C"/><path d="M234.497 208.799l-.009-.25-.017.143.026.107zm.119-2.852c.055.369.045.723-.076.337-.009.286.227 1.496.384 2.165-.025-.161-.049-.31-.031-.538-.051-.199-.198-.451-.205-.793.043-.202.081.122.149.31-.106-.455-.015-.687-.138-1.362l-.028.25-.055-.369z" class="C"/><path d="M234.814 208.431l-.017.05c.038.06.079.205.161.487a2.43 2.43 0 0 0-.025-.449l-.119-.032v-.056z" class="C"/><path d="M234.697 208.501c-.049-.405-.023-.586-.128-1.015-.063.04.009.343-.002.526.091-.121.007.231.123.441l-.04.119.085.173-.006-.024h-.002v-.006l-.009-.051v-.008l-.019-.153.019.153.009.059.002.006.068-.24-.1.02zm-.889-1.909l.019.091-.019-.091z" class="C"/><path d="M233.895 206.824l-.01.183-.058-.324c.004.11-.004.298.079.485l-.002-.058.214.676-.223-.962zm.39.733l.057-.212-.106-.34.038.209.011.343zm.697 1.162l.057.427-.046-.609-.011.182zm.108-.07l.052.368-.005-.228-.047-.14zm6.788-4.839l.049-.101-.049.101zm-.224-.064l-.032.181.032-.181zm-3.821 4.493c.06.343.134.881.102.46l-.038-.407-.064-.053zm1.88-2.494l-.008-.125-.039.39.047-.265zm.087-1.697l.049.266-.049-.266zm3.424-.388l.138-.394c-.06-.014-.085.196-.138.394zm-6.992 4.651l.111.233c-.07-.227-.147-.572-.111-.233zm4.903-.215l.058-.242-.058.242z" class="C"/><path d="M236.434 208.531l-.029-.093-.062.107c.049.169.094.272.091-.014zm11.045-2.405l-.018.045.018-.045zm-1.69 3.932l-.044-.004.044.004zm-10.577-2.896l-.02-.198.02.198zm1.16-1.201l.001.001-.001-.001zm-.861 2.608l.049.115-.049-.115z" class="C"/><path d="M235.544 208.759l-.026-.035.026.035zm.061-.041l-.045-.033.015.06.03-.027zm9.192-2.969l-.01.037.01-.037zm-6.534-1.808l-.004.02.006.015-.002-.035z" class="C"/><path d="M238.354 203.632c-.027.513-.053.449-.089.344l.077 1.18.012-1.524zm5.471 5.026l.036-.115-.036.115zm-8.15-.504l.023.188.032-.097-.055-.091zm.109.182l-.001-.022.001.022zm3.808-3.474l.061.1-.061-.1zm1.697-.965c.032-.093.112-.381.095-.113-.091.516-.078.266-.095.113zm1.158-.097l-.006-.38c.206-.576.24-.355.262-.878-.255 1.258-.336.064-.57 1.325l-.004-.276.04-.044c.006-.627-.228.9-.315.7l.024-.437-.143.296.041-.219-.16.078.006-.038-.178.623c-.009-.188.036-.131.049-.29l-.119.294c.012-.335.119-.645.168-.588.097-1.283-.107.308-.173-.454l.096-.151c.041-.731-.053-.477-.093-.94-.001.239.044 1.16-.085 1.466-.013-.099-.041-.149-.117.101.053-.455-.007-.347-.068-.329l.068-.6c-.083.165-.109.471-.175.739-.062-.068-.032-.537-.01-.934l-.139.858c-.072-.238-.161.002-.297.354-.049-.215.04-.37.029-.545l-.093.477.01-.234c-.061.183-.048.604-.133.761-.058.663-.088-.984-.224-.233-.012-.173.03-.369.038-.604-.153.491-.129.356-.257 1.019l-.07-.403c.045.457-.057.991-.136 1.43l.032.505-.109.321a3.76 3.76 0 0 1 .03-.56l-.023.145c-.028-.224-.002-.574.036-.911l.026.375.085-1.128-.043.163.017-.251-.04.225-.005-.675-.015.268-.138-.425c-.123.677-.227 1.674-.38 1.95.04-.494.012-.808.015-1.394.042.622.131-.26.218-.133l-.017-.443-.163.562c.006-.481-.03-.36-.072-.558.029.947-.115.631-.175.923-.006-.317.007-.643.085-.568-.091-.713-.102 1.115-.187.509l.034-.121c-.04.284-.145.059-.127-.217l.019-.006c-.126-.115-.377.004-.368.807l-.013-1.133-.11 2.714-.066-2.727c-.032-.098-.075-.213-.126.035l.07 1.061-.195-1.059.014 1.2-.05-1.182-.056 1.071c.017-.195-.047-.902-.091-1.202.025.209-.104-.012-.13.095l.066.245-.159 1.454c0-.219-.056-1.353-.134-1.48v3.053l-.045-.31-.049.359.019-3.229c-.068-.241-.042-.366-.115-.33-.049-.29.007-.445.028-.463l-.194-.173c.06.632-.082.646-.027 1.174l.132-.673c.057.632.04 1.805-.083 1.708-.053-.25-.077-1.13-.1-1.341.004.219-.077.427-.102.275l.021-.344c-.093-.23-.032.85-.17.254-.032-.038-.166-.804-.134-.429a54.47 54.47 0 0 1 .374 3.494l-.27-1.029c-.104-.558-.078-1.357-.166-1.837l.011.459-.098-.451c.058.641-.134-.038.028.546-.039.191-.079-.125-.147-.087.068.411.096 1.416.06 1.606l-.069-.47-.342-.312c-.03-.153-.11-.334-.121-.612l-.023.354c-.139-.543.068-.096-.069-.753.043.371-.027.526-.046.765.093.57.129.093.149-.145.102.792.123 1.63.061 2.014-.063.21-.108-.507-.108-.392-.192-.111.047 1.403-.172.854-.128-.494-.145-.999-.211-1.36.049-.203.16.3.209.272l-.096-.228.079-.163c-.111-.445-.303-.042-.5-.437 0 .172-.013.355.036.554l.03-.078c.1.398.006.574.087.753-.011.294-.006.753-.119.537l-.102-.571.098.155c.008.261-.239-.754-.16 0l.117.39c-.011.296.017.915-.079.747.121.56.005-.068.158.585-.172-.816.178.006-.024-.848.17.759.138.31.3.956-.03-.189-.077-.358-.006-.274l-.013-.169.006.014-.008-.022-.002-.008-.071-.282c-.038-.439.054-.441.052-.671.048.083.019.22.068.417l-.003-.344c.066.419.19.685.147.943l.073.008c.076.229.146.314.155.131.047.086.019-.478.036-.145l.076-.278.015.106c.115.035.134-.729.357.014l.12-.137.057.361c.032-.133.181.35.157-.034.16.978.243.187.343.352l-.045-.479c.058.022.096-.121.147-.318l-.045-.423c.028-.351.185.284.276.231l-.046.028c.195.941.183-.716.342-.03h.062l-.004.022.012.006.051.222-.046-.226.066-.173.044.453.006-.012c.039.165.009-.219-.029-.56l.021-.277c.07.733.064-.252.143.529-.003-.384.131-.296.106-1.101l.002.163c.038.09.076.177.096-.051l.04.578.04-.781a3.78 3.78 0 0 1 .062 1.003c.077-.691.072-.262.14-.945l.007.375c.032-.016.07-.52.1-.211.089.708.363.092.546.753-.032-1.104.081.493.092-.359.008.26.031.407 0 .633.095-.252.127.418.202-.301.006.262-.026.381-.02.536l.037-.07-.034.332c.089-.042.121-.846.15-1.601.039.36.062.31.117-.183.009.247.026.507-.036.592.034.038.185.372.217-.232l.056-.022.155.042-.015-.1c.074-.727.072-.159.138-.24l-.008.074c.099.538.082-.247.167.365l.03-.453c.096-.971.071.584.181.219l-.004-.261c.078-.327-.013 1.335.008 1.46l-.046.195c.038.586.076-.588.17-.717-.022.322-.109.808-.066.874-.011.26.274-1.015.266-.393.019-.249.034-.495.097-.674.073-.077.017.95.181.187l-.019.195c.072-.193.191-.308.287-.719-.228 1.549.41-.692.147.727l.144-.05-.032.143c.062.111.16-.217.264-.548l-.062.302c.06.315.077.256.349-.417l-.098.456c.096-.256-.008.759.241.267l-.066.198c.285-.49-.071 1.331.465-.278l.211-.369c-.077-.167.24-.698.276-.984l-.115.594.017-.085c-.291.838.049.349-.146.922.232.043.266.582.429.701l.24-.644.052.068-.219.458c-.128.37.204-.266.267-.401-.017.298-.353.719-.331.749l.057-.032.024-.077c.142-.242.265-.517.308-.457l-.153.427.012.03.054.093.195-.508c.149-.223.066.067.287-.509-.342.884.166.471.068.757.232-.32.283-.282.322-.205l.342-.546c-.629 1.081-.164.537-.578 1.343.265-.538.212-.036.593-.799-.009.116-.239.404-.36.676.356-.35.039.409.234.351.094-.131.217-.353.379-.534l-.408.715c.068-.05.571-.755.28-.26l.232-.322c-.276.801.891-.091.087 1.216.191-.256.228-.262.257-.249l.423-.454-.342.53c.443-.419.115.061.54-.338l-.104.046c.532-.441 1.033-1.138 1.656-1.762-.595.507.657-.997-.206-.282l.338-.353c-.282.254-.363.285-.304.105l.07-.064c-.219-.077-.034-.429-.072-.792l-.261.355.123-.298c-.457.485.091.125-.41.664.503-.745-.262-.241.308-1.087l-.342.37.146-.239-.223.276c-.008-.079.17-.377.304-.568l.091-.037c.13-.31-.227-.034-.185-.135l-.033.188c-.324.078-.353-.395-.826-.03l-.095.189c-.326.244.013-.268-.223-.208l.029-.04-.248.185c.155-.191.159-.457.338-.666-.349.276-.232.24-.691.872l.14-.32c-.177.261-.257.406-.366.445.194-.23.194-.498.44-.81.181-.777-.57.564-.161-.479-.483.832-.092.554-.222.719-.106.298-.372.616-.374.507l.3-1.21.053-.044c.051-.25-.231.253-.131-.141-.264.521-.066-.065-.368.614l.185-.105c-.147.147-.543.919-.483.484l.238-.393c.051-.218-.117.105-.064-.117.292-.685.204-.085.502-.572.085-.306-.351.431-.002-.294-.447.92-.085-.183-.47.502l.17-.411-.168.219.26-.517c-.254.425.01-.468-.164-.246.161.05-.155.517-.209.846-.389.485.309-1.134.015-1.021l-.097.471c-.009-.101-.003-.284.048-.516-.174.031-.131.443-.282.677.132-.532-.139.183-.253.326l.146-.431c-.066-.332-.34.886-.367.502l.253-.578-.124.129.174-.486c-.199.335-.191.234-.229.067-.075.31-.253.785-.323.775.03-.274.149-.405.034-.378.1-.264.229-.597.153-.18l.151-.405c.036-.316-.113-.116-.151-.122l.01.116-.318.562.133-.423-.172.258c.107-.354.207-.721.317-.87l-.251.353.094-.576c-.03-.234-.377.636-.411.332l-.085.177c-.076-.105-.066-.57-.293-.105l.072-.664c-.123.123-.087.838-.289 1.045-.147.183.076-.562.076-.751-.123.314-.342.963-.338.413l.102-.055z" class="C"/><path d="M239.789 204.243l.001.248-.001-.248zm3.411-.509l.002.006.022-.078-.024.072zm-6.674.394l.061.229-.061-.229zm-1.168 4.863l.034-.126-.07-.139.036.265zm-.914-2.702l-.015.065.036.208-.021-.273zm.63 1.213c-.064-.376-.077-.242-.103-.166h.005c.074.531.085.348.098.166z" class="C"/><path d="M234.963 207.351l-.034.016c.03.212.021.042.034-.016zm.644 1.07l.028.334c.053.487.031-.604-.028-.334zm-.761-2.16l.089.464-.04-.38-.049-.084zm.357.291l-.081-.119.009.161.072-.042z" class="C"/><path d="M235.131 206.596l-.037.086.037-.086zm-.222-.49l.033.093.049.028-.082-.121zm.966.432l.047-.144-.062-.191.015.335zm-.383-1.255l.081.354-.079-.582-.002.228zm.183-.167l-.044-.428.044.428zm1.127.602l-.017.008.102.96-.085-.968zm.757-2.388c-.106-.222.019.596-.079.316-.006.229.081.229.073.425.036-.244.072-.111.006-.741z" class="C"/><path d="M237.553 204.072l-.017.148.017-.148zm7.982 6.455l-.113.165.207-.24-.094.075zm.55-.43l-.422.422.405-.357.017-.065zm-4.824-7.451l-.021.147.03.2-.009-.347zm.789.583l-.011-.016-.064.552.075-.536zm.848-.549l-.11.055c.087-.085-.022.623.11-.055z" class="C"/><path d="M202.806 170.021l.384.158-.384-.158zm-.723-.56l.143.055-.345-.162.202.107z" class="B"/><path d="M202.164 169.22c-.619-.181.072.121-.159.089l-.143-.039.487.188c-.06-.081-.368-.258-.185-.238zm1.368.296c-.241-.066-.195-.096-.084.008l.062.014.022-.022z" class="B"/><path d="M203.51 169.538c.01.033.206.047 0 0h0z" class="B"/><path d="M203.41 169.365l.204.105.285.058c-.108-.078-.251-.111-.489-.163zm-.44-.174l.084.045-.084-.045z" class="B"/><path d="M203.236 169.337l-.181-.101c-.1-.024-.298-.087.064.042-.181-.062-.008.002.117.059z" class="B"/><path d="M203.135 169.329c-.137-.022-.229-.024-.431-.125l.431.125zm-1.6-.331l-.188-.035.199.088c-.098-.043.181.008-.011-.053zm2.256.23l-.521-.137.144.071c.092.014.183.012.377.066z" class="B"/><path d="M203.27 169.091l-.217-.106.217.106zm-.981-.119l.455.21-.459-.224.004.014zm1.563.101l.298.112-.451-.173.153.061zm-.027-.121c.248.089.435.095.586.157-.036-.042-.248-.127-.438-.203.102.054.068.072-.148.046z" class="B"/><path d="M203.697 168.792l.275.114-.275-.114zm-.561.143l.385.076-.373-.09-.012.014z" class="B"/><path d="M203.134 168.918l.013.002.028-.027-.041.025zm0 .02l.001-.002-.001.002zm-.485.036c-.202-.086-.41-.199-.738-.248.249.091.436.121.738.248z" class="B"/><path d="M202.666 168.823l-.096.016.343.103-.247-.119z" class="B"/><path d="M202.553 168.767l.113.056.036-.008-.149-.048zm.775.004l-.184-.117-.13.044.314.073zm-.126.062l-.02-.01.02.01zm-.006-.401l-.067-.013.065.017.002-.004z" class="B"/><path d="M202.942 168.683l.124.076-.053-.061-.071-.015zm.596-.001l-.211-.024.211.024zm-.253.165l.017.006-.017-.006z" class="B"/><path d="M203.285 168.847l-.219-.087.115.063.104.024zm-2.473-1.083c.346.089.657.213.278.153.251.103 1.395.375 2.039.5-.151-.039-.289-.075-.486-.168-.192-.032-.462-.022-.768-.137-.168-.096.132-.01.321.01-.436-.088-.613-.221-1.251-.366l.213.097-.346-.089z" class="B"/><path d="M203.076 168.489l.04.028c.064-.004.205.018.483.062l-.404-.143-.068.073-.051-.02z" class="B"/><path d="M203.098 168.596c-.371-.115-.522-.199-.934-.282l.461.191c-.072-.104.204.079.43.079l.089.07.183.004-.025-.004h-.003l-.051-.012-.006-.004-.142-.042.142.042.057.016h.003l-.187-.137-.017.079zm-1.978-.148l.088.023-.088-.023z" class="B"/><path d="M201.354 168.483l.155.077-.3-.089c.096.04.257.115.447.137l-.049-.02.661.125-.914-.23zm.774.038l-.166-.113-.334-.06.196.054.304.119zm1.259-.05l.397.112-.555-.185.158.073zm-.028-.1l.345.087-.204-.075-.141-.012zm-4.038-4.784l-.102-.006.102.006zm-.017.111l.177-.011-.177.011zm4.363 2.433c.332.002.849.016.449-.018l-.389-.027-.06.045zm-2.262-1.543l-.119.006.373.02-.254-.026zm-1.614-.018l.251-.029-.251.029zm-.943-1.515l-.394.039c.004.024.202-.013.394-.039zm4.548 4.362l.243-.022c-.224-.008-.559-.045-.243.022zm.055-4.128l-.237.002.237-.002z" class="B"/><path d="M203.651 167.32l-.092-.002.081.076c.168.006.275-.002.011-.074zm-4.927-6.381l.043-.021-.043.021zm3.48-2.072l.039.018-.039-.018zm-.129 8.925l-.183-.05.183.05zm-.793-1.055l.001-.001-.001.001zm2.324 1.334l-.041.007.041-.007zm-.017-.058l-.045.021.06.01-.015-.031zm-3.56-6.212l.035-.011-.035.011zm-.368 3.556l.019.003.014-.002-.033-.001z" class="B"/><path d="M199.374 165.287c.483.052.423.062.321.072l1.123.055-1.444-.127z" class="B"/><path d="M202.84 160.947l-.108.04.108-.04zm.262 6.837l.178.042-.079-.054-.099.012zm.197-.026l-.021-.006c.172.004.104.002.021.006zm-2.728-3.084l.092-.036-.092.036zm-1.063-.827c-.091-.004-.374-.006-.119-.031.498-.02.26.004.119.031zm-.321-.506l-.347.071c-.578.022-.382-.025-.869.058 1.216-.127.134.111 1.35-.004l-.255.046-.047-.008c-.58.097.882-.05.714.026l-.412.057.304.022-.211.014.101.062-.034.002h.616c-.174.031-.13 0-.281.015l.298.018c-.315.04-.625.028-.582-.002-1.213.123.312.012-.398.137l-.155-.023c-.691.067-.438.077-.868.141l1.387-.126c-.09.02-.134.036.114.046-.434.026-.327.04-.302.068l-.574.027c.168.02.459.002.719.008-.057.036-.5.064-.876.088l.825-.012c-.219.055.017.073.364.117-.198.038-.353.006-.517.024l.461.012-.223.012c.179.018.574-.016.733.02.634-.004-.924.097-.206.129l-.574.008.978.097-.378.05c.433-.036.944.004 1.363.047l.478-.033.309.071a6.15 6.15 0 0 1-.532-.012l.138.012c-.213.024-.546.01-.867-.008l.355-.024-1.074-.026.157.02-.238-.004.215.018-.644.012.257.004-.402.074 1.86.234-1.326-.04c.591-.01-.249-.075-.13-.117l-.419.004.536.093c-.457-.014-.342.008-.532.024.902.008.598.078.872.121-.302-.008-.61-.025-.536-.063-.68.02 1.055.093.477.119l-.113-.024c.266.034.051.084-.211.06l-.006-.012c-.11.061-.015.2.748.258l-1.075-.077 2.564.292-2.586-.203c-.095.01-.204.02.026.068l1.008.061-1.019.002 1.133.117-1.12-.095 1.002.147c-.179-.034-.855-.076-1.14-.085.198.009-.024.049.076.075l.236-.006 1.35.278c-.206-.03-1.279-.149-1.407-.127l2.862.461-.296-.018.332.095-3.028-.516c-.234.002-.348-.03-.323.012-.278-.018-.417-.066-.432-.08l-.187.066c.602.063.598.137 1.099.193l-.614-.169c.598.061 1.703.25 1.588.312-.242-.012-1.069-.146-1.269-.165.206.031.387.109.24.095l-.319-.068c-.231.006.789.161.211.13-.041.011-.78-.062-.425-.01l3.317.441c-.047 0-.666.004-1.006-.026-.54-.052-1.272-.225-1.737-.268l.429.083-.436-.036c.606.096-.061.064.511.094l-.109.063c.394.046 1.329.245 1.497.314l-.448-.062-.364.13c-.149-.018-.33-.018-.589-.078l.319.099c-.528-.057-.072-.061-.706-.145.351.066.476.141.689.211.544.093.117-.05-.098-.119.75.133 1.524.33 1.854.479.175.101-.487-.066-.383-.034-.149.091 1.285.363.728.359-.481-.059-.944-.196-1.287-.258-.172-.085.315-.014.302-.054l-.232-.004-.129-.093c-.434-.056-.113.175-.524.173.154.05.313.113.505.143l-.06-.042c.389.058.517.169.704.173.259.097.67.24.442.246l-.54-.113.168-.016c.234.08-.748-.087-.047.103l.381.05c.263.103.821.292.64.304.536.103-.058-.026.572.085-.781-.153.061-.129-.762-.268.728.131.319.006.947.096-.179-.04-.343-.06-.247-.086l-.155-.043h.015l-.022-.004h-.008l-.276-.038c-.402-.115-.375-.179-.583-.248.091-.006.204.055.396.083l-.309-.103c.396.083.67.071.891.182l.028-.051c.227.012.323-.016.163-.08.09-.01-.429-.157-.121-.071l-.232-.137.1.02c.066-.082-.629-.3.107-.271l-.09-.127.345.048c-.113-.058.363-.062.006-.135.934.103.226-.161.4-.203l-.451-.067c.03-.044-.093-.107-.266-.187l-.401-.05c-.322-.091.301-.087.268-.17l.017.041c.918.014-.64-.268.029-.276l.007-.051.021.008.006-.008.217-.008-.217.002-.155-.08.432.032-.011-.008c.16-.008-.202-.038-.529-.056l-.256-.055c.698.045-.231-.082.515-.042-.361-.048-.262-.141-1.025-.212l.153.015c.089-.017.179-.035-.036-.075l.551.03-.734-.107c.336-.01.53-.014.953.049-.649-.125-.243-.085-.885-.191l.355.024c-.012-.026-.487-.091-.193-.089.68-.022.106-.264.74-.391-1.048.002.472-.056-.342-.08.25-.004.389-.022.605.006-.244-.079.394-.109-.291-.169l.51.014-.067-.034.316.028c-.042-.081-.806-.093-1.524-.101.34-.036.293-.056-.179-.082.236-.013.481-.035.564.01.036-.023.344-.162-.23-.158l-.024-.042.032-.119-.093.016c-.695-.006-.157-.042-.242-.086h.07c.497-.117-.239-.036.327-.157l-.431.022c-.928.026.542-.111.185-.157l-.245.034c-.319-.016 1.257-.153 1.371-.197l.188.014c.546-.123-.562.018-.698-.042.304-.029.776-.027.831-.077.245-.042-.993-.07-.414-.171-.234.032-.466.062-.645.044-.087-.038.875-.197.132-.179l.183-.024c-.193-.02-.325-.089-.727-.071 1.48-.177-.74-.143.629-.284l-.083-.102.139-.013c.083-.082-.249-.066-.577-.05l.29-.04c.263-.133.202-.141-.487-.131l.442-.069c-.261.013.672-.249.145-.273l.2-.019c-.53-.026 1.182-.481-.428-.249l-.408-.002c-.107.113-.696.111-.957.195l.559-.149-.079.022c.836-.135.275-.167.843-.27-.071-.177.359-.455.352-.644l-.639.167.023-.068.483-.089c.359-.105-.322-.002-.46.03.241-.145.755-.141.764-.171l-.054-.026-.074.026c-.268.034-.548.097-.527.038l.414-.131.013-.026.038-.092-.499.157c-.257.028.012-.077-.553.102.874-.274.255-.362.517-.463-.379.054-.383.008-.355-.062l-.606.147c1.169-.316.482-.232 1.307-.52-.544.202-.174-.099-.944.195.083-.07.432-.136.697-.249-.471.04.23-.31.039-.387-.151.05-.375.147-.608.195l.735-.316c-.081 0-.876.272-.367.051l-.366.126c.659-.503-.742-.237.527-1.007-.274.148-.31.137-.329.117-.064.043-.366.147-.564.23l.521-.324c-.561.211-.076-.089-.61.123l.108-.011c-.638.224-1.369.635-2.173.959.727-.25-1.02.526.023.175-.161.081-.265.093-.448.175.351-.124.431-.132.287-.036l-.087.028c.119.065-.206.238-.402.425l.4-.155-.27.141c.622-.195.015-.078.697-.3-.812.33.04.175-.889.524l.47-.137-.249.097.328-.103c-.045.042-.36.163-.574.237l-.087.006c-.288.129.129.045.034.089l.148-.086c.266.016-.032.237.511.171l.191-.065c.378-.032-.196.123-.009.155l-.048.01c.197-.04.3-.046.285-.016-.234.043-.432.165-.691.208.406-.029.314-.047 1.05-.192l-.321.101c.298-.062.453-.103.548-.082-.287.04-.486.159-.861.221-.686.27.744-.06-.283.246.906-.186.481-.202.679-.228.289-.098.678-.139.593-.088l-1.106.402h-.064c-.223.081.322-.024-.044.095.549-.109-.023.048.674-.109l-.175-.026c.188-.01 1.01-.161.63-.006l-.436.062c-.202.063.143.004-.062.069-.701.153-.17-.044-.708.042-.291.087.519-.046-.238.109.963-.193-.11.091.634-.026l-.417.09.26-.022-.549.095c.47-.063-.389.155-.132.135-.025-.067.502-.123.802-.218.578-.024-1.085.284-.868.337-.062 0 .242-.101.44-.119-.083.038-.24.096-.459.149.1.048.43-.095.695-.117-.508.123.213-.008.383-.008l-.429.081c-.26.13.895-.145.576-.011l-.598.079.16.008-.489.081c.368-.027.278.004.148.064.298-.06.777-.129.796-.095-.249.067-.409.055-.34.095-.27.034-.607.079-.217-.01l-.409.058c-.289.073-.057.071-.049.089l.098-.036.602-.028-.417.062.287.002-.878.103.394.004-.541.109c-.201.062.689-.015.424.072l.183-.006c-.071.058-.496.149-.009.141l-.625.107c.149.024.785-.137 1.033-.095.207.028-.534.081-.706.119.317-.014.966-.04.459.064l-.076-.034z" class="B"/><path d="M199.978 164.572l.233-.004-.233.004zm-1.056-1.523l.006-.004-.079.01.073-.006zm.693 3.22l.223.011-.223-.011zm4.136 2.019l-.1-.066-.147.005.247.061zm-2.686-.31l.055.029.194.049-.249-.078zm1.272.015c-.356-.083-.241-.03-.181.012l.002-.004c.494.129.335.059.179-.008z" class="B"/><path d="M202.168 168.014l.004.026c.198.054.043.002-.004-.026zm1.157-.099l.308.086c.451.113-.531-.213-.308-.086zm-2.165-.182l.44.094-.35-.096-.09.002zm.366-.123l-.13.012.147.045-.017-.057z" class="B"/><path d="M201.543 167.667l.065.05-.065-.05zm-.502-.02l.094.01.038-.019-.132.009zm.65-.459l-.118-.069-.189-.01.307.079zm-1.234-.109l.338.049-.547-.11.209.061zm-.108-.143l-.401-.083.401.083zm.792-.515l.006.012.908.127-.914-.139zm-2.122-.782c-.223.022.562.065.285.077.215.032.226-.01.411.02-.224-.049-.096-.051-.696-.097z" class="B"/><path d="M199.715 165.736l.138.028-.138-.028zm2.898-7.193l.164-.113-.277.145.113-.032zm-.657.195l.54-.236-.498.185-.042.051zm-3.62 5.254l.139-.006.186-.031-.325.037zm.413-.389l-.013.008.526-.059-.513.051zm-.697-.226l.076.027c-.095-.013.576-.108-.076-.027z" class="B"/><path d="M373.824 312.644c-.704 1.543-.979 3.681.306 4.727.259.211.623.356.903.179.209-.133.298-.399.358-.649a7.5 7.5 0 0 0-.009-3.54c-.093-.373-.236-.769-.548-.973s-.825-.078-.889.302" class="G"/><path d="M335.862 315.518l.155 25.884 19.109 7.21 19.018-7.697-.153-25.649-38.129.252z" class="F"/><path d="M373.991 315.266c.045 7.474-8.456 13.588-18.984 13.658s-19.1-5.933-19.145-13.406 8.456-13.588 18.984-13.657 19.099 5.933 19.145 13.405z" class="F"/><path d="M374.136 339.682c.043 7.472-8.454 13.588-18.982 13.657s-19.101-5.933-19.145-13.405 8.454-13.588 18.982-13.658 19.1 5.931 19.145 13.406z" class="F"/><path d="M370.813 315.288c.036 6.008-7.166 10.93-16.086 10.99s-16.182-4.767-16.218-10.778 7.166-10.93 16.088-10.99 16.182 4.765 16.216 10.778z" fill="#467ac6"/><path d="M338.518 315.079c.293-5.818 7.367-10.513 16.079-10.569-8.712.058-15.786 4.751-16.079 10.569zm16.119-10.569h.002-.002zm.037 0h.085-.085zm.102 0z" fill="#42347c"/><path d="M338.647 316.823c-.081-.435-.136-.874-.138-1.323v-.035l.009-.386c.293-5.818 7.367-10.511 16.079-10.569h.04.002.035.085c8.856.006 16.02 4.807 16.054 10.778.002.449-.047.888-.122 1.325-.997-5.345-7.735-9.455-15.917-9.455h-.162c-8.255.054-15.025 4.274-15.965 9.665z" fill="#4269ba"/><path d="M349.523 322.5c-.591 0-1.194-.141-1.766-.316-2.371-.725-5.469-2.693-5.344-5.645.058-1.408 1.601-3.806 3.032-3.806.504 0 .993.298 1.399 1.039.415.755.273 1.73.638 2.513.453.969 1.527 1.38 2.475 1.799s1.972 1.105 2.063 2.181c.081.96-.685 1.824-1.563 2.1-.304.095-.617.135-.934.135zm5.57-4.898a1.89 1.89 0 0 1-.715-.143c-.784-.322-1.384-1.214-1.208-2.078.126-.625.74-1.084 1.317-1.084.223 0 .44.069.623.222l.857.783c.621.278.729 1.271.282 1.801-.287.342-.718.499-1.156.499z" fill="#b2c9eb"/><path d="M373.93 315.715c1.477 2.6 2.258 5.641 2.258 8.672a17.37 17.37 0 0 1-.172 2.445c-.751 5.232-3.305 9.002-6.845 11.545-3.54 2.534-8.089 3.791-12.703 3.789-5.084.004-10.228-1.525-14.144-4.423-1.791-1.317-3.934-3.685-5.582-6.408-1.658-2.723-2.815-5.808-2.807-8.509.005-1.818.489-3.444 1.67-4.859l-1.348-1.253c-1.498 1.778-2.127 3.933-2.121 6.112.007 3.255 1.319 6.6 3.09 9.526 1.778 2.926 4.021 5.427 6.066 6.94 4.277 3.158 9.754 4.765 15.176 4.767 4.919 0 9.809-1.325 13.715-4.117 3.906-2.783 6.802-7.083 7.612-12.83a19.41 19.41 0 0 0 .192-2.725c-.002-3.373-.864-6.737-2.511-9.641l-1.546.971" class="G"/><path d="M334.82 314.898c-.704 1.544-.982 3.679.304 4.728.259.21.625.353.904.178.21-.133.299-.401.359-.649.279-1.156.276-2.386-.011-3.542-.091-.373-.234-.768-.546-.973s-.825-.077-.889.304m21.104 30.66c2.592.986 6.758-.76 9.456-1.851.427-.173.865-.363 1.18-.713 1.384-1.527-.104-4.183-1.544-4.521-1.003-.234-3.276.706-4.316.926-.81.173-7.189 1.13-7.091 2.405.169 2.156 1.056 3.278 2.315 3.754zm69.606-91c-.704 1.544-.98 3.679.306 4.728.258.21.625.353.904.178.208-.133.297-.401.357-.649a7.52 7.52 0 0 0-.009-3.542c-.093-.373-.235-.768-.548-.973s-.825-.077-.889.304" class="G"/><path d="M387.691 257.477l.154 25.885 19.107 7.208 19.018-7.697-.153-25.648-38.126.252z" class="F"/><path d="M425.817 257.224c.046 7.475-8.454 13.589-18.982 13.658s-19.101-5.933-19.144-13.405 8.453-13.588 18.982-13.658 19.099 5.933 19.144 13.405z" class="F"/><path d="M425.963 281.64c.045 7.474-8.454 13.588-18.983 13.658s-19.099-5.933-19.144-13.406 8.454-13.588 18.982-13.657 19.101 5.933 19.145 13.405z" class="F"/><path d="M422.642 257.247c.036 6.01-7.168 10.93-16.088 10.99s-16.183-4.765-16.219-10.778 7.167-10.93 16.089-10.99 16.182 4.767 16.218 10.778z" class="D"/><path d="M390.475 258.782c-.081-.433-.138-.874-.139-1.323v-.034c-.008-5.997 7.185-10.897 16.088-10.956h.16.002c8.852.004 16.02 4.807 16.056 10.777a7.49 7.49 0 0 1-.125 1.325c-.996-5.345-7.736-9.455-15.918-9.455h-.16c-8.254.056-15.025 4.275-15.964 9.666z" class="D"/><path d="M401.351 264.458c-.591 0-1.193-.139-1.767-.315-2.371-.723-5.469-2.694-5.344-5.645.06-1.407 1.602-3.806 3.031-3.806.505 0 .995.298 1.401 1.041.414.755.272 1.73.636 2.51.453.972 1.528 1.383 2.475 1.802s1.973 1.104 2.066 2.179c.081.959-.688 1.825-1.563 2.099-.306.096-.62.135-.935.135zm5.571-4.898a1.9 1.9 0 0 1-.717-.141c-.784-.321-1.384-1.215-1.209-2.079a1.41 1.41 0 0 1 1.318-1.083.94.94 0 0 1 .623.223l.857.782c.621.276.729 1.269.281 1.802-.287.339-.717.496-1.153.496z" fill="#b5e5c3"/><path d="M425.759 257.675c1.474 2.598 2.256 5.639 2.256 8.672a17.36 17.36 0 0 1-.172 2.445c-.75 5.232-3.306 9.002-6.845 11.545-3.54 2.534-8.088 3.792-12.704 3.79-5.084.002-10.228-1.528-14.143-4.424-1.79-1.319-3.933-3.686-5.583-6.41-1.657-2.723-2.812-5.806-2.805-8.507.004-1.817.489-3.444 1.671-4.858l-1.348-1.254c-1.499 1.778-2.128 3.933-2.122 6.112.006 3.256 1.32 6.601 3.088 9.526 1.779 2.924 4.022 5.427 6.066 6.94 4.278 3.159 9.755 4.766 15.176 4.768 4.92-.002 9.81-1.327 13.715-4.118 3.906-2.785 6.804-7.083 7.612-12.83a19.28 19.28 0 0 0 .193-2.725c0-3.372-.865-6.739-2.511-9.643l-1.544.971z" class="G"/><path d="M386.647 256.857c-.705 1.543-.98 3.679.305 4.727.257.211.623.356.903.179.209-.133.298-.399.359-.649a7.51 7.51 0 0 0-.01-3.54c-.092-.375-.236-.769-.547-.973s-.825-.078-.89.302m21.105 30.662c2.592.983 6.758-.763 9.456-1.853.426-.171.864-.364 1.18-.711 1.385-1.528-.104-4.185-1.545-4.523-1.002-.234-3.275.705-4.315.928-.808.17-7.189 1.128-7.091 2.403.168 2.155 1.055 3.277 2.315 3.756zM271.816 301.11c-.704 1.543-.982 3.678.304 4.727.256.21.625.355.904.179.209-.133.296-.402.359-.65a7.48 7.48 0 0 0-.012-3.539c-.092-.376-.236-.769-.547-.974s-.825-.079-.889.302" class="G"/><path d="M233.853 303.984l.155 25.883 19.107 7.21 19.018-7.696-.153-25.649-38.127.252z" class="F"/><path d="M271.98 303.731c.043 7.473-8.454 13.587-18.982 13.658s-19.099-5.933-19.145-13.405 8.454-13.591 18.982-13.658 19.101 5.933 19.145 13.405z" class="F"/><path d="M272.125 328.147c.045 7.473-8.454 13.589-18.982 13.658s-19.099-5.933-19.144-13.407 8.453-13.589 18.984-13.656 19.099 5.933 19.142 13.405z" class="F"/><path d="M268.803 303.753c.037 6.009-7.167 10.931-16.087 10.989s-16.182-4.765-16.218-10.776 7.166-10.933 16.088-10.99 16.181 4.765 16.217 10.777z" class="J"/><path d="M236.498 303.93c-.007-5.325 5.669-9.79 13.181-10.76-7.512.97-13.186 5.433-13.181 10.76zm16.088-10.954c.055-.002.108-.002.163-.002l-.163.002zm.174-.002z" fill="#42347c"/><path d="M236.638 305.289c-.081-.435-.136-.876-.14-1.325v-.034c-.005-5.327 5.669-9.79 13.181-10.76a23.57 23.57 0 0 1 2.907-.194c.055-.002.108-.002.163-.002 8.852.006 16.02 4.807 16.054 10.779.003.449-.046.888-.123 1.323-.997-5.343-7.734-9.454-15.918-9.454l-.161.002c-8.253.053-15.025 4.272-15.963 9.665z" fill="#d61e5e"/><path d="M247.514 310.966c-.593 0-1.195-.141-1.767-.316-2.372-.725-5.471-2.693-5.345-5.647.06-1.406 1.601-3.804 3.032-3.804.504 0 .993.296 1.401 1.039.413.755.272 1.73.638 2.513.451.969 1.527 1.38 2.473 1.799s1.975 1.105 2.065 2.181c.081.96-.687 1.824-1.563 2.1-.306.095-.619.135-.934.135zm5.569-4.901a1.87 1.87 0 0 1-.716-.141c-.783-.32-1.384-1.215-1.208-2.079a1.41 1.41 0 0 1 1.318-1.083c.222 0 .441.069.623.222l.857.783c.623.276.728 1.271.281 1.802-.287.341-.717.498-1.155.496z" fill="#f39ec0"/><path d="M271.921 304.181c1.475 2.598 2.258 5.641 2.256 8.672 0 .818-.056 1.636-.172 2.445-.749 5.232-3.305 9.002-6.845 11.544-3.538 2.535-8.087 3.792-12.701 3.79-5.086.004-10.23-1.526-14.144-4.424-1.791-1.318-3.934-3.686-5.584-6.409-1.657-2.723-2.813-5.806-2.805-8.508.003-1.817.489-3.444 1.67-4.858l-1.347-1.253c-1.501 1.777-2.128 3.932-2.122 6.111.005 3.256 1.319 6.601 3.088 9.527 1.778 2.925 4.021 5.426 6.066 6.94 4.278 3.158 9.756 4.765 15.178 4.767 4.918-.002 9.807-1.327 13.713-4.118 3.906-2.784 6.804-7.083 7.614-12.829a19.43 19.43 0 0 0 .19-2.725c0-3.373-.864-6.74-2.511-9.642l-1.544.97z" class="G"/><path d="M232.809 303.364c-.704 1.543-.981 3.678.306 4.727.257.211.625.354.904.177.208-.131.297-.399.357-.648a7.47 7.47 0 0 0-.009-3.539c-.093-.376-.236-.771-.548-.975s-.825-.078-.889.303m21.106 30.661c2.592.983 6.756-.763 9.454-1.851.429-.173.865-.366 1.18-.713 1.386-1.528-.104-4.183-1.544-4.521-1.003-.234-3.276.705-4.316.926-.808.17-7.191 1.128-7.09 2.405.168 2.153 1.057 3.275 2.316 3.754zm102.336-180.665c-.705 1.544-.982 3.679.303 4.728.259.21.625.355.905.178.209-.133.298-.401.357-.649a7.47 7.47 0 0 0-.01-3.542c-.092-.373-.236-.768-.547-.971s-.825-.079-.89.302" class="G"/><path d="M318.409 156.277l.155 25.886 19.107 7.208 19.018-7.695-.153-25.651-38.127.252z" class="F"/><path d="M356.536 156.025c.043 7.474-8.454 13.588-18.982 13.658s-19.1-5.931-19.145-13.406 8.454-13.588 18.982-13.655c10.529-.072 19.101 5.931 19.145 13.403z" class="F"/><path d="M356.681 180.441c.045 7.474-8.454 13.588-18.982 13.658s-19.099-5.932-19.144-13.406 8.453-13.588 18.983-13.658 19.1 5.933 19.143 13.406z" class="F"/><path d="M337.112 167.039c-8.848 0-16.022-4.803-16.058-10.778.004.447.059.888.14 1.323.938-5.392 7.71-9.611 15.963-9.667h.161c8.183 0 14.921 4.112 15.92 9.455a7.49 7.49 0 0 0 .121-1.325c-.034-5.971-7.201-10.77-16.038-10.778 8.839.006 16.004 4.807 16.038 10.778.037 6.01-7.167 10.932-16.087 10.99-.052.002-.107.002-.16.002zm-9.122-13.546c-1.429 0-2.971 2.399-3.032 3.805-.125 2.952 2.973 4.922 5.345 5.647.572.175 1.174.316 1.767.316.315 0 .628-.042.934-.137.876-.274 1.644-1.14 1.563-2.097-.09-1.077-1.119-1.762-2.065-2.181s-2.022-.831-2.473-1.8c-.366-.783-.225-1.758-.638-2.513-.406-.742-.897-1.04-1.401-1.04zm9.043 1.565a1.41 1.41 0 0 0-1.318 1.082c-.174.864.425 1.758 1.208 2.08a1.89 1.89 0 0 0 .716.141c.438 0 .868-.157 1.155-.497.447-.532.342-1.523-.281-1.801l-.855-.783c-.184-.155-.403-.222-.625-.222z" fill="url(#B)"/><path d="M321.194 157.584c-.081-.435-.136-.876-.14-1.322v-.036c-.007-5.995 7.185-10.897 16.088-10.956h.162c8.854.007 16.021 4.806 16.055 10.777a7.49 7.49 0 0 1-.121 1.325c-.999-5.343-7.737-9.455-15.92-9.455h-.161c-8.253.056-15.025 4.275-15.963 9.667z" fill="url(#C)"/><path d="M332.07 163.261c-.593 0-1.195-.141-1.767-.316-2.372-.725-5.469-2.695-5.345-5.647.061-1.406 1.603-3.805 3.032-3.805.504 0 .995.298 1.401 1.04.413.755.272 1.731.638 2.513.451.969 1.527 1.381 2.473 1.8s1.974 1.104 2.065 2.181c.081.957-.687 1.823-1.563 2.097-.306.096-.619.137-.934.137z" fill="url(#D)"/><path d="M337.638 158.361c-.243 0-.49-.048-.715-.141-.783-.322-1.382-1.216-1.208-2.08.126-.623.74-1.082 1.317-1.082a.95.95 0 0 1 .625.222l.856.783c.623.278.728 1.269.281 1.802-.287.339-.718.496-1.156.496z" fill="url(#E)"/><path d="M356.477 156.476c1.475 2.598 2.258 5.639 2.256 8.672 0 .818-.056 1.637-.172 2.445-.749 5.23-3.305 9.002-6.845 11.545-3.538 2.534-8.087 3.791-12.701 3.789-5.086.002-10.23-1.527-14.144-4.423-1.791-1.319-3.934-3.687-5.584-6.41-1.657-2.723-2.813-5.806-2.805-8.507.004-1.818.489-3.446 1.67-4.859l-1.347-1.253c-1.501 1.778-2.128 3.933-2.122 6.112.005 3.255 1.319 6.6 3.088 9.526 1.778 2.926 4.021 5.427 6.066 6.94 4.278 3.158 9.756 4.765 15.178 4.767 4.918-.002 9.807-1.327 13.713-4.117s6.804-7.083 7.614-12.832a19.38 19.38 0 0 0 .19-2.723c0-3.373-.864-6.739-2.51-9.641l-1.545.969z" class="G"/><path d="M317.367 155.658c-.706 1.543-.982 3.678.304 4.727.257.211.625.356.904.179.21-.133.297-.401.357-.649.28-1.157.278-2.386-.009-3.54-.093-.373-.236-.769-.548-.973s-.825-.078-.889.302m21.106 30.662c2.592.983 6.757-.763 9.454-1.852.429-.172.865-.365 1.18-.713 1.386-1.527-.104-4.185-1.544-4.522-1.003-.235-3.275.705-4.316.927-.808.171-7.189 1.128-7.09 2.404.168 2.155 1.057 3.277 2.316 3.756z" class="G"/></g><defs><linearGradient id="B" x1="321.054" y1="156.261" x2="353.36" y2="156.068" gradientUnits="userSpaceOnUse"><stop stop-color="#f5b243"/><stop offset=".201" stop-color="#f5b243"/><stop offset=".917" stop-color="#f1b439"/></linearGradient><linearGradient id="C" x1="321.054" y1="156.262" x2="353.36" y2="156.068" gradientUnits="userSpaceOnUse"><stop stop-color="#f38d3d"/><stop offset=".201" stop-color="#f38d3d"/><stop offset=".917" stop-color="#f09034"/></linearGradient><linearGradient id="D" x1="321.054" y1="156.262" x2="353.359" y2="156.068" gradientUnits="userSpaceOnUse"><stop stop-color="#fadeb0"/><stop offset=".201" stop-color="#fadeb0"/><stop offset=".917" stop-color="#f7deab"/></linearGradient><linearGradient id="E" x1="321.054" y1="156.262" x2="353.36" y2="156.068" gradientUnits="userSpaceOnUse"><stop stop-color="#fadeb0"/><stop offset=".201" stop-color="#fadeb0"/><stop offset=".917" stop-color="#f7deab"/></linearGradient></defs></svg>