<svg xmlns="http://www.w3.org/2000/svg" width="28" height="28" fill="none" xmlns:v="https://vecta.io/nano"><g fill="#fff"><path d="M0 14C0 6.268 6.268 0 14 0s14 6.268 14 14-6.268 14-14 14S0 21.732 0 14z"/><circle cx="14" cy="14" r="13.5" stroke="#ff424d"/></g><path d="M10.447 7.486c-2.575 0-4.662 2.087-4.662 4.662 0 2.581 1.032 3.872 5.352 7.232l1.985 1.544a1.43 1.43 0 0 0 1.754 0l1.985-1.544c4.32-3.36 5.352-4.652 5.352-7.232 0-2.575-2.087-4.662-4.662-4.662-1.337 0-2.527.607-3.553 1.776-1.026-1.169-2.216-1.776-3.553-1.776zm0 1.429c1.085 0 2.063.613 2.965 1.917l.147.212c.168.243.502.304.745.136.053-.037.099-.083.136-.136l.147-.212c.902-1.304 1.88-1.917 2.965-1.917 1.786 0 3.233 1.448 3.233 3.233 0 1.986-.812 3.003-4.801 6.105L14 19.796l-1.985-1.544c-3.988-3.102-4.801-4.119-4.801-6.105 0-1.786 1.447-3.233 3.233-3.233z" fill="#ff424d"/></svg>