<svg width="20" height="21" viewBox="0 0 20 21" fill="none" xmlns="http://www.w3.org/2000/svg">
<path d="M7.77728 1.30196C7.93292 0.917281 8.19989 0.587849 8.54397 0.355886C8.88805 0.123923 9.29356 0 9.70853 0C10.1235 0 10.529 0.123923 10.8731 0.355886C11.2172 0.587849 11.4841 0.917281 11.6398 1.30196C13.1801 1.72558 14.5389 2.64316 15.5072 3.91376C16.4756 5.18437 17.0001 6.73773 17.0002 8.33529V13.228L18.9085 16.0905C19.0132 16.2474 19.0733 16.4297 19.0825 16.6181C19.0916 16.8064 19.0495 16.9938 18.9605 17.16C18.8715 17.3263 18.7391 17.4653 18.5773 17.5622C18.4155 17.6591 18.2304 17.7103 18.0419 17.7103H13.3179C13.1925 18.5781 12.7586 19.3717 12.0957 19.9456C11.4328 20.5196 10.5854 20.8355 9.70853 20.8355C8.8317 20.8355 7.98422 20.5196 7.32134 19.9456C6.65846 19.3717 6.22457 18.5781 6.09915 17.7103H1.3752C1.18661 17.7103 1.00155 17.6591 0.839771 17.5622C0.677987 17.4653 0.545546 17.3263 0.456578 17.16C0.367609 16.9938 0.325451 16.8064 0.334601 16.6181C0.343751 16.4297 0.403865 16.2474 0.50853 16.0905L2.41686 13.228V8.33529C2.41686 4.97696 4.6877 2.14779 7.77728 1.30196ZM8.23561 17.7103C8.3432 18.0151 8.54268 18.2791 8.80658 18.4658C9.07047 18.6525 9.38578 18.7528 9.70905 18.7528C10.0323 18.7528 10.3476 18.6525 10.6115 18.4658C10.8754 18.2791 11.0749 18.0151 11.1825 17.7103H8.23457H8.23561ZM9.70853 3.12696C8.32719 3.12696 7.00243 3.67569 6.02568 4.65244C5.04893 5.62919 4.5002 6.95395 4.5002 8.33529V13.5436C4.50024 13.7494 4.43935 13.9506 4.3252 14.1217L3.32207 15.627H16.0939L15.0908 14.1217C14.977 13.9504 14.9165 13.7493 14.9169 13.5436V8.33529C14.9169 6.95395 14.3681 5.62919 13.3914 4.65244C12.4146 3.67569 11.0899 3.12696 9.70853 3.12696V3.12696Z" fill="white"/>
</svg>
