<svg xmlns="http://www.w3.org/2000/svg" width="50" height="50" fill="none" xmlns:v="https://vecta.io/nano"><path d="M29.122 5.357c4.624 0 6.818.424 9.096 1.642a11.52 11.52 0 0 1 4.783 4.783c1.218 2.278 1.642 4.472 1.642 9.096v8.244c0 4.624-.424 6.818-1.642 9.096a11.52 11.52 0 0 1-4.783 4.783c-2.278 1.218-4.472 1.642-9.096 1.642h-8.244c-4.624 0-6.818-.424-9.096-1.642a11.52 11.52 0 0 1-4.783-4.783c-1.218-2.278-1.642-4.472-1.642-9.096v-8.244c0-4.624.424-6.818 1.642-9.096a11.52 11.52 0 0 1 4.783-4.783c2.278-1.218 4.472-1.642 9.096-1.642h8.244zm2.984 22.218l-7.504 9.263c-.627.774-1.766.885-2.531.248l-4.104-3.42-5.532 5.533c.323.24.667.457 1.032.652 1.69.904 3.327 1.22 7.412 1.22h8.244c4.085 0 5.722-.316 7.412-1.22a7.95 7.95 0 0 0 3.318-3.318 8.63 8.63 0 0 0 .645-1.519l-8.391-7.44zM29.122 8.928h-8.244c-4.085 0-5.722.316-7.412 1.22a7.95 7.95 0 0 0-3.318 3.318c-.904 1.69-1.22 3.327-1.22 7.412v8.244c0 4.03.308 5.677 1.184 7.344l6.482-6.479c.653-.653 1.696-.7 2.406-.109l3.966 3.305 7.539-9.307c.64-.791 1.811-.887 2.572-.212l7.973 7.069.02-1.61v-8.244c0-4.085-.316-5.722-1.22-7.412a7.95 7.95 0 0 0-3.318-3.318c-1.69-.904-3.327-1.22-7.412-1.22zM18.75 16.071a2.68 2.68 0 0 1 2.679 2.679 2.68 2.68 0 0 1-2.679 2.679 2.68 2.68 0 0 1-2.679-2.679 2.68 2.68 0 0 1 2.679-2.679z" fill="#fff"/></svg>