<svg xmlns="http://www.w3.org/2000/svg" width="28" height="28" xmlns:v="https://vecta.io/nano"><path d="M9.026 4.88A6.53 6.53 0 0 0 2.5 11.406c0 3.613 1.445 5.421 7.493 10.125l2.779 2.161a2 2 0 0 0 2.456 0l2.779-2.161c6.048-4.704 7.493-6.512 7.493-10.125a6.53 6.53 0 0 0-6.526-6.526c-1.872 0-3.538.85-4.974 2.487C12.564 5.73 10.898 4.88 9.026 4.88zm0 2c1.519 0 2.889.858 4.151 2.683l.206.297a.75.75 0 0 0 1.234 0l.206-.297h0c1.263-1.826 2.632-2.683 4.151-2.683 2.5 0 4.526 2.027 4.526 4.526 0 2.78-1.137 4.204-6.721 8.547L14 22.114l-2.779-2.161C5.637 15.61 4.5 14.187 4.5 11.406c0-2.5 2.027-4.526 4.526-4.526z" fill="#000" fill-rule="nonzero"/></svg>