<svg xmlns="http://www.w3.org/2000/svg" width="28" height="28" xmlns:v="https://vecta.io/nano"><path d="M14 2a6 6 0 0 1 6 6l.002 2.023c.843.052 1.381.2 1.935.496.663.355 1.19.881 1.544 1.544.385.72.519 1.413.519 2.783v6.308c0 1.37-.134 2.062-.519 2.783-.355.663-.881 1.19-1.544 1.544-.72.385-1.413.519-2.783.519H8.846c-1.37 0-2.062-.134-2.783-.519-.663-.355-1.19-.881-1.544-1.544-.385-.72-.519-1.413-.519-2.783v-6.308c0-1.37.134-2.062.519-2.783.355-.663.881-1.19 1.544-1.544.555-.297 1.092-.444 1.936-.496L8 8a6 6 0 0 1 6-6zm5.154 10H8.846c-1.068 0-1.449.073-1.839.283-.315.168-.556.409-.724.724-.209.391-.283.771-.283 1.839v6.308c0 1.068.073 1.449.283 1.839.168.315.409.556.724.724.391.209.771.283 1.839.283h10.308c1.068 0 1.449-.073 1.839-.283.315-.168.556-.409.724-.724.209-.391.283-.771.283-1.839v-6.308c0-1.068-.073-1.449-.283-1.839-.168-.315-.409-.556-.724-.724-.391-.209-.771-.283-1.839-.283zM14 15a1 1 0 0 1 1 1v3a1 1 0 1 1-2 0v-3a1 1 0 0 1 1-1zm0-11a4 4 0 0 0-4 4v2h8V8a4 4 0 0 0-4-4z" fill="#000" fill-rule="nonzero"/></svg>