<svg xmlns="http://www.w3.org/2000/svg" fill="none" height="24" width="24" xmlns:v="https://vecta.io/nano"><path d="M16.716 4.105l1.316-.246c.299-.035.409-.012.457.004a.9.9 0 0 1 .486.395c.026.044.071.146.097.446s.028.705.028 1.314L8.9 8.143v-.54l.018-1.025c.017-.227.046-.327.073-.389a1.1 1.1 0 0 1 .374-.46c.055-.039.147-.088.366-.151a15.49 15.49 0 0 1 .999-.227zM7.1 15.1h-.2c-1.795 0-3.125.452-4.021 1.215a3.54 3.54 0 0 0-1.279 2.71c0 1.864 1.511 3.375 3.375 3.375a3.54 3.54 0 0 0 2.71-1.279C8.448 20.225 8.9 18.895 8.9 17.1V16v-.9-5.118l10.2-2.125V13.1h-.2c-1.795 0-3.125.452-4.021 1.215a3.54 3.54 0 0 0-1.279 2.71c0 1.864 1.511 3.375 3.375 3.375a3.54 3.54 0 0 0 2.71-1.279c.763-.896 1.215-2.226 1.215-4.021V14v-.9-7.057-.039l-.035-1.457c-.036-.412-.116-.824-.34-1.204a2.7 2.7 0 0 0-1.457-1.185c-.417-.142-.837-.136-1.248-.087-.395.047-.872.146-1.434.263l-.038.008-5.985 1.247-.03.006-1.098.252c-.32.092-.624.21-.909.411a2.9 2.9 0 0 0-.987 1.214c-.139.319-.192.642-.217.973-.023.313-.023.689-.023 1.126v.031zm8.946.585c-.473.403-.646.901-.646 1.34 0 .87.705 1.575 1.575 1.575.439 0 .937-.173 1.34-.646.408-.479.785-1.349.785-2.854v-.2h-.2c-1.505 0-2.375.377-2.854.785zM3.4 19.025c0-.439.173-.937.646-1.34.479-.408 1.349-.785 2.854-.785h.2v.2c0 1.505-.377 2.375-.785 2.854-.402.473-.901.646-1.34.646-.87 0-1.575-.705-1.575-1.575z" fill="#000" fill-rule="evenodd"/></svg>