<svg xmlns="http://www.w3.org/2000/svg" width="28" height="28" xmlns:v="https://vecta.io/nano"><path d="M16.308 3c2.589 0 3.818.237 5.094.92a6.45 6.45 0 0 1 2.678 2.678c.682 1.276.92 2.504.92 5.094v4.617c0 2.589-.237 3.818-.92 5.094a6.45 6.45 0 0 1-2.678 2.678c-1.276.682-2.504.92-5.094.92h-4.617c-2.589 0-3.818-.237-5.094-.92a6.45 6.45 0 0 1-2.678-2.678C3.237 20.126 3 18.898 3 16.308v-4.617c0-2.589.237-3.818.92-5.094A6.45 6.45 0 0 1 6.598 3.92C7.874 3.237 9.102 3 11.692 3h4.617zm1.671 12.442l-4.202 5.188a1 1 0 0 1-1.417.139h0l-2.298-1.915-3.098 3.099c.181.134.374.256.578.365.947.506 1.863.683 4.151.683h4.617c2.287 0 3.204-.177 4.151-.683a4.45 4.45 0 0 0 1.858-1.858c.147-.275.266-.547.361-.851l-4.699-4.166zM16.308 5h-4.617c-2.287 0-3.204.177-4.151.683a4.45 4.45 0 0 0-1.858 1.858C5.177 8.488 5 9.404 5 11.692v4.617c0 2.257.172 3.179.663 4.113l3.63-3.628a1 1 0 0 1 1.347-.061h0l2.221 1.851 4.222-5.212a1 1 0 0 1 1.44-.119h0l4.465 3.958.011-.902v-4.617c0-2.287-.177-3.204-.683-4.151a4.45 4.45 0 0 0-1.858-1.858C19.512 5.177 18.596 5 16.308 5zM10.5 9a1.5 1.5 0 1 1 0 3 1.5 1.5 0 1 1 0-3z" fill="#000" fill-rule="nonzero"/></svg>